<svg width="180" height="55" viewBox="0 0 180 55" fill="none" xmlns="http://www.w3.org/2000/svg">
<path d="M33.9131 29.488C40.2044 29.488 45.3046 24.667 45.3046 18.7199C45.3046 12.7729 40.2044 7.9519 33.9131 7.9519C27.6217 7.9519 22.5215 12.7729 22.5215 18.7199C22.5215 24.667 27.6217 29.488 33.9131 29.488Z" fill="#01FF66"/>
<path d="M33.9126 33.0774C24.4798 33.0873 16.8357 40.313 16.8252 49.2295C16.8252 50.2206 17.6752 51.0241 18.7238 51.0241H49.1012C50.1498 51.0241 50.9998 50.2206 50.9998 49.2295C50.9894 40.313 43.3453 33.0872 33.9126 33.0774Z" fill="#01FF66"/>
<path d="M36.1782 13.75C36.1782 20.9592 29.9079 26.875 22.0818 26.875C14.2557 26.875 7.98535 20.9592 7.98535 13.75C7.98535 6.54076 14.2557 0.625 22.0818 0.625C29.9079 0.625 36.1782 6.54076 36.1782 13.75Z" stroke="black" stroke-width="1.25"/>
<path d="M2.45354 54.3751C1.40292 54.3751 0.625212 53.5897 0.625 52.7089C0.638335 41.7076 10.1965 32.7212 22.0822 32.7085C33.968 32.7211 43.5261 41.7077 43.5392 52.7091C43.5388 53.5898 42.7612 54.3751 41.7107 54.3751H2.45354Z" stroke="black" stroke-width="1.25"/>
<path d="M69.5402 11.207H66.5918V13.2497H69.1601V14.6937H66.5918V17.6756H64.8066V9.76306H69.5402V11.207Z" fill="#01FF66"/>
<path d="M70.6323 17.6756V11.7236H72.3138V17.6756H70.6323ZM70.782 10.7022C70.5901 10.5066 70.4941 10.2718 70.4941 9.99787C70.4941 9.72394 70.5901 9.48915 70.782 9.29349C70.974 9.09783 71.2043 9 71.473 9C71.7418 9 71.9721 9.09783 72.1641 9.29349C72.356 9.48915 72.452 9.72394 72.452 9.99787C72.452 10.2718 72.356 10.5066 72.1641 10.7022C71.9721 10.8979 71.7418 10.9957 71.473 10.9957C71.2043 10.9957 70.974 10.8979 70.782 10.7022Z" fill="#01FF66"/>
<path d="M75.4393 11.7236V12.7332C75.5851 12.4045 75.8078 12.1462 76.1072 11.9584C76.4144 11.7627 76.7791 11.6649 77.2014 11.6649C77.8003 11.6649 78.2686 11.8488 78.6065 12.2166C78.9443 12.5767 79.1132 13.1089 79.1132 13.8132V17.6756H77.4317V14.1302C77.4317 13.778 77.3511 13.5119 77.1899 13.3319C77.0286 13.1441 76.8021 13.0502 76.5103 13.0502C76.2032 13.0502 75.946 13.1754 75.7387 13.4258C75.5391 13.6684 75.4393 14.0363 75.4393 14.5293V17.6756H73.7578V11.7236H75.4393Z" fill="#01FF66"/>
<path d="M83.0191 17.7695C82.1054 17.7695 81.399 17.4916 80.9 16.936C80.4009 16.3725 80.1514 15.6524 80.1514 14.7759C80.1514 13.8602 80.4124 13.1089 80.9345 12.5219C81.4566 11.927 82.1515 11.6296 83.0191 11.6296C83.9251 11.6296 84.6277 11.9153 85.1268 12.4867C85.6258 13.058 85.8754 13.7858 85.8754 14.6702C85.8754 15.5703 85.622 16.3138 85.1152 16.9007C84.6162 17.4799 83.9175 17.7695 83.0191 17.7695ZM83.0076 12.9797C82.6391 12.9797 82.3626 13.1402 82.1784 13.461C81.9941 13.7819 81.902 14.1967 81.902 14.7054C81.902 15.2142 81.9941 15.6329 82.1784 15.9616C82.3703 16.2825 82.6544 16.4429 83.0306 16.4429C83.3992 16.4429 83.6718 16.2864 83.8484 15.9733C84.0326 15.6524 84.1248 15.2376 84.1248 14.7289C84.1248 13.5628 83.7524 12.9797 83.0076 12.9797Z" fill="#01FF66"/>
<path d="M87.0312 17.6755V9.37561H88.7128V17.6755H87.0312Z" fill="#01FF66"/>
<path d="M92.736 17.7695C91.8223 17.7695 91.1159 17.4916 90.6168 16.936C90.1178 16.3725 89.8682 15.6524 89.8682 14.7759C89.8682 13.8602 90.1293 13.1089 90.6514 12.5219C91.1735 11.927 91.8684 11.6296 92.736 11.6296C93.642 11.6296 94.3446 11.9153 94.8436 12.4867C95.3427 13.058 95.5922 13.7858 95.5922 14.6702C95.5922 15.5703 95.3389 16.3138 94.8321 16.9007C94.333 17.4799 93.6343 17.7695 92.736 17.7695ZM92.7245 12.9797C92.3559 12.9797 92.0795 13.1402 91.8952 13.461C91.711 13.7819 91.6188 14.1967 91.6188 14.7054C91.6188 15.2142 91.711 15.6329 91.8952 15.9616C92.0872 16.2825 92.3713 16.4429 92.7475 16.4429C93.1161 16.4429 93.3886 16.2864 93.5652 15.9733C93.7495 15.6524 93.8416 15.2376 93.8416 14.7289C93.8416 13.5628 93.4693 12.9797 92.7245 12.9797Z" fill="#01FF66"/>
<path d="M99.2822 16.1142C99.6432 16.1142 99.9242 15.9772 100.123 15.7033C100.33 15.4216 100.434 15.085 100.434 14.6937C100.434 13.6293 100.054 13.0971 99.2942 13.0971C98.9562 13.0971 98.6912 13.2302 98.4992 13.4963C98.3072 13.7624 98.2112 14.1302 98.2112 14.5998C98.2112 15.0928 98.3032 15.4685 98.4882 15.7268C98.6722 15.9851 98.9372 16.1142 99.2822 16.1142ZM100.434 11.7236H102.104V17.1003C102.104 18.0551 101.824 18.7713 101.263 19.2487C100.703 19.7339 100 19.9765 99.1562 19.9765C98.3342 19.9765 97.6165 19.8278 97.0022 19.5304V17.7812C97.5397 18.2195 98.2002 18.4386 98.9832 18.4386C99.4902 18.4386 99.8582 18.3291 100.089 18.1099C100.319 17.8908 100.434 17.5464 100.434 17.0768V16.6777C100.096 17.2099 99.5592 17.476 98.8222 17.476C98.1772 17.476 97.6203 17.2334 97.152 16.7481C96.6913 16.2629 96.4609 15.5429 96.4609 14.588C96.4609 13.7428 96.6836 13.0462 97.1289 12.4984C97.5819 11.9427 98.1732 11.6649 98.9022 11.6649C99.5932 11.6649 100.104 11.9467 100.434 12.5101V11.7236Z" fill="#01FF66"/>
<path d="M105.052 17.5816L102.795 11.7236H104.626L105.259 13.5784C105.421 14.0559 105.551 14.4667 105.651 14.8111C105.758 15.1555 105.824 15.3824 105.847 15.492L105.881 15.6563C105.966 15.3433 106.173 14.6507 106.503 13.5784L107.079 11.7236H108.807L106.699 17.4995C106.092 19.1665 105.167 20 103.923 20C103.685 20 103.47 19.9804 103.278 19.9413V18.5795C103.401 18.6108 103.532 18.6265 103.67 18.6265C104.307 18.6265 104.768 18.2782 105.052 17.5816Z" fill="#01FF66"/>
<path d="M73.9193 39.76H66.9593L64.8893 46H60.4793L67.9493 25.3H73.1393L80.4593 46H75.9593L73.9193 39.76ZM70.4693 28.84L68.0093 36.49H72.8693L70.4693 28.84ZM88.917 29.62C93.237 29.62 95.907 32.26 96.207 35.8H92.127C91.737 33.49 90.537 32.53 88.827 32.53C86.727 32.53 85.227 34.24 85.227 37.87C85.227 41.83 86.727 43.51 88.797 43.51C90.417 43.51 91.617 42.49 92.037 40.48H96.177C95.487 44.41 92.547 46.42 88.557 46.42C84.207 46.42 80.937 43.66 80.937 38.14C80.937 32.68 84.537 29.62 88.917 29.62ZM105.733 29.62C110.053 29.62 112.723 32.26 113.023 35.8H108.943C108.553 33.49 107.353 32.53 105.643 32.53C103.543 32.53 102.043 34.24 102.043 37.87C102.043 41.83 103.543 43.51 105.613 43.51C107.233 43.51 108.433 42.49 108.853 40.48H112.993C112.303 44.41 109.363 46.42 105.373 46.42C101.023 46.42 97.7534 43.66 97.7534 38.14C97.7534 32.68 101.353 29.62 105.733 29.62ZM122.85 29.62C128.16 29.62 131.13 33.16 131.13 38.02C131.13 42.85 128.16 46.42 122.85 46.42C117.54 46.42 114.57 42.85 114.57 38.02C114.57 33.16 117.54 29.62 122.85 29.62ZM122.85 43.51C125.34 43.51 126.84 41.44 126.84 38.02C126.84 34.57 125.34 32.53 122.85 32.53C120.36 32.53 118.86 34.57 118.86 38.02C118.86 41.44 120.36 43.51 122.85 43.51ZM148.573 30.04V46H144.433V43.3L143.203 45.34C142.033 46.12 140.893 46.42 139.363 46.42C136.063 46.42 134.083 44.56 133.723 42.37C133.603 41.56 133.573 40.75 133.573 39.46V30.04H137.713V38.59C137.713 39.1 137.743 39.97 137.833 40.78C138.043 42.43 139.003 43.48 140.923 43.48C142.993 43.48 144.433 41.77 144.433 38.17V30.04H148.573ZM167.268 34.09C167.358 34.9 167.388 35.71 167.388 37V46H163.248V37.57C163.248 36.91 163.248 36.16 163.188 35.35C163.068 33.67 162.138 32.53 160.128 32.53C158.118 32.53 156.528 34.27 156.528 38.71V46H152.388V30.04H156.528V32.62L157.758 30.73C158.898 29.92 160.068 29.62 161.598 29.62C164.988 29.62 166.938 31.3 167.268 34.09ZM175.971 32.89V40.27C175.971 40.81 175.971 41.26 176.001 41.68C176.121 43.24 176.691 43.6 179.001 43.42V46.12C178.071 46.27 177.201 46.33 176.271 46.33C173.181 46.33 172.071 45.31 171.891 43.06C171.831 42.34 171.831 41.65 171.831 40.75V32.89H169.491V30.16H171.831V26.23H175.971V30.16H179.271V32.89H175.971Z" fill="black"/>
</svg>
