<svg width="100" height="100" viewBox="0 0 100 100" fill="none" xmlns="http://www.w3.org/2000/svg">
<path d="M51.2627 67.0376H55.7111V75.2704H51.2627V67.0376Z" fill="#01FF66"/>
<path d="M64.8437 38.3682C59.6073 38.3682 54.4886 39.9209 50.1347 42.8301C45.7808 45.7393 42.3874 49.8742 40.3835 54.7119C38.3796 59.5497 37.8553 64.8731 38.8769 70.0088C39.8985 75.1446 42.42 79.8621 46.1227 83.5647C49.8253 87.2674 54.5428 89.7889 59.6786 90.8105C64.8143 91.8321 70.1377 91.3078 74.9755 89.3039C79.8132 87.3 83.9481 83.9066 86.8573 79.5527C89.7665 75.1988 91.3192 70.0801 91.3192 64.8437C91.3112 57.8244 88.5193 51.0949 83.5559 46.1315C78.5925 41.1681 71.863 38.3762 64.8437 38.3682ZM81.5505 75.27C81.5495 76.0985 81.2199 76.8927 80.6341 77.4785C80.0483 78.0644 79.254 78.394 78.4255 78.395H78.395V79.8675C78.3937 80.8157 78.0165 81.7246 77.346 82.3951C76.6755 83.0656 75.7666 83.4428 74.8184 83.4442H66.7373C66.3229 83.4442 65.9255 83.2795 65.6325 82.9865C65.3394 82.6935 65.1748 82.2961 65.1748 81.8817C65.1748 81.4673 65.3394 81.0698 65.6325 80.7768C65.9255 80.4838 66.3229 80.3192 66.7373 80.3192H74.8184C74.9381 80.3189 75.0528 80.2712 75.1375 80.1866C75.2221 80.1019 75.2698 79.9872 75.27 79.8675V78.395H73.9776C73.1491 78.394 72.3549 78.0644 71.7691 77.4785C71.1833 76.8927 70.8537 76.0985 70.8526 75.27V67.0379C70.8537 66.2094 71.1833 65.4152 71.7691 64.8294C72.3549 64.2436 73.1491 63.914 73.9776 63.9129H75.27V59.7961C75.27 57.0309 74.1716 54.3789 72.2162 52.4236C70.2609 50.4682 67.6089 49.3698 64.8437 49.3698C62.0785 49.3698 59.4265 50.4682 57.4712 52.4236C55.5159 54.3789 54.4174 57.0309 54.4174 59.7961V63.9129H55.7098C56.5383 63.914 57.3325 64.2436 57.9183 64.8294C58.5041 65.4152 58.8337 66.2094 58.8348 67.0379V75.27C58.8337 76.0985 58.5041 76.8927 57.9183 77.4785C57.3325 78.0644 56.5383 78.394 55.7098 78.395H51.2619C50.4334 78.3941 49.639 78.0645 49.0532 77.4787C48.4674 76.8928 48.1378 76.0985 48.1369 75.27V67.0379C48.1378 66.2094 48.4674 65.4151 49.0532 64.8293C49.639 64.2434 50.4334 63.9139 51.2619 63.9129H51.2924V59.7961C51.2924 58.0165 51.6429 56.2543 52.3239 54.6102C53.0049 52.9661 54.0031 51.4722 55.2615 50.2138C56.5198 48.9555 58.0137 47.9573 59.6578 47.2763C61.302 46.5953 63.0641 46.2448 64.8437 46.2448C66.6233 46.2448 68.3855 46.5953 70.0296 47.2763C71.6737 47.9573 73.1676 48.9555 74.4259 50.2138C75.6843 51.4722 76.6825 52.9661 77.3635 54.6102C78.0445 56.2543 78.395 58.0165 78.395 59.7961V63.9129H78.4255C79.254 63.914 80.0483 64.2436 80.6341 64.8294C81.2199 65.4152 81.5495 66.2094 81.5505 67.0379V75.27Z" fill="#01FF66"/>
<path d="M73.9785 67.0376H78.427V75.2704H73.9785V67.0376Z" fill="#01FF66"/>
<path d="M64.8438 31.25C58.1996 31.25 51.7045 33.2202 46.1801 36.9116C40.6556 40.6029 36.3498 45.8495 33.8072 51.988C31.2646 58.1264 30.5993 64.881 31.8955 71.3976C33.1917 77.9141 36.3912 83.8999 41.0894 88.5981C45.7876 93.2963 51.7734 96.4958 58.29 97.792C64.8065 99.0882 71.5611 98.423 77.6995 95.8803C83.838 93.3377 89.0846 89.0319 92.776 83.5074C96.4673 77.983 98.4375 71.488 98.4375 64.8437C98.4275 55.9372 94.8849 47.3983 88.5871 41.1005C82.2892 34.8026 73.7503 31.26 64.8438 31.25ZM64.8438 94.4443C58.9893 94.4443 53.2664 92.7082 48.3986 89.4557C43.5308 86.2031 39.7368 81.5802 37.4964 76.1714C35.256 70.7626 34.6699 64.8109 35.812 59.069C36.9541 53.327 39.7733 48.0527 43.913 43.913C48.0527 39.7733 53.327 36.9541 59.069 35.812C64.8109 34.6698 70.7626 35.256 76.1714 37.4964C81.5802 39.7368 86.2032 43.5308 89.4557 48.3986C92.7083 53.2664 94.4443 58.9893 94.4443 64.8437C94.4355 72.6916 91.314 80.2155 85.7648 85.7647C80.2155 91.314 72.6916 94.4355 64.8438 94.4443Z" fill="#01FF66"/>
<path d="M74.4385 1.5625H44.751C43.5082 1.56386 42.3167 2.05815 41.4379 2.93694C40.5591 3.81572 40.0648 5.00721 40.0635 6.25V28.125C40.0648 29.3678 40.5591 30.5593 41.4379 31.4381C42.3167 32.3168 43.5082 32.8111 44.751 32.8125H47.876V37.5C47.8765 37.7762 47.9502 38.0474 48.0895 38.2859C48.2289 38.5245 48.4289 38.7218 48.6693 38.8579C48.9097 38.994 49.1818 39.0641 49.458 39.0609C49.7342 39.0577 50.0047 38.9814 50.2419 38.8397L60.2936 32.8125H74.4385C75.6813 32.8111 76.8728 32.3168 77.7515 31.4381C78.6303 30.5593 79.1246 29.3678 79.126 28.125V6.25C79.1246 5.00721 78.6303 3.81572 77.7515 2.93694C76.8728 2.05815 75.6813 1.56386 74.4385 1.5625ZM59.8602 29.6875C59.5769 29.687 59.2988 29.7641 59.0561 29.9103L51.001 34.7412V31.25C51.001 31.0448 50.9606 30.8416 50.8821 30.652C50.8036 30.4624 50.6886 30.2901 50.5434 30.145C50.3983 29.9999 50.2261 29.8848 50.0365 29.8063C49.8469 29.7278 49.6437 29.6874 49.4385 29.6875H47.443C48.756 25.1938 53.7359 21.875 59.5947 21.875C65.4535 21.875 70.4334 25.1938 71.747 29.6875H59.8602ZM55.6885 14.8438C55.6885 14.0712 55.9176 13.3159 56.3468 12.6736C56.776 12.0312 57.3861 11.5305 58.0999 11.2348C58.8136 10.9392 59.5991 10.8618 60.3568 11.0126C61.1145 11.1633 61.8106 11.5353 62.3569 12.0816C62.9032 12.6279 63.2752 13.3239 63.4259 14.0817C63.5766 14.8394 63.4993 15.6248 63.2036 16.3386C62.908 17.0524 62.4073 17.6625 61.7649 18.0917C61.1225 18.5209 60.3673 18.75 59.5947 18.75C58.559 18.749 57.566 18.3372 56.8336 17.6048C56.1013 16.8725 55.6894 15.8795 55.6885 14.8438ZM76.001 28.125C75.9991 28.4484 75.8961 28.7631 75.7064 29.025C75.5166 29.287 75.2497 29.4829 74.943 29.5855C74.2915 27.1624 73.0098 24.9553 71.2282 23.1885C69.4467 21.4217 67.2289 20.1584 64.8005 19.5272C65.7159 18.5189 66.3189 17.2665 66.5361 15.9222C66.7533 14.5778 66.5754 13.1993 66.0241 11.954C65.4728 10.7088 64.5717 9.6505 63.4304 8.90763C62.289 8.16475 60.9565 7.7693 59.5947 7.7693C58.2329 7.7693 56.9004 8.16475 55.7591 8.90763C54.6177 9.6505 53.7167 10.7088 53.1653 11.954C52.614 13.1993 52.4362 14.5778 52.6534 15.9222C52.8706 17.2665 53.4735 18.5189 54.3889 19.5272C51.9606 20.1585 49.7429 21.4218 47.9615 23.1886C46.1801 24.9554 44.8985 27.1626 44.2472 29.5855C43.9403 29.4831 43.6732 29.2871 43.4834 29.0252C43.2935 28.7633 43.1904 28.4485 43.1885 28.125V6.25C43.1889 5.83573 43.3536 5.43854 43.6466 5.1456C43.9395 4.85267 44.3367 4.68791 44.751 4.6875H74.4385C74.8528 4.68778 75.2501 4.85249 75.543 5.14545C75.836 5.43842 76.0007 5.83568 76.001 6.25V28.125Z" fill="black"/>
<path d="M64.4574 49.9159C64.0896 49.5892 63.661 49.3382 63.1961 49.1773C62.7312 49.0165 62.2391 48.9488 61.748 48.9783C61.257 49.0078 60.7765 49.1338 60.3342 49.3491C59.8919 49.5645 59.4963 49.8649 59.1703 50.2332L57.8443 51.7286C56.3026 53.4636 54.1357 54.5162 51.8189 54.6555C49.5021 54.7948 47.2246 54.0094 45.4862 52.4717L29.4988 38.2978C28.638 37.5355 27.9359 36.6111 27.4326 35.5773C26.9293 34.5435 26.6347 33.4207 26.5656 32.2729C26.4965 31.1252 26.6543 29.9752 27.03 28.8885C27.4056 27.8018 27.9918 26.7998 28.7549 25.9397L30.0824 24.4444C30.7391 23.6997 31.0742 22.7253 31.0144 21.7343C30.9547 20.7432 30.5049 19.8161 29.7635 19.1557L17.8769 8.61795C17.5089 8.29134 17.0802 8.04049 16.6151 7.87973C16.1501 7.71898 15.658 7.65149 15.1668 7.68111C14.6757 7.71073 14.1952 7.83688 13.7529 8.05236C13.3106 8.26784 12.9151 8.5684 12.589 8.93687L7.74357 14.401C3.42253 19.2857 1.21558 25.685 1.60691 32.1949C1.99825 38.7048 4.95591 44.7936 9.83099 49.1255L37.0916 73.2939C41.9761 77.6151 48.3755 79.8221 54.8854 79.4305C61.3953 79.0388 67.4839 76.0806 71.8152 71.2049L76.6614 65.7408C76.9882 65.3729 77.2391 64.9442 77.4 64.4793C77.5608 64.0143 77.6284 63.5221 77.5988 63.031C77.5691 62.5399 77.4429 62.0594 77.2274 61.6172C77.0118 61.1749 76.7111 60.7795 76.3425 60.4536L64.4574 49.9159ZM15.8033 10.9556L27.6891 21.4933C27.8124 21.6026 27.8873 21.7564 27.8975 21.9208C27.9077 22.0853 27.8522 22.2471 27.7433 22.3707L26.4173 23.866C26.1159 24.2096 25.8344 24.57 25.5739 24.9455L12.6946 13.5266L14.9274 11.009C15.0365 10.8859 15.19 10.8111 15.3543 10.801C15.5185 10.791 15.68 10.8466 15.8033 10.9556ZM69.4776 69.1328C65.6958 73.3878 60.3808 75.9694 54.6984 76.3112C49.0159 76.653 43.4298 74.7272 39.1652 70.9562L11.9046 46.7878C7.64885 43.006 5.06684 37.6906 4.72501 32.0075C4.38317 26.3245 6.30942 20.7379 10.0812 16.4732L10.6211 15.8645L24.0943 27.8099C23.3117 30.0367 23.2107 32.4462 23.8039 34.7306C24.3972 37.0151 25.6579 39.0709 27.4251 40.6355L43.4125 54.8094C45.1788 56.3722 47.3701 57.3742 49.7075 57.6882C52.0449 58.0022 54.4229 57.6139 56.5391 56.5727L70.0185 68.5229L69.4776 69.1328ZM74.3238 63.6686L72.0912 66.1858L59.2116 54.7673C59.5533 54.464 59.8773 54.1412 60.182 53.8007L61.508 52.3054C61.6178 52.1828 61.7716 52.1085 61.936 52.0988C62.1003 52.0891 62.2618 52.1447 62.3853 52.2535L74.2704 62.7928C74.3935 62.9019 74.4682 63.0554 74.4783 63.2196C74.4883 63.3839 74.4327 63.5453 74.3238 63.6686Z" fill="black"/>
</svg>
