<svg width="100" height="100" viewBox="0 0 100 100" fill="none" xmlns="http://www.w3.org/2000/svg">
<path d="M85.7016 27.4892L29.4516 36.8814C26.8929 37.3034 24.5681 38.6226 22.8935 40.6027C21.2189 42.5828 20.304 45.0944 20.3126 47.6876V68.6595C20.3253 71.4014 21.3603 74.0399 23.2152 76.0591C25.07 78.0784 27.6113 79.3332 30.3422 79.5783L52.0516 81.3908L45.4688 95.4236C45.3256 95.727 45.2839 96.0684 45.3498 96.3974C45.4157 96.7263 45.5857 97.0254 45.8347 97.2502C46.0838 97.475 46.3985 97.6137 46.7325 97.6458C47.0665 97.6779 47.4019 97.6016 47.6891 97.4283L71.6454 83.0251L86.6001 84.2751C88.1083 84.398 89.6256 84.2069 91.0563 83.7139C92.487 83.2208 93.7999 82.4366 94.9122 81.4106C96.0245 80.3846 96.9121 79.1392 97.5189 77.7529C98.1256 76.3666 98.4385 74.8696 98.4376 73.3564V38.2939C98.4399 36.704 98.0956 35.1328 97.4287 33.6896C96.7617 32.2464 95.7882 30.9659 94.5758 29.9374C93.3634 28.9089 91.9414 28.157 90.4088 27.7342C88.8762 27.3114 87.2698 27.2278 85.7016 27.4892ZM84.3751 71.0939H34.3751C33.9607 71.0939 33.5632 70.9293 33.2702 70.6362C32.9772 70.3432 32.8126 69.9458 32.8126 69.5314C32.8126 69.117 32.9772 68.7196 33.2702 68.4265C33.5632 68.1335 33.9607 67.9689 34.3751 67.9689H84.3751C84.7895 67.9689 85.1869 68.1335 85.4799 68.4265C85.7729 68.7196 85.9376 69.117 85.9376 69.5314C85.9376 69.9458 85.7729 70.3432 85.4799 70.6362C85.1869 70.9293 84.7895 71.0939 84.3751 71.0939ZM84.3751 60.1564H34.3751C33.9607 60.1564 33.5632 59.9918 33.2702 59.6987C32.9772 59.4057 32.8126 59.0083 32.8126 58.5939C32.8126 58.1795 32.9772 57.7821 33.2702 57.489C33.5632 57.196 33.9607 57.0314 34.3751 57.0314H84.3751C84.7895 57.0314 85.1869 57.196 85.4799 57.489C85.7729 57.7821 85.9376 58.1795 85.9376 58.5939C85.9376 59.0083 85.7729 59.4057 85.4799 59.6987C85.1869 59.9918 84.7895 60.1564 84.3751 60.1564ZM84.3751 49.2189H34.3751C33.9607 49.2189 33.5632 49.0543 33.2702 48.7612C32.9772 48.4682 32.8126 48.0708 32.8126 47.6564C32.8126 47.242 32.9772 46.8446 33.2702 46.5515C33.5632 46.2585 33.9607 46.0939 34.3751 46.0939H84.3751C84.7895 46.0939 85.1869 46.2585 85.4799 46.5515C85.7729 46.8446 85.9376 47.242 85.9376 47.6564C85.9376 48.0708 85.7729 48.4682 85.4799 48.7612C85.1869 49.0543 84.7895 49.2189 84.3751 49.2189Z" fill="#01FF66"/>
<path d="M70.5484 11.889L14.2984 2.49995C12.7305 2.23857 11.1244 2.32211 9.59201 2.74474C8.05962 3.16737 6.63777 3.91894 5.42547 4.94712C4.21317 5.97529 3.23954 7.25536 2.5724 8.69818C1.90526 10.141 1.56063 11.7119 1.56251 13.3015V48.3624C1.56176 49.8763 1.87494 51.3739 2.48226 52.7607C3.08958 54.1474 3.97786 55.3931 5.09099 56.4192C6.20412 57.4452 7.51791 58.2293 8.94941 58.7219C10.3809 59.2145 11.899 59.405 13.4078 59.2812L28.3625 58.0312L52.3188 72.4328C52.6059 72.6057 52.941 72.6818 53.2747 72.6497C53.6083 72.6176 53.9228 72.479 54.1717 72.2545C54.4205 72.0299 54.5906 71.7313 54.6568 71.4027C54.7229 71.0741 54.6817 70.733 54.5391 70.4296L47.9484 56.3953L69.6578 54.5828C72.3885 54.3378 74.9296 53.0832 76.7844 51.0642C78.6392 49.0453 79.6744 46.4072 79.6875 43.6656V22.6953C79.6964 20.1019 78.7816 17.5902 77.1069 15.61C75.4323 13.6299 73.1073 12.3108 70.5484 11.889ZM76.5625 43.6656C76.556 45.6261 75.818 47.5137 74.4929 48.9587C73.1678 50.4037 71.3511 51.3021 69.3984 51.4781L45.4484 53.4781C45.1974 53.4991 44.9551 53.5805 44.7423 53.7154C44.5295 53.8503 44.3525 54.0346 44.2263 54.2527C44.1001 54.4708 44.0286 54.7162 44.0178 54.9679C44.0069 55.2196 44.0571 55.4703 44.1641 55.6984L49.5313 67.1093L29.5406 55.0937C29.2589 54.9239 28.9309 54.8474 28.6031 54.8749L13.1453 56.1671C12.0662 56.257 10.9801 56.1216 9.95612 55.7694C8.9321 55.4172 7.99248 54.8561 7.19689 54.1214C6.4013 53.3868 5.76712 52.4948 5.33459 51.5021C4.90207 50.5093 4.68065 49.4375 4.68438 48.3546V13.3015C4.68184 12.1653 4.92717 11.0422 5.40327 10.0105C5.87937 8.97879 6.57477 8.06337 7.441 7.32805C8.30723 6.59273 9.32342 6.05521 10.4187 5.75297C11.514 5.45073 12.6621 5.39104 13.7828 5.57807L70.0328 14.9703C71.8614 15.2724 73.5227 16.2157 74.7192 17.6312C75.9157 19.0467 76.5691 20.8419 76.5625 22.6953V43.6656Z" fill="black"/>
<path d="M65.625 21.0938H15.625C15.2106 21.0938 14.8132 21.2584 14.5201 21.5514C14.2271 21.8444 14.0625 22.2418 14.0625 22.6562C14.0625 23.0707 14.2271 23.4681 14.5201 23.7611C14.8132 24.0541 15.2106 24.2188 15.625 24.2188H65.625C66.0394 24.2188 66.4368 24.0541 66.7299 23.7611C67.0229 23.4681 67.1875 23.0707 67.1875 22.6562C67.1875 22.2418 67.0229 21.8444 66.7299 21.5514C66.4368 21.2584 66.0394 21.0938 65.625 21.0938Z" fill="black"/>
<path d="M65.625 32.0312H15.625C15.2106 32.0312 14.8132 32.1959 14.5201 32.4889C14.2271 32.7819 14.0625 33.1793 14.0625 33.5938C14.0625 34.0082 14.2271 34.4056 14.5201 34.6986C14.8132 34.9916 15.2106 35.1562 15.625 35.1562H65.625C66.0394 35.1562 66.4368 34.9916 66.7299 34.6986C67.0229 34.4056 67.1875 34.0082 67.1875 33.5938C67.1875 33.1793 67.0229 32.7819 66.7299 32.4889C66.4368 32.1959 66.0394 32.0312 65.625 32.0312Z" fill="black"/>
<path d="M65.625 42.9688H15.625C15.2106 42.9688 14.8132 43.1334 14.5201 43.4264C14.2271 43.7194 14.0625 44.1168 14.0625 44.5312C14.0625 44.9457 14.2271 45.3431 14.5201 45.6361C14.8132 45.9291 15.2106 46.0938 15.625 46.0938H65.625C66.0394 46.0938 66.4368 45.9291 66.7299 45.6361C67.0229 45.3431 67.1875 44.9457 67.1875 44.5312C67.1875 44.1168 67.0229 43.7194 66.7299 43.4264C66.4368 43.1334 66.0394 42.9688 65.625 42.9688Z" fill="black"/>
</svg>
