<svg width="100" height="100" viewBox="0 0 100 100" fill="none" xmlns="http://www.w3.org/2000/svg">
<path d="M95.2233 59.1766L36.5171 31.8141C31.3608 29.411 25.9764 34.8172 28.9874 39.4985L43.6155 62.225H65.928C66.1738 62.2148 66.4191 62.2545 66.6492 62.3415C66.8793 62.4286 67.0895 62.5612 67.267 62.7316C67.4445 62.9019 67.5858 63.1064 67.6823 63.3327C67.7788 63.559 67.8285 63.8024 67.8285 64.0485C67.8285 64.2945 67.7788 64.538 67.6823 64.7643C67.5858 64.9906 67.4445 65.195 67.267 65.3654C67.0895 65.5357 66.8793 65.6684 66.6492 65.7554C66.4191 65.8425 66.1738 65.8821 65.928 65.8719H43.6139L28.9858 88.5938C25.9796 93.2672 31.3452 98.686 36.5171 96.2797L95.2233 68.9203C96.1769 68.5119 96.9897 67.8325 97.5609 66.9665C98.132 66.1005 98.4365 65.0859 98.4365 64.0485C98.4365 63.0111 98.132 61.9964 97.5609 61.1304C96.9897 60.2644 96.1769 59.5851 95.2233 59.1766Z" fill="#01FF66"/>
<path d="M75.5031 3.12501H3.125C2.7106 3.12501 2.31317 3.28963 2.02015 3.58266C1.72712 3.87569 1.5625 4.27311 1.5625 4.68751C1.5625 5.10192 1.72712 5.49934 2.02015 5.79237C2.31317 6.08539 2.7106 6.25002 3.125 6.25002H14.4719C13.875 7.50002 14.1219 7.50001 12.6078 15.6469C12.5703 15.6438 12.5375 15.625 12.5 15.625H3.125C2.7106 15.625 2.31317 15.7896 2.02015 16.0827C1.72712 16.3757 1.5625 16.7731 1.5625 17.1875C1.5625 17.6019 1.72712 17.9993 2.02015 18.2924C2.31317 18.5854 2.7106 18.75 3.125 18.75H12.0609L10.4078 28.125H3.125C2.7106 28.125 2.31317 28.2896 2.02015 28.5827C1.72712 28.8757 1.5625 29.2731 1.5625 29.6875C1.5625 30.1019 1.72712 30.4993 2.02015 30.7924C2.31317 31.0854 2.7106 31.25 3.125 31.25H9.85625L8.20312 40.625H3.125C2.7106 40.625 2.31317 40.7896 2.02015 41.0827C1.72712 41.3757 1.5625 41.7731 1.5625 42.1875C1.5625 42.6019 1.72712 42.9993 2.02015 43.2924C2.31317 43.5854 2.7106 43.75 3.125 43.75H7.65625L6.32656 51.2906C6.19892 51.8965 6.20974 52.5234 6.35822 53.1246C6.5067 53.7257 6.78901 54.2855 7.18408 54.7623C7.57914 55.2391 8.07677 55.6205 8.63984 55.8781C9.20291 56.1357 9.81688 56.2628 10.4359 56.25H66.6859C67.9288 56.2202 69.1241 55.7659 70.0729 54.9626C71.0218 54.1592 71.6671 53.0553 71.9016 51.8344L79.6156 8.08439C79.7436 7.4782 79.733 6.85091 79.5845 6.24942C79.4359 5.64792 79.1534 5.08778 78.7579 4.61086C78.3624 4.13394 77.8642 3.75258 77.3006 3.49528C76.737 3.23799 76.1225 3.11141 75.5031 3.12501ZM43.1047 27.6922L19.725 6.25002H74.0469L43.1047 27.6922ZM68.825 51.286C68.7165 51.7832 68.449 52.2316 68.0631 52.5633C67.6772 52.8951 67.1938 53.0923 66.6859 53.125H10.4359C10.273 53.1389 10.1092 53.1124 9.95888 53.048C9.80859 52.9836 9.67644 52.8832 9.57408 52.7557C9.47173 52.6282 9.40232 52.4775 9.37196 52.3168C9.3416 52.1561 9.35123 51.9905 9.4 51.8344L17.1125 8.09376L30.0813 19.9922L16.4062 31.6219C16.2499 31.7553 16.1213 31.9181 16.0279 32.1012C15.9345 32.2842 15.8781 32.4839 15.8618 32.6888C15.8456 32.8936 15.8698 33.0997 15.9332 33.2952C15.9966 33.4907 16.0979 33.6718 16.2312 33.8281C16.3646 33.9845 16.5275 34.113 16.7105 34.2065C16.8936 34.2999 17.0933 34.3563 17.2981 34.3726C17.503 34.3888 17.7091 34.3646 17.9046 34.3012C18.1001 34.2378 18.2811 34.1365 18.4375 34.0031L32.4156 22.1281L41.9219 30.8469C42.183 31.0863 42.5178 31.2298 42.8713 31.254C43.2247 31.2781 43.5759 31.1814 43.8672 30.9797L56.6109 22.1485L66.2203 33.8141C66.3508 33.9725 66.5112 34.1036 66.6924 34.2C66.8736 34.2965 67.072 34.3562 67.2763 34.376C67.4806 34.3957 67.6868 34.375 67.8831 34.3151C68.0793 34.2551 68.2619 34.1571 68.4203 34.0266C68.5787 33.8961 68.7099 33.7357 68.8063 33.5545C68.9027 33.3733 68.9625 33.1749 68.9822 32.9706C69.0019 32.7663 68.9812 32.5601 68.9213 32.3638C68.8613 32.1675 68.7633 31.985 68.6328 31.8266L59.1891 20.361L76.3812 8.43752L68.825 51.286Z" fill="black"/>
<path d="M52.1641 46.875H27.1641C26.7497 46.875 26.3522 47.0396 26.0592 47.3326C25.7662 47.6257 25.6016 48.0231 25.6016 48.4375C25.6016 48.8519 25.7662 49.2493 26.0592 49.5424C26.3522 49.8354 26.7497 50 27.1641 50H52.1641C52.5785 50 52.9759 49.8354 53.2689 49.5424C53.5619 49.2493 53.7266 48.8519 53.7266 48.4375C53.7266 48.0231 53.5619 47.6257 53.2689 47.3326C52.9759 47.0396 52.5785 46.875 52.1641 46.875Z" fill="black"/>
</svg>
