<svg width="162" height="116" viewBox="0 0 162 116" fill="none" xmlns="http://www.w3.org/2000/svg">
<path d="M78.1656 12.4611V14.0566H73.9531V16.5894H77.1775V18.1597H73.9531V22.3261H71.9248V12.4737H78.1656V12.4611Z" fill="white"/>
<path d="M81.6366 12.4611V22.3134H79.6084V12.4611H81.6366Z" fill="white"/>
<path d="M92.2857 22.3135H90.2575L85.6679 15.5511V22.3135H83.6396V12.4484H85.6679L90.2575 19.2236V12.4484H92.2857V22.3135Z" fill="white"/>
<path d="M96.3673 21.7689C95.5742 21.3383 94.9501 20.7304 94.4821 19.9706C94.014 19.1981 93.793 18.337 93.793 17.3619C93.793 16.3994 94.027 15.5383 94.4821 14.7785C94.9501 14.006 95.5742 13.4108 96.3673 12.9802C97.1604 12.5497 98.0315 12.3344 98.9806 12.3344C99.9427 12.3344 100.814 12.5497 101.594 12.9802C102.387 13.4108 102.998 14.0186 103.466 14.7785C103.921 15.551 104.155 16.4121 104.155 17.3619C104.155 18.337 103.921 19.1981 103.466 19.9706C103.011 20.7431 102.387 21.3383 101.594 21.7689C100.801 22.1994 99.9297 22.4147 98.9806 22.4147C98.0315 22.4147 97.1604 22.1994 96.3673 21.7689ZM100.58 20.2492C101.048 19.9833 101.412 19.6034 101.672 19.0968C101.932 18.6029 102.062 18.0204 102.062 17.3619C102.062 16.7034 101.932 16.1208 101.672 15.6269C101.412 15.1331 101.048 14.7531 100.58 14.4872C100.112 14.2213 99.5787 14.0946 98.9676 14.0946C98.3565 14.0946 97.8235 14.2213 97.3554 14.4872C96.8873 14.7531 96.5233 15.1331 96.2633 15.6269C96.0032 16.1208 95.8732 16.7034 95.8732 17.3619C95.8732 18.0204 96.0032 18.6029 96.2633 19.0968C96.5233 19.5907 96.8873 19.9833 97.3554 20.2492C97.8235 20.5152 98.3565 20.6545 98.9676 20.6545C99.5787 20.6545 100.125 20.5152 100.58 20.2492Z" fill="white"/>
<path d="M107.68 20.7431H111.008V22.3134H105.651V12.4611H107.68V20.7431Z" fill="white"/>
<path d="M114.388 21.7689C113.595 21.3383 112.971 20.7304 112.503 19.9706C112.035 19.1981 111.813 18.337 111.813 17.3619C111.813 16.3994 112.048 15.5383 112.503 14.7785C112.971 14.006 113.595 13.4108 114.388 12.9802C115.181 12.5497 116.052 12.3344 117.001 12.3344C117.963 12.3344 118.834 12.5497 119.614 12.9802C120.408 13.4108 121.019 14.0186 121.487 14.7785C121.942 15.551 122.176 16.4121 122.176 17.3619C122.176 18.337 121.942 19.1981 121.487 19.9706C121.032 20.7431 120.408 21.3383 119.614 21.7689C118.821 22.1994 117.95 22.4147 117.001 22.4147C116.052 22.4147 115.181 22.1994 114.388 21.7689ZM118.6 20.2492C119.068 19.9833 119.432 19.6034 119.692 19.0968C119.952 18.6029 120.082 18.0204 120.082 17.3619C120.082 16.7034 119.952 16.1208 119.692 15.6269C119.432 15.1331 119.068 14.7531 118.6 14.4872C118.132 14.2213 117.599 14.0946 116.988 14.0946C116.377 14.0946 115.844 14.2213 115.376 14.4872C114.908 14.7531 114.544 15.1331 114.284 15.6269C114.024 16.1208 113.894 16.7034 113.894 17.3619C113.894 18.0204 114.024 18.6029 114.284 19.0968C114.544 19.5907 114.908 19.9833 115.376 20.2492C115.844 20.5152 116.377 20.6545 116.988 20.6545C117.612 20.6545 118.145 20.5152 118.6 20.2492Z" fill="white"/>
<path d="M130.718 15.4245C130.484 15.0065 130.172 14.69 129.756 14.4747C129.353 14.2594 128.871 14.1454 128.338 14.1454C127.74 14.1454 127.207 14.2721 126.739 14.538C126.271 14.8039 125.907 15.1838 125.647 15.6651C125.387 16.159 125.257 16.7162 125.257 17.362C125.257 18.0205 125.387 18.5904 125.66 19.0843C125.92 19.5782 126.297 19.9454 126.765 20.2114C127.233 20.4773 127.792 20.6039 128.416 20.6039C129.183 20.6039 129.821 20.4013 130.315 20.0087C130.809 19.6035 131.134 19.0463 131.29 18.3371H127.818V16.8428H133.292V18.5651C133.162 19.2489 132.863 19.8821 132.421 20.4646C131.979 21.0472 131.407 21.5157 130.705 21.8703C130.003 22.2249 129.223 22.4022 128.351 22.4022C127.376 22.4022 126.492 22.1869 125.712 21.7563C124.919 21.3258 124.308 20.7306 123.853 19.9707C123.398 19.2109 123.177 18.3371 123.177 17.3747C123.177 16.3996 123.398 15.5384 123.853 14.7659C124.308 13.9934 124.919 13.3983 125.712 12.9677C126.505 12.5371 127.376 12.3218 128.338 12.3218C129.483 12.3218 130.471 12.5877 131.303 13.1323C132.148 13.6769 132.72 14.4367 133.045 15.4118H130.718V15.4245Z" fill="white"/>
<path d="M142.849 12.4611L139.429 18.8815V22.3134H137.401V18.8815L133.969 12.4611H136.257L138.428 16.9566L140.587 12.4611H142.849Z" fill="white"/>
<path d="M22.8827 18.6537C28.0444 14.462 34.8442 12.3725 43.2822 12.3725C49.0419 12.3725 53.9696 13.3476 58.0651 15.3105C62.1606 17.2734 65.255 19.9201 67.3482 23.2633C69.4415 26.6066 70.4816 30.393 70.4816 34.61C70.4816 39.4476 69.1944 43.538 66.6331 46.8812C64.0718 50.2245 61.0164 52.4659 57.467 53.6183V54.0742C62.0436 55.4546 65.606 57.9114 68.1673 61.4445C70.7286 64.9777 72.0158 69.5114 72.0158 75.0454C72.0158 79.655 70.9366 83.7581 68.7654 87.3673C66.5941 90.9764 63.3957 93.8004 59.1832 95.8393C54.9577 97.8782 49.9001 98.8913 43.9843 98.8913C35.0782 98.8913 27.8233 96.7004 22.2196 92.3188C16.6289 87.9498 13.6646 81.4913 13.3525 72.9686H29.4355C29.5915 76.7297 30.9177 79.7437 33.401 82.0105C35.8843 84.2773 39.2907 85.4044 43.6333 85.4044C47.6508 85.4044 50.7452 84.3153 52.9164 82.1245C55.0877 79.9336 56.1668 77.1096 56.1668 73.6524C56.1668 69.0428 54.6716 65.7376 51.6683 63.7494C48.6649 61.7485 44.0233 60.748 37.7045 60.748H34.2721V47.5144H37.7045C48.8989 47.5144 54.5026 43.8673 54.5026 36.5729C54.5026 33.2677 53.5015 30.6969 51.4862 28.848C49.471 26.9991 46.5716 26.0873 42.7882 26.0873C39.0827 26.0873 36.2224 27.0624 34.2071 29.0253C32.1919 30.9882 31.0347 33.4576 30.7227 36.459H14.5357C14.9387 28.7721 17.7081 22.8328 22.8827 18.6537Z" fill="white"/>
<path fill-rule="evenodd" clip-rule="evenodd" d="M142.796 60.2541C141.873 39.7895 124.087 23.9345 103.076 24.8463C84.1981 25.6568 69.1423 39.7389 66.958 57.4428C71.3005 60.9 74.2649 66.5227 74.5639 72.9812C74.72 76.3245 74.1349 79.5031 72.9908 82.3271C80.1286 92.838 92.5972 99.5371 106.457 98.9419C127.454 98.0301 143.732 80.7188 142.796 60.2541ZM104.897 85.1764C91.6871 85.1764 80.9867 74.7541 80.9867 61.8878C80.9867 49.0214 91.6871 38.5991 104.897 38.5991C118.106 38.5991 128.807 49.0214 128.807 61.8878C128.807 74.7541 118.106 85.1764 104.897 85.1764Z" fill="white"/>
<mask id="mask0_366_137" style="mask-type:luminance" maskUnits="userSpaceOnUse" x="82" y="39" width="46" height="45">
<path d="M104.897 83.8974C117.37 83.8974 127.481 74.0489 127.481 61.9004C127.481 49.7518 117.37 39.9035 104.897 39.9035C92.4246 39.9035 82.3135 49.7518 82.3135 61.9004C82.3135 74.0489 92.4246 83.8974 104.897 83.8974Z" fill="white"/>
</mask>
<g mask="url(#mask0_366_137)">
<path fill-rule="evenodd" clip-rule="evenodd" d="M107.731 58.8231L107.432 84.1633L102.18 84.1L102.453 61.1786C104.169 60.5074 105.937 59.7223 107.731 58.8231Z" fill="#24FFCC"/>
<path fill-rule="evenodd" clip-rule="evenodd" d="M114.596 54.8213H114.752L114.401 84.2392L109.148 84.1759L109.46 57.9366C111.203 57.0121 112.919 55.9737 114.596 54.8213Z" fill="#00D3A2"/>
<path fill-rule="evenodd" clip-rule="evenodd" d="M121.799 48.7048L121.37 84.3279L116.117 84.2646L116.481 53.4664C118.366 52.048 120.148 50.4524 121.799 48.7048Z" fill="#24FFCC"/>
<path fill-rule="evenodd" clip-rule="evenodd" d="M100.723 61.8371L100.45 84.0873L95.1846 84.024L95.4316 63.5721C97.0828 63.0782 98.851 62.5083 100.723 61.8371Z" fill="#00D3A2"/>
<path fill-rule="evenodd" clip-rule="evenodd" d="M93.5465 64.1166L93.2735 86.3668L88.0078 86.3035L88.2548 65.8515C89.906 65.3576 91.6743 64.8004 93.5465 64.1166Z" fill="#24FFCC"/>
</g>
</svg>
