<svg width="122" height="87" viewBox="0 0 122 87" fill="none" xmlns="http://www.w3.org/2000/svg">
<path d="M58.8659 9.34579V10.5425H55.6935V12.442H58.1217V13.6198H55.6935V16.7446H54.166V9.35529H58.8659V9.34579Z" fill="white"/>
<path d="M61.4796 9.34579V16.7351H59.9521V9.34579H61.4796Z" fill="white"/>
<path d="M69.4985 16.7352H67.9711L64.5148 11.6633V16.7352H62.9873V9.33633H64.5148L67.9711 14.4177V9.33633H69.4985V16.7352Z" fill="white"/>
<path d="M72.5734 16.3267C71.9762 16.0037 71.5062 15.5478 71.1537 14.978C70.8012 14.3986 70.6348 13.7528 70.6348 13.0214C70.6348 12.2996 70.811 11.6537 71.1537 11.0839C71.5062 10.5045 71.9762 10.0581 72.5734 9.73517C73.1707 9.41229 73.8267 9.25082 74.5415 9.25082C75.2661 9.25082 75.9221 9.41229 76.5096 9.73517C77.1068 10.0581 77.567 10.514 77.9195 11.0839C78.2622 11.6632 78.4385 12.3091 78.4385 13.0214C78.4385 13.7528 78.2622 14.3986 77.9195 14.978C77.5768 15.5573 77.1068 16.0037 76.5096 16.3267C75.9123 16.6496 75.2563 16.811 74.5415 16.811C73.8267 16.811 73.1707 16.6496 72.5734 16.3267ZM75.7458 15.1869C76.0983 14.9875 76.3725 14.7025 76.5683 14.3226C76.7641 13.9522 76.8621 13.5153 76.8621 13.0214C76.8621 12.5275 76.7641 12.0906 76.5683 11.7202C76.3725 11.3498 76.0983 11.0649 75.7458 10.8654C75.3934 10.666 74.9919 10.571 74.5317 10.571C74.0715 10.571 73.6701 10.666 73.3176 10.8654C72.9651 11.0649 72.6909 11.3498 72.4951 11.7202C72.2993 12.0906 72.2014 12.5275 72.2014 13.0214C72.2014 13.5153 72.2993 13.9522 72.4951 14.3226C72.6909 14.693 72.9651 14.9875 73.3176 15.1869C73.6701 15.3864 74.0715 15.4909 74.5317 15.4909C74.9919 15.4909 75.4031 15.3864 75.7458 15.1869Z" fill="white"/>
<path d="M81.0919 15.5573H83.5985V16.7351H79.5645V9.34579H81.0919V15.5573Z" fill="white"/>
<path d="M86.1438 16.3267C85.5465 16.0037 85.0765 15.5478 84.724 14.978C84.3715 14.3986 84.2051 13.7528 84.2051 13.0214C84.2051 12.2996 84.3813 11.6537 84.724 11.0839C85.0765 10.5045 85.5465 10.0581 86.1438 9.73517C86.741 9.41229 87.3971 9.25082 88.1118 9.25082C88.8364 9.25082 89.4924 9.41229 90.0799 9.73517C90.6771 10.0581 91.1373 10.514 91.4898 11.0839C91.8325 11.6632 92.0088 12.3091 92.0088 13.0214C92.0088 13.7528 91.8325 14.3986 91.4898 14.978C91.1471 15.5573 90.6771 16.0037 90.0799 16.3267C89.4826 16.6496 88.8266 16.811 88.1118 16.811C87.3971 16.811 86.741 16.6496 86.1438 16.3267ZM89.3162 15.1869C89.6686 14.9875 89.9428 14.7025 90.1386 14.3226C90.3345 13.9522 90.4324 13.5153 90.4324 13.0214C90.4324 12.5275 90.3345 12.0906 90.1386 11.7202C89.9428 11.3498 89.6686 11.0649 89.3162 10.8654C88.9637 10.666 88.5622 10.571 88.102 10.571C87.6418 10.571 87.2404 10.666 86.8879 10.8654C86.5354 11.0649 86.2613 11.3498 86.0654 11.7202C85.8696 12.0906 85.7717 12.5275 85.7717 13.0214C85.7717 13.5153 85.8696 13.9522 86.0654 14.3226C86.2613 14.693 86.5354 14.9875 86.8879 15.1869C87.2404 15.3864 87.6418 15.4909 88.102 15.4909C88.572 15.4909 88.9735 15.3864 89.3162 15.1869Z" fill="white"/>
<path d="M98.4419 11.5683C98.2656 11.2549 98.0306 11.0175 97.7171 10.856C97.4136 10.6945 97.0513 10.6091 96.6499 10.6091C96.1995 10.6091 95.798 10.704 95.4455 10.9035C95.093 11.103 94.8189 11.3879 94.623 11.7488C94.4272 12.1192 94.3293 12.5371 94.3293 13.0215C94.3293 13.5154 94.4272 13.9428 94.6328 14.3132C94.8287 14.6836 95.1126 14.9591 95.4651 15.1585C95.8176 15.358 96.2386 15.453 96.7086 15.453C97.2863 15.453 97.7661 15.301 98.1383 15.0066C98.5104 14.7026 98.7552 14.2847 98.8727 13.7528H96.2582V12.6321H100.381V13.9238C100.283 14.4367 100.057 14.9116 99.7245 15.3485C99.3916 15.7854 98.9608 16.1368 98.4321 16.4027C97.9031 16.6687 97.3157 16.8016 96.6596 16.8016C95.9253 16.8016 95.2595 16.6402 94.672 16.3173C94.0747 15.9943 93.6145 15.5479 93.2718 14.9781C92.9291 14.4082 92.7627 13.7528 92.7627 13.031C92.7627 12.2997 92.9291 11.6538 93.2718 11.0745C93.6145 10.4951 94.0747 10.0487 94.672 9.72577C95.2693 9.40283 95.9253 9.24136 96.6499 9.24136C97.5115 9.24136 98.2558 9.44082 98.8825 9.84924C99.5189 10.2576 99.9497 10.8275 100.195 11.5589H98.4419V11.5683Z" fill="white"/>
<path d="M107.577 9.34579L105.002 14.1611V16.7351H103.475V14.1611L100.89 9.34579H102.613L104.248 12.7175L105.873 9.34579H107.577Z" fill="white"/>
<path d="M17.2327 13.9903C21.1199 10.8465 26.2407 9.27939 32.5953 9.27939C36.9329 9.27939 40.6438 10.0107 43.7281 11.4829C46.8123 12.955 49.1427 14.9401 50.7191 17.4475C52.2955 19.9549 53.0788 22.7948 53.0788 25.9575C53.0788 29.5857 52.1094 32.6535 50.1805 35.1609C48.2517 37.6683 45.9507 39.3495 43.2777 40.2138V40.5557C46.7242 41.5909 49.407 43.4335 51.3359 46.0834C53.2648 48.7333 54.2342 52.1335 54.2342 56.2841C54.2342 59.7413 53.4215 62.8186 51.7863 65.5254C50.1512 68.2323 47.7425 70.3503 44.5701 71.8795C41.3879 73.4086 37.5791 74.1685 33.124 74.1685C26.417 74.1685 20.9534 72.5253 16.7334 69.2391C12.5231 65.9623 10.2907 61.1185 10.0557 54.7264H22.1675C22.285 57.5473 23.2838 59.8078 25.1539 61.5079C27.024 63.208 29.5894 64.0533 32.8597 64.0533C35.8852 64.0533 38.2155 63.2365 39.8507 61.5933C41.4858 59.9502 42.2985 57.8322 42.2985 55.2393C42.2985 51.7821 41.1725 49.3032 38.9107 47.812C36.6489 46.3114 33.1534 45.561 28.3948 45.561H25.8099V35.6358H28.3948C36.8252 35.6358 41.0452 32.9004 41.0452 27.4297C41.0452 24.9508 40.2913 23.0227 38.7736 21.636C37.256 20.2493 35.0725 19.5655 32.2232 19.5655C29.4327 19.5655 27.2786 20.2968 25.761 21.769C24.2433 23.2412 23.3719 25.0932 23.1369 27.3442H10.9467C11.2502 21.579 13.3358 17.1246 17.2327 13.9903Z" fill="white"/>
<path fill-rule="evenodd" clip-rule="evenodd" d="M107.539 45.1906C106.843 29.8421 93.4489 17.9509 77.6261 18.6347C63.4091 19.2426 52.0707 29.8041 50.4258 43.0821C53.6961 45.675 55.9285 49.892 56.1537 54.7359C56.2712 57.2433 55.8306 59.6273 54.969 61.7453C60.3444 69.6285 69.7343 74.6528 80.1719 74.2064C95.9849 73.5226 108.244 60.5391 107.539 45.1906ZM78.9969 63.8823C69.0489 63.8823 60.9906 56.0656 60.9906 46.4158C60.9906 36.766 69.0489 28.9493 78.9969 28.9493C88.9449 28.9493 97.0032 36.766 97.0032 46.4158C97.0032 56.0656 88.9449 63.8823 78.9969 63.8823Z" fill="white"/>
<mask id="mask0_388_138" style="mask-type:luminance" maskUnits="userSpaceOnUse" x="61" y="29" width="36" height="34">
<path d="M78.9968 62.923C88.3897 62.923 96.0044 55.5367 96.0044 46.4253C96.0044 37.3139 88.3897 29.9276 78.9968 29.9276C69.6038 29.9276 61.9893 37.3139 61.9893 46.4253C61.9893 55.5367 69.6038 62.923 78.9968 62.923Z" fill="white"/>
</mask>
<g mask="url(#mask0_388_138)">
<path fill-rule="evenodd" clip-rule="evenodd" d="M81.1321 44.1173L80.9069 63.1225L76.9512 63.075L77.1568 45.8839C78.4492 45.3806 79.7809 44.7917 81.1321 44.1173Z" fill="#24FFCC"/>
<path fill-rule="evenodd" clip-rule="evenodd" d="M86.3018 41.1159H86.4193L86.1549 63.1794L82.1992 63.1319L82.4342 43.4524C83.7463 42.7591 85.0387 41.9802 86.3018 41.1159Z" fill="#00D3A2"/>
<path fill-rule="evenodd" clip-rule="evenodd" d="M91.7261 36.5286L91.403 63.246L87.4473 63.1985L87.7214 40.0998C89.1412 39.036 90.4826 37.8393 91.7261 36.5286Z" fill="#24FFCC"/>
<path fill-rule="evenodd" clip-rule="evenodd" d="M75.8547 46.3778L75.6491 63.0655L71.6836 63.018L71.8696 47.679C73.1131 47.3086 74.4448 46.8812 75.8547 46.3778Z" fill="#00D3A2"/>
<path fill-rule="evenodd" clip-rule="evenodd" d="M70.4494 48.0874L70.2438 64.7751L66.2783 64.7276L66.4644 49.3886C67.7079 49.0182 69.0395 48.6003 70.4494 48.0874Z" fill="#24FFCC"/>
</g>
</svg>
