<svg width="237" height="40" viewBox="0 0 237 40" fill="none" xmlns="http://www.w3.org/2000/svg">
<path d="M20.2246 0.319214C21.2863 0.319214 22.3405 0.406491 23.3882 0.580158C24.4358 0.754268 25.462 1.01255 26.4679 1.3559C27.4733 1.69925 28.444 2.12234 29.3809 2.62607C30.3178 3.12935 31.2076 3.70617 32.0504 4.35654C32.8932 5.00646 33.6783 5.72151 34.4046 6.50124C35.1322 7.28097 35.7908 8.11475 36.3821 9.00347C36.9739 9.89174 37.4896 10.8225 37.9296 11.7968C38.3697 12.7701 38.7285 13.7731 39.0054 14.8058L29.6148 17.3656C29.4772 16.8491 29.2969 16.3476 29.0771 15.8607C28.8568 15.3738 28.5988 14.9086 28.3033 14.4642C28.0075 14.0203 27.6782 13.6034 27.3146 13.2131C26.9515 12.8233 26.5589 12.4657 26.1372 12.1406C25.7156 11.8158 25.2707 11.5274 24.8025 11.2758C24.3343 11.0241 23.8485 10.8124 23.346 10.6405C22.843 10.469 22.33 10.3396 21.8064 10.2524C21.2823 10.1655 20.7552 10.1221 20.2241 10.1221V0.319214H20.2246Z" fill="#FFF753"/>
<path d="M38.729 13.8666C39.0565 14.8842 39.3001 15.9218 39.4597 16.9793C39.6192 18.0368 39.6922 19.1005 39.6795 20.17C39.6658 21.2399 39.5665 22.3014 39.3805 23.3545C39.195 24.4076 38.9255 25.4389 38.5725 26.4473C38.219 27.4565 37.7873 28.4298 37.276 29.3673C36.7647 30.3047 36.1813 31.1943 35.5253 32.0352C34.8698 32.8761 34.1506 33.6589 33.3676 34.3815C32.5846 35.1041 31.7488 35.7575 30.8603 36.3428L25.5425 28.1335C25.987 27.8415 26.4046 27.515 26.7963 27.153C27.188 26.792 27.5477 26.4012 27.8752 25.9799C28.2032 25.5599 28.4946 25.1151 28.7505 24.6459C29.0059 24.1772 29.2222 23.6903 29.399 23.1861C29.5753 22.6815 29.7107 22.1659 29.8034 21.64C29.8962 21.1132 29.9459 20.5829 29.9525 20.0473C29.9595 19.5126 29.9226 18.9805 29.8426 18.4519C29.763 17.923 29.6412 17.4042 29.4772 16.8956L38.729 13.8666Z" fill="#B1ED67"/>
<path d="M31.6607 35.7872C30.8021 36.4159 29.8978 36.971 28.949 37.4499C28.0003 37.9297 27.019 38.328 26.0052 38.647C24.9914 38.9642 23.9591 39.1968 22.9075 39.3443C21.8559 39.4923 20.7999 39.5525 19.7382 39.5255C18.6769 39.4985 17.6248 39.3855 16.582 39.1848C15.5392 38.9846 14.5197 38.7001 13.523 38.3315C12.5264 37.9625 11.5662 37.515 10.6421 36.9883C9.71795 36.462 8.84263 35.863 8.01611 35.1909L14.1205 27.558C14.5337 27.8933 14.9712 28.1928 15.4332 28.4564C15.8953 28.7196 16.3758 28.9438 16.8735 29.1281C17.372 29.3124 17.8816 29.4541 18.403 29.5547C18.9244 29.6553 19.4506 29.7115 19.9813 29.7253C20.5119 29.7385 21.0399 29.7084 21.5657 29.6344C22.0911 29.5609 22.6077 29.4439 23.1146 29.2858C23.621 29.1267 24.1117 28.9269 24.5865 28.6872C25.0604 28.4471 25.5128 28.1698 25.9423 27.8561L31.6607 35.7872Z" fill="#6BDC85"/>
<path d="M8.7886 35.7872C7.92954 35.1586 7.1272 34.4635 6.38114 33.7023C5.63551 32.9408 4.95583 32.1238 4.34254 31.2506C3.72925 30.3774 3.19069 29.4599 2.72643 28.4976C2.26262 27.5354 1.87925 26.5416 1.57678 25.5165C1.27387 24.4909 1.05581 23.448 0.9226 22.3865C0.78939 21.325 0.742349 20.2599 0.782356 19.1909C0.822363 18.1219 0.948099 17.0635 1.16 16.0148C1.37191 14.9666 1.66647 13.9428 2.04456 12.9429L11.1349 16.4344C10.9459 16.9341 10.7986 17.4463 10.6927 17.9708C10.5867 18.4945 10.5238 19.0243 10.5041 19.5586C10.4843 20.0934 10.5076 20.6259 10.5744 21.1566C10.6408 21.6869 10.7498 22.2088 10.9015 22.721C11.0532 23.2344 11.2444 23.7311 11.4765 24.2122C11.7087 24.6933 11.9777 25.1519 12.2846 25.5882C12.591 26.0246 12.9313 26.4335 13.3041 26.8146C13.6774 27.1947 14.0783 27.5429 14.5078 27.8574L8.7886 35.7872Z" fill="#2AC69D"/>
<path d="M1.72119 13.8666C2.03641 12.8884 2.42593 11.9408 2.88975 11.0241C3.35357 10.1075 3.88509 9.23296 4.48519 8.40095C5.0853 7.56894 5.74651 6.78877 6.46796 6.06176C7.18984 5.3343 7.96361 4.66843 8.78968 4.06325C9.61532 3.45896 10.4836 2.92334 11.3928 2.45594C12.3024 1.98899 13.2423 1.59691 14.2135 1.27837C15.1842 0.96072 16.1738 0.721484 17.1819 0.560222C18.19 0.399845 19.2047 0.319214 20.2251 0.319214L20.2242 10.1221C19.7138 10.1221 19.2065 10.1624 18.7026 10.2431C18.1988 10.3233 17.7038 10.4433 17.2184 10.6024C16.7331 10.761 16.2631 10.9572 15.8085 11.1907C15.3535 11.4242 14.92 11.6927 14.5067 11.9948C14.0944 12.2969 13.7075 12.6301 13.3461 12.9934C12.9856 13.3571 12.655 13.747 12.3547 14.1634C12.0549 14.5794 11.7889 15.0167 11.5572 15.4743C11.3255 15.9329 11.1308 16.4065 10.9734 16.8956L1.72119 13.8666Z" fill="#00ADA9"/>
<path d="M50.7114 8.00488H65.6136V10.1306H53.059V19.3535H64.2527V21.4792H53.059V31.9706H50.7114V8.00488V8.00488Z" fill="black"/>
<path d="M69.7646 8.00488H72.1123V31.9706H69.7646V8.00488Z" fill="black"/>
<path d="M96.8465 8.00488H99.1601V31.9706H96.6764L81.9443 11.6729V31.9706H79.5967V8.00488H82.0804L96.8465 28.302V8.00488Z" fill="black"/>
<path d="M123.027 9.42744C124.921 10.5132 126.423 11.982 127.536 13.8335C128.646 15.6849 129.203 17.7192 129.203 19.9363C129.203 22.1535 128.646 24.1992 127.536 26.0735C126.424 27.9483 124.921 29.4335 123.027 30.5306C121.133 31.6277 119.052 32.1763 116.784 32.1763C114.515 32.1763 112.434 31.6277 110.541 30.5306C108.647 29.4335 107.144 27.9483 106.033 26.0735C104.921 24.1998 104.366 22.1535 104.366 19.9363C104.366 17.7192 104.921 15.6849 106.033 13.8335C107.144 11.982 108.647 10.5132 110.541 9.42744C112.435 8.34233 114.516 7.79857 116.784 7.79857C119.052 7.79917 121.133 8.34233 123.027 9.42744ZM111.782 11.262C110.24 12.1535 109.015 13.3655 108.108 14.8963C107.2 16.4277 106.747 18.1077 106.747 19.9363C106.747 21.7655 107.2 23.4563 108.108 25.0106C109.015 26.5649 110.239 27.7932 111.782 28.696C113.325 29.5989 115.003 30.05 116.818 30.05C118.61 30.05 120.271 29.5989 121.802 28.696C123.333 27.7932 124.552 26.5649 125.46 25.0106C126.367 23.4563 126.821 21.7649 126.821 19.9363C126.821 18.1077 126.367 16.4277 125.46 14.8963C124.552 13.3655 123.333 12.1535 121.802 11.262C120.272 10.3706 118.61 9.92488 116.818 9.92488C115.003 9.92488 113.325 10.3706 111.782 11.262Z" fill="black"/>
<path d="M134.374 8.00488H136.722V29.8443H147.201V31.9706H134.375V8.00488H134.374Z" fill="black"/>
<path d="M168.175 9.42744C170.069 10.5132 171.572 11.982 172.684 13.8335C173.794 15.6849 174.351 17.7192 174.351 19.9363C174.351 22.1535 173.794 24.1992 172.684 26.0735C171.572 27.9483 170.069 29.4335 168.175 30.5306C166.281 31.6277 164.2 32.1763 161.932 32.1763C159.663 32.1763 157.583 31.6277 155.689 30.5306C153.795 29.4335 152.292 27.9483 151.18 26.0735C150.069 24.1998 149.513 22.1535 149.513 19.9363C149.513 17.7192 150.069 15.6849 151.18 13.8335C152.292 11.982 153.795 10.5132 155.689 9.42744C157.583 8.34233 159.663 7.79857 161.932 7.79857C164.2 7.79917 166.281 8.34233 168.175 9.42744ZM156.931 11.262C155.388 12.1535 154.163 13.3655 153.256 14.8963C152.348 16.4277 151.895 18.1077 151.895 19.9363C151.895 21.7655 152.349 23.4563 153.256 25.0106C154.164 26.5649 155.388 27.7932 156.931 28.696C158.473 29.5989 160.152 30.05 161.966 30.05C163.758 30.05 165.419 29.5989 166.951 28.696C168.482 27.7932 169.701 26.5649 170.609 25.0106C171.516 23.4563 171.969 21.7649 171.969 19.9363C171.969 18.1077 171.515 16.4277 170.609 14.8963C169.701 13.3655 168.482 12.1535 166.951 11.262C165.42 10.3706 163.758 9.92488 161.966 9.92488C160.151 9.92488 158.473 10.3706 156.931 11.262Z" fill="black"/>
<path d="M195.751 20.2449H197.827V29.022C196.67 30.0055 195.327 30.776 193.795 31.3366C192.263 31.8972 190.704 32.1763 189.116 32.1763C186.871 32.1763 184.801 31.6277 182.907 30.5306C181.014 29.4335 179.511 27.9483 178.399 26.0735C177.288 24.1998 176.732 22.1535 176.732 19.9363C176.732 17.7192 177.288 15.6849 178.399 13.8335C179.511 11.982 181.024 10.5132 182.941 9.42744C184.858 8.34233 186.95 7.79857 189.219 7.79857C190.829 7.79857 192.389 8.08488 193.897 8.65571C195.405 9.22714 196.738 10.0271 197.894 11.0557L196.534 12.7357C195.558 11.8214 194.435 11.1189 193.165 10.6274C191.895 10.136 190.579 9.89 189.219 9.89C187.382 9.89 185.691 10.3417 184.15 11.244C182.607 12.1468 181.382 13.3643 180.475 14.8951C179.567 16.4265 179.114 18.1065 179.114 19.9351C179.114 21.7865 179.568 23.4834 180.475 25.0262C181.382 26.5691 182.613 27.7919 184.167 28.6948C185.721 29.5977 187.416 30.0488 189.253 30.0488C190.387 30.0488 191.515 29.8605 192.638 29.4834C193.761 29.1062 194.799 28.5745 195.752 27.8888V20.2449H195.751Z" fill="black"/>
<path d="M221.948 8.00488L212.796 23.4335V31.9706H210.448V23.4335L201.16 8.00488H203.609L211.639 20.8963L219.498 8.00488H221.948V8.00488Z" fill="black"/>
<path d="M232.794 7.69091C233.819 8.29722 234.629 9.12008 235.224 10.1595C235.819 11.1989 236.116 12.3315 236.116 13.5574C236.116 14.77 235.819 15.8996 235.224 16.9456C234.629 17.9917 233.816 18.8247 232.784 19.4443C231.752 20.0638 230.614 20.3736 229.372 20.3736C228.142 20.3736 227.015 20.0674 225.99 19.4545C224.965 18.8416 224.158 18.0151 223.57 16.9757C222.981 15.9363 222.687 14.8103 222.687 13.5977C222.687 12.385 222.984 11.256 223.579 10.2094C224.174 9.16339 224.984 8.33031 226.009 7.71076C227.034 7.09121 228.168 6.78143 229.41 6.78143C230.642 6.78143 231.769 7.08459 232.794 7.69091ZM232.06 18.1553C232.873 17.6759 233.515 17.0293 233.985 16.2166C234.454 15.404 234.689 14.5174 234.689 13.558C234.689 12.5986 234.457 11.7156 233.995 10.9096C233.532 10.1035 232.897 9.46414 232.091 8.99076C231.284 8.51797 230.391 8.28098 229.413 8.28098C228.435 8.28098 227.542 8.52098 226.736 9.00038C225.929 9.47978 225.291 10.127 224.822 10.9396C224.352 11.7529 224.117 12.6383 224.117 13.5977C224.117 14.5571 224.348 15.4401 224.811 16.2461C225.274 17.0521 225.905 17.6921 226.706 18.1649C227.506 18.6383 228.395 18.8747 229.373 18.8747C230.352 18.8747 231.247 18.6353 232.06 18.1553ZM231.931 13.6476C231.72 14.0007 231.415 14.2708 231.019 14.4572L232.427 16.616H230.78L229.749 14.7369H229.59H228.281V16.616H226.853V10.1198H229.59C230.436 10.1198 231.091 10.3165 231.554 10.7093C232.016 11.1026 232.248 11.6518 232.248 12.3586C232.249 12.865 232.143 13.2951 231.931 13.6476ZM228.282 13.5778H229.591C230.001 13.5778 230.318 13.478 230.543 13.2777C230.768 13.078 230.88 12.7917 230.88 12.4181C230.88 12.0452 230.768 11.7619 230.543 11.5682C230.318 11.3751 230.001 11.2789 229.591 11.2789H228.282V13.5778Z" fill="black"/>
</svg>
