<svg width="70" height="70" viewBox="0 0 70 70" fill="none" xmlns="http://www.w3.org/2000/svg">
<path d="M55.2344 25.1562H33.3594C32.7553 25.1562 32.2656 25.6459 32.2656 26.25V30.625C32.2656 31.2291 32.7553 31.7188 33.3594 31.7188H55.2344C55.8384 31.7188 56.3281 31.2291 56.3281 30.625V26.25C56.3281 25.6459 55.8384 25.1562 55.2344 25.1562Z" fill="#01FF66"/>
<path d="M62.8906 14.2188H27.8906C27.1723 14.218 26.4608 14.359 25.797 14.6336C25.1332 14.9081 24.53 15.3109 24.022 15.8189C23.5141 16.3269 23.1113 16.93 22.8367 17.5939C22.5621 18.2577 22.4212 18.9691 22.4219 19.6875V58.1875C23.1831 57.4212 24.089 56.8139 25.0869 56.4008C26.0849 55.9877 27.1551 55.7771 28.2352 55.7813H66.1719V17.5C66.1719 16.6298 65.8262 15.7952 65.2108 15.1798C64.5955 14.5645 63.7609 14.2188 62.8906 14.2188ZM38.8281 42.6563C38.8281 42.3662 38.9434 42.088 39.1485 41.8829C39.3536 41.6777 39.6318 41.5625 39.9219 41.5625H48.6719C48.962 41.5625 49.2402 41.6777 49.4453 41.8829C49.6504 42.088 49.7656 42.3662 49.7656 42.6563C49.7656 42.9463 49.6504 43.2245 49.4453 43.4297C49.2402 43.6348 48.962 43.75 48.6719 43.75H39.9219C39.6318 43.75 39.3536 43.6348 39.1485 43.4297C38.9434 43.2245 38.8281 42.9463 38.8281 42.6563ZM58.5156 30.625C58.5156 31.4952 58.1699 32.3298 57.5546 32.9452C56.9392 33.5606 56.1046 33.9063 55.2344 33.9063H33.3594C32.4891 33.9063 31.6545 33.5606 31.0392 32.9452C30.4238 32.3298 30.0781 31.4952 30.0781 30.625V26.25C30.0781 25.3798 30.4238 24.5452 31.0392 23.9298C31.6545 23.3145 32.4891 22.9688 33.3594 22.9688H55.2344C56.1046 22.9688 56.9392 23.3145 57.5546 23.9298C58.1699 24.5452 58.5156 25.3798 58.5156 26.25V30.625Z" fill="#01FF66"/>
<path d="M22.4219 63.4375C22.4707 64.9325 23.1098 66.3472 24.1993 67.3722C25.2888 68.3971 26.74 68.9487 28.2352 68.9062H63.9844C64.564 68.9045 65.1194 68.6735 65.5293 68.2636C65.9391 67.8537 66.1701 67.2983 66.1719 66.7187V64.5312H31.1719C30.8818 64.5312 30.6036 64.416 30.3985 64.2109C30.1934 64.0057 30.0781 63.7275 30.0781 63.4375C30.0781 63.1474 30.1934 62.8692 30.3985 62.6641C30.6036 62.4589 30.8818 62.3437 31.1719 62.3437H66.1719V57.9687H28.2352C26.7396 57.9251 25.2878 58.4763 24.1981 59.5015C23.1084 60.5266 22.4696 61.9421 22.4219 63.4375Z" fill="#01FF66"/>
<path d="M55.2344 1.09375H35.5469C34.6947 1.09614 33.855 1.29836 33.0952 1.68416C32.3354 2.06995 31.6766 2.62858 31.1719 3.31516C30.6671 2.62858 30.0084 2.06995 29.2486 1.68416C28.4887 1.29836 27.649 1.09614 26.7969 1.09375H7.10938C6.23913 1.09375 5.40453 1.43945 4.78918 2.05481C4.17383 2.67016 3.82813 3.50476 3.82812 4.375V48.125C3.82813 48.9952 4.17383 49.8298 4.78918 50.4452C5.40453 51.0605 6.23913 51.4062 7.10938 51.4062H26.3441L30.3986 55.4608C30.6037 55.6658 30.8819 55.781 31.1719 55.781C31.4619 55.781 31.74 55.6658 31.9452 55.4608L35.9997 51.4062H55.2344C56.1046 51.4062 56.9392 51.0605 57.5546 50.4452C58.1699 49.8298 58.5156 48.9952 58.5156 48.125V4.375C58.5156 3.50476 58.1699 2.67016 57.5546 2.05481C56.9392 1.43945 56.1046 1.09375 55.2344 1.09375ZM6.01562 48.125V4.375C6.01562 4.08492 6.13086 3.80672 6.33598 3.6016C6.5411 3.39648 6.81929 3.28125 7.10938 3.28125H26.7969C27.6671 3.28125 28.5017 3.62695 29.1171 4.24231C29.7324 4.85766 30.0781 5.69226 30.0781 6.5625V49.2188H7.10938C6.81929 49.2188 6.5411 49.1035 6.33598 48.8984C6.13086 48.6933 6.01562 48.4151 6.01562 48.125ZM31.1719 53.1409L29.4372 51.4062H32.9066L31.1719 53.1409ZM56.3281 48.125C56.3281 48.4151 56.2129 48.6933 56.0078 48.8984C55.8027 49.1035 55.5245 49.2188 55.2344 49.2188H32.2656V6.5625C32.2656 5.69226 32.6113 4.85766 33.2267 4.24231C33.842 3.62695 34.6766 3.28125 35.5469 3.28125H55.2344C55.5245 3.28125 55.8027 3.39648 56.0078 3.6016C56.2129 3.80672 56.3281 4.08492 56.3281 4.375V48.125Z" fill="black"/>
<path d="M24.6094 16.4062H12.5781C12.288 16.4062 12.0098 16.5215 11.8047 16.7266C11.5996 16.9317 11.4844 17.2099 11.4844 17.5C11.4844 17.7901 11.5996 18.0683 11.8047 18.2734C12.0098 18.4785 12.288 18.5938 12.5781 18.5938H24.6094C24.8995 18.5938 25.1777 18.4785 25.3828 18.2734C25.5879 18.0683 25.7031 17.7901 25.7031 17.5C25.7031 17.2099 25.5879 16.9317 25.3828 16.7266C25.1777 16.5215 24.8995 16.4062 24.6094 16.4062Z" fill="black"/>
<path d="M24.6094 25.1562H12.5781C12.288 25.1562 12.0098 25.2715 11.8047 25.4766C11.5996 25.6817 11.4844 25.9599 11.4844 26.25C11.4844 26.5401 11.5996 26.8183 11.8047 27.0234C12.0098 27.2285 12.288 27.3438 12.5781 27.3438H24.6094C24.8995 27.3438 25.1777 27.2285 25.3828 27.0234C25.5879 26.8183 25.7031 26.5401 25.7031 26.25C25.7031 25.9599 25.5879 25.6817 25.3828 25.4766C25.1777 25.2715 24.8995 25.1562 24.6094 25.1562Z" fill="black"/>
<path d="M24.6094 33.9062H12.5781C12.288 33.9062 12.0098 34.0215 11.8047 34.2266C11.5996 34.4317 11.4844 34.7099 11.4844 35C11.4844 35.2901 11.5996 35.5683 11.8047 35.7734C12.0098 35.9785 12.288 36.0938 12.5781 36.0938H24.6094C24.8995 36.0938 25.1777 35.9785 25.3828 35.7734C25.5879 35.5683 25.7031 35.2901 25.7031 35C25.7031 34.7099 25.5879 34.4317 25.3828 34.2266C25.1777 34.0215 24.8995 33.9062 24.6094 33.9062Z" fill="black"/>
<path d="M50.8594 16.4062H38.8281C38.538 16.4062 38.2598 16.5215 38.0547 16.7266C37.8496 16.9317 37.7344 17.2099 37.7344 17.5C37.7344 17.7901 37.8496 18.0683 38.0547 18.2734C38.2598 18.4785 38.538 18.5938 38.8281 18.5938H50.8594C51.1495 18.5938 51.4277 18.4785 51.6328 18.2734C51.8379 18.0683 51.9531 17.7901 51.9531 17.5C51.9531 17.2099 51.8379 16.9317 51.6328 16.7266C51.4277 16.5215 51.1495 16.4062 50.8594 16.4062Z" fill="black"/>
<path d="M50.8594 25.1562H38.8281C38.538 25.1562 38.2598 25.2715 38.0547 25.4766C37.8496 25.6817 37.7344 25.9599 37.7344 26.25C37.7344 26.5401 37.8496 26.8183 38.0547 27.0234C38.2598 27.2285 38.538 27.3438 38.8281 27.3438H50.8594C51.1495 27.3438 51.4277 27.2285 51.6328 27.0234C51.8379 26.8183 51.9531 26.5401 51.9531 26.25C51.9531 25.9599 51.8379 25.6817 51.6328 25.4766C51.4277 25.2715 51.1495 25.1562 50.8594 25.1562Z" fill="black"/>
<path d="M50.8594 33.9062H38.8281C38.538 33.9062 38.2598 34.0215 38.0547 34.2266C37.8496 34.4317 37.7344 34.7099 37.7344 35C37.7344 35.2901 37.8496 35.5683 38.0547 35.7734C38.2598 35.9785 38.538 36.0938 38.8281 36.0938H50.8594C51.1495 36.0938 51.4277 35.9785 51.6328 35.7734C51.8379 35.5683 51.9531 35.2901 51.9531 35C51.9531 34.7099 51.8379 34.4317 51.6328 34.2266C51.4277 34.0215 51.1495 33.9062 50.8594 33.9062Z" fill="black"/>
</svg>
