<svg width="87" height="80" viewBox="0 0 87 80" fill="none" xmlns="http://www.w3.org/2000/svg">
<path d="M54.2016 73.1154C43.3065 82.9539 26.337 76.4325 18.3756 71.1251C2.45293 59.1829 -7.46001 20.9049 8.29857 10.5031C22.231 1.30674 30.1922 14.4838 61.7569 1.30674C85.468 -8.59184 91.8928 46.3291 79.9506 48.3194C68.0087 50.3097 64.0278 64.2422 54.2016 73.1154Z" fill="#F1F1F1"/>
<path d="M20.285 20.769C15.9579 20.769 12.4502 24.2767 12.4502 28.6038V62.7918C12.4502 67.1189 15.9579 70.6266 20.285 70.6266H65.869C70.1961 70.6266 73.7037 67.1189 73.7037 62.7918V28.6038C73.7037 24.2767 70.1961 20.769 65.869 20.769H20.285Z" fill="#F1F1F1"/>
<path fill-rule="evenodd" clip-rule="evenodd" d="M12.4502 28.6038C12.4502 24.2767 15.9579 20.769 20.285 20.769H27.4075C23.0804 20.769 19.5727 24.2767 19.5727 28.6038V62.7918C19.5727 67.1189 23.0804 70.6266 27.4075 70.6266H20.285C15.9579 70.6266 12.4502 67.1189 12.4502 62.7918V28.6038Z" fill="#01FF66"/>
<path fill-rule="evenodd" clip-rule="evenodd" d="M12.4502 28.6038C12.4502 24.2767 15.9579 20.769 20.285 20.769H65.869C70.1961 20.769 73.7037 24.2767 73.7037 28.6038V62.7918C73.7037 67.1189 70.1961 70.6266 65.869 70.6266H20.285C15.9579 70.6266 12.4502 67.1189 12.4502 62.7918V28.6038ZM20.285 25.0425C18.3181 25.0425 16.7237 26.6368 16.7237 28.6038V62.7918C16.7237 64.7588 18.3181 66.3531 20.285 66.3531H65.869C67.8359 66.3531 69.4302 64.7588 69.4302 62.7918V28.6038C69.4302 26.6368 67.8359 25.0425 65.869 25.0425H20.285Z" fill="#01FF66"/>
<path d="M38.7137 32.6339C38.0724 32.1208 37.1938 32.0205 36.4533 32.3764C35.7131 32.7322 35.2422 33.4809 35.2422 34.3023V57.0943C35.2422 57.9157 35.7131 58.6644 36.4533 59.0202C37.1938 59.3761 38.0724 59.2761 38.7137 58.763L52.9587 47.367C53.4655 46.9613 53.7607 46.3473 53.7607 45.6983C53.7607 45.0493 53.4655 44.4353 52.9587 44.0299L38.7137 32.6339Z" fill="#01FF66"/>
<path fill-rule="evenodd" clip-rule="evenodd" d="M36.4533 32.3764C37.1938 32.0205 38.0724 32.1208 38.7137 32.6339L42.3647 35.5544V55.8422L38.7137 58.763C38.0724 59.2761 37.1938 59.3761 36.4533 59.0202C35.7131 58.6644 35.2422 57.9157 35.2422 57.0943V34.3023C35.2422 33.4809 35.7131 32.7322 36.4533 32.3764Z" fill="#01FF66"/>
<path fill-rule="evenodd" clip-rule="evenodd" d="M12.4502 28.6043C12.4502 24.2772 15.9579 20.7695 20.285 20.7695H65.869C70.1961 20.7695 73.7037 24.2772 73.7037 28.6043V62.7923C73.7037 67.1194 70.1961 70.6271 65.869 70.6271H20.285C15.9579 70.6271 12.4502 67.1194 12.4502 62.7923V28.6043ZM20.285 25.043C18.3181 25.043 16.7237 26.6373 16.7237 28.6043V62.7923C16.7237 64.7593 18.3181 66.3536 20.285 66.3536H65.869C67.8359 66.3536 69.4302 64.7593 69.4302 62.7923V28.6043C69.4302 26.6373 67.8359 25.043 65.869 25.043H20.285Z" fill="black"/>
<path fill-rule="evenodd" clip-rule="evenodd" d="M27.321 24.4169L18.7739 15.87L21.7957 12.8481L28.8318 19.8841L35.868 12.8481L38.8897 15.87L30.3427 24.4169C29.5082 25.2514 28.1555 25.2514 27.321 24.4169Z" fill="black"/>
<path fill-rule="evenodd" clip-rule="evenodd" d="M36.4533 32.3764C37.1938 32.0205 38.0724 32.1208 38.7137 32.6339L52.9587 44.0299C53.4655 44.4353 53.7607 45.0493 53.7607 45.6983C53.7607 46.3473 53.4655 46.9613 52.9587 47.367L38.7137 58.763C38.0724 59.2761 37.1938 59.3761 36.4533 59.0202C35.7131 58.6644 35.2422 57.9157 35.2422 57.0943V34.3023C35.2422 33.4809 35.7131 32.7322 36.4533 32.3764ZM39.5157 38.7482V52.6485L48.2034 45.6983L39.5157 38.7482Z" fill="black"/>
<path fill-rule="evenodd" clip-rule="evenodd" d="M81.5386 77.0374C82.3253 77.0374 82.9631 76.3995 82.9631 75.6129C82.9631 74.8263 82.3253 74.1884 81.5386 74.1884C80.752 74.1884 80.1141 74.8263 80.1141 75.6129C80.1141 76.3995 80.752 77.0374 81.5386 77.0374ZM81.5386 79.8864C83.8988 79.8864 85.8121 77.973 85.8121 75.6129C85.8121 73.2527 83.8988 71.3394 81.5386 71.3394C79.1785 71.3394 77.2651 73.2527 77.2651 75.6129C77.2651 77.973 79.1785 79.8864 81.5386 79.8864Z" fill="black"/>
</svg>
