<svg width="84" height="84" viewBox="0 0 84 84" fill="none" xmlns="http://www.w3.org/2000/svg">
<path d="M31.2918 81.6644C45.9871 74.9934 59.5368 78.0267 66.6185 74.8137C73.7001 71.5984 86.7248 60.7764 71.9385 28.1984C57.1521 -4.37959 34.9761 -0.0815912 27.1851 3.45341C-9.28953 20.0084 5.26347 93.4781 31.2918 81.6644V81.6644Z" fill="#F1F1F1"/>
<path d="M42 68.25C56.4975 68.25 68.25 56.4975 68.25 42C68.25 27.5025 56.4975 15.75 42 15.75C27.5025 15.75 15.75 27.5025 15.75 42C15.75 56.4975 27.5025 68.25 42 68.25Z" fill="#01FF66"/>
<path d="M21 42C21 28.3897 31.36 17.199 44.625 15.883C43.7617 15.7967 42.8867 15.75 42 15.75C27.503 15.75 15.75 27.503 15.75 42C15.75 56.497 27.503 68.25 42 68.25C42.8867 68.25 43.7617 68.2033 44.625 68.117C31.36 66.801 21 55.6103 21 42Z" fill="#05C394"/>
<path d="M9.3125 62.093L10.9624 60.4431L14.2622 63.7429L12.6123 65.3928L9.3125 62.093Z" fill="black"/>
<path d="M18.7988 71.5803L20.4487 69.9304L23.7486 73.2302L22.0987 74.8802L18.7988 71.5803Z" fill="black"/>
<path d="M8.89844 73.2295L12.1983 69.9297L13.8482 71.5796L10.5484 74.8794L8.89844 73.2295Z" fill="black"/>
<path d="M42 70C26.5603 70 14 57.4397 14 42C14 26.5603 26.5603 14 42 14C57.4397 14 70 26.5603 70 42C70 57.4397 57.4397 70 42 70ZM42 17.5C28.49 17.5 17.5 28.49 17.5 42C17.5 55.51 28.49 66.5 42 66.5C55.51 66.5 66.5 55.51 66.5 42C66.5 28.49 55.51 17.5 42 17.5Z" fill="black"/>
<path d="M32.083 30.3333H51.9163V33.8333H32.083V30.3333Z" fill="black"/>
<path d="M32.083 40.25H51.9163V43.75H32.083V40.25Z" fill="black"/>
<path d="M32.083 50.1667H51.9163V53.6667H32.083V50.1667Z" fill="black"/>
</svg>
