<svg width="70" height="70" viewBox="0 0 70 70" fill="none" xmlns="http://www.w3.org/2000/svg">
<path d="M53.3668 44.5008C53.2574 44.9139 53.2621 45.3488 53.3803 45.7594C53.4985 46.17 53.7259 46.5409 54.0381 46.8325C54.5009 47.1824 54.9969 47.4859 55.519 47.7388V42.1056C54.9673 42.2543 54.4704 42.5597 54.0885 42.9847C53.7065 43.4098 53.4559 43.9364 53.3668 44.5008Z" fill="#01FF66"/>
<path d="M58.5156 21.4222V30.6251H67.7184L58.5156 21.4222Z" fill="#01FF66"/>
<path d="M34.4531 45.9375H46.4844V59.0625H34.4531V45.9375Z" fill="#01FF66"/>
<path d="M57.4219 32.8125C57.2782 32.8125 57.136 32.7843 57.0033 32.7293C56.8706 32.6744 56.75 32.5938 56.6484 32.4922C56.5468 32.3907 56.4663 32.2701 56.4113 32.1374C56.3563 32.0046 56.3281 31.8624 56.3281 31.7187V20.7812H32.2656C30.8157 20.783 29.4257 21.3597 28.4005 22.3849C27.3753 23.4101 26.7986 24.8001 26.7969 26.25V65.625C26.7978 66.4949 27.1438 67.329 27.759 67.9441C28.3741 68.5593 29.2082 68.9053 30.0781 68.9062H65.0781C65.9481 68.9053 66.7821 68.5593 67.3973 67.9441C68.0124 67.329 68.3584 66.4949 68.3594 65.625V32.8125H57.4219ZM48.6719 60.1562C48.6719 60.2999 48.6436 60.4421 48.5887 60.5749C48.5337 60.7076 48.4532 60.8282 48.3516 60.9297C48.25 61.0313 48.1294 61.1119 47.9967 61.1668C47.864 61.2218 47.7218 61.25 47.5781 61.25H33.3594C33.2157 61.25 33.0735 61.2218 32.9408 61.1668C32.8081 61.1119 32.6875 61.0313 32.5859 60.9297C32.4843 60.8282 32.4038 60.7076 32.3488 60.5749C32.2939 60.4421 32.2656 60.2999 32.2656 60.1562V44.8437C32.2656 44.7001 32.2939 44.5579 32.3488 44.4251C32.4038 44.2924 32.4843 44.1718 32.5859 44.0703C32.6875 43.9687 32.8081 43.8881 32.9408 43.8332C33.0735 43.7782 33.2157 43.75 33.3594 43.75H47.5781C47.7218 43.75 47.864 43.7782 47.9967 43.8332C48.1294 43.8881 48.25 43.9687 48.3516 44.0703C48.4532 44.1718 48.5337 44.2924 48.5887 44.4251C48.6436 44.5579 48.6719 44.7001 48.6719 44.8437V60.1562ZM47.5781 38.2812H33.3594C33.0693 38.2812 32.7911 38.166 32.586 37.9609C32.3809 37.7558 32.2656 37.4776 32.2656 37.1875C32.2656 36.8974 32.3809 36.6192 32.586 36.4141C32.7911 36.209 33.0693 36.0937 33.3594 36.0937H47.5781C47.8682 36.0937 48.1464 36.209 48.3515 36.4141C48.5566 36.6192 48.6719 36.8974 48.6719 37.1875C48.6719 37.4776 48.5566 37.7558 48.3515 37.9609C48.1464 38.166 47.8682 38.2812 47.5781 38.2812ZM47.5781 30.625H33.3594C33.0693 30.625 32.7911 30.5098 32.586 30.3046C32.3809 30.0995 32.2656 29.8213 32.2656 29.5312C32.2656 29.2412 32.3809 28.963 32.586 28.7579C32.7911 28.5527 33.0693 28.4375 33.3594 28.4375H47.5781C47.8682 28.4375 48.1464 28.5527 48.3515 28.7579C48.5566 28.963 48.6719 29.2412 48.6719 29.5312C48.6719 29.8213 48.5566 30.0995 48.3515 30.3046C48.1464 30.5098 47.8682 30.625 47.5781 30.625Z" fill="#01FF66"/>
<path d="M57.7065 51.0189V58.3538C58.4576 58.1436 59.1332 57.7238 59.6542 57.1436C60.1753 56.5633 60.5203 55.8466 60.6487 55.0774C61.0448 52.7193 59.5693 51.6982 57.7065 51.0189Z" fill="#01FF66"/>
<path d="M54.2811 1.64938L45.1027 17.9665L36.2737 10.1185C36.1487 10.017 36.0034 9.94321 35.8477 9.90209C35.6919 9.86098 35.5292 9.85345 35.3703 9.88002C35.2114 9.90659 35.06 9.96663 34.9261 10.0562C34.7922 10.1457 34.6788 10.2627 34.5936 10.3994L25.4152 26.7165L16.5862 18.8685C16.4613 18.7666 16.3161 18.6925 16.1603 18.6511C16.0044 18.6098 15.8416 18.6021 15.6826 18.6287C15.5236 18.6553 15.3721 18.7155 15.2382 18.8053C15.1043 18.8951 14.991 19.0124 14.9061 19.1494L7.10938 33.0102V4.82598L8.52359 6.2402C8.62499 6.34246 8.74559 6.42369 8.87846 6.47923C9.01134 6.53476 9.15387 6.5635 9.29788 6.56381C9.44189 6.56411 9.58455 6.53597 9.71765 6.481C9.85076 6.42603 9.9717 6.3453 10.0735 6.24347C10.1754 6.14163 10.2561 6.02069 10.311 5.88758C10.366 5.75447 10.3941 5.61181 10.3938 5.4678C10.3935 5.32379 10.3648 5.18126 10.3092 5.04839C10.2537 4.91552 10.1724 4.79493 10.0702 4.69354L6.78967 1.41302C6.58396 1.20853 6.30568 1.09375 6.01562 1.09375C5.72557 1.09375 5.44729 1.20853 5.24158 1.41302L1.96109 4.69354C1.75813 4.89906 1.64471 5.17655 1.64562 5.4654C1.64652 5.75426 1.76166 6.03102 1.96591 6.23528C2.17016 6.43954 2.44692 6.55469 2.73578 6.55561C3.02463 6.55652 3.30212 6.44312 3.50766 6.24016L4.92188 4.82598V50.3106H2.73438C2.44429 50.3106 2.16609 50.4258 1.96098 50.631C1.75586 50.8361 1.64063 51.1143 1.64062 51.4044C1.64063 51.6944 1.75586 51.9726 1.96098 52.1777C2.16609 52.3829 2.44429 52.4981 2.73438 52.4981H4.92188V54.6856C4.92188 54.9757 5.03711 55.2539 5.24223 55.459C5.44735 55.6641 5.72554 55.7794 6.01562 55.7794C6.30571 55.7794 6.5839 55.6641 6.78902 55.459C6.99414 55.2539 7.10938 54.9757 7.10938 54.6856V52.4981H55.2344C55.378 52.4981 55.5203 52.4699 55.653 52.4149C55.7857 52.36 55.9063 52.2794 56.0079 52.1778C56.1094 52.0763 56.19 51.9557 56.2449 51.823C56.2999 51.6902 56.3282 51.548 56.3281 51.4044V2.1856C56.3223 1.94683 56.2389 1.71644 56.0907 1.52917C55.9425 1.3419 55.7374 1.2079 55.5063 1.14738C55.2753 1.08686 55.0308 1.1031 54.8098 1.19365C54.5888 1.2842 54.4032 1.44415 54.2811 1.64938ZM14.7656 50.3106H7.10938V37.4722L14.7656 23.861V50.3106ZM24.6094 50.3106H16.9531V22.1211L24.6094 28.9267V50.3106ZM34.4531 50.3106H26.7969V28.7222L34.4531 15.111V50.3106ZM44.2969 50.3106H36.6406V13.3711L44.2969 20.1767V50.3106ZM54.1406 50.3106H46.4844V19.9722L54.1406 6.36104V50.3106Z" fill="black"/>
</svg>
