<svg width="89" height="80" viewBox="0 0 89 80" fill="none" xmlns="http://www.w3.org/2000/svg">
<path d="M86.4291 45.8314C77.0642 31.4918 78.0596 16.7931 73.5455 9.88206C69.0314 2.97102 55.5783 -8.94441 23.7914 11.8184C-7.99546 32.5813 0.089304 55.1518 5.05654 62.7512C28.303 98.339 103.017 71.2272 86.4291 45.8314Z" fill="#F1F1F1"/>
<path d="M75.5464 71.4146L77.2973 69.6636L80.7992 73.1655L79.0482 74.9164L75.5464 71.4146Z" fill="black"/>
<path d="M65.0405 73.1475L68.5424 69.6456L70.2933 71.3965L66.7915 74.8984L65.0405 73.1475Z" fill="black"/>
<path d="M75.1089 63.0811L78.6108 59.5792L80.3617 61.3301L76.8598 64.832L75.1089 63.0811Z" fill="black"/>
<path d="M37.1426 60.4282C37.1426 64.5387 40.4607 67.8568 44.5711 67.8568C48.6816 67.8568 51.9997 64.5387 51.9997 60.4282H37.1426Z" fill="#01FF66"/>
<path d="M60.0479 35.048V41.9516C60.0479 47.3893 62.4424 52.5497 66.595 56.0584L66.5975 56.0609L66.6099 56.0708C67.1298 56.5165 67.4765 57.1851 67.4765 57.9527C67.4765 59.3146 66.3622 60.4289 65.0003 60.4289H45.1908H24.1432C22.7813 60.4289 21.667 59.3146 21.667 57.9527C21.667 57.1851 22.0137 56.5165 22.5337 56.0708L22.546 56.0609L22.5485 56.0584C26.7011 52.5497 29.0956 47.3868 29.0956 41.9516V35.048C29.0956 26.5002 36.0239 19.5718 44.5718 19.5718C53.1196 19.5718 60.0479 26.5002 60.0479 35.048Z" fill="#F1F1F1"/>
<path d="M27.2384 57.9527C27.2384 57.1851 27.5851 56.5165 28.1051 56.0708L28.1175 56.0609L28.1199 56.0584C32.2725 52.5497 34.667 47.3868 34.667 41.9516V35.048C34.667 27.4535 40.1419 21.1491 47.3575 19.8343C46.4537 19.6708 45.5251 19.5718 44.5718 19.5718C36.024 19.5718 29.0956 26.5002 29.0956 35.048V41.9516C29.0956 47.3893 26.7011 52.5497 22.5485 56.0584L22.546 56.0609L22.5337 56.0708C22.0137 56.5165 21.667 57.1851 21.667 57.9527C21.667 59.3146 22.7813 60.4289 24.1432 60.4289H29.7146C28.3527 60.4289 27.2384 59.3146 27.2384 57.9527Z" fill="#F1F1F1"/>
<path d="M12.3808 11.5238C10.333 11.5238 8.6665 9.85731 8.6665 7.8095C8.6665 5.76169 10.333 4.09521 12.3808 4.09521C14.4286 4.09521 16.0951 5.76169 16.0951 7.8095C16.0951 9.85731 14.4286 11.5238 12.3808 11.5238ZM12.3808 6.5714C11.6974 6.5714 11.1427 7.12607 11.1427 7.8095C11.1427 8.49293 11.6974 9.04759 12.3808 9.04759C13.0642 9.04759 13.6189 8.49293 13.6189 7.8095C13.6189 7.12607 13.0642 6.5714 12.3808 6.5714Z" fill="black"/>
<path d="M71.8096 35.0474H68.0953C68.0953 27.9383 65.327 21.2525 60.3003 16.2259L62.9275 13.5986C68.6525 19.3285 71.8096 26.9453 71.8096 35.0474Z" fill="black"/>
<path d="M21.0473 35.0474H17.333C17.333 26.9453 20.4877 19.3285 26.2176 13.5986L28.8448 16.2259C23.8157 21.2525 21.0473 27.9358 21.0473 35.0474Z" fill="black"/>
<path d="M44.5714 69.7139C39.4506 69.7139 35.2856 65.549 35.2856 60.4282H38.9999C38.9999 63.5012 41.4984 65.9996 44.5714 65.9996C47.6443 65.9996 50.1428 63.5012 50.1428 60.4282H53.8571C53.8571 65.549 49.6921 69.7139 44.5714 69.7139Z" fill="black"/>
<path d="M65.0001 62.2858H24.1429C21.7534 62.2858 19.8096 60.342 19.8096 57.9524C19.8096 56.6846 20.3618 55.4837 21.325 54.6591C25.0913 51.4772 27.2381 46.8517 27.2381 41.9513V35.0477C27.2381 25.4896 35.0134 17.7144 44.5715 17.7144C54.1296 17.7144 61.9048 25.4896 61.9048 35.0477V41.9513C61.9048 46.8517 64.0517 51.4772 67.7932 54.6418C68.7812 55.4837 69.3334 56.6846 69.3334 57.9524C69.3334 60.342 67.3896 62.2858 65.0001 62.2858ZM44.5715 21.4286C37.0612 21.4286 30.9524 27.5374 30.9524 35.0477V41.9513C30.9524 47.9462 28.3252 53.6067 23.7467 57.477C23.66 57.5513 23.5239 57.7048 23.5239 57.9524C23.5239 58.2892 23.8061 58.5715 24.1429 58.5715H65.0001C65.3368 58.5715 65.6191 58.2892 65.6191 57.9524C65.6191 57.7048 65.4829 57.5513 65.4012 57.482C60.8178 53.6067 58.1905 47.9462 58.1905 41.9513V35.0477C58.1905 27.5374 52.0818 21.4286 44.5715 21.4286Z" fill="black"/>
<path d="M42.7144 12.1431H46.4286V19.5716H42.7144V12.1431Z" fill="black"/>
</svg>
