<svg width="72" height="80" viewBox="0 0 72 80" fill="none" xmlns="http://www.w3.org/2000/svg">
<g clip-path="url(#clip0)">
<path d="M13.9647 71.5283C29.73 71.5283 40.5562 79.6947 48.1527 79.6947C55.7493 79.6947 71.7037 75.3277 71.7037 40.3807C71.7037 5.43371 50.2405 0.303223 41.8849 0.303223C2.75788 0.303223 -13.9555 71.5283 13.9647 71.5283Z" fill="#F1F1F1"/>
<path d="M44.3545 6.12891L47.5778 2.90563L49.1894 4.51727L45.9661 7.74055L44.3545 6.12891Z" fill="black"/>
<path d="M35.083 4.10889L36.6946 2.49725L39.9179 5.72053L38.3063 7.33217L35.083 4.10889Z" fill="black"/>
<path d="M44.3516 13.3794L45.9632 11.7678L49.1865 14.991L47.5748 16.6027L44.3516 13.3794Z" fill="black"/>
<path d="M27.1683 73.739C25.2834 73.739 23.7495 72.2051 23.7495 70.3202C23.7495 68.4353 25.2834 66.9014 27.1683 66.9014C29.0532 66.9014 30.5871 68.4353 30.5871 70.3202C30.5871 72.2051 29.0555 73.739 27.1683 73.739ZM27.1683 69.1806C26.5393 69.1806 26.0287 69.6911 26.0287 70.3202C26.0287 70.9492 26.5393 71.4598 27.1683 71.4598C27.7974 71.4598 28.3079 70.9492 28.3079 70.3202C28.3079 69.6911 27.7974 69.1806 27.1683 69.1806Z" fill="black"/>
<path d="M18.2336 65.6411H12.5356C11.2774 65.6411 10.2563 64.62 10.2563 63.3619V32.5927C10.2563 31.3346 11.2774 30.3135 12.5356 30.3135H18.2336C19.4917 30.3135 20.5128 31.3346 20.5128 32.5927V63.3619C20.5128 64.6155 19.4871 65.6411 18.2336 65.6411Z" fill="#01FF66"/>
<path d="M52.424 32.5925H39.3869C39.3869 32.5925 41.6661 29.1737 41.6661 23.4757C41.6661 16.6381 38.2473 14.3589 35.9681 14.3589C33.6889 14.3589 32.5493 15.4985 32.5493 21.1965C32.5493 29.1737 21.1533 34.8717 21.1533 34.8717L20.5151 35.1908V59.4871L21.1533 59.9429C21.1533 59.9429 29.1305 65.6409 46.2245 65.6409H49.8713C54.3157 65.6409 58.0992 62.4501 58.8513 58.074L61.404 43.2592C62.3613 37.6751 58.0764 32.5925 52.424 32.5925Z" fill="#F1F1F1"/>
<path d="M15.3845 63.3619V32.5927C15.3845 31.3346 16.4056 30.3135 17.6637 30.3135H12.5355C11.2774 30.3135 10.2563 31.3346 10.2563 32.5927V63.3619C10.2563 64.62 11.2774 65.6411 12.5355 65.6411H17.6637C16.4056 65.6411 15.3845 64.62 15.3845 63.3619Z" fill="#01FF66"/>
<path d="M26.2815 59.9429L25.6433 59.4871V35.1908L26.2815 34.8717C26.2815 34.8717 37.6775 29.1737 37.6775 21.1965C37.6775 18.0763 38.0331 16.3509 38.7168 15.4028C37.7983 14.6734 36.8069 14.3589 35.9681 14.3589C33.6889 14.3589 32.5493 15.4985 32.5493 21.1965C32.5493 29.1737 21.1533 34.8717 21.1533 34.8717L20.5151 35.1908V59.4871L21.1533 59.9429C21.1533 59.9429 29.1305 65.6409 46.2245 65.6409H49.8713C49.967 65.6409 50.0559 65.6182 50.1493 65.6159C33.9009 65.3538 26.2815 59.9429 26.2815 59.9429Z" fill="#F1F1F1"/>
<path d="M18.2335 67.3504H12.5355C10.336 67.3504 8.54688 65.5613 8.54688 63.3618V32.5926C8.54688 30.3932 10.336 28.604 12.5355 28.604H18.2335C20.4329 28.604 22.2221 30.3932 22.2221 32.5926V63.3618C22.2221 65.5613 20.4329 67.3504 18.2335 67.3504ZM12.5355 32.0228C12.2209 32.0228 11.9657 32.2781 11.9657 32.5926V63.3618C11.9657 63.6764 12.2209 63.9316 12.5355 63.9316H18.2335C18.5434 63.9316 18.8033 63.6718 18.8033 63.3618V32.5926C18.8033 32.2781 18.548 32.0228 18.2335 32.0228H12.5355Z" fill="black"/>
<path d="M49.8709 67.3503H46.2241C28.7837 67.3503 20.5033 61.5793 20.1592 61.3332L19.521 60.8773L21.5085 58.0944L22.1466 58.5503C22.2173 58.6004 29.9871 63.9292 46.2241 63.9292H49.8709C53.4857 63.9292 56.5535 61.3446 57.1666 57.7822L59.7193 42.9674C60.0908 40.8044 59.4936 38.6027 58.0828 36.9298C56.6743 35.2591 54.6116 34.3018 52.4236 34.3018H39.3865C38.7575 34.3018 38.1763 33.9554 37.88 33.3993C37.5814 32.8431 37.6156 32.1685 37.9643 31.6443C37.978 31.6215 39.9563 28.5263 39.9563 23.4756C39.9563 18.042 37.5723 16.0682 35.9677 16.0682C35.1267 16.0682 34.2583 16.0682 34.2583 21.1964C34.2583 30.1263 22.4224 36.148 21.9164 36.401L21.2783 36.7201L19.7489 33.6614L20.3871 33.3423C20.4897 33.2922 30.8372 28.0158 30.8372 21.1964C30.8372 17.062 31.2338 12.6494 35.9654 12.6494C38.5273 12.6494 43.3729 14.9127 43.3729 23.4756C43.3729 26.6255 42.7256 29.1508 42.0828 30.883H52.4213C55.619 30.883 58.6367 32.2847 60.6948 34.728C62.7575 37.1736 63.6281 40.3896 63.0857 43.5508L60.533 58.3657C59.6395 63.5714 55.1563 67.3503 49.8709 67.3503Z" fill="black"/>
</g>
<defs>
<clipPath id="clip0">
<rect width="71.7949" height="80" fill="white"/>
</clipPath>
</defs>
</svg>
