<svg width="100" height="100" viewBox="0 0 100 100" fill="none" xmlns="http://www.w3.org/2000/svg">
<path d="M23.2695 88.4253C42.4835 88.4253 55.6779 98.378 64.9362 98.378C74.1947 98.378 93.6386 93.0553 93.6386 50.4639C93.6386 7.87227 67.4807 1.61946 57.2973 1.61946C9.6112 1.61946 -10.7582 88.4253 23.2695 88.4253Z" fill="#F4F4F4"/>
<path d="M85.4209 19.9369L87.3849 17.9727L91.3136 21.9011L89.3489 23.8652L85.4209 19.9369Z" fill="black"/>
<path d="M74.1289 8.646L76.0936 6.6818L80.0216 10.6102L78.0576 12.5744L74.1289 8.646Z" fill="black"/>
<path d="M85.4297 11.1133L89.3577 7.18493L91.3217 9.14907L87.3937 13.0775L85.4297 11.1133Z" fill="black"/>
<path d="M81.25 29.8612V34.0279H18.75V29.8612C18.75 26.8057 21.25 24.3057 24.3055 24.3057H75.6947C78.75 24.3057 81.25 26.8057 81.25 29.8612Z" fill="#01FF66"/>
<path d="M81.25 34.0278V75.6947C81.25 78.75 78.75 81.25 75.6947 81.25H24.3055C21.25 81.25 18.75 78.75 18.75 75.6947V34.0278H81.25Z" fill="#F4F4F4"/>
<path d="M65.2779 50.6945C74.099 50.6945 81.2503 43.5435 81.2503 34.7222C81.2503 25.901 74.099 18.75 65.2779 18.75C56.4567 18.75 49.3057 25.901 49.3057 34.7222C49.3057 43.5435 56.4567 50.6945 65.2779 50.6945Z" fill="#F4F4F4"/>
<path d="M30.5555 24.3057H24.3055C21.25 24.3057 18.75 26.8057 18.75 29.8612V34.0279H25V29.8612C25 26.8057 27.5 24.3057 30.5555 24.3057Z" fill="#05C394"/>
<path d="M25 75.6947V34.0278H18.75V75.6947C18.75 78.75 21.25 81.25 24.3055 81.25H30.5555C27.5 81.25 25 78.75 25 75.6947Z" fill="#D5DBE1"/>
<path d="M55.5557 34.7222C55.5557 26.9722 61.0779 20.5139 68.403 19.0611C67.3917 18.8583 66.3473 18.75 65.2779 18.75C56.4557 18.75 49.3057 25.9 49.3057 34.7222C49.3057 43.5445 56.4557 50.6945 65.2779 50.6945C66.3473 50.6945 67.3917 50.5861 68.403 50.3833C61.0779 48.9305 55.5557 42.4722 55.5557 34.7222Z" fill="#D5DBE1"/>
<path d="M65.2782 52.7778C55.3227 52.7778 47.2227 44.6778 47.2227 34.7222C47.2227 24.7667 55.3227 16.6667 65.2782 16.6667C75.234 16.6667 83.334 24.7667 83.334 34.7222C83.334 44.6778 75.234 52.7778 65.2782 52.7778ZM65.2782 20.8333C57.6199 20.8333 51.3893 27.0639 51.3893 34.7222C51.3893 42.3805 57.6199 48.6111 65.2782 48.6111C72.9367 48.6111 79.1673 42.3805 79.1673 34.7222C79.1673 27.0639 72.9367 20.8333 65.2782 20.8333Z" fill="black"/>
<path d="M58.333 19.5H62.4997V49.9445H58.333V19.5Z" fill="black"/>
<path d="M68.0557 19.5H72.2223V49.9445H68.0557V19.5Z" fill="black"/>
<path d="M50.0557 27.7778H80.503V31.9445H50.0557V27.7778Z" fill="black"/>
<path d="M50.0557 37.5H80.503V41.6667H50.0557V37.5Z" fill="black"/>
<path d="M75.695 83.3333H24.3059C20.092 83.3333 16.667 79.908 16.667 75.6947V29.8611C16.667 25.6472 20.092 22.2222 24.3059 22.2222H43.3337C44.4837 22.2222 45.417 23.1555 45.417 24.3055C45.417 25.4555 44.4837 26.3889 43.3337 26.3889H24.3059C22.392 26.3889 20.8337 27.9472 20.8337 29.8611V75.6947C20.8337 77.608 22.392 79.1667 24.3059 79.1667H75.695C77.6083 79.1667 79.167 77.608 79.167 75.6947V52.9722C79.167 51.8222 80.1003 50.8889 81.2503 50.8889C82.4003 50.8889 83.3337 51.8222 83.3337 52.9722V75.6947C83.3337 79.908 79.9083 83.3333 75.695 83.3333Z" fill="black"/>
<path d="M41.0003 36.111H18.7503C17.6003 36.111 16.667 35.1777 16.667 34.0277C16.667 32.8777 17.6003 31.9443 18.7503 31.9443H41.0003C42.1503 31.9443 43.0837 32.8777 43.0837 34.0277C43.0837 35.1777 42.1503 36.111 41.0003 36.111Z" fill="black"/>
<path d="M54.8609 70.8333C54.3803 70.8333 53.897 70.6667 53.5053 70.3307C52.6331 69.5807 52.5303 68.2667 53.2803 67.3913L56.2831 63.8889L53.2803 60.3833C52.5303 59.5111 52.6331 58.1944 53.5053 57.4444C54.3775 56.6972 55.6942 56.7972 56.4442 57.6694L60.6109 62.5305C61.2803 63.3111 61.2803 64.4611 60.6109 65.2444L56.4442 70.1053C56.0303 70.586 55.447 70.8333 54.8609 70.8333Z" fill="black"/>
<path d="M36.805 70.8333C36.2189 70.8333 35.6356 70.586 35.2244 70.1053L31.0578 65.2444C30.3883 64.4639 30.3883 63.3139 31.0578 62.5305L35.2244 57.6694C35.9772 56.7972 37.2911 56.6972 38.1633 57.4444C39.0356 58.1944 39.1383 59.5083 38.3883 60.3833L35.3828 63.8889L38.3856 67.3947C39.1356 68.2667 39.0328 69.5833 38.1606 70.3333C37.7689 70.6667 37.2856 70.8333 36.805 70.8333Z" fill="black"/>
<path d="M43.753 75C43.5946 75 43.439 74.9833 43.2807 74.9447C42.1613 74.686 41.4613 73.5693 41.7196 72.4473L45.8863 54.3917C46.1446 53.2695 47.2807 52.5667 48.3835 52.8306C49.503 53.0889 50.203 54.2056 49.9446 55.3278L45.778 73.3833C45.5557 74.35 44.7002 75 43.753 75Z" fill="black"/>
</svg>
