<svg width="73" height="80" viewBox="0 0 73 80" fill="none" xmlns="http://www.w3.org/2000/svg">
<g clip-path="url(#clip0)">
<path d="M57.5795 8.11258C41.9256 8.40461 31.0211 0.495031 23.4782 0.637648C15.9354 0.780265 0.170564 5.41191 0.820263 40.1176C1.46996 74.8233 22.8783 79.5161 31.1773 79.3621C70.0302 78.6355 85.306 7.59418 57.5795 8.11258Z" fill="#F1F1F1"/>
<path d="M61.729 25.8516V58.6761C61.729 61.1662 59.6916 63.2036 57.2015 63.2036H15.322C12.8318 63.2036 10.7944 61.1662 10.7944 58.6761V25.8516H61.729Z" fill="#F1F1F1"/>
<path d="M61.729 21.3239V25.8514H10.7944V21.3239C10.7944 18.8338 12.8318 16.7964 15.322 16.7964H57.2015C59.6916 16.7964 61.729 18.8338 61.729 21.3239Z" fill="#01FF66"/>
<path d="M15.8879 58.6761V25.8516H10.7944V58.6761C10.7944 61.1662 12.8318 63.2036 15.322 63.2036H20.4154C17.9253 63.2036 15.8879 61.1662 15.8879 58.6761Z" fill="#F1F1F1"/>
<path d="M20.4154 16.7964H15.322C12.8318 16.7964 10.7944 18.8338 10.7944 21.3239V25.8514H15.8879V21.3239C15.8879 18.8338 17.9253 16.7964 20.4154 16.7964Z" fill="#01FF66"/>
<path d="M36.2614 42.8299C38.4493 42.8299 40.223 41.0562 40.223 38.8683C40.223 36.6804 38.4493 34.9067 36.2614 34.9067C34.0735 34.9067 32.2998 36.6804 32.2998 38.8683C32.2998 41.0562 34.0735 42.8299 36.2614 42.8299Z" fill="#01FF66"/>
<path d="M41.3551 48.4893H31.1681C28.6667 48.4893 26.6406 50.5153 26.6406 53.0168V56.4124H45.8826V53.0168C45.8826 50.5153 43.8565 48.4893 41.3551 48.4893Z" fill="#01FF66"/>
<path d="M64.4897 11.1387L67.6912 7.93723L69.2919 9.53795L66.0905 12.7394L64.4897 11.1387Z" fill="#F1F1F1"/>
<path d="M55.2856 9.13623L56.8864 7.53551L60.0878 10.7369L58.4871 12.3377L55.2856 9.13623Z" fill="#F1F1F1"/>
<path d="M64.4863 18.3408L66.087 16.7401L69.2885 19.9415L67.6878 21.5423L64.4863 18.3408Z" fill="#F1F1F1"/>
<path d="M36.2619 44.5273C33.1425 44.5273 30.6025 41.9896 30.6025 38.8679C30.6025 35.7462 33.1425 33.2085 36.2619 33.2085C39.3837 33.2085 41.9213 35.7462 41.9213 38.8679C41.9213 41.9896 39.3837 44.5273 36.2619 44.5273ZM36.2619 36.6041C35.0146 36.6041 33.9982 37.6183 33.9982 38.8679C33.9982 40.1175 35.0146 41.1317 36.2619 41.1317C37.5093 41.1317 38.5257 40.1175 38.5257 38.8679C38.5257 37.6183 37.5093 36.6041 36.2619 36.6041Z" fill="black"/>
<path d="M47.5805 56.4125H44.1848V53.0168C44.1848 51.4571 42.9149 50.1871 41.3551 50.1871H31.1682C29.6085 50.1871 28.3385 51.4571 28.3385 53.0168V56.4125H24.9429V53.0168C24.9429 49.5827 27.7341 46.7915 31.1682 46.7915H41.3551C44.7892 46.7915 47.5805 49.5827 47.5805 53.0168V56.4125Z" fill="black"/>
<path d="M57.2016 64.9013H15.322C11.8879 64.9013 9.09668 62.1101 9.09668 58.676V21.324C9.09668 17.8898 11.8879 15.0986 15.322 15.0986H57.2016C60.6357 15.0986 63.4269 17.8898 63.4269 21.324V58.676C63.4269 62.1101 60.6357 64.9013 57.2016 64.9013ZM15.322 18.4943C13.7623 18.4943 12.4923 19.7642 12.4923 21.324V58.676C12.4923 60.2357 13.7623 61.5057 15.322 61.5057H57.2016C58.7613 61.5057 60.0313 60.2357 60.0313 58.676V21.324C60.0313 19.7642 58.7613 18.4943 57.2016 18.4943H15.322Z" fill="black"/>
<path d="M10.7944 24.1538H61.729V27.5495H10.7944V24.1538Z" fill="black"/>
<path d="M0.0415039 61.5054H72.4818V64.901H0.0415039V61.5054Z" fill="black"/>
</g>
<defs>
<clipPath id="clip0">
<rect width="72.5234" height="80" fill="white"/>
</clipPath>
</defs>
</svg>
