<svg width="69" height="69" viewBox="0 0 69 69" fill="none" xmlns="http://www.w3.org/2000/svg">
<path d="M64.6875 30.1875H63.6094V51.75C63.6077 53.1792 63.0392 54.5493 62.0286 55.5599C61.018 56.5704 59.6479 57.1389 58.2188 57.1406H33.6839L33.4219 57.4015V58.2188C33.4219 59.0766 33.7626 59.8992 34.3692 60.5058C34.9758 61.1124 35.7984 61.4531 36.6562 61.4531H53.4599L59.6128 67.606C59.7635 67.7567 59.9556 67.8594 60.1647 67.9009C60.3738 67.9425 60.5906 67.9212 60.7876 67.8396C60.9845 67.758 61.1529 67.6199 61.2714 67.4426C61.3898 67.2653 61.4531 67.0569 61.4531 66.8438V61.4531H64.6875C65.5453 61.4531 66.368 61.1124 66.9745 60.5058C67.5811 59.8992 67.9219 59.0766 67.9219 58.2188V33.4219C67.9219 32.5641 67.5811 31.7414 66.9745 31.1348C66.368 30.5283 65.5453 30.1875 64.6875 30.1875Z" fill="#01FF66"/>
<path d="M24.7969 54.9844V60.375C24.7969 60.5882 24.8602 60.7966 24.9786 60.9739C25.0971 61.1511 25.2655 61.2893 25.4625 61.3708C25.6594 61.4524 25.8762 61.4738 26.0853 61.4322C26.2944 61.3906 26.4865 61.288 26.6372 61.1372L32.7901 54.9844H58.2188C59.0766 54.9844 59.8992 54.6436 60.5058 54.037C61.1124 53.4305 61.4531 52.6078 61.4531 51.75V23.7188C61.4531 22.8609 61.1124 22.0383 60.5058 21.4317C59.8992 20.8251 59.0766 20.4844 58.2188 20.4844H21.5625C20.7047 20.4844 19.882 20.8251 19.2755 21.4317C18.6689 22.0383 18.3281 22.8609 18.3281 23.7188V51.75C18.3281 52.6078 18.6689 53.4305 19.2755 54.037C19.882 54.6436 20.7047 54.9844 21.5625 54.9844H24.7969ZM25.875 26.9531H53.9062C54.1922 26.9531 54.4664 27.0667 54.6686 27.2689C54.8708 27.4711 54.9844 27.7453 54.9844 28.0312C54.9844 28.3172 54.8708 28.5914 54.6686 28.7936C54.4664 28.9958 54.1922 29.1094 53.9062 29.1094H25.875C25.5891 29.1094 25.3148 28.9958 25.1126 28.7936C24.9105 28.5914 24.7969 28.3172 24.7969 28.0312C24.7969 27.7453 24.9105 27.4711 25.1126 27.2689C25.3148 27.0667 25.5891 26.9531 25.875 26.9531ZM25.875 33.4219H53.9062C54.1922 33.4219 54.4664 33.5355 54.6686 33.7376C54.8708 33.9398 54.9844 34.2141 54.9844 34.5C54.9844 34.7859 54.8708 35.0602 54.6686 35.2624C54.4664 35.4645 54.1922 35.5781 53.9062 35.5781H25.875C25.5891 35.5781 25.3148 35.4645 25.1126 35.2624C24.9105 35.0602 24.7969 34.7859 24.7969 34.5C24.7969 34.2141 24.9105 33.9398 25.1126 33.7376C25.3148 33.5355 25.5891 33.4219 25.875 33.4219ZM25.875 39.8906H53.9062C54.1922 39.8906 54.4664 40.0042 54.6686 40.2064C54.8708 40.4086 54.9844 40.6828 54.9844 40.9688C54.9844 41.2547 54.8708 41.5289 54.6686 41.7311C54.4664 41.9333 54.1922 42.0469 53.9062 42.0469H25.875C25.5891 42.0469 25.3148 41.9333 25.1126 41.7311C24.9105 41.5289 24.7969 41.2547 24.7969 40.9688C24.7969 40.6828 24.9105 40.4086 25.1126 40.2064C25.3148 40.0042 25.5891 39.8906 25.875 39.8906ZM25.875 46.3594H40.9688C41.2547 46.3594 41.5289 46.473 41.7311 46.6751C41.9333 46.8773 42.0469 47.1516 42.0469 47.4375C42.0469 47.7234 41.9333 47.9977 41.7311 48.1999C41.5289 48.402 41.2547 48.5156 40.9688 48.5156H25.875C25.5891 48.5156 25.3148 48.402 25.1126 48.1999C24.9105 47.9977 24.7969 47.7234 24.7969 47.4375C24.7969 47.1516 24.9105 46.8773 25.1126 46.6751C25.3148 46.473 25.5891 46.3594 25.875 46.3594Z" fill="#01FF66"/>
<path d="M51.75 46.3594H47.6089C46.5039 43.841 44.4828 41.8369 41.9552 40.7531C43.295 39.8492 44.3092 38.5391 44.8486 37.0156C45.3879 35.492 45.424 33.8356 44.9514 32.2901C44.4788 30.7445 43.5225 29.3915 42.2233 28.4302C40.9241 27.4689 39.3506 26.9501 37.7344 26.9501C36.1182 26.9501 34.5447 27.4689 33.2455 28.4302C31.9463 29.3915 30.99 30.7445 30.5174 32.2901C30.0448 33.8356 30.0808 35.492 30.6202 37.0156C31.1595 38.5391 32.1737 39.8492 33.5135 40.7531C30.9859 41.8369 28.9649 43.841 27.8598 46.3594H25.875V44.2031C25.8728 42.0891 25.25 40.0222 24.0837 38.259C22.9175 36.4957 21.2592 35.1137 19.3146 34.2844C20.5588 33.4468 21.5245 32.2569 22.0883 30.867C22.652 29.4772 22.788 27.9507 22.4789 26.4831L26.3213 22.6406H32.3438C33.2016 22.6406 34.0242 22.2999 34.6308 21.6933C35.2374 21.0867 35.5781 20.2641 35.5781 19.4062V4.3125C35.5781 3.45469 35.2374 2.63201 34.6308 2.02545C34.0242 1.41889 33.2016 1.07813 32.3438 1.07812H4.3125C3.45469 1.07813 2.63201 1.41889 2.02545 2.02545C1.41889 2.63201 1.07813 3.45469 1.07812 4.3125V19.4062C1.07813 20.2641 1.41889 21.0867 2.02545 21.6933C2.63201 22.2999 3.45469 22.6406 4.3125 22.6406H9.8228C9.02075 23.4221 8.40304 24.3727 8.01463 25.423C7.62621 26.4733 7.47686 27.597 7.57745 28.7123C7.67803 29.8277 8.02602 30.9065 8.59609 31.8704C9.16616 32.8343 9.94396 33.659 10.8729 34.2844C8.92831 35.1137 7.27002 36.4957 6.10378 38.259C4.93755 40.0222 4.31469 42.0891 4.3125 44.2031V46.3594C3.45469 46.3594 2.63201 46.7001 2.02545 47.3067C1.41889 47.9133 1.07813 48.7359 1.07812 49.5938V51.75C1.07812 52.6078 1.41889 53.4305 2.02545 54.037C2.63201 54.6436 3.45469 54.9844 4.3125 54.9844H51.75C52.6078 54.9844 53.4305 54.6436 54.037 54.037C54.6436 53.4305 54.9844 52.6078 54.9844 51.75V49.5938C54.9844 48.7359 54.6436 47.9133 54.037 47.3067C53.4305 46.7001 52.6078 46.3594 51.75 46.3594ZM32.3438 34.5C32.3438 33.4338 32.6599 32.3916 33.2522 31.5051C33.8446 30.6186 34.6865 29.9277 35.6715 29.5197C36.6565 29.1117 37.7404 29.005 38.786 29.213C39.8317 29.421 40.7922 29.9344 41.5461 30.6883C42.3 31.4421 42.8134 32.4027 43.0214 33.4483C43.2294 34.494 43.1227 35.5779 42.7147 36.5629C42.3067 37.5479 41.6157 38.3898 40.7292 38.9821C39.8428 39.5745 38.8005 39.8906 37.7344 39.8906C36.3052 39.8889 34.9351 39.3204 33.9245 38.3099C32.9139 37.2993 32.3455 35.9292 32.3438 34.5ZM37.7344 42.0469C40.0211 42.0494 42.2134 42.959 43.8303 44.5759C45.4473 46.1929 46.3568 48.3852 46.3594 50.6719V52.8281H29.1094V50.6719C29.1119 48.3852 30.0215 46.1929 31.6384 44.5759C33.2554 42.959 35.4477 42.0494 37.7344 42.0469ZM4.3125 20.4844C4.02656 20.4844 3.75234 20.3708 3.55015 20.1686C3.34796 19.9664 3.23438 19.6922 3.23438 19.4062V4.3125C3.23438 4.02656 3.34796 3.75234 3.55015 3.55015C3.75234 3.34796 4.02656 3.23438 4.3125 3.23438H32.3438C32.6297 3.23438 32.9039 3.34796 33.1061 3.55015C33.3083 3.75234 33.4219 4.02656 33.4219 4.3125V19.4062C33.4219 19.6922 33.3083 19.9664 33.1061 20.1686C32.9039 20.3708 32.6297 20.4844 32.3438 20.4844H25.875C25.5891 20.4844 25.3149 20.5981 25.1128 20.8003L21.6326 24.2805C20.9728 23.1285 20.0209 22.171 18.8728 21.5045C17.7248 20.838 16.4212 20.4861 15.0938 20.4844H4.3125ZM9.70312 28.0312C9.70313 26.9651 10.0193 25.9229 10.6116 25.0364C11.2039 24.1499 12.0458 23.459 13.0308 23.051C14.0159 22.643 15.0997 22.5362 16.1454 22.7442C17.1911 22.9522 18.1516 23.4656 18.9055 24.2195C19.6594 24.9734 20.1728 25.9339 20.3808 26.9796C20.5888 28.0253 20.482 29.1091 20.074 30.0942C19.666 31.0792 18.9751 31.9211 18.0886 32.5134C17.2021 33.1057 16.1599 33.4219 15.0938 33.4219C13.6646 33.4202 12.2945 32.8517 11.2839 31.8411C10.2733 30.8305 9.70484 29.4604 9.70312 28.0312ZM6.46875 44.2031C6.46875 41.9156 7.37745 39.7218 8.99495 38.1043C10.6125 36.4868 12.8063 35.5781 15.0938 35.5781C17.3812 35.5781 19.575 36.4868 21.1925 38.1043C22.81 39.7218 23.7187 41.9156 23.7188 44.2031V46.3594H6.46875V44.2031ZM3.23438 51.75V49.5938C3.23438 49.3078 3.34796 49.0336 3.55015 48.8314C3.75234 48.6292 4.02656 48.5156 4.3125 48.5156H27.1688C27.0245 49.2253 26.9523 49.9477 26.9531 50.6719V52.8281H4.3125C4.02656 52.8281 3.75234 52.7145 3.55015 52.5124C3.34796 52.3102 3.23438 52.0359 3.23438 51.75ZM52.8281 51.75C52.8281 52.0359 52.7145 52.3102 52.5124 52.5124C52.3102 52.7145 52.0359 52.8281 51.75 52.8281H48.5156V50.6719C48.5165 49.9477 48.4442 49.2253 48.3 48.5156H51.75C52.0359 48.5156 52.3102 48.6292 52.5124 48.8314C52.7145 49.0336 52.8281 49.3078 52.8281 49.5938V51.75Z" fill="black"/>
<path d="M8.625 9.70312H28.0312C28.3172 9.70312 28.5914 9.58954 28.7936 9.38735C28.9958 9.18516 29.1094 8.91094 29.1094 8.625C29.1094 8.33906 28.9958 8.06484 28.7936 7.86265C28.5914 7.66046 28.3172 7.54688 28.0312 7.54688H8.625C8.33906 7.54688 8.06484 7.66046 7.86265 7.86265C7.66046 8.06484 7.54688 8.33906 7.54688 8.625C7.54688 8.91094 7.66046 9.18516 7.86265 9.38735C8.06484 9.58954 8.33906 9.70312 8.625 9.70312Z" fill="black"/>
<path d="M29.1094 15.0938C29.1094 14.8078 28.9958 14.5336 28.7936 14.3314C28.5914 14.1292 28.3172 14.0156 28.0312 14.0156H8.625C8.33906 14.0156 8.06484 14.1292 7.86265 14.3314C7.66046 14.5336 7.54688 14.8078 7.54688 15.0938C7.54688 15.3797 7.66046 15.6539 7.86265 15.8561C8.06484 16.0583 8.33906 16.1719 8.625 16.1719H28.0312C28.3172 16.1719 28.5914 16.0583 28.7936 15.8561C28.9958 15.6539 29.1094 15.3797 29.1094 15.0938Z" fill="black"/>
</svg>
