<svg width="72" height="80" viewBox="0 0 72 80" fill="none" xmlns="http://www.w3.org/2000/svg">
<g clip-path="url(#clip0)">
<path d="M14.0976 71.3675C29.7824 71.3675 40.5533 79.4923 48.1112 79.4923C55.669 79.4923 71.542 75.1476 71.542 40.3789C71.542 5.61017 50.1883 0.505859 41.8753 0.505859C2.94789 0.505859 -13.6802 71.3675 14.0976 71.3675Z" fill="#F1F1F1"/>
<path d="M52.3583 44.9909C52.3583 45.3015 52.118 45.5464 51.8118 45.5464H39.1724L46.3016 62.4489L39.2608 65.5102L31.9797 48.2517L22.6418 56.5034C22.5534 56.5918 22.4241 56.6371 22.2926 56.6371C21.9865 56.6371 21.7461 56.3922 21.7461 56.0816V15.0453C21.7461 14.7346 21.9865 14.4897 22.2926 14.4897C22.4468 14.4897 22.576 14.5555 22.6871 14.6439L52.2064 44.5918C52.2926 44.7029 52.3583 44.8367 52.3583 44.9909Z" fill="#01FF66"/>
<path d="M26.8481 18.8662L22.6871 14.6439C22.5783 14.5555 22.4468 14.4897 22.2926 14.4897C21.9865 14.4897 21.7461 14.7346 21.7461 15.0453V56.0839C21.7461 56.3945 21.9865 56.6394 22.2926 56.6394C22.4241 56.6394 22.5556 56.5941 22.6418 56.5056L26.8481 52.7868V18.8662Z" fill="#01FF66"/>
<path d="M54.626 72.8799C52.7507 72.8799 51.2246 71.3538 51.2246 69.4785C51.2246 67.6032 52.7507 66.0771 54.626 66.0771C56.5013 66.0771 58.0273 67.6032 58.0273 69.4785C58.0273 71.3538 56.5013 72.8799 54.626 72.8799ZM54.626 68.3447C54.0001 68.3447 53.4922 68.8527 53.4922 69.4785C53.4922 70.1044 54.0001 70.6123 54.626 70.6123C55.2518 70.6123 55.7598 70.1044 55.7598 69.4785C55.7598 68.8527 55.2518 68.3447 54.626 68.3447Z" fill="black"/>
<path d="M14.168 6.69971L15.7714 5.09629L18.9782 8.30313L17.3748 9.90654L14.168 6.69971Z" fill="black"/>
<path d="M13.7656 17.5225L16.9725 14.3156L18.5759 15.919L15.369 19.1259L13.7656 17.5225Z" fill="black"/>
<path d="M22.9854 8.30615L26.1922 5.09932L27.7956 6.70274L24.5888 9.90957L22.9854 8.30615Z" fill="black"/>
<path d="M39.2608 67.2108C39.0454 67.2108 38.8323 67.17 38.6282 67.0884C38.2064 66.9206 37.8708 66.5895 37.6939 66.17L31.3311 51.0929L23.7688 57.7777C23.4513 58.1043 22.8821 58.3378 22.2926 58.3378C21.0545 58.3378 20.0454 57.3265 20.0454 56.0816V15.0453C20.0454 13.8004 21.0545 12.7891 22.2926 12.7891C22.8164 12.7891 23.3243 12.9727 23.7552 13.3219L53.4173 43.399C53.8799 43.9682 54.059 44.4693 54.059 44.9909C54.059 46.2335 53.05 47.2471 51.8119 47.2471H41.737L47.8685 61.7891C48.2314 62.6485 47.8345 63.6371 46.9797 64.009L39.9388 67.0703C39.7234 67.1632 39.4921 67.2108 39.2608 67.2108ZM31.9797 46.551C32.1066 46.551 32.2314 46.5646 32.3583 46.5941C32.8912 46.7165 33.3357 47.0861 33.5465 47.5918L40.1611 63.2653L44.0817 61.56L37.6078 46.2063C37.3856 45.6825 37.4422 45.0793 37.7574 44.6054C38.0726 44.1315 38.6055 43.8458 39.1747 43.8458H49.0953L23.4468 17.839V53.5283L30.8527 46.9773C31.1656 46.7006 31.5692 46.551 31.9797 46.551ZM21.5647 55.1927C21.5171 55.229 21.474 55.2675 21.4332 55.3083L21.5647 55.1927Z" fill="black"/>
</g>
<defs>
<clipPath id="clip0">
<rect width="71.8367" height="80" fill="white"/>
</clipPath>
</defs>
</svg>
