<svg width="100" height="100" viewBox="0 0 100 100" fill="none" xmlns="http://www.w3.org/2000/svg">
<path d="M11.5749 76.7307C11.5749 57.5167 1.62207 44.3223 1.62207 35.0639C1.62207 25.8056 6.94427 6.36117 49.5359 6.36117C92.1277 6.36117 98.3777 32.5195 98.3777 42.7029C98.3803 90.3887 11.5749 110.759 11.5749 76.7307Z" fill="#F4F4F4"/>
<path d="M18.0029 14.3319L21.9313 10.4035L23.8955 12.3677L19.9671 16.2961L18.0029 14.3319Z" fill="black"/>
<path d="M6.70996 25.6224L10.6384 21.694L12.6026 23.6582L8.67416 27.5866L6.70996 25.6224Z" fill="black"/>
<path d="M6.70996 11.8805L8.67409 9.91633L12.6025 13.8447L10.6383 15.8089L6.70996 11.8805Z" fill="black"/>
<path d="M91.6549 67.9887C89.3583 67.9887 87.4883 66.1195 87.4883 63.8223C87.4883 61.5251 89.3583 59.6556 91.6549 59.6556C93.9523 59.6556 95.8216 61.5251 95.8216 63.8223C95.8216 66.1195 93.9523 67.9887 91.6549 67.9887ZM91.6549 62.4334C90.8916 62.4334 90.2663 63.0584 90.2663 63.8223C90.2663 64.5861 90.8916 65.2111 91.6549 65.2111C92.4189 65.2111 93.0443 64.5861 93.0443 63.8223C93.0443 63.0584 92.4189 62.4334 91.6549 62.4334Z" fill="black"/>
<path d="M54.8616 36.8055H71.2337C72.331 36.8055 73.403 37.1305 74.3143 37.7389L81.2477 42.3611V21.5278C81.2477 19.9945 80.003 18.75 78.4697 18.75H54.8589C53.3255 18.75 52.0811 19.9945 52.0811 21.5278V34.0278C52.0839 35.5611 53.3283 36.8055 54.8616 36.8055Z" fill="#F4F4F4"/>
<path d="M31.9443 64.5833C35.3961 64.5833 38.1943 61.7851 38.1943 58.3333C38.1943 54.8815 35.3961 52.0833 31.9443 52.0833C28.4925 52.0833 25.6943 54.8815 25.6943 58.3333C25.6943 61.7851 28.4925 64.5833 31.9443 64.5833Z" fill="#F4F4F4"/>
<path d="M18.75 81.25V77.0833C18.75 74.014 21.2361 71.528 24.3055 71.528H39.5833C42.6528 71.528 45.1389 74.014 45.1389 77.0833V81.25H18.75Z" fill="#01FF66"/>
<path d="M68.0557 64.5833C71.5077 64.5833 74.3057 61.7851 74.3057 58.3333C74.3057 54.8815 71.5077 52.0833 68.0557 52.0833C64.6039 52.0833 61.8057 54.8815 61.8057 58.3333C61.8057 61.7851 64.6039 64.5833 68.0557 64.5833Z" fill="#F4F4F4"/>
<path d="M54.8613 81.25V77.0833C54.8613 74.014 57.3475 71.528 60.4169 71.528H75.6947C78.764 71.528 81.25 74.014 81.25 77.0833V81.25H54.8613Z" fill="#01FF66"/>
<path d="M50.6945 42.3612H28.7667C27.6695 42.3612 26.5972 42.6862 25.6861 43.2945L18.75 47.9168V27.0835C18.75 25.5501 19.9945 24.3057 21.5278 24.3057H50.6945C52.2278 24.3057 53.4722 25.5501 53.4722 27.0835V39.5835C53.4722 41.1168 52.2278 42.3612 50.6945 42.3612Z" fill="#01FF66"/>
<path d="M24.3055 27.0835C24.3055 25.5501 25.55 24.3057 27.0833 24.3057H21.5278C19.9945 24.3057 18.75 25.5501 18.75 27.0835V47.9168L24.3055 44.214V27.0835Z" fill="#05C394"/>
<path d="M57.6385 34.0278V21.5278C57.6385 19.9945 58.883 18.75 60.4163 18.75H54.8608C53.3275 18.75 52.083 19.9945 52.083 21.5278V34.0278C52.083 35.5611 53.3275 36.8055 54.8608 36.8055H60.4163C58.883 36.8055 57.6385 35.5611 57.6385 34.0278Z" fill="#D5DBE1"/>
<path d="M79.873 37.7389C78.959 37.1305 77.8863 36.8055 76.7923 36.8055H71.2363C72.3337 36.8055 73.4063 37.1305 74.317 37.7389L81.2503 42.3611V38.6583L79.873 37.7389Z" fill="#D5DBE1"/>
<path d="M31.2499 58.3333C31.2499 55.8833 32.6721 53.7861 34.7221 52.7611C33.8832 52.3417 32.9471 52.0833 31.9443 52.0833C28.4915 52.0833 25.6943 54.8805 25.6943 58.3333C25.6943 61.7861 28.4915 64.5833 31.9443 64.5833C32.9471 64.5833 33.8832 64.325 34.7221 63.9055C32.6721 62.8805 31.2499 60.7805 31.2499 58.3333Z" fill="#D5DBE1"/>
<path d="M67.361 58.3333C67.361 55.8833 68.7837 53.7861 70.8337 52.7611C69.9943 52.3417 69.0583 52.0833 68.0557 52.0833C64.6029 52.0833 61.8057 54.8805 61.8057 58.3333C61.8057 61.7861 64.6029 64.5833 68.0557 64.5833C69.0583 64.5833 69.9943 64.325 70.8337 63.9055C68.7837 62.8805 67.361 60.7805 67.361 58.3333Z" fill="#D5DBE1"/>
<path d="M29.8611 71.528H24.3055C21.2361 71.528 18.75 74.014 18.75 77.0833V81.25H24.3055V77.0833C24.3055 74.014 26.7917 71.528 29.8611 71.528Z" fill="#05C394"/>
<path d="M65.9725 71.528H60.4169C57.3475 71.528 54.8613 74.014 54.8613 77.0833V81.25H60.4169V77.0833C60.4169 74.014 62.903 71.528 65.9725 71.528Z" fill="#05C394"/>
<path d="M81.25 44.4445C80.8447 44.4445 80.4447 44.3278 80.0947 44.0945L73.1613 39.4722C72.5887 39.0889 71.922 38.8889 71.236 38.8889H54.8611C52.1805 38.8889 50 36.7083 50 34.0278V21.5278C50 18.8472 52.1805 16.6667 54.8611 16.6667H78.472C81.1527 16.6667 83.3333 18.8472 83.3333 21.5278V42.3611C83.3333 43.1278 82.9113 43.8333 82.2333 44.1972C81.9247 44.3639 81.586 44.4445 81.25 44.4445ZM54.8611 20.8333C54.4778 20.8333 54.1667 21.1445 54.1667 21.5278V34.0278C54.1667 34.4111 54.4778 34.7222 54.8611 34.7222H71.236C72.75 34.7222 74.214 35.1667 75.472 36.0055L79.1667 38.4695V21.5278C79.1667 21.1445 78.8553 20.8333 78.472 20.8333H54.8611Z" fill="black"/>
<path d="M18.7503 49.9999C18.4115 49.9999 18.0753 49.9194 17.767 49.7527C17.0892 49.3889 16.667 48.6833 16.667 47.9166V27.0833C16.667 24.4027 18.8475 22.2222 21.5281 22.2222H42.3615V26.3889H21.5281C21.1503 26.3889 20.8337 26.7055 20.8337 27.0833V44.0333L24.542 41.5694C25.7642 40.7305 27.2392 40.2777 28.7781 40.2777H50.6948V44.4444H28.7781C28.092 44.4444 27.417 44.6499 26.8698 45.0222L19.9003 49.6527C19.5559 49.8833 19.1531 49.9999 18.7503 49.9999Z" fill="black"/>
<path d="M31.9447 66.6667C27.3502 66.6667 23.6113 62.9278 23.6113 58.3333C23.6113 53.7389 27.3502 50 31.9447 50C36.5391 50 40.278 53.7389 40.278 58.3333C40.278 62.9278 36.5391 66.6667 31.9447 66.6667ZM31.9447 54.1667C29.6475 54.1667 27.778 56.0361 27.778 58.3333C27.778 60.6305 29.6475 62.5 31.9447 62.5C34.2419 62.5 36.1113 60.6305 36.1113 58.3333C36.1113 56.0361 34.2419 54.1667 31.9447 54.1667Z" fill="black"/>
<path d="M47.2225 81.25H43.0559V77.0833C43.0559 75.1693 41.4975 73.6107 39.5837 73.6107H24.3059C22.392 73.6107 20.8337 75.1693 20.8337 77.0833V81.25H16.667V77.0833C16.667 72.8693 20.092 69.4447 24.3059 69.4447H39.5837C43.7975 69.4447 47.2225 72.8693 47.2225 77.0833V81.25Z" fill="black"/>
<path d="M68.056 66.6667C63.4615 66.6667 59.7227 62.9278 59.7227 58.3333C59.7227 53.7389 63.4615 50 68.056 50C72.6507 50 76.3893 53.7389 76.3893 58.3333C76.3893 62.9278 72.6507 66.6667 68.056 66.6667ZM68.056 54.1667C65.7588 54.1667 63.8893 56.0361 63.8893 58.3333C63.8893 60.6305 65.7588 62.5 68.056 62.5C70.3533 62.5 72.2227 60.6305 72.2227 58.3333C72.2227 56.0361 70.3533 54.1667 68.056 54.1667Z" fill="black"/>
<path d="M83.3327 81.25H79.166V77.0833C79.166 75.1693 77.608 73.6107 75.694 73.6107H60.4162C58.5023 73.6107 56.944 75.1693 56.944 77.0833V81.25H52.7773V77.0833C52.7773 72.8693 56.2023 69.4447 60.4162 69.4447H75.694C79.908 69.4447 83.3327 72.8693 83.3327 77.0833V81.25Z" fill="black"/>
</svg>
