<svg width="100" height="100" viewBox="0 0 100 100" fill="none" xmlns="http://www.w3.org/2000/svg">
<path d="M11.5749 23.2694C11.5749 42.4833 1.62207 55.6777 1.62207 64.9361C1.62207 74.1947 6.94427 93.6387 49.5359 93.6387C92.1277 93.6387 98.3777 67.4807 98.3777 57.2972C98.3803 9.61107 11.5749 -10.7584 11.5749 23.2694Z" fill="#F4F4F4"/>
<path d="M13.8893 73.6113C11.5921 73.6113 9.72266 71.742 9.72266 69.4447C9.72266 67.1473 11.5921 65.2778 13.8893 65.2778C16.1865 65.2778 18.056 67.1473 18.056 69.4447C18.056 71.742 16.1865 73.6113 13.8893 73.6113ZM13.8893 68.0553C13.1227 68.0553 12.5004 68.6807 12.5004 69.4447C12.5004 70.2087 13.1227 70.8333 13.8893 70.8333C14.656 70.8333 15.2782 70.2087 15.2782 69.4447C15.2782 68.6807 14.656 68.0553 13.8893 68.0553Z" fill="black"/>
<path d="M60.4163 45.8335C60.4163 39.2723 54.3497 34.1279 47.5191 35.7029C43.6691 36.5918 40.5885 39.7862 39.8025 43.6585C38.8885 48.1612 40.8885 52.2529 44.2441 54.4723C45.7219 55.4501 46.5247 57.1807 46.5247 58.9529V62.5223C46.5247 63.8779 47.2413 64.5807 48.1275 64.5807H51.8663C52.7525 64.5807 53.4691 63.864 53.4691 62.9779V59.0195C53.4691 57.2307 54.2497 55.4612 55.7413 54.4751C58.5552 52.6223 60.4163 49.4557 60.4163 45.8335Z" fill="#F4F4F4"/>
<path d="M50.0001 18.75L24.3057 28.4722V50.4972C24.3057 75 50.0001 81.25 50.0001 81.25C50.0001 81.25 75.6943 75 75.6943 50.4972C75.6943 36.8055 75.6943 28.4722 75.6943 28.4722L50.0001 18.75ZM55.7445 54.4778C54.2529 55.4639 53.4723 57.2333 53.4723 59.0222V62.9805C53.4723 63.8667 52.7557 64.5833 51.8695 64.5833H48.1307C47.2445 64.5833 46.5279 63.8805 46.5279 62.525V58.9555C46.5279 57.1833 45.7251 55.4528 44.2473 54.475C40.8918 52.2528 38.8918 48.1639 39.8057 43.6611C40.5918 39.7889 43.6723 36.5945 47.5223 35.7055C54.3529 34.1305 60.4195 39.275 60.4195 45.8361C60.4168 49.4555 58.5557 52.6222 55.7445 54.4778Z" fill="#01FF66"/>
<path d="M30.5557 50.4972C30.5557 36.8055 30.5557 28.4722 30.5557 28.4722L53.1251 19.9333L50.0001 18.75L24.3057 28.4722V50.4972C24.3057 75 50.0001 81.25 50.0001 81.25C50.0001 81.25 51.2418 80.9333 53.1251 80.228C46.3001 77.6693 30.5557 69.7027 30.5557 50.4972Z" fill="#05C394"/>
<path d="M52.7776 62.5251V58.9556C52.7776 57.1834 51.9748 55.4528 50.4971 54.475C47.1415 52.2528 45.1415 48.1639 46.0554 43.6611C46.7915 40.0361 49.5471 37.0306 53.0526 35.9306C51.3471 35.4056 49.4776 35.2556 47.5221 35.7056C43.6721 36.5945 40.5915 39.7889 39.8054 43.6611C38.8915 48.1639 40.8915 52.2556 44.2471 54.475C45.7248 55.4528 46.5276 57.1834 46.5276 58.9556V62.5251C46.5276 63.8806 47.2443 64.5834 48.1304 64.5834H51.8693C52.4109 64.5834 52.8637 64.2973 53.1553 63.8889C52.9303 63.5501 52.7776 63.1111 52.7776 62.5251Z" fill="#D5DBE1"/>
<path d="M50.0005 83.3333C49.8338 83.3333 49.6699 83.314 49.5088 83.2747C49.2365 83.208 22.2227 76.336 22.2227 50.4972V28.4722C22.2227 27.6055 22.7588 26.8305 23.5671 26.525L49.2615 16.8028C49.7393 16.625 50.2588 16.625 50.7365 16.8028L76.4307 26.525C77.242 26.8305 77.778 27.6055 77.778 28.4722V36.1111H73.6113V29.9139L50.0005 20.9778L26.3893 29.9139V50.4972C26.3893 71.2973 46.5949 78.0973 50.0088 79.0913C53.5643 78.0887 73.6113 71.4833 73.6113 50.4972V41.6667H77.778V50.4972C77.778 76.3387 50.7643 83.208 50.4921 83.2747C50.331 83.314 50.1671 83.3333 50.0005 83.3333Z" fill="black"/>
<path d="M51.8694 66.6667H48.1305C46.2971 66.6667 44.4443 65.2417 44.4443 62.525V58.9555C44.4443 57.8139 43.9277 56.7611 43.0971 56.2111C38.8333 53.3889 36.7388 48.3 37.7638 43.2444C38.7083 38.5833 42.4416 34.7361 47.0527 33.6777C50.8693 32.7944 54.7749 33.6639 57.7777 36.05C60.7805 38.4389 62.4999 42.0083 62.4999 45.8361C62.4999 50.0222 60.4027 53.9027 56.8916 56.2195C56.0666 56.7611 55.5555 57.8361 55.5555 59.0222V62.9805C55.5555 65.0111 53.9028 66.6667 51.8694 66.6667ZM48.611 62.5H51.3888V59.0222C51.3888 56.4139 52.5888 54.0667 54.5971 52.7389C56.9361 51.1972 58.3333 48.6139 58.3333 45.8333C58.3333 43.2777 57.1861 40.9027 55.1833 39.3083C53.1805 37.7139 50.561 37.1444 47.9888 37.7333C44.9416 38.4361 42.4721 40.9833 41.8471 44.0722C41.1527 47.5055 42.511 50.825 45.3971 52.7361C47.411 54.0667 48.611 56.3917 48.611 58.9527V62.5Z" fill="black"/>
<path d="M5.55566 79.1667H94.4443V83.3333H5.55566V79.1667Z" fill="black"/>
</svg>
