<svg width="70" height="70" viewBox="0 0 70 70" fill="none" xmlns="http://www.w3.org/2000/svg">
<path d="M53.1564 32.5205C52.0676 33.2025 50.7706 33.4722 49.5002 33.2805C48.2298 33.0889 47.0699 32.4488 46.2307 31.476L38.184 35.6749C38.4706 37.3002 38.3962 39.0579 33.8364 41.7846C33.5278 41.9764 33.1736 42.0821 32.8104 42.0908C31.8084 42.0934 30.8251 41.8198 29.9683 41.3001C29.1116 40.7804 28.4146 40.0347 27.9539 39.1449C27.4932 38.2551 27.2865 37.2555 27.3566 36.256C27.4267 35.2564 27.7708 34.2954 28.3512 33.4786L25.4385 29.3486V29.435H23.1876C22.7849 32.0138 22.9338 34.6486 23.6244 37.1656C24.315 39.6826 25.5317 42.0245 27.194 44.0366L15.6003 61.2085C15.5198 61.3275 15.4635 61.4613 15.4348 61.6021C15.406 61.7429 15.4052 61.888 15.4325 62.0291C15.4599 62.1702 15.5147 62.3045 15.594 62.4243C15.6733 62.5442 15.7754 62.6473 15.8945 62.7277L23.1482 67.6211C23.2674 67.7016 23.4012 67.7578 23.542 67.7864C23.6828 67.8151 23.828 67.8158 23.9691 67.7884C24.1102 67.7609 24.2445 67.706 24.3643 67.6266C24.4841 67.5472 24.5871 67.445 24.6675 67.3258L36.3126 50.0752C40.5934 51.3462 45.1893 51.0279 49.2541 49.1789C53.3188 47.3299 56.5788 44.0747 58.4337 40.0127L53.1564 32.5205Z" fill="#01FF66"/>
<path d="M63.4377 39.9033C62.7166 39.9035 62.0028 40.047 61.3377 40.3255L59.3788 37.5485C59.1253 38.3913 58.8117 39.2148 58.4403 40.0127L59.5341 41.5581C58.6557 42.462 58.1171 43.6419 58.0096 44.8977C57.9022 46.1535 58.2325 47.4078 58.9445 48.4478C59.6565 49.4877 60.7063 50.2494 61.9159 50.6034C63.1256 50.9575 64.4204 50.8822 65.5808 50.3902C66.7412 49.8983 67.6957 49.0201 68.2823 47.9045C68.8689 46.789 69.0515 45.5049 68.7992 44.2701C68.5468 43.0352 67.875 41.9257 66.8978 41.1298C65.9205 40.3338 64.698 39.9005 63.4377 39.9033Z" fill="#01FF66"/>
<path d="M29.9686 31.9747C31.1736 31.2223 32.6262 30.9739 34.0127 31.2831C35.3993 31.5923 36.6087 32.4343 37.3799 33.6274L45.1455 29.5805C44.9534 29.031 44.8515 28.4541 44.8436 27.8721C44.8403 27.0108 45.0405 26.1609 45.4279 25.3916C45.8153 24.6224 46.3789 23.9555 47.0728 23.4453C47.7667 22.9351 48.5713 22.596 49.4211 22.4556C50.2709 22.3152 51.1418 22.3776 51.9629 22.6375C52.7841 22.8975 53.5322 23.3477 54.1463 23.9516C54.7605 24.5554 55.2234 25.2958 55.4973 26.1124C55.7711 26.9289 55.8482 27.7987 55.7223 28.6507C55.5964 29.5028 55.271 30.313 54.7727 31.0155L59.3774 37.5452C60.7219 33.0393 60.3078 28.1911 58.2187 23.9785C56.1295 19.7659 52.5206 16.5021 48.1198 14.8455C43.719 13.1889 38.8538 13.2627 34.5053 15.052C30.1568 16.8412 26.6485 20.2129 24.688 24.4869L29.9686 31.9747Z" fill="#01FF66"/>
<path d="M32.8125 39.9033C34.6247 39.9033 36.0938 38.4343 36.0938 36.6221C36.0938 34.8099 34.6247 33.3408 32.8125 33.3408C31.0003 33.3408 29.5312 34.8099 29.5312 36.6221C29.5312 38.4343 31.0003 39.9033 32.8125 39.9033Z" fill="#01FF66"/>
<path d="M50.3125 31.1533C52.1247 31.1533 53.5938 29.6843 53.5938 27.8721C53.5938 26.0599 52.1247 24.5908 50.3125 24.5908C48.5003 24.5908 47.0312 26.0599 47.0312 27.8721C47.0312 29.6843 48.5003 31.1533 50.3125 31.1533Z" fill="#01FF66"/>
<path d="M1.20283 31.8774C1.52976 35.5101 2.57981 39.0408 4.29125 42.2617C6.00268 45.4827 8.34094 48.3289 11.1685 50.6329C13.996 52.9369 17.2557 54.6523 20.7559 55.6781C24.2561 56.7038 27.9261 57.0193 31.55 56.6059C36.4292 56.0471 41.0677 54.1845 44.9784 51.2138C48.8891 48.2431 51.9275 44.2741 53.7745 39.7236C55.6215 35.1731 56.2089 30.2092 55.475 25.3533C54.741 20.4974 52.7128 15.9288 49.6035 12.1275C47.3089 9.30038 44.4684 6.96431 41.2515 5.25862C38.0347 3.55293 34.5072 2.51255 30.8796 2.19954C30.4281 2.16338 29.974 2.22128 29.546 2.36958C29.118 2.51788 28.7254 2.75335 28.3931 3.06112C28.0608 3.36888 27.7959 3.74224 27.6152 4.1576C27.4346 4.57296 27.342 5.02128 27.3435 5.47423V28.3413H4.47643C4.02357 28.34 3.57537 28.4326 3.16014 28.6133C2.74492 28.7941 2.37169 29.059 2.06404 29.3913C1.7564 29.7236 1.52102 30.1161 1.37279 30.544C1.22455 30.9719 1.16668 31.4259 1.20283 31.8774ZM3.38158 31.6849C3.37195 31.5358 3.39317 31.3864 3.4439 31.2459C3.49464 31.1054 3.57381 30.9769 3.67645 30.8684C3.7791 30.7599 3.90303 30.6737 4.04049 30.6153C4.17794 30.5569 4.32598 30.5274 4.47533 30.5288H28.4372C28.7273 30.5288 29.0055 30.4135 29.2106 30.2084C29.4157 30.0033 29.531 29.7251 29.531 29.435V5.47423C29.5307 5.3251 29.561 5.17749 29.6199 5.04048C29.6787 4.90347 29.765 4.77995 29.8734 4.67751C29.9818 4.57507 30.11 4.49587 30.2501 4.44479C30.3902 4.39371 30.5393 4.37183 30.6882 4.38048C36.8974 4.93086 42.6812 7.767 46.9183 12.3391C51.1554 16.9113 53.5441 22.8937 53.6213 29.1268C53.6986 35.3599 51.4588 41.3997 47.3363 46.0754C43.2137 50.7511 37.502 53.7297 31.3083 54.4338C27.9737 54.815 24.5966 54.5254 21.3756 53.5822C18.1546 52.6389 15.1547 51.061 12.5525 48.9412C9.95034 46.8215 7.79836 44.2027 6.22321 41.239C4.64805 38.2753 3.68152 35.0265 3.38049 31.6838L3.38158 31.6849Z" fill="black"/>
<path d="M25.1562 22.8724V19.5912C25.1562 18.7209 24.8105 17.8863 24.1952 17.271C23.5798 16.6556 22.7452 16.3099 21.875 16.3099C21.0048 16.3099 20.1702 16.6556 19.5548 17.271C18.9395 17.8863 18.5938 18.7209 18.5938 19.5912V22.8724C18.5938 23.7427 18.9395 24.5773 19.5548 25.1926C20.1702 25.808 21.0048 26.1537 21.875 26.1537C22.7452 26.1537 23.5798 25.808 24.1952 25.1926C24.8105 24.5773 25.1562 23.7427 25.1562 22.8724ZM22.9688 22.8724C22.9688 23.1625 22.8535 23.4407 22.6484 23.6458C22.4433 23.851 22.1651 23.9662 21.875 23.9662C21.5849 23.9662 21.3067 23.851 21.1016 23.6458C20.8965 23.4407 20.7812 23.1625 20.7812 22.8724V19.5912C20.7812 19.3011 20.8965 19.0229 21.1016 18.8178C21.3067 18.6127 21.5849 18.4974 21.875 18.4974C22.1651 18.4974 22.4433 18.6127 22.6484 18.8178C22.8535 19.0229 22.9688 19.3011 22.9688 19.5912V22.8724Z" fill="black"/>
<path d="M1.09375 15.2162V22.8724C1.09375 23.7427 1.43945 24.5773 2.05481 25.1926C2.67016 25.808 3.50476 26.1537 4.375 26.1537C5.24524 26.1537 6.07984 25.808 6.69519 25.1926C7.31055 24.5773 7.65625 23.7427 7.65625 22.8724V15.2162C7.65625 14.7853 7.57138 14.3586 7.40648 13.9605C7.24158 13.5624 6.99989 13.2007 6.69519 12.896C6.3905 12.5913 6.02878 12.3496 5.63068 12.1847C5.23258 12.0198 4.8059 11.9349 4.375 11.9349C3.9441 11.9349 3.51742 12.0198 3.11932 12.1847C2.72122 12.3496 2.3595 12.5913 2.05481 12.896C1.75011 13.2007 1.50842 13.5624 1.34352 13.9605C1.17862 14.3586 1.09375 14.7853 1.09375 15.2162ZM3.28125 15.2162C3.28125 14.9261 3.39648 14.6479 3.6016 14.4428C3.80672 14.2377 4.08492 14.1224 4.375 14.1224C4.66508 14.1224 4.94328 14.2377 5.1484 14.4428C5.35352 14.6479 5.46875 14.9261 5.46875 15.2162V22.8724C5.46875 23.1625 5.35352 23.4407 5.1484 23.6458C4.94328 23.851 4.66508 23.9662 4.375 23.9662C4.08492 23.9662 3.80672 23.851 3.6016 23.6458C3.39648 23.4407 3.28125 23.1625 3.28125 22.8724V15.2162Z" fill="black"/>
<path d="M16.4062 22.8724V9.74744C16.4062 8.87719 16.0605 8.0426 15.4452 7.42724C14.8298 6.81189 13.9952 6.46619 13.125 6.46619C12.2548 6.46619 11.4202 6.81189 10.8048 7.42724C10.1895 8.0426 9.84375 8.87719 9.84375 9.74744V22.8724C9.84375 23.7427 10.1895 24.5773 10.8048 25.1926C11.4202 25.808 12.2548 26.1537 13.125 26.1537C13.9952 26.1537 14.8298 25.808 15.4452 25.1926C16.0605 24.5773 16.4062 23.7427 16.4062 22.8724ZM14.2188 22.8724C14.2188 23.1625 14.1035 23.4407 13.8984 23.6458C13.6933 23.851 13.4151 23.9662 13.125 23.9662C12.8349 23.9662 12.5567 23.851 12.3516 23.6458C12.1465 23.4407 12.0312 23.1625 12.0312 22.8724V9.74744C12.0312 9.45736 12.1465 9.17916 12.3516 8.97404C12.5567 8.76892 12.8349 8.65369 13.125 8.65369C13.4151 8.65369 13.6933 8.76892 13.8984 8.97404C14.1035 9.17916 14.2188 9.45736 14.2188 9.74744V22.8724Z" fill="black"/>
</svg>
