<svg width="70" height="70" viewBox="0 0 70 70" fill="none" xmlns="http://www.w3.org/2000/svg">
<path d="M49.2187 48.125C47.606 48.1241 46.0249 48.5719 44.6521 49.4181C43.2793 50.2644 42.169 51.4759 41.4453 52.917C43.6134 54.7658 46.3694 55.7813 49.2187 55.7813C52.0679 55.7813 54.8239 54.7658 56.992 52.917C56.2683 51.4759 55.158 50.2644 53.7852 49.4181C52.4124 48.5719 50.8313 48.1241 49.2187 48.125Z" fill="#01FF66"/>
<path d="M49.2188 45.9375C51.635 45.9375 53.5938 43.9787 53.5938 41.5625C53.5938 39.1463 51.635 37.1875 49.2188 37.1875C46.8025 37.1875 44.8438 39.1463 44.8438 41.5625C44.8438 43.9787 46.8025 45.9375 49.2188 45.9375Z" fill="#01FF66"/>
<path d="M64.5312 18.5938H33.9062C33.0363 18.5947 32.2023 18.9407 31.5871 19.5559C30.972 20.171 30.6259 21.005 30.625 21.875V65.625C30.6259 66.4949 30.972 67.329 31.5871 67.9441C32.2023 68.5593 33.0363 68.9053 33.9062 68.9062H64.5312C65.4012 68.9053 66.2352 68.5593 66.8504 67.9441C67.4655 67.329 67.8116 66.4949 67.8125 65.625V21.875C67.8116 21.005 67.4655 20.171 66.8504 19.5559C66.2352 18.9407 65.4012 18.5947 64.5312 18.5938ZM49.2188 22.9688H54.6875C54.9776 22.9688 55.2558 23.084 55.4609 23.2891C55.666 23.4942 55.7812 23.7724 55.7812 24.0625C55.7812 24.3526 55.666 24.6308 55.4609 24.8359C55.2558 25.041 54.9776 25.1562 54.6875 25.1562H49.2188C48.9287 25.1562 48.6505 25.041 48.4454 24.8359C48.2402 24.6308 48.125 24.3526 48.125 24.0625C48.125 23.7724 48.2402 23.4942 48.4454 23.2891C48.6505 23.084 48.9287 22.9688 49.2188 22.9688ZM43.75 22.9688H44.8438C45.1338 22.9688 45.412 23.084 45.6171 23.2891C45.8223 23.4942 45.9375 23.7724 45.9375 24.0625C45.9375 24.3526 45.8223 24.6308 45.6171 24.8359C45.412 25.041 45.1338 25.1562 44.8438 25.1562H43.75C43.4599 25.1562 43.1817 25.041 42.9766 24.8359C42.7715 24.6308 42.6562 24.3526 42.6562 24.0625C42.6562 23.7724 42.7715 23.4942 42.9766 23.2891C43.1817 23.084 43.4599 22.9688 43.75 22.9688ZM51.4062 64.5312H47.0312C46.7412 64.5312 46.463 64.416 46.2579 64.2109C46.0527 64.0058 45.9375 63.7276 45.9375 63.4375C45.9375 63.1474 46.0527 62.8692 46.2579 62.6641C46.463 62.459 46.7412 62.3438 47.0312 62.3438H51.4062C51.6963 62.3438 51.9745 62.459 52.1796 62.6641C52.3848 62.8692 52.5 63.1474 52.5 63.4375C52.5 63.7276 52.3848 64.0058 52.1796 64.2109C51.9745 64.416 51.6963 64.5312 51.4062 64.5312ZM49.2188 57.9688C46.4065 57.9688 43.6575 57.1348 41.3192 55.5725C38.981 54.0101 37.1585 51.7894 36.0823 49.1913C35.0062 46.5931 34.7246 43.7342 35.2732 40.9761C35.8218 38.2179 37.176 35.6844 39.1646 33.6958C41.1531 31.7073 43.6866 30.3531 46.4448 29.8045C49.203 29.2558 52.0619 29.5374 54.66 30.6136C57.2582 31.6898 59.4788 33.5122 61.0412 35.8505C62.6036 38.1887 63.4375 40.9378 63.4375 43.75C63.4277 47.518 61.9265 51.1289 59.2621 53.7934C56.5977 56.4578 52.9868 57.959 49.2188 57.9688Z" fill="#01FF66"/>
<path d="M49.2188 31.7188C46.9521 31.7161 44.7309 32.3545 42.8115 33.5604C40.8922 34.7663 39.3531 36.4904 38.3718 38.5337C37.3906 40.577 37.0073 42.8562 37.2661 45.1081C37.525 47.3599 38.4154 49.4927 39.8347 51.2601C41.0608 49.1978 42.9346 47.5989 45.1641 46.7124C44.091 45.8692 43.3075 44.7124 42.9227 43.4031C42.5378 42.0937 42.5707 40.697 43.0168 39.4072C43.4629 38.1174 44.3001 36.9988 45.4117 36.2071C46.5233 35.4154 47.8541 34.9899 49.2188 34.9899C50.5835 34.9899 51.9143 35.4154 53.0259 36.2071C54.1376 36.9988 54.9747 38.1174 55.4208 39.4072C55.8669 40.697 55.8998 42.0937 55.515 43.4031C55.1301 44.7124 54.3466 45.8692 53.2735 46.7124C55.503 47.5989 57.3768 49.1978 58.6029 51.2601C60.0222 49.4927 60.9127 47.3599 61.1715 45.1081C61.4303 42.8562 61.047 40.577 60.0658 38.5337C59.0845 36.4904 57.5454 34.7663 55.6261 33.5604C53.7068 32.3545 51.4855 31.7161 49.2188 31.7188Z" fill="#01FF66"/>
<path d="M54.6875 31.7188H52.5V4.375C52.4991 3.50505 52.153 2.671 51.5379 2.05585C50.9227 1.44071 50.0887 1.0947 49.2188 1.09375H8.75C7.88005 1.0947 7.046 1.44071 6.43086 2.05585C5.81571 2.671 5.4697 3.50505 5.46875 4.375V31.7188H3.28125C3.13759 31.7187 2.99533 31.7469 2.86259 31.8018C2.72986 31.8568 2.60925 31.9373 2.50767 32.0389C2.40609 32.1405 2.32553 32.2611 2.27059 32.3938C2.21565 32.5266 2.18742 32.6688 2.1875 32.8125V36.0938C2.18845 36.9637 2.53446 37.7977 3.1496 38.4129C3.76475 39.028 4.5988 39.3741 5.46875 39.375H52.5C53.3699 39.3741 54.204 39.028 54.8191 38.4129C55.4343 37.7977 55.7803 36.9637 55.7812 36.0938V32.8125C55.7813 32.6688 55.7531 32.5266 55.6982 32.3938C55.6432 32.2611 55.5627 32.1405 55.4611 32.0389C55.3595 31.9373 55.2389 31.8568 55.1062 31.8018C54.9734 31.7469 54.8312 31.7187 54.6875 31.7188ZM7.65625 4.375C7.65644 4.08498 7.77174 3.80689 7.97682 3.60182C8.18189 3.39674 8.45998 3.28144 8.75 3.28125H49.2188C49.5088 3.28144 49.7869 3.39674 49.9919 3.60182C50.197 3.80689 50.3123 4.08498 50.3125 4.375V31.7188H43.75V18.5938H44.8438C45.0796 18.593 45.3089 18.5161 45.4976 18.3744C45.6862 18.2328 45.824 18.034 45.8905 17.8077C45.957 17.5814 45.9487 17.3397 45.8667 17.1185C45.7847 16.8974 45.6334 16.7086 45.4355 16.5804L30.123 6.7366C29.9466 6.62271 29.7412 6.56225 29.5312 6.5625H28.4375C28.2276 6.56225 28.0221 6.62271 27.8458 6.7366L12.5333 16.5804C12.3353 16.7086 12.1841 16.8974 12.1021 17.1185C12.0201 17.3397 12.0117 17.5814 12.0782 17.8077C12.1447 18.034 12.2826 18.2328 12.4712 18.3744C12.6598 18.5161 12.8891 18.593 13.125 18.5938H14.2188V31.7188H7.65625V4.375ZM16.8495 16.4062L28.7591 8.75H29.2098L41.1193 16.4062H16.8495ZM36.0938 18.5938V31.7188H32.8125V18.5938H36.0938ZM30.625 18.5938V31.7188H27.3438V18.5938H30.625ZM25.1562 18.5938V31.7188H21.875V18.5938H25.1562ZM19.6875 18.5938V31.7188H16.4062V18.5938H19.6875ZM38.2812 18.5938H41.5625V31.7188H38.2812V18.5938ZM53.5938 36.0938C53.5936 36.3838 53.4783 36.6619 53.2732 36.8669C53.0681 37.072 52.79 37.1873 52.5 37.1875H5.46875C3.83922 37.1875 4.52375 34.9019 4.375 33.9062H53.5938V36.0938Z" fill="black"/>
</svg>
