<svg width="69" height="69" viewBox="0 0 69 69" fill="none" xmlns="http://www.w3.org/2000/svg">
<path d="M54.9305 39.8906C53.0963 39.8956 51.2793 39.5368 49.5847 38.8348C47.8901 38.1329 46.3515 37.1018 45.0581 35.8013C43.9643 34.7016 42.6633 33.8299 41.2304 33.2364C39.7975 32.6429 38.2611 32.3395 36.7102 32.3437H14.0156V56.0625C14.0156 56.9203 14.3564 57.743 14.963 58.3495C15.5695 58.9561 16.3922 59.2969 17.25 59.2969H64.6875C65.5453 59.2969 66.368 58.9561 66.9745 58.3495C67.5811 57.743 67.9219 56.9203 67.9219 56.0625V39.8906H54.9305ZM40.9688 52.8281H20.4844C20.1984 52.8281 19.9242 52.7145 19.722 52.5123C19.5198 52.3101 19.4062 52.0359 19.4062 51.75C19.4062 51.464 19.5198 51.1898 19.722 50.9876C19.9242 50.7854 20.1984 50.6719 20.4844 50.6719H40.9688C41.2547 50.6719 41.5289 50.7854 41.7311 50.9876C41.9333 51.1898 42.0469 51.464 42.0469 51.75C42.0469 52.0359 41.9333 52.3101 41.7311 52.5123C41.5289 52.7145 41.2547 52.8281 40.9688 52.8281Z" fill="#01FF66"/>
<path d="M36.7102 30.1875C38.5444 30.1825 40.3614 30.5413 42.056 31.2433C43.7506 31.9452 45.2891 32.9763 46.5825 34.2768C47.6763 35.3765 48.9773 36.2482 50.4102 36.8417C51.8431 37.4352 53.3795 37.7386 54.9305 37.7344H67.9219V25.875C67.9219 25.0172 67.5811 24.1945 66.9745 23.588C66.368 22.9814 65.5453 22.6406 64.6875 22.6406H17.25C16.3922 22.6406 15.5695 22.9814 14.963 23.588C14.3564 24.1945 14.0156 25.0172 14.0156 25.875V30.1875H36.7102Z" fill="#01FF66"/>
<path d="M51.7979 9.70312H4.36042C3.50261 9.70312 2.67993 10.0439 2.07337 10.6505C1.46681 11.257 1.12604 12.0797 1.12604 12.9375C1.12604 24.5424 1.01823 23.7188 1.12604 23.7188V43.125C1.12604 43.9828 1.46681 44.8055 2.07337 45.412C2.67993 46.0186 3.50261 46.3594 4.36042 46.3594H51.7979C52.6557 46.3594 53.4784 46.0186 54.085 45.412C54.6915 44.8055 55.0323 43.9828 55.0323 43.125V12.9375C55.0323 12.0797 54.6915 11.257 54.085 10.6505C53.4784 10.0439 52.6557 9.70312 51.7979 9.70312ZM4.36042 11.8594H51.7979C52.0839 11.8594 52.3581 11.973 52.5603 12.1752C52.7625 12.3773 52.876 12.6516 52.876 12.9375V16.1719H3.28229V12.9375C3.28229 12.6516 3.39588 12.3773 3.59807 12.1752C3.80025 11.973 4.07448 11.8594 4.36042 11.8594ZM52.876 22.6406H3.28229V18.3281H52.876V22.6406ZM51.7979 44.2031H4.36042C4.07448 44.2031 3.80025 44.0895 3.59807 43.8874C3.39588 43.6852 3.28229 43.4109 3.28229 43.125V24.7969H52.876V43.125C52.876 43.4109 52.7625 43.6852 52.5603 43.8874C52.3581 44.0895 52.0839 44.2031 51.7979 44.2031Z" fill="black"/>
<path d="M30.2363 35.5781H10.8301C10.5441 35.5781 10.2699 35.6917 10.0677 35.8939C9.86554 36.0961 9.75195 36.3703 9.75195 36.6562C9.75195 36.9422 9.86554 37.2164 10.0677 37.4186C10.2699 37.6208 10.5441 37.7344 10.8301 37.7344H30.2363C30.5223 37.7344 30.7965 37.6208 30.9987 37.4186C31.2009 37.2164 31.3145 36.9422 31.3145 36.6562C31.3145 36.3703 31.2009 36.0961 30.9987 35.8939C30.7965 35.6917 30.5223 35.5781 30.2363 35.5781Z" fill="black"/>
<path d="M43.1738 32.3438H38.8613C38.0035 32.3438 37.1808 32.6845 36.5743 33.2911C35.9677 33.8976 35.627 34.7203 35.627 35.5781V37.7344C35.627 38.5922 35.9677 39.4149 36.5743 40.0214C37.1808 40.628 38.0035 40.9688 38.8613 40.9688H43.1738C44.0316 40.9688 44.8543 40.628 45.4609 40.0214C46.0674 39.4149 46.4082 38.5922 46.4082 37.7344V35.5781C46.4082 34.7203 46.0674 33.8976 45.4609 33.2911C44.8543 32.6845 44.0316 32.3438 43.1738 32.3438ZM44.252 37.7344C44.252 38.0203 44.1384 38.2945 43.9362 38.4967C43.734 38.6989 43.4598 38.8125 43.1738 38.8125H38.8613C38.5754 38.8125 38.3012 38.6989 38.099 38.4967C37.8968 38.2945 37.7832 38.0203 37.7832 37.7344V35.5781C37.7832 35.2922 37.8968 35.018 38.099 34.8158C38.3012 34.6136 38.5754 34.5 38.8613 34.5H43.1738C43.4598 34.5 43.734 34.6136 43.9362 34.8158C44.1384 35.018 44.252 35.2922 44.252 35.5781V37.7344Z" fill="black"/>
</svg>
