<svg width="178" height="55" viewBox="0 0 178 55" fill="none" xmlns="http://www.w3.org/2000/svg">
<path d="M28.3053 0C29.806 0 31.2961 0.122416 32.7769 0.366004C34.2577 0.610213 35.708 0.972488 37.1298 1.45407C38.5509 1.93566 39.923 2.52909 41.2472 3.23562C42.5714 3.94153 43.8291 4.75059 45.0203 5.6628C46.2115 6.57439 47.3213 7.57733 48.3479 8.67099C49.3763 9.76465 50.3072 10.9341 51.1429 12.1806C51.9793 13.4266 52.7082 14.7321 53.3303 16.0986C53.9523 17.4638 54.4593 18.8706 54.8508 20.3191L41.5778 23.9095C41.3833 23.185 41.1285 22.4816 40.8178 21.7987C40.5065 21.1157 40.1417 20.4633 39.7241 19.84C39.3059 19.2174 38.8405 18.6326 38.3266 18.0852C37.8133 17.5383 37.2584 17.0369 36.6625 16.5808C36.0666 16.1253 35.4377 15.7208 34.7759 15.3678C34.1141 15.0148 33.4275 14.7178 32.7172 14.4767C32.0064 14.2362 31.2812 14.0548 30.5411 13.9324C29.8004 13.8106 29.0553 13.7497 28.3047 13.7497L28.3053 0Z" fill="#720024"/>
<path d="M54.4605 19.002C54.9234 20.4293 55.2677 21.8846 55.4933 23.3679C55.7188 24.8512 55.822 26.3432 55.804 27.8432C55.7847 29.3439 55.6443 30.8328 55.3814 32.3098C55.1192 33.7869 54.7383 35.2335 54.2393 36.6478C53.7397 38.0634 53.1295 39.4286 52.4068 40.7434C51.6841 42.0583 50.8595 43.3061 49.9324 44.4855C49.0059 45.6649 47.9892 46.7629 46.8825 47.7764C45.7758 48.7899 44.5945 49.7065 43.3387 50.5274L35.8223 39.0128C36.4505 38.6033 37.0408 38.1454 37.5945 37.6377C38.1482 37.1313 38.6565 36.5832 39.1194 35.9922C39.583 35.4031 39.995 34.7793 40.3566 34.1212C40.7176 33.4638 41.0234 32.7808 41.2732 32.0737C41.5224 31.3659 41.7137 30.6426 41.8449 29.905C41.976 29.1662 42.0462 28.4224 42.0555 27.6711C42.0655 26.9211 42.0133 26.1748 41.9002 25.4334C41.7877 24.6915 41.6156 23.9638 41.3838 23.2505L54.4605 19.002Z" fill="#8E002D"/>
<path d="M44.4708 49.7476C43.2572 50.6293 41.979 51.4079 40.638 52.0797C39.2971 52.7526 37.9101 53.3113 36.4772 53.7587C35.0442 54.2036 33.5852 54.5298 32.0988 54.7368C30.6124 54.9443 29.1198 55.0288 27.6191 54.9909C26.1191 54.953 24.6321 54.7946 23.1581 54.5131C21.6841 54.2322 20.2431 53.8333 18.8344 53.3162C17.4257 52.7986 16.0686 52.171 14.7624 51.4322C13.4562 50.6939 12.219 49.8538 11.0508 48.9112L19.6789 38.2051C20.263 38.6755 20.8813 39.0955 21.5344 39.4653C22.1875 39.8344 22.8667 40.1488 23.5701 40.4073C24.2748 40.6658 24.995 40.8647 25.7319 41.0057C26.4689 41.1468 27.2127 41.2257 27.9628 41.245C28.7128 41.2636 29.4591 41.2213 30.2023 41.1176C30.9448 41.0144 31.675 40.8504 32.3915 40.6285C33.1073 40.4055 33.8008 40.1252 34.4719 39.789C35.1418 39.4522 35.7812 39.0632 36.3883 38.6233L44.4708 49.7476Z" fill="#AA0036"/>
<path d="M12.1424 49.7478C10.9282 48.8661 9.79417 47.8911 8.73966 46.8235C7.68576 45.7554 6.72508 44.6095 5.85823 43.3847C4.99138 42.16 4.23017 40.873 3.57397 39.5234C2.9184 38.1737 2.37654 36.7799 1.94901 35.342C1.52087 33.9034 1.21266 32.4407 1.02437 30.9518C0.83609 29.4629 0.7696 27.9691 0.826147 26.4696C0.882695 24.9702 1.06041 23.4857 1.35993 22.0148C1.65944 20.5446 2.07578 19.1086 2.61018 17.7061L15.4588 22.6033C15.1916 23.3042 14.9835 24.0226 14.8337 24.7583C14.684 25.4928 14.5951 26.236 14.5671 26.9854C14.5392 27.7354 14.5721 28.4823 14.6666 29.2268C14.7604 29.9706 14.9145 30.7026 15.1289 31.4209C15.3433 32.1411 15.6136 32.8377 15.9417 33.5126C16.2698 34.1874 16.6501 34.8306 17.0838 35.4426C17.5169 36.0547 17.9979 36.6283 18.5248 37.1627C19.0524 37.6958 19.6191 38.1842 20.2262 38.6254L12.1424 49.7478Z" fill="#C7003F"/>
<path d="M2.15234 19.0017C2.59789 17.6297 3.14845 16.3005 3.80402 15.0149C4.4596 13.7292 5.21087 12.5025 6.05908 11.3356C6.90728 10.1686 7.84187 9.07428 8.86158 8.05457C9.88192 7.03423 10.9756 6.10027 12.1432 5.25144C13.3102 4.40385 14.5374 3.65258 15.8225 2.997C17.1082 2.34205 18.4367 1.79211 19.8094 1.34533C21.1814 0.899785 22.5802 0.56423 24.0051 0.338041C25.4299 0.113095 26.8641 0 28.3064 0L28.3051 13.7497C27.5837 13.7497 26.8666 13.8062 26.1545 13.9193C25.4424 14.0318 24.7427 14.2002 24.0566 14.4233C23.3706 14.6457 22.7063 14.921 22.0638 15.2485C21.4207 15.576 20.808 15.9525 20.2239 16.3763C19.641 16.8001 19.0941 17.2674 18.5834 17.777C18.0738 18.2871 17.6065 18.834 17.1821 19.4181C16.7583 20.0016 16.3824 20.6149 16.0549 21.2568C15.7274 21.8999 15.4521 22.5642 15.2297 23.2502L2.15234 19.0017Z" fill="#DD0046"/>
<path d="M71.5402 9.20703H68.5918V11.2497H71.1601V12.6937H68.5918V15.6756H66.8066V7.76306H71.5402V9.20703Z" fill="#AA0036"/>
<path d="M72.6323 15.6756V9.72359H74.3138V15.6756H72.6323ZM72.782 8.70224C72.5901 8.50658 72.4941 8.27179 72.4941 7.99787C72.4941 7.72394 72.5901 7.48915 72.782 7.29349C72.974 7.09783 73.2043 7 73.473 7C73.7418 7 73.9721 7.09783 74.1641 7.29349C74.356 7.48915 74.452 7.72394 74.452 7.99787C74.452 8.27179 74.356 8.50658 74.1641 8.70224C73.9721 8.8979 73.7418 8.99573 73.473 8.99573C73.2043 8.99573 72.974 8.8979 72.782 8.70224Z" fill="#AA0036"/>
<path d="M77.4393 9.72362V10.7332C77.5851 10.4045 77.8078 10.1462 78.1072 9.95841C78.4144 9.76275 78.7791 9.66492 79.2014 9.66492C79.8003 9.66492 80.2686 9.84884 80.6065 10.2166C80.9443 10.5767 81.1132 11.1089 81.1132 11.8132V15.6756H79.4317V12.1302C79.4317 11.778 79.3511 11.5119 79.1899 11.3319C79.0286 11.1441 78.8021 11.0502 78.5103 11.0502C78.2032 11.0502 77.946 11.1754 77.7387 11.4258C77.5391 11.6684 77.4393 12.0363 77.4393 12.5293V15.6756H75.7578V9.72362H77.4393Z" fill="#AA0036"/>
<path d="M85.0191 15.7695C84.1054 15.7695 83.399 15.4916 82.9 14.936C82.4009 14.3725 82.1514 13.6524 82.1514 12.7759C82.1514 11.8602 82.4124 11.1089 82.9345 10.5219C83.4566 9.92704 84.1515 9.62964 85.0191 9.62964C85.9251 9.62964 86.6277 9.9153 87.1268 10.4867C87.6258 11.058 87.8754 11.7858 87.8754 12.6702C87.8754 13.5703 87.622 14.3138 87.1152 14.9007C86.6162 15.4799 85.9175 15.7695 85.0191 15.7695ZM85.0076 10.9797C84.6391 10.9797 84.3626 11.1402 84.1784 11.461C83.9941 11.7819 83.902 12.1967 83.902 12.7054C83.902 13.2142 83.9941 13.6329 84.1784 13.9616C84.3703 14.2825 84.6544 14.4429 85.0306 14.4429C85.3992 14.4429 85.6718 14.2864 85.8484 13.9733C86.0326 13.6524 86.1248 13.2376 86.1248 12.7289C86.1248 11.5628 85.7524 10.9797 85.0076 10.9797Z" fill="#AA0036"/>
<path d="M89.0312 15.6755V7.37561H90.7128V15.6755H89.0312Z" fill="#AA0036"/>
<path d="M94.736 15.7695C93.8223 15.7695 93.1159 15.4916 92.6168 14.936C92.1178 14.3725 91.8682 13.6524 91.8682 12.7759C91.8682 11.8602 92.1293 11.1089 92.6514 10.5219C93.1735 9.92704 93.8684 9.62964 94.736 9.62964C95.642 9.62964 96.3446 9.9153 96.8436 10.4867C97.3427 11.058 97.5922 11.7858 97.5922 12.6702C97.5922 13.5703 97.3389 14.3138 96.8321 14.9007C96.333 15.4799 95.6343 15.7695 94.736 15.7695ZM94.7245 10.9797C94.3559 10.9797 94.0795 11.1402 93.8952 11.461C93.711 11.7819 93.6188 12.1967 93.6188 12.7054C93.6188 13.2142 93.711 13.6329 93.8952 13.9616C94.0872 14.2825 94.3713 14.4429 94.7475 14.4429C95.1161 14.4429 95.3886 14.2864 95.5652 13.9733C95.7495 13.6524 95.8416 13.2376 95.8416 12.7289C95.8416 11.5628 95.4693 10.9797 94.7245 10.9797Z" fill="#AA0036"/>
<path d="M101.282 14.1142C101.643 14.1142 101.924 13.9772 102.123 13.7033C102.33 13.4216 102.434 13.085 102.434 12.6937C102.434 11.6293 102.054 11.0971 101.294 11.0971C100.956 11.0971 100.691 11.2302 100.499 11.4963C100.307 11.7624 100.211 12.1302 100.211 12.5998C100.211 13.0928 100.303 13.4685 100.488 13.7268C100.672 13.9851 100.937 14.1142 101.282 14.1142ZM102.434 9.72362H104.104V15.1003C104.104 16.0551 103.824 16.7713 103.263 17.2487C102.703 17.7339 102 17.9765 101.156 17.9765C100.334 17.9765 99.6165 17.8278 99.0022 17.5304V15.7812C99.5397 16.2195 100.2 16.4386 100.983 16.4386C101.49 16.4386 101.858 16.3291 102.089 16.1099C102.319 15.8908 102.434 15.5464 102.434 15.0768V14.6777C102.096 15.2099 101.559 15.476 100.822 15.476C100.177 15.476 99.6203 15.2334 99.152 14.7481C98.6913 14.2629 98.4609 13.5429 98.4609 12.588C98.4609 11.7428 98.6836 11.0462 99.1289 10.4984C99.5819 9.94275 100.173 9.66492 100.902 9.66492C101.593 9.66492 102.104 9.94667 102.434 10.5101V9.72362Z" fill="#AA0036"/>
<path d="M107.052 15.5816L104.795 9.72363H106.626L107.259 11.5784C107.421 12.0559 107.551 12.4667 107.651 12.8111C107.758 13.1555 107.824 13.3824 107.847 13.492L107.881 13.6563C107.966 13.3433 108.173 12.6507 108.503 11.5784L109.079 9.72363H110.807L108.699 15.4995C108.092 17.1665 107.167 18 105.923 18C105.685 18 105.47 17.9804 105.278 17.9413V16.5795C105.401 16.6108 105.532 16.6265 105.67 16.6265C106.307 16.6265 106.768 16.2782 107.052 15.5816Z" fill="#AA0036"/>
<path d="M69.0939 40.5479V24.7945L67.1689 24.6918V21.7808H75.3418V24.5548L74.2273 24.6575C73.5744 24.726 73.2479 25.0913 73.2479 25.7534V41.5411L75.1729 41.6438V44.5548H67V41.7808L68.1145 41.6781C68.4522 41.6324 68.6999 41.5411 68.8575 41.4041C69.0151 41.2443 69.0939 40.9589 69.0939 40.5479ZM77.1871 30.0685V27.3288H82.8946V29.5548C83.48 28.71 84.2568 28.0479 85.2249 27.5685C86.1931 27.0662 87.24 26.8151 88.3658 26.8151C90.0769 26.8151 91.394 27.3174 92.3171 28.3219C93.2628 29.3037 93.7356 30.7877 93.7356 32.774V41.7123L95.6606 41.8151V44.5548H87.6228V41.9521L88.7373 41.8493C89.075 41.8037 89.3226 41.7123 89.4802 41.5753C89.6378 41.4155 89.7166 41.1301 89.7166 40.7192V33.6644C89.7166 32.4087 89.5253 31.484 89.1425 30.8904C88.7598 30.274 88.028 29.9658 86.9473 29.9658C85.8891 29.9658 85.0448 30.3082 84.4144 30.9932C83.784 31.6781 83.4688 32.4886 83.4688 33.4247V41.7123L85.3938 41.8151V44.5548H77.356V41.9521L78.4704 41.8493C78.8082 41.8037 79.0558 41.7123 79.2134 41.5753C79.3711 41.4155 79.4499 41.1301 79.4499 40.7192V31.2329C79.4499 30.5479 79.1684 30.1941 78.6055 30.1712L77.1871 30.0685ZM106.488 29.9315C105.948 29.726 105.295 29.6233 104.53 29.6233C103.764 29.6233 103.145 29.8059 102.672 30.1712C102.222 30.5137 101.997 30.9475 101.997 31.4726C101.997 31.9749 102.075 32.3744 102.233 32.6712C102.413 32.9452 102.683 33.1849 103.044 33.3904C103.606 33.6872 104.282 33.9498 105.07 34.1781C105.858 34.3836 106.443 34.5548 106.826 34.6918C107.209 34.8059 107.682 35.0114 108.245 35.3082C108.83 35.605 109.269 35.9247 109.562 36.2671C110.35 37.1119 110.744 38.1963 110.744 39.5205C110.744 41.2329 110.125 42.5799 108.886 43.5616C107.67 44.5205 106.117 45 104.226 45C101.479 45 99.4074 44.6461 98.0115 43.9384V39.1781L101.051 38.9384V40.5822C101.051 41.5868 101.997 42.089 103.888 42.089C105.779 42.089 106.725 41.3927 106.725 40C106.725 39.4977 106.556 39.0868 106.218 38.7671C105.903 38.4475 105.588 38.2306 105.273 38.1164C104.957 38.0023 104.575 37.8881 104.124 37.774C103.696 37.6598 103.269 37.5457 102.841 37.4315C102.436 37.3174 101.985 37.169 101.49 36.9863C101.017 36.7808 100.488 36.4954 99.9027 36.1301C98.7545 35.3767 98.1803 34.121 98.1803 32.363C98.1803 30.5822 98.7995 29.2123 100.038 28.2534C101.276 27.2945 102.83 26.8151 104.698 26.8151C106.59 26.8151 108.458 27.2717 110.305 28.1849V32.2945L107.265 32.5342V31.0959C107.265 30.5251 107.006 30.137 106.488 29.9315ZM118.99 27.3288V41.7123L120.915 41.8151V44.5548H112.877V41.9521L113.991 41.8493C114.644 41.7808 114.971 41.4155 114.971 40.7534V31.2329C114.971 30.8447 114.903 30.5822 114.768 30.4452C114.656 30.3082 114.442 30.2397 114.127 30.2397L112.944 30.1712V27.3288H118.99ZM114.734 24.3836C114.262 23.9041 114.025 23.2991 114.025 22.5685C114.025 21.8379 114.262 21.2329 114.734 20.7534C115.207 20.2511 115.826 20 116.592 20C117.357 20 117.977 20.2511 118.449 20.7534C118.945 21.2329 119.192 21.8379 119.192 22.5685C119.192 23.2991 118.945 23.9041 118.449 24.3836C117.977 24.8402 117.357 25.0685 116.592 25.0685C115.826 25.0685 115.207 24.8402 114.734 24.3836ZM131.347 26.8151C132.315 26.8151 133.238 26.9521 134.116 27.226V23.7671C134.116 23.2648 133.824 22.9909 133.238 22.9452L131.786 22.8425V20.137H138.068V40.9589C138.09 41.484 138.372 41.7466 138.912 41.7466L140.094 41.8151V44.5548H134.623V42.5342L134.522 42.5C133.508 44.1667 131.977 45 129.929 45C127.362 45 125.561 44.1324 124.525 42.3973C123.579 40.8219 123.107 38.8927 123.107 36.6096C123.107 33.6416 123.827 31.2671 125.268 29.4863C126.732 27.7055 128.758 26.8151 131.347 26.8151ZM134.116 39.2123V30.3425C133.306 29.9772 132.45 29.7945 131.55 29.7945C130.064 29.7945 128.972 30.3995 128.274 31.6096C127.598 32.8196 127.261 34.3607 127.261 36.2329C127.261 40.0685 128.476 41.9863 130.908 41.9863C131.831 41.9863 132.597 41.7237 133.205 41.1986C133.812 40.6507 134.116 39.9886 134.116 39.2123ZM150.542 26.8151C152.231 26.8151 153.57 27.2374 154.561 28.0822C155.552 28.9041 156.047 30.0685 156.047 31.5753C156.047 32.5799 155.833 33.4703 155.405 34.2466C154.978 35 154.448 35.5936 153.818 36.0274C153.188 36.4612 152.422 36.8151 151.522 37.089C150.013 37.5457 148.313 37.774 146.422 37.774C146.489 38.984 146.861 39.9658 147.536 40.7192C148.212 41.4498 149.248 41.8151 150.643 41.8151C152.039 41.8151 153.435 41.3128 154.831 40.3082L156.115 43.0822C155.664 43.4932 154.899 43.9155 153.818 44.3493C152.76 44.7831 151.544 45 150.171 45C147.424 45 145.409 44.2352 144.125 42.7055C142.842 41.153 142.2 39.0297 142.2 36.3356C142.2 33.6416 142.932 31.3813 144.396 29.5548C145.859 27.7283 147.908 26.8151 150.542 26.8151ZM148.989 34.6575C149.822 34.4977 150.587 34.1667 151.285 33.6644C151.983 33.1393 152.332 32.5228 152.332 31.8151C152.332 30.4224 151.657 29.726 150.306 29.726C149.045 29.726 148.077 30.2397 147.401 31.2671C146.726 32.2717 146.354 33.4817 146.287 34.8973C147.277 34.8744 148.178 34.7945 148.989 34.6575ZM160.517 40.7192V31.2329C160.517 30.8676 160.45 30.6164 160.315 30.4795C160.202 30.3196 159.988 30.2283 159.673 30.2055L158.255 30.1027V27.3288H163.962V29.8973C164.367 29.0068 164.998 28.2763 165.853 27.7055C166.709 27.1119 167.688 26.8151 168.792 26.8151C169.917 26.8151 170.987 27.0662 172 27.5685V32.6712L168.859 32.911V31.3356C168.859 30.879 168.747 30.5936 168.521 30.4795C168.274 30.3653 167.97 30.3082 167.61 30.3082C166.709 30.3082 165.966 30.6393 165.381 31.3014C164.818 31.9406 164.536 32.7626 164.536 33.7671V41.7123L167.474 41.8493V44.5548H158.423V41.9521L159.538 41.8493C159.876 41.8037 160.123 41.7123 160.281 41.5753C160.439 41.4155 160.517 41.1301 160.517 40.7192Z" fill="black"/>
</svg>
