<svg width="27" height="27" viewBox="0 0 27 27" fill="none" xmlns="http://www.w3.org/2000/svg">
<mask id="mask0_431_146" style="mask-type:luminance" maskUnits="userSpaceOnUse" x="0" y="0" width="27" height="27">
<path d="M27 0H0V27H27V0Z" fill="white"/>
</mask>
<g mask="url(#mask0_431_146)">
<path d="M13.5 2.43243C17.1047 2.43243 17.5316 2.44619 18.9552 2.51111C20.4262 2.57824 21.9422 2.91394 23.0141 3.98572C24.0961 5.06772 24.4215 6.56896 24.4888 8.04479C24.5538 9.46835 24.5675 9.89529 24.5675 13.4999C24.5675 17.1046 24.5538 17.5316 24.4888 18.9551C24.4221 20.4186 24.0797 21.9485 23.0142 23.014C21.9316 24.0966 20.4323 24.4214 18.9551 24.4888C17.5318 24.5538 17.1049 24.5675 13.4999 24.5675C9.89502 24.5675 9.46814 24.5538 8.04473 24.4888C6.59259 24.4226 5.04262 24.0709 3.98587 23.0142C2.90957 21.9379 2.57803 20.4227 2.51105 18.9551C2.44608 17.5315 2.43237 17.1046 2.43237 13.4999C2.43237 9.89529 2.44614 9.4683 2.51105 8.04473C2.5776 6.58652 2.92433 5.04726 3.98566 3.98587C5.06561 2.90588 6.57176 2.57829 8.04473 2.51105C9.46835 2.44619 9.89534 2.43243 13.5 2.43243ZM13.5 0C9.83364 0 9.3739 0.0155039 7.93394 0.0812109C5.84629 0.176502 3.77483 0.756896 2.26584 2.26579C0.751201 3.78042 0.176396 5.84787 0.0812109 7.93399C0.0155039 9.3739 0 9.83359 0 13.5C0 17.1664 0.0155039 17.6261 0.0812109 19.0661C0.176344 21.1504 0.759902 23.2282 2.26579 24.7341C3.77858 26.247 5.85025 26.8237 7.93394 26.9187C9.3739 26.9845 9.83364 27 13.5 27C17.1664 27 17.6261 26.9845 19.0661 26.9188C21.1514 26.8237 23.2269 26.2415 24.7342 24.7342C26.2494 23.2191 26.8236 21.1526 26.9188 19.0661C26.9845 17.6261 27 17.1664 27 13.5C27 9.83364 26.9845 9.3739 26.9188 7.93394C26.8236 5.84745 26.242 3.77378 24.7342 2.26589C23.2236 0.755209 21.146 0.176133 19.066 0.0812109C17.6261 0.0155039 17.1664 0 13.5 0Z" fill="white"/>
<path d="M13.4998 6.56757C9.67117 6.56757 6.56738 9.6713 6.56738 13.5C6.56738 17.3287 9.67117 20.4324 13.4998 20.4324C17.3285 20.4324 20.4323 17.3287 20.4323 13.5C20.4323 9.67135 17.3285 6.56757 13.4998 6.56757ZM13.4998 18C11.0146 18 8.99986 15.9853 8.99986 13.5C8.99986 11.0147 11.0146 9.00004 13.4998 9.00004C15.9851 9.00004 17.9998 11.0147 17.9998 13.5C17.9998 15.9853 15.9851 18 13.4998 18Z" fill="white"/>
<path d="M20.7059 7.91364C21.6006 7.91364 22.3259 7.18835 22.3259 6.29365C22.3259 5.39894 21.6006 4.67365 20.7059 4.67365C19.8112 4.67365 19.0859 5.39894 19.0859 6.29365C19.0859 7.18835 19.8112 7.91364 20.7059 7.91364Z" fill="white"/>
</g>
</svg>
