<svg width="23" height="23" viewBox="0 0 23 23" fill="none" xmlns="http://www.w3.org/2000/svg">
<path d="M19.4524 19.4567H16.0697V14.1593C16.0697 12.896 16.0472 11.2698 14.3104 11.2698C12.5485 11.2698 12.279 12.6462 12.279 14.0673V19.4564H8.89629V8.56261H12.1437V10.0514H12.1892C12.8514 8.9192 14.0826 8.24299 15.3933 8.29161C18.8218 8.29161 19.454 10.5467 19.454 13.4806L19.4524 19.4567ZM5.07937 7.0735C3.99521 7.07371 3.11618 6.19494 3.11597 5.11083C3.11576 4.02666 3.99452 3.14763 5.07864 3.14742C6.1628 3.14721 7.04183 4.02598 7.04204 5.11009C7.04225 6.19426 6.16354 7.07334 5.07937 7.0735ZM6.77072 19.4568H3.38449V8.56261H6.77072V19.4568ZM21.1389 0.00608815H1.68465C0.765228 -0.00430053 0.0112324 0.732188 0 1.65161V21.1865C0.0108105 22.1064 0.764754 22.8437 1.68465 22.8339H21.1389C22.0606 22.8454 22.8175 22.1082 22.8302 21.1865V1.65024C22.8171 0.728971 22.0602 -0.00746461 21.1389 0.0046643" fill="white"/>
</svg>
