<svg width="60" height="61" viewBox="0 0 60 61" fill="none" xmlns="http://www.w3.org/2000/svg">
<path d="M29.999 0.0603027C31.6429 0.0603027 33.2673 0.201648 34.8708 0.466165C36.4938 0.73001 38.0778 1.13587 39.62 1.6427C41.163 2.17038 42.6655 2.8199 44.1067 3.59124C45.548 4.36258 46.9273 5.23488 48.2266 6.22901C49.5258 7.22247 50.7442 8.31957 51.8604 9.5163C52.9765 10.7137 53.9916 11.9925 54.9051 13.3521C55.818 14.7117 56.6103 16.1326 57.301 17.6342C57.9701 19.1163 58.5389 20.6583 58.9657 22.2407L44.4938 26.1567C44.2905 25.3651 44.0071 24.5938 43.6618 23.8635C43.3171 23.113 42.9321 22.4023 42.4642 21.7326C42.0172 21.0629 41.5103 20.4133 40.9415 19.8251C40.374 19.2361 39.7843 18.6883 39.1353 18.1808C38.4864 17.6941 37.7957 17.2472 37.0862 16.8615C36.3558 16.4752 35.6247 16.1508 34.8331 15.8869C34.0616 15.6231 33.27 15.4198 32.4581 15.2987C31.6456 15.1566 30.8344 15.0954 30.0219 15.0954L29.999 0.0603027Z" fill="#0078FF"/>
<path d="M58.5365 20.7808C59.0441 22.3436 59.4096 23.926 59.6526 25.5495C59.8963 27.1729 60.0181 28.7964 59.998 30.4407C59.9778 32.0837 59.8148 33.7078 59.5308 35.3097C59.2467 36.9116 58.8199 38.4954 58.2921 40.038C57.7442 41.5807 57.0744 43.0622 56.3029 44.5032C55.5112 45.9449 54.6193 47.3032 53.6035 48.582C52.5883 49.8602 51.4924 51.0589 50.2746 52.1749C49.0764 53.2908 47.7778 54.2856 46.418 55.1788L38.2188 42.6159C38.9081 42.169 39.5375 41.6615 40.1474 41.1143C40.7559 40.5671 41.3046 39.9573 41.8122 39.3293C42.3191 38.6811 42.766 38.0107 43.1518 37.2798C43.5375 36.569 43.8815 35.8192 44.1454 35.0486C44.4093 34.2779 44.6328 33.4857 44.7748 32.6753C44.9168 31.8616 44.9983 31.0519 44.9983 30.2395C45.0185 29.4264 44.9565 28.6153 44.8354 27.8029C44.7135 26.9905 44.5318 26.2003 44.2679 25.429L58.5365 20.7808Z" fill="#3393FF"/>
<path d="M47.6371 54.3273C46.3177 55.2817 44.9175 56.1345 43.4561 56.8648C41.9946 57.5951 40.4725 58.2028 38.9094 58.6915C37.3463 59.1788 35.7637 59.5227 34.14 59.7677C32.5163 59.9899 30.8919 60.0915 29.248 60.0518C27.6041 60.01 25.9798 59.8297 24.377 59.5248C22.7741 59.2205 21.1901 58.7743 19.6681 58.2244C18.1252 57.6563 16.6435 56.9678 15.2231 56.1749C13.8027 55.3638 12.4422 54.4498 11.1841 53.4355L20.6018 41.7671C21.2312 42.2746 21.9212 42.741 22.6307 43.1462C23.3416 43.5527 24.0922 43.898 24.8435 44.1821C25.6149 44.4668 26.4066 44.6896 27.1982 44.8316C28.0107 44.9931 28.8219 45.0746 29.6344 45.0954C30.447 45.1163 31.2581 45.0752 32.0707 44.9541C32.8832 44.8323 33.6742 44.6687 34.4658 44.4271C35.2366 44.1827 36.0081 43.8792 36.7391 43.5144C37.4688 43.1482 38.1595 42.7222 38.83 42.2362L47.6371 54.3273Z" fill="#59A7FF"/>
<path d="M12.3802 54.3274C11.0607 53.3743 9.82278 52.2981 8.66492 51.1424C7.50773 49.984 6.47374 48.7261 5.51985 47.3887C4.56596 46.0493 3.73392 44.6486 3.02305 43.1672C2.31217 41.6857 1.72382 40.1841 1.25731 38.6017C0.790127 37.0382 0.444788 35.4349 0.242836 33.8121C0.039537 32.1887 -0.0412438 30.5659 0.020015 28.9216C0.0806007 27.2773 0.283899 25.6747 0.60837 24.0714C0.93284 22.4688 1.37983 20.9053 1.96886 19.3633L15.9944 24.7007C15.7104 25.4721 15.4667 26.2428 15.3044 27.0558C15.1422 27.8474 15.0406 28.6584 15.0197 29.491C14.9786 30.3034 15.0197 31.1138 15.1213 31.9262C15.223 32.7386 15.3852 33.5301 15.6289 34.3216C15.8719 35.1145 16.1567 35.8637 16.5222 36.5953C16.8877 37.3269 17.2937 38.037 17.7609 38.706C18.228 39.3751 18.7551 40.0051 19.324 40.5718C19.8921 41.1607 20.5215 41.6884 21.1705 42.1751L12.3802 54.3274Z" fill="#7FBBFF"/>
<path d="M1.48096 20.7808C1.96766 19.2785 2.57688 17.8374 3.28776 16.4381C3.99863 15.0388 4.83067 13.6987 5.74282 12.4199C6.67652 11.1417 7.69166 9.94431 8.80779 8.84854C9.92391 7.73259 11.1215 6.7176 12.3797 5.78472C13.658 4.85117 14.9976 4.03944 16.3985 3.32935C17.8001 2.61993 19.24 2.01013 20.7418 1.5235C22.2437 1.03619 23.7664 0.670713 25.3093 0.427734C26.8724 0.184755 28.4355 0.0622559 29.9973 0.0622559V15.0597C29.2056 15.0597 28.4342 15.1202 27.6419 15.2427C26.8711 15.3646 26.0996 15.5463 25.349 15.7906C24.5984 16.0349 23.8667 16.3385 23.1767 16.6845C22.4658 17.0499 21.8169 17.4551 21.1666 17.9222C20.5372 18.3893 19.9286 18.8968 19.3813 19.4441C18.834 19.9913 18.3056 20.6017 17.8593 21.2297C17.3921 21.859 16.9862 22.5287 16.6206 23.2388C16.2551 23.9496 15.9717 24.659 15.7267 25.4108L1.48096 20.7808Z" fill="#A6D0FF"/>
</svg>
