<svg width="106" height="35" viewBox="0 0 106 35" fill="none" xmlns="http://www.w3.org/2000/svg">
<path d="M26.8646 31.5975C26.1179 32.1546 25.3315 32.6466 24.5064 33.0711C23.6814 33.4963 22.8281 33.8492 21.9464 34.1319C21.0648 34.413 20.1671 34.6191 19.2526 34.7499C18.3381 34.8811 17.4198 34.9345 16.4965 34.9105C15.5736 34.8865 14.6587 34.7864 13.7518 34.6086C12.8449 34.4311 11.9584 34.179 11.0917 33.8524C10.225 33.5253 9.38997 33.1288 8.58629 32.6619C7.78267 32.1955 7.02151 31.6646 6.30273 31.069L11.6113 24.3044C11.9706 24.6016 12.351 24.8671 12.7528 25.1007C13.1546 25.3339 13.5725 25.5326 14.0053 25.6959C14.4389 25.8592 14.8819 25.9848 15.3354 26.074C15.7888 26.1631 16.2464 26.213 16.7079 26.2251C17.1694 26.237 17.6285 26.2102 18.0858 26.1447C18.5427 26.0795 18.9919 25.9758 19.4327 25.8357C19.8731 25.6947 20.2998 25.5176 20.7127 25.3052C21.1248 25.0924 21.5182 24.8466 21.8918 24.5687L26.8646 31.5975Z" fill="#27819A"/>
<path d="M16.9193 0.164429C17.8426 0.164429 18.7594 0.241777 19.6705 0.395687C20.5815 0.549991 21.4739 0.778894 22.3486 1.08318C23.223 1.38747 24.0672 1.76243 24.8819 2.20885C25.6966 2.65487 26.4704 3.16608 27.2033 3.74246C27.9362 4.31844 28.6191 4.95215 29.2506 5.64317C29.8833 6.3342 30.4561 7.07311 30.9703 7.86074C31.4849 8.64798 31.9333 9.4729 32.3161 10.3363C32.6988 11.1989 33.0107 12.0878 33.2516 13.003L25.0853 15.2717C24.9656 14.8139 24.8088 14.3694 24.6177 13.9379C24.4261 13.5064 24.2017 13.0942 23.9448 12.7003C23.6875 12.3069 23.4012 11.9374 23.0849 11.5915C22.7692 11.246 22.4277 10.9292 22.0611 10.641C21.6945 10.3532 21.3076 10.0976 20.9004 9.87451C20.4932 9.65153 20.0708 9.46386 19.6338 9.31152C19.1964 9.15955 18.7502 9.04495 18.2949 8.96756C17.8392 8.89063 17.3808 8.85213 16.9189 8.85213L16.9193 0.164429Z" fill="#51C4D3"/>
<path d="M33.0112 12.1707C33.296 13.0726 33.5078 13.9922 33.6466 14.9293C33.7854 15.8666 33.8489 16.8092 33.8378 17.7571C33.8259 18.7053 33.7395 19.646 33.5778 20.5793C33.4164 21.5126 33.1821 22.4266 32.875 23.3202C32.5677 24.2146 32.1923 25.0772 31.7476 25.908C31.303 26.7388 30.7957 27.5272 30.2252 28.2725C29.6552 29.0177 29.0297 29.7114 28.3488 30.3518C27.6679 30.9922 26.9411 31.5713 26.1684 32.09L21.5439 24.8145C21.9304 24.5558 22.2936 24.2664 22.6343 23.9456C22.9749 23.6257 23.2877 23.2794 23.5725 22.906C23.8577 22.5337 24.1112 22.1396 24.3337 21.7238C24.5558 21.3084 24.7439 20.8769 24.8976 20.4301C25.0509 19.9829 25.1687 19.5258 25.2494 19.0598C25.33 18.5929 25.3732 18.123 25.379 17.6483C25.3851 17.1744 25.353 16.7028 25.2833 16.2344C25.2142 15.7656 25.1082 15.3059 24.9656 14.8551L33.0112 12.1707Z" fill="#3AA2B7"/>
<path d="M6.9744 31.5976C6.22735 31.0404 5.52962 30.4244 4.88083 29.7498C4.23242 29.0749 3.64135 28.3509 3.10802 27.577C2.57468 26.8032 2.10634 25.9899 1.70262 25.1371C1.29927 24.2843 0.965884 23.4037 0.702852 22.4951C0.439434 21.5862 0.249804 20.6621 0.133961 19.7213C0.0181187 18.7806 -0.0227894 17.8366 0.0120017 16.8892C0.0467927 15.9418 0.156136 15.0039 0.340413 14.0745C0.52469 13.1456 0.780842 12.2382 1.10964 11.3521L9.01484 14.4464C8.85044 14.8892 8.72238 15.3431 8.63021 15.808C8.5381 16.2721 8.48341 16.7417 8.46619 17.2152C8.44898 17.6891 8.46925 18.1609 8.52739 18.6313C8.58514 19.1013 8.67993 19.5639 8.81181 20.0177C8.9437 20.4728 9.11001 20.913 9.31188 21.3393C9.51376 21.7658 9.74776 22.1721 10.0146 22.5589C10.2811 22.9456 10.577 23.3079 10.9012 23.6455C11.2258 23.9824 11.5745 24.2911 11.948 24.5699L6.9744 31.5976Z" fill="#16627C"/>
<path d="M0.828125 12.1707C1.10225 11.3038 1.44098 10.4639 1.84433 9.65153C2.24768 8.83921 2.7099 8.06412 3.23176 7.32676C3.75363 6.58941 4.32864 5.89799 4.95602 5.25369C5.58379 4.60899 6.25667 4.01887 6.97506 3.48254C7.69301 2.94699 8.44812 2.4723 9.23873 2.05808C10.0298 1.64425 10.8472 1.29677 11.6917 1.01447C12.5359 0.732955 13.3965 0.520936 14.2732 0.378019C15.1498 0.235887 16.0322 0.164429 16.9195 0.164429L16.9188 8.85213C16.4749 8.85213 16.0337 8.88789 15.5956 8.95936C15.1574 9.03037 14.7269 9.13677 14.3048 9.27773C13.8828 9.4183 13.4741 9.59222 13.0788 9.79916C12.6831 10.0061 12.3061 10.244 11.9467 10.5118C11.5881 10.7796 11.2516 11.0749 10.9374 11.3968C10.6239 11.7192 10.3364 12.0647 10.0752 12.4338C9.81453 12.8024 9.58321 13.1899 9.38171 13.5956C9.18028 14.0019 9.01091 14.4216 8.87399 14.8551L0.828125 12.1707Z" fill="#05445E"/>
<path d="M52.9043 30.861L50.9541 28.1683C50.3762 28.287 49.8128 28.3464 49.2639 28.3464C47.8337 28.3464 46.5192 28.0052 45.3202 27.3227C44.1355 26.6403 43.1893 25.6908 42.4815 24.4743C41.7881 23.2429 41.4414 21.8632 41.4414 20.3352C41.4414 18.8071 41.7881 17.4349 42.4815 16.2183C43.1893 15.0018 44.1355 14.0523 45.3202 13.3699C46.5192 12.6875 47.8337 12.3463 49.2639 12.3463C50.694 12.3463 52.0014 12.6875 53.1859 13.3699C54.385 14.0523 55.324 15.0018 56.0029 16.2183C56.6963 17.4349 57.043 18.8071 57.043 20.3352C57.043 21.6704 56.7758 22.8943 56.2412 24.007C55.7212 25.1048 54.9917 26.0172 54.0527 26.7442L57.3897 30.861H52.9043ZM45.2335 20.3352C45.2335 21.7149 45.5946 22.8201 46.3169 23.6509C47.0537 24.4669 48.036 24.8749 49.2639 24.8749C50.4773 24.8749 51.4452 24.4595 52.1675 23.6287C52.9043 22.7979 53.2726 21.7001 53.2726 20.3352C53.2726 18.9555 52.9043 17.8577 52.1675 17.0417C51.4452 16.2109 50.4773 15.7955 49.2639 15.7955C48.036 15.7955 47.0537 16.2035 46.3169 17.0194C45.5946 17.8354 45.2335 18.9406 45.2335 20.3352Z" fill="white"/>
<path d="M71.0859 15.7733V28.1907H67.3804V26.4994C67.005 27.0483 66.4925 27.4934 65.8423 27.8346C65.2068 28.161 64.4986 28.3242 63.7183 28.3242C62.7941 28.3242 61.9778 28.1165 61.2699 27.7011C60.5621 27.2709 60.0132 26.6552 59.6231 25.8541C59.2331 25.053 59.0381 24.1109 59.0381 23.0279V15.7733H62.722V22.5161C62.722 23.3469 62.9311 23.9922 63.3499 24.4521C63.7693 24.912 64.3322 25.142 65.0404 25.142C65.7626 25.142 66.3331 24.912 66.7519 24.4521C67.1713 23.9922 67.3804 23.3469 67.3804 22.5161V15.7733H71.0859Z" fill="white"/>
<path d="M85.145 21.7817C85.145 22.1377 85.1233 22.5086 85.08 22.8944H76.6945C76.7519 23.6658 76.9903 24.2593 77.4097 24.6746C77.8425 25.0752 78.3703 25.2755 78.9912 25.2755C79.9161 25.2755 80.5586 24.8749 80.9201 24.0738H84.8633C84.6612 24.8898 84.2927 25.6241 83.7586 26.2768C83.2384 26.9296 82.5812 27.4415 81.7863 27.8123C80.9921 28.1832 80.1035 28.3687 79.1212 28.3687C77.9369 28.3687 76.8819 28.1091 75.9576 27.5898C75.0333 27.0706 74.3105 26.3288 73.791 25.3645C73.2708 24.4001 73.0107 23.2726 73.0107 21.982C73.0107 20.6913 73.2632 19.5638 73.7693 18.5994C74.2888 17.6352 75.0117 16.8934 75.9359 16.3741C76.8602 15.8549 77.9222 15.5953 79.1212 15.5953C80.2916 15.5953 81.3312 15.8475 82.2415 16.3519C83.1517 16.8563 83.8593 17.5758 84.3654 18.5105C84.8849 19.4451 85.145 20.5355 85.145 21.7817ZM81.3529 20.7803C81.3529 20.1275 81.1368 19.6083 80.7033 19.2226C80.2699 18.8369 79.7281 18.644 79.0779 18.644C78.457 18.644 77.9292 18.8294 77.4964 19.2003C77.077 19.5712 76.8169 20.0979 76.7162 20.7803H81.3529Z" fill="white"/>
<path d="M92.0195 28.3687C90.9645 28.3687 90.0256 28.1832 89.202 27.8123C88.3791 27.4415 87.7289 26.9371 87.2521 26.2991C86.7753 25.6463 86.5082 24.9194 86.4502 24.1183H90.1123C90.1556 24.5485 90.3507 24.8971 90.6974 25.1642C91.0442 25.4312 91.47 25.5648 91.9761 25.5648C92.4383 25.5648 92.7921 25.4757 93.0375 25.2977C93.2976 25.1049 93.4276 24.86 93.4276 24.5634C93.4276 24.2073 93.2472 23.9477 92.8858 23.7845C92.525 23.6065 91.9398 23.4136 91.1309 23.2059C90.264 22.9982 89.5418 22.7831 88.9636 22.5605C88.3861 22.3232 87.8876 21.9597 87.4688 21.4701C87.05 20.9658 86.8403 20.2907 86.8403 19.4451C86.8403 18.733 87.0284 18.0877 87.4038 17.509C87.7939 16.9156 88.3574 16.4483 89.0937 16.1071C89.8452 15.7659 90.7338 15.5953 91.7594 15.5953C93.2759 15.5953 94.4679 15.981 95.3348 16.7525C96.2157 17.5239 96.7212 18.5476 96.8513 19.8234H93.4276C93.3702 19.3932 93.1822 19.052 92.8641 18.7998C92.5607 18.5476 92.1565 18.4214 91.651 18.4214C91.2176 18.4214 90.8855 18.5105 90.6541 18.6885C90.4227 18.8517 90.3073 19.0816 90.3073 19.3783C90.3073 19.7344 90.4877 20.0014 90.8492 20.1795C91.2246 20.3575 91.8028 20.5355 92.5824 20.7136C93.478 20.9509 94.2078 21.1883 94.7713 21.4257C95.3348 21.6482 95.8256 22.0191 96.2444 22.5383C96.6779 23.0427 96.9023 23.7252 96.9163 24.5856C96.9163 25.3126 96.7142 25.9653 96.3095 26.5439C95.9193 27.1077 95.3488 27.5527 94.5979 27.8791C93.861 28.2055 93.0018 28.3687 92.0195 28.3687Z" fill="white"/>
<path d="M105.923 24.9639V28.1906H104.037C102.694 28.1906 101.646 27.8569 100.895 27.1892C100.144 26.5068 99.768 25.4016 99.768 23.8735V18.9333H98.2949V15.7733H99.768V12.7468H103.473V15.7733H105.901V18.9333H103.473V23.918C103.473 24.2889 103.56 24.5559 103.734 24.7191C103.907 24.8823 104.196 24.9639 104.6 24.9639H105.923Z" fill="white"/>
<path d="M45.0151 4.90449H43.1371V6.20436H44.7731V7.12327H43.1371V9.02084H42V3.9856H45.0151V4.90449Z" fill="#51C4D3"/>
<path d="M45.7111 9.02084V5.23319H46.7821V9.02084H45.7111ZM45.8065 4.58324C45.6842 4.45873 45.623 4.30932 45.623 4.13501C45.623 3.96069 45.6842 3.81128 45.8065 3.68677C45.9287 3.56226 46.0755 3.5 46.2466 3.5C46.4178 3.5 46.5646 3.56226 46.6868 3.68677C46.8091 3.81128 46.8702 3.96069 46.8702 4.13501C46.8702 4.30932 46.8091 4.45873 46.6868 4.58324C46.5646 4.70775 46.4178 4.77001 46.2466 4.77001C46.0755 4.77001 45.9287 4.70775 45.8065 4.58324Z" fill="#51C4D3"/>
<path d="M48.7733 5.23316V5.87563C48.8663 5.66646 49.008 5.50209 49.1987 5.38257C49.3943 5.25806 49.6266 5.1958 49.8956 5.1958C50.2771 5.1958 50.5755 5.31284 50.7906 5.54689C51.0059 5.77604 51.1135 6.11472 51.1135 6.56291V9.0208H50.0424V6.76463C50.0424 6.54051 49.9911 6.37117 49.8884 6.25662C49.7857 6.13712 49.6415 6.07736 49.4556 6.07736C49.26 6.07736 49.0961 6.15703 48.9641 6.31638C48.8369 6.47076 48.7733 6.70488 48.7733 7.01861V9.0208H47.7021V5.23316H48.7733Z" fill="#51C4D3"/>
<path d="M53.6011 9.08063C53.0191 9.08063 52.5692 8.90378 52.2513 8.55022C51.9334 8.19163 51.7744 7.73338 51.7744 7.17561C51.7744 6.59289 51.9407 6.11479 52.2733 5.74124C52.6059 5.36272 53.0485 5.17346 53.6011 5.17346C54.1782 5.17346 54.6257 5.35525 54.9436 5.71884C55.2615 6.0824 55.4204 6.54554 55.4204 7.10834C55.4204 7.68114 55.2591 8.15427 54.9363 8.52775C54.6184 8.89634 54.1733 9.08063 53.6011 9.08063ZM53.5938 6.03257C53.359 6.03257 53.183 6.13471 53.0656 6.33885C52.9482 6.54306 52.8895 6.80703 52.8895 7.13074C52.8895 7.45453 52.9482 7.72097 53.0656 7.93014C53.1879 8.13435 53.3688 8.23643 53.6085 8.23643C53.8432 8.23643 54.0168 8.13684 54.1293 7.93759C54.2467 7.73338 54.3054 7.46942 54.3054 7.1457C54.3054 6.40364 54.0682 6.03257 53.5938 6.03257Z" fill="#51C4D3"/>
<path d="M56.1572 9.02079V3.73901H57.2283V9.02079H56.1572Z" fill="#51C4D3"/>
<path d="M59.7906 9.08063C59.2086 9.08063 58.7586 8.90378 58.4407 8.55022C58.1228 8.19163 57.9639 7.73338 57.9639 7.17561C57.9639 6.59289 58.1301 6.11479 58.4627 5.74124C58.7953 5.36272 59.2379 5.17346 59.7906 5.17346C60.3677 5.17346 60.8152 5.35525 61.1331 5.71884C61.451 6.0824 61.6099 6.54554 61.6099 7.10834C61.6099 7.68114 61.4485 8.15427 61.1257 8.52775C60.8078 8.89634 60.3628 9.08063 59.7906 9.08063ZM59.7832 6.03257C59.5485 6.03257 59.3724 6.13471 59.255 6.33885C59.1376 6.54306 59.079 6.80703 59.079 7.13074C59.079 7.45453 59.1376 7.72097 59.255 7.93014C59.3773 8.13435 59.5582 8.23643 59.7979 8.23643C60.0326 8.23643 60.2063 8.13684 60.3188 7.93759C60.4362 7.73338 60.4948 7.46942 60.4948 7.1457C60.4948 6.40364 60.2576 6.03257 59.7832 6.03257Z" fill="#51C4D3"/>
<path d="M63.9596 8.02718C64.1895 8.02718 64.3679 7.94 64.4953 7.7657C64.6271 7.58643 64.6934 7.37223 64.6934 7.12323C64.6934 6.44588 64.4507 6.10721 63.9666 6.10721C63.7513 6.10721 63.5829 6.19191 63.4606 6.36124C63.3383 6.53058 63.2772 6.76463 63.2772 7.06347C63.2772 7.3772 63.3359 7.61628 63.4533 7.78065C63.5706 7.94503 63.7392 8.02718 63.9596 8.02718ZM64.6934 5.23316H65.7565V8.6547C65.7565 9.2623 65.5781 9.71806 65.2214 10.0219C64.8641 10.3306 64.4169 10.485 63.8787 10.485C63.3554 10.485 62.8981 10.3904 62.5069 10.2011V9.088C62.8493 9.36692 63.2699 9.50634 63.7685 9.50634C64.0914 9.50634 64.3265 9.43666 64.473 9.29717C64.6195 9.15774 64.6934 8.93858 64.6934 8.63974V8.38577C64.4781 8.72444 64.1354 8.89378 63.6659 8.89378C63.2552 8.89378 62.9006 8.7394 62.6023 8.43057C62.3088 8.12181 62.1621 7.66363 62.1621 7.05596C62.1621 6.51811 62.304 6.07482 62.5876 5.72622C62.8762 5.3726 63.2527 5.1958 63.7175 5.1958C64.1577 5.1958 64.4825 5.3751 64.6934 5.73366V5.23316Z" fill="#51C4D3"/>
<path d="M67.6359 8.9611L66.1982 5.23328H67.3645L67.7684 6.41361C67.8709 6.71747 67.9537 6.97889 68.0174 7.19805C68.0862 7.41722 68.1276 7.56161 68.1423 7.63135L68.1646 7.73591C68.2181 7.53673 68.3499 7.09598 68.5608 6.41361L68.927 5.23328H70.0277L68.685 8.90885C68.299 9.96967 67.7098 10.5001 66.9174 10.5001C66.7658 10.5001 66.6288 10.4876 66.5065 10.4628V9.59613C66.5849 9.61605 66.6677 9.62604 66.7556 9.62604C67.162 9.62604 67.455 9.40439 67.6359 8.9611Z" fill="#51C4D3"/>
</svg>
