<svg width="60" height="60" viewBox="0 0 60 60" fill="none" xmlns="http://www.w3.org/2000/svg">
<path d="M29.9997 0C31.6368 0 33.2624 0.133544 34.8778 0.399276C36.4932 0.665686 38.0754 1.06089 39.6264 1.58626C41.1767 2.11162 42.6735 2.759 44.1181 3.52976C45.5627 4.29984 46.9347 5.18245 48.2342 6.17759C49.5337 7.17205 50.7444 8.26617 51.8643 9.45925C52.9862 10.6523 54.0017 11.9281 54.9134 13.288C55.8259 14.6471 56.621 16.0714 57.2996 17.562C57.9782 19.0514 58.5313 20.5861 58.9584 22.1663L44.4787 26.0831C44.2665 25.2927 43.9886 24.5253 43.6497 23.7803C43.31 23.0353 42.9121 22.3235 42.4566 21.6436C42.0003 20.9644 41.4926 20.3265 40.932 19.7293C40.3721 19.1327 39.7667 18.5857 39.1166 18.0881C38.4665 17.5912 37.7805 17.1499 37.0585 16.7648C36.3366 16.3798 35.5875 16.0558 34.8127 15.7928C34.0372 15.5304 33.2461 15.3325 32.4387 15.1989C31.6307 15.0661 30.8179 14.9996 29.999 14.9996V0H29.9997Z" fill="#9675BF"/>
<path d="M58.5318 20.7292C59.0368 22.2864 59.4124 23.874 59.6584 25.4921C59.9045 27.1102 60.017 28.7378 59.9974 30.3742C59.9764 32.0113 59.8232 33.6356 59.5364 35.2469C59.2504 36.8582 58.8348 38.4364 58.2905 39.9792C57.7454 41.5235 57.0798 43.0128 56.2914 44.4472C55.503 45.8816 54.6034 47.2428 53.592 48.5294C52.5813 49.8161 51.4723 51.0139 50.2649 52.1195C49.0576 53.2252 47.769 54.225 46.3989 55.1205L38.1992 42.5593C38.8846 42.1125 39.5286 41.6129 40.1326 41.0591C40.7366 40.5066 41.2911 39.9087 41.7961 39.2641C42.3018 38.6214 42.7512 37.9408 43.1458 37.2229C43.5396 36.5057 43.8731 35.7607 44.1457 34.9893C44.4175 34.2172 44.6263 33.4281 44.7693 32.6235C44.9123 31.8175 44.9889 31.006 44.9991 30.1865C45.01 29.3683 44.953 28.5541 44.8296 27.7454C44.7069 26.936 44.5192 26.1422 44.2663 25.364L58.5318 20.7292Z" fill="#7A5CAA"/>
<path d="M47.6335 54.2702C46.3096 55.2322 44.9151 56.0816 43.4523 56.8144C41.9894 57.5485 40.4763 58.1579 38.9131 58.646C37.3499 59.1314 35.7582 59.4873 34.1367 59.713C32.5152 59.9394 30.8869 60.0316 29.2498 59.9903C27.6134 59.9489 25.9912 59.776 24.3833 59.469C22.7753 59.1626 21.2033 58.7274 19.6665 58.1634C18.1297 57.5987 16.6492 56.914 15.2243 56.108C13.7994 55.3027 12.4497 54.3862 11.1753 53.3578L20.5878 41.6785C21.225 42.1916 21.8995 42.6499 22.6119 43.0532C23.3244 43.4559 24.0653 43.7989 24.8327 44.0809C25.6014 44.3629 26.3871 44.5798 27.1911 44.7337C27.9951 44.8876 28.8065 44.9737 29.6247 44.9947C30.4429 45.015 31.257 44.9689 32.0678 44.8557C32.8779 44.7432 33.6744 44.5642 34.456 44.3222C35.2369 44.0789 35.9935 43.7731 36.7256 43.4064C37.4563 43.039 38.1539 42.6146 38.8162 42.1347L47.6335 54.2702Z" fill="#5D4496"/>
<path d="M12.3663 54.2703C11.0417 53.3084 9.80456 52.2448 8.65418 51.0802C7.50449 49.9149 6.45647 48.6648 5.51082 47.3287C4.56516 45.9926 3.73475 44.5887 3.0189 43.1163C2.30373 41.6439 1.71261 40.1234 1.24622 38.5548C0.779159 36.9855 0.442926 35.3898 0.237526 33.7655C0.0321262 32.1413 -0.0404077 30.5117 0.0212801 28.8759C0.0829679 27.2402 0.276844 25.6207 0.603586 24.0161C0.930328 22.4123 1.38451 20.8457 1.9675 19.3157L15.9842 24.6581C15.6927 25.4228 15.4656 26.2064 15.3022 27.009C15.1389 27.8103 15.0419 28.621 15.0114 29.4386C14.9809 30.2568 15.0168 31.0716 15.1199 31.8837C15.2222 32.6951 15.3904 33.4937 15.6242 34.2773C15.8581 35.063 16.153 35.8229 16.5109 36.5591C16.8688 37.2953 17.2837 37.9969 17.7569 38.6646C18.2294 39.3324 18.754 39.958 19.3289 40.541C19.9044 41.1227 20.5226 41.6555 21.1849 42.1368L12.3663 54.2703Z" fill="#3F2E83"/>
<path d="M1.46875 20.7291C1.9548 19.2324 2.5554 17.7824 3.27058 16.3798C3.98575 14.9773 4.80532 13.6391 5.73063 12.366C6.65595 11.093 7.67549 9.8992 8.78791 8.78679C9.901 7.67369 11.0941 6.65483 12.3678 5.72883C13.6409 4.80419 14.9797 3.98463 16.3816 3.26945C17.7842 2.55496 19.2335 1.95503 20.7309 1.46763C22.2277 0.981582 23.7536 0.615523 25.308 0.368771C26.8624 0.123376 28.427 0 30.0004 0L29.999 14.9996C29.212 14.9996 28.4297 15.0613 27.6529 15.1847C26.876 15.3074 26.1127 15.4911 25.3643 15.7345C24.6159 15.9771 23.8913 16.2775 23.1903 16.6347C22.4887 16.9919 21.8203 17.4027 21.1831 17.8651C20.5472 18.3274 19.9507 18.8372 19.3935 19.393C18.8376 19.9496 18.3278 20.5461 17.8648 21.1833C17.4025 21.8199 16.9924 22.4889 16.6351 23.1892C16.2779 23.8908 15.9776 24.6155 15.7349 25.3639L1.46875 20.7291Z" fill="#191970"/>
</svg>
