<svg width="111" height="35" viewBox="0 0 111 35" fill="none" xmlns="http://www.w3.org/2000/svg">
<path d="M18.0873 0C17.1333 0 16.1843 0.0779004 15.2423 0.23291C14.3003 0.388316 13.3773 0.618853 12.4723 0.925314C11.5683 1.23177 10.6943 1.60941 9.85231 2.05902C9.00931 2.50823 8.20931 3.02309 7.45131 3.60358C6.69331 4.18368 5.9863 4.82191 5.3333 5.51788C4.6793 6.21384 4.0863 6.95804 3.5553 7.75128C3.0223 8.54413 2.5583 9.37493 2.1633 10.2445C1.7673 11.1133 1.44431 12.0085 1.19531 12.9303L9.64131 15.2151C9.76531 14.754 9.92731 14.3064 10.1253 13.8718C10.3233 13.4372 10.5553 13.022 10.8213 12.6254C11.0873 12.2292 11.3833 11.8571 11.7103 11.5087C12.0373 11.1607 12.3903 10.8416 12.7693 10.5513C13.1493 10.2615 13.5493 10.0041 13.9703 9.77946C14.3913 9.55485 14.8283 9.36584 15.2803 9.21241C15.7323 9.05938 16.1943 8.94391 16.6653 8.86601C17.1363 8.7885 17.6103 8.74975 18.0883 8.74975L18.0873 0Z" fill="#7FBBFF"/>
<path d="M1.44408 12.092C1.14908 13.0003 0.930082 13.9264 0.787082 14.8703C0.643082 15.8142 0.578084 16.7636 0.589084 17.7182C0.601084 18.6732 0.691081 19.6206 0.858081 20.5606C1.02508 21.5005 1.26709 22.4211 1.58509 23.3211C1.90309 24.2219 2.29109 25.0907 2.75109 25.9274C3.21109 26.7641 3.73608 27.5582 4.32608 28.3087C4.91508 29.0592 5.56209 29.758 6.26609 30.4029C6.97109 31.0479 7.72208 31.6311 8.52208 32.1535L13.3051 24.8261C12.9051 24.5655 12.5291 24.2741 12.1771 23.951C11.8251 23.6287 11.5011 23.28 11.2071 22.9039C10.9121 22.529 10.6491 22.132 10.4191 21.7133C10.1891 21.2949 9.99508 20.8603 9.83608 20.4103C9.67708 19.9599 9.55608 19.4996 9.47208 19.0303C9.38908 18.5601 9.34408 18.0867 9.33808 17.6087C9.33208 17.1314 9.36508 16.6565 9.43708 16.1847C9.50908 15.7126 9.61809 15.2495 9.76609 14.7956L1.44408 12.092Z" fill="#5D9FF4"/>
<path d="M7.80078 31.6577C8.57278 32.2188 9.38679 32.7143 10.2398 33.1417C11.0938 33.57 11.9758 33.9255 12.8878 34.2102C13.7998 34.4933 14.7278 34.7009 15.6738 34.8326C16.6198 34.9647 17.5698 35.0185 18.5248 34.9943C19.4788 34.9702 20.4258 34.8694 21.3638 34.6903C22.3018 34.5115 23.2188 34.2577 24.1148 33.9286C25.0118 33.5993 25.8748 33.1999 26.7058 32.7297C27.5378 32.2599 28.3248 31.7253 29.0678 31.1254L23.5778 24.3125C23.2058 24.6118 22.8128 24.8792 22.3968 25.1144C21.9808 25.3493 21.5488 25.5494 21.1018 25.7139C20.6528 25.8784 20.1948 26.005 19.7258 26.0947C19.2568 26.1845 18.7838 26.2347 18.3058 26.247C17.8288 26.2588 17.3538 26.2319 16.8808 26.1659C16.4088 26.1003 15.9438 25.9959 15.4878 25.8547C15.0318 25.7127 14.5908 25.5344 14.1638 25.3205C13.7378 25.1061 13.3308 24.8586 12.9448 24.5786L7.80078 31.6577Z" fill="#3D83E7"/>
<path d="M28.3745 31.6578C29.1475 31.0967 29.8695 30.4763 30.5405 29.7969C31.2105 29.1172 31.8225 28.388 32.3735 27.6086C32.9255 26.8292 33.4095 26.0102 33.8275 25.1514C34.2445 24.2925 34.5895 23.4055 34.8615 22.4905C35.1335 21.5751 35.3305 20.6442 35.4495 19.6968C35.5695 18.7493 35.6115 17.7987 35.5755 16.8445C35.5395 15.8903 35.4265 14.9456 35.2365 14.0096C35.0455 13.074 34.7805 12.1602 34.4405 11.2677L26.2645 14.3841C26.4345 14.8302 26.5665 15.2873 26.6625 15.7555C26.7575 16.2229 26.8135 16.6958 26.8315 17.1727C26.8495 17.65 26.8285 18.1253 26.7685 18.599C26.7085 19.0724 26.6105 19.5382 26.4745 19.9953C26.3375 20.4536 26.1655 20.8969 25.9575 21.3263C25.7485 21.7558 25.5065 22.1651 25.2305 22.5546C24.9545 22.9441 24.6485 23.309 24.3135 23.6491C23.9775 23.9884 23.6165 24.2992 23.2305 24.58L28.3745 31.6578Z" fill="#1E66D8"/>
<path d="M34.7319 12.092C34.4489 11.2188 34.0989 10.373 33.6809 9.55486C33.2639 8.7367 32.7859 7.95612 32.2459 7.2135C31.7069 6.47087 31.1119 5.77451 30.4629 5.12561C29.8139 4.47631 29.1179 3.88197 28.3749 3.34181C27.6319 2.80244 26.8509 2.32436 26.0329 1.90717C25.2149 1.49039 24.3699 1.14043 23.4959 0.856113C22.6229 0.572587 21.7329 0.359054 20.8259 0.215116C19.9189 0.0719689 19.0069 0 18.0889 0L18.0899 8.74975C18.5489 8.74975 19.0049 8.78574 19.4579 8.85771C19.9119 8.92928 20.3569 9.03644 20.7929 9.1784C21.2299 9.31997 21.6529 9.49515 22.0619 9.70354C22.4709 9.91193 22.8609 10.1516 23.2319 10.4213C23.6029 10.6909 23.9509 10.9883 24.2759 11.3126C24.6009 11.6372 24.8979 11.9852 25.1679 12.3569C25.4379 12.7282 25.6769 13.1185 25.8849 13.527C26.0939 13.9363 26.2689 14.359 26.4109 14.7955L34.7319 12.092Z" fill="#0049C7"/>
<path d="M51.3754 28.5994V30.8834C51.1224 31.0605 50.8434 31.198 50.5394 31.2936C50.2344 31.3906 49.9484 31.4603 49.6814 31.5039C49.3684 31.5631 49.0564 31.5934 48.7444 31.5934C48.2394 31.5934 47.7974 31.5411 47.4184 31.4375C47.0394 31.3344 46.7124 31.198 46.4374 31.0266C46.1614 30.8563 45.9354 30.6604 45.7574 30.4397C45.5794 30.2171 45.4304 29.9887 45.3114 29.7528C45.0444 29.2192 44.9024 28.6062 44.8884 27.9114V20.638H43.1494V18.7313C43.3574 18.7014 43.5734 18.6534 43.7964 18.587C44.0194 18.5203 44.2494 18.4135 44.4864 18.2652C44.8884 18.0141 45.2074 17.711 45.4464 17.3557C45.6834 17.0014 45.8654 16.6576 45.9914 16.325C46.1174 15.9927 46.1994 15.6972 46.2364 15.4382C46.2734 15.1795 46.2924 15.0136 46.2924 14.9393H48.1194C48.1344 15.5161 48.1424 16.0959 48.1424 16.68C48.1424 17.2644 48.1504 17.8445 48.1654 18.421H51.2404V20.6383H48.1874C48.2324 24.6746 48.2544 27.0477 48.2544 27.7563C48.2544 27.8457 48.2694 27.9785 48.2994 28.1553C48.3284 28.3321 48.4184 28.4944 48.5674 28.6438C48.7304 28.8198 48.9454 28.9241 49.2134 28.9537C49.4804 28.9832 49.7514 28.9832 50.0264 28.9537C50.3014 28.9241 50.5624 28.8689 50.8074 28.7873C51.0514 28.7069 51.2414 28.6438 51.3754 28.5994Z" fill="white"/>
<path d="M56.6832 18.3551H53.4512V31.4171H56.6832V18.3551Z" fill="white"/>
<path d="M56.6832 12.8334H53.4512V16.0669H56.6832V12.8334Z" fill="#0049C7"/>
<path d="M65.8619 29.1091C66.7979 29.1091 67.5569 28.8173 68.1359 28.2332C68.7149 27.6498 69.0999 26.9142 69.2939 26.0271L71.9239 26.315C71.7909 27.069 71.5639 27.7681 71.2439 28.4103C70.9239 29.0539 70.4999 29.6084 69.9739 30.0738C69.4459 30.5392 68.8209 30.9054 68.1019 31.1716C67.3809 31.4372 66.5529 31.5703 65.6159 31.5703C64.6499 31.5703 63.7699 31.3996 62.9729 31.0609C62.1779 30.7207 61.4909 30.2477 60.9149 29.6402C60.3399 29.0341 59.8899 28.3219 59.5679 27.4997C59.2449 26.6793 59.0859 25.789 59.0859 24.8279C59.0859 23.8964 59.2449 23.0168 59.5679 22.1889C59.8899 21.3613 60.3419 20.6441 60.9249 20.038C61.5079 19.4322 62.1999 18.9517 62.9949 18.5967C63.7909 18.2421 64.6639 18.0646 65.6159 18.0646C66.4919 18.0646 67.2909 18.2049 68.0109 18.4856C68.7319 18.767 69.3629 19.1548 69.9059 19.6502C70.4499 20.1455 70.8959 20.7292 71.2439 21.4017C71.5929 22.0745 71.8259 22.8025 71.9469 23.5858L69.3399 23.83C69.1909 22.8393 68.8179 22.0413 68.2249 21.4345C67.6309 20.8288 66.8419 20.5254 65.8609 20.5254C65.2509 20.5254 64.7249 20.6325 64.2799 20.8472C63.8339 21.0611 63.4569 21.3609 63.1549 21.7451C62.8499 22.1297 62.6229 22.5807 62.4749 23.0976C62.3259 23.6161 62.2519 24.1846 62.2519 24.8055C62.2519 25.412 62.3339 25.9773 62.4979 26.5019C62.6609 27.0275 62.8989 27.481 63.2109 27.8656C63.5229 28.2498 63.9019 28.5532 64.3479 28.7751C64.7919 28.9987 65.2959 29.1091 65.8619 29.1091Z" fill="white"/>
<path d="M78.9915 25.8493L77.2525 27.6452V31.4156H73.9775V13.7856H77.2525V24.1194L82.5795 18.2429H86.3245L80.9755 24.0754L86.6805 31.4156H82.9365L78.9915 25.8493Z" fill="white"/>
<path d="M99.7425 24.8506C99.7425 24.9689 99.7425 25.0797 99.7425 25.1829C99.7425 25.286 99.7355 25.3899 99.7195 25.4931H90.0015C90.1195 26.5577 90.4845 27.4081 91.0935 28.0434C91.7035 28.6794 92.5415 28.9973 93.6115 28.9973C94.4595 28.9973 95.1355 28.8093 95.6405 28.4327C96.1475 28.056 96.5465 27.5113 96.8445 26.8023L99.4065 27.1563C99.2285 27.8215 98.9605 28.4244 98.6045 28.9637C98.2485 29.5038 97.8095 29.9695 97.2885 30.3606C96.7685 30.7531 96.1675 31.0562 95.4835 31.2701C94.7995 31.484 94.0495 31.5923 93.2325 31.5923C92.3405 31.5923 91.5015 31.44 90.7135 31.1373C89.9255 30.8339 89.2425 30.3934 88.6635 29.818C88.0835 29.2408 87.6235 28.5355 87.2805 27.6999C86.9405 26.8651 86.7695 25.9145 86.7695 24.8506C86.7695 23.8451 86.9355 22.9252 87.2705 22.0893C87.6055 21.2545 88.0685 20.5409 88.6635 19.9496C89.2575 19.3583 89.9535 18.9001 90.7475 18.5743C91.5415 18.2493 92.4015 18.0869 93.3225 18.0869C94.3915 18.0869 95.3285 18.2637 96.1315 18.6187C96.9345 18.9733 97.6025 19.4539 98.1365 20.06C98.6725 20.6668 99.0735 21.3793 99.3395 22.2004C99.6095 23.0208 99.7425 23.9043 99.7425 24.8506ZM96.8235 23.4974C96.6605 22.6106 96.2965 21.875 95.7305 21.2913C95.1665 20.7072 94.4085 20.4149 93.4575 20.4149C92.4765 20.4149 91.7075 20.7075 91.1505 21.2913C90.5935 21.8753 90.2325 22.6106 90.0695 23.4974H96.8235Z" fill="white"/>
<path d="M110.509 20.6589C110.421 20.6441 110.242 20.6293 109.974 20.6145C109.707 20.5997 109.394 20.6185 109.038 20.6701C108.681 20.7217 108.294 20.8288 107.879 20.9912C107.463 21.1542 107.061 21.3981 106.676 21.7235C106.32 22.0338 106.049 22.3516 105.862 22.677C105.675 23.0024 105.538 23.2755 105.449 23.4974V31.4145H102.15V18.2417H105.338V20.8804C105.412 20.6733 105.568 20.3667 105.806 19.9601C106.043 19.5539 106.408 19.1725 106.898 18.8179C107.284 18.5372 107.675 18.3446 108.069 18.2414C108.462 18.1378 108.827 18.0826 109.161 18.0751C109.496 18.0679 109.781 18.0863 110.019 18.1303C110.257 18.1746 110.42 18.2046 110.51 18.219L110.509 20.6589Z" fill="white"/>
<path d="M45.6039 4.90449H43.7259V6.20436H45.3619V7.12327H43.7259V9.02084H42.5889V3.9856H45.6039V4.90449Z" fill="#0049C7"/>
<path d="M46.2999 9.02084V5.23319H47.3709V9.02084H46.2999ZM46.3949 4.58324C46.2729 4.45873 46.2119 4.30932 46.2119 4.13501C46.2119 3.96069 46.2729 3.81128 46.3949 3.68677C46.5179 3.56226 46.6639 3.5 46.8359 3.5C47.0069 3.5 47.1529 3.56226 47.2759 3.68677C47.3979 3.81128 47.4589 3.96069 47.4589 4.13501C47.4589 4.30932 47.3979 4.45873 47.2759 4.58324C47.1529 4.70775 47.0069 4.77001 46.8359 4.77001C46.6639 4.77001 46.5179 4.70775 46.3949 4.58324Z" fill="#0049C7"/>
<path d="M49.362 5.23316V5.87563C49.455 5.66646 49.597 5.50209 49.788 5.38257C49.983 5.25806 50.216 5.1958 50.484 5.1958C50.866 5.1958 51.164 5.31284 51.38 5.54689C51.595 5.77604 51.702 6.11472 51.702 6.56291V9.0208H50.631V6.76463C50.631 6.54051 50.58 6.37117 50.477 6.25662C50.374 6.13712 50.23 6.07736 50.044 6.07736C49.849 6.07736 49.685 6.15703 49.553 6.31638C49.426 6.47076 49.362 6.70488 49.362 7.01861V9.0208H48.291V5.23316H49.362Z" fill="#0049C7"/>
<path d="M54.1903 9.08063C53.6083 9.08063 53.1583 8.90378 52.8403 8.55022C52.5223 8.19163 52.3633 7.73338 52.3633 7.17561C52.3633 6.59289 52.5303 6.11479 52.8623 5.74124C53.1953 5.36272 53.6373 5.17346 54.1903 5.17346C54.7673 5.17346 55.2153 5.35525 55.5323 5.71884C55.8503 6.0824 56.0093 6.54554 56.0093 7.10834C56.0093 7.68114 55.8483 8.15427 55.5253 8.52775C55.2073 8.89634 54.7623 9.08063 54.1903 9.08063ZM54.1833 6.03257C53.9483 6.03257 53.7723 6.13471 53.6543 6.33885C53.5373 6.54306 53.4783 6.80703 53.4783 7.13074C53.4783 7.45453 53.5373 7.72097 53.6543 7.93014C53.7773 8.13435 53.9583 8.23643 54.1973 8.23643C54.4323 8.23643 54.6063 8.13684 54.7183 7.93759C54.8363 7.73338 54.8943 7.46942 54.8943 7.1457C54.8943 6.40364 54.6573 6.03257 54.1833 6.03257Z" fill="#0049C7"/>
<path d="M56.7461 9.02079V3.73901H57.8171V9.02079H56.7461Z" fill="#0049C7"/>
<path d="M60.3787 9.08063C59.7967 9.08063 59.3467 8.90378 59.0297 8.55022C58.7117 8.19163 58.5527 7.73338 58.5527 7.17561C58.5527 6.59289 58.7187 6.11479 59.0517 5.74124C59.3837 5.36272 59.8267 5.17346 60.3787 5.17346C60.9567 5.17346 61.4037 5.35525 61.7217 5.71884C62.0397 6.0824 62.1987 6.54554 62.1987 7.10834C62.1987 7.68114 62.0367 8.15427 61.7147 8.52775C61.3967 8.89634 60.9517 9.08063 60.3787 9.08063ZM60.3717 6.03257C60.1367 6.03257 59.9607 6.13471 59.8437 6.33885C59.7257 6.54306 59.6677 6.80703 59.6677 7.13074C59.6677 7.45453 59.7257 7.72097 59.8437 7.93014C59.9657 8.13435 60.1467 8.23643 60.3867 8.23643C60.6207 8.23643 60.7947 8.13684 60.9077 7.93759C61.0247 7.73338 61.0837 7.46942 61.0837 7.1457C61.0837 6.40364 60.8457 6.03257 60.3717 6.03257Z" fill="#0049C7"/>
<path d="M64.549 8.02718C64.779 8.02718 64.958 7.94 65.085 7.7657C65.217 7.58643 65.283 7.37223 65.283 7.12323C65.283 6.44588 65.041 6.10721 64.556 6.10721C64.341 6.10721 64.173 6.19191 64.05 6.36124C63.928 6.53058 63.867 6.76463 63.867 7.06347C63.867 7.3772 63.926 7.61628 64.043 7.78065C64.16 7.94503 64.329 8.02718 64.549 8.02718ZM65.283 5.23316H66.3459V8.6547C66.3459 9.2623 66.168 9.71806 65.811 10.0219C65.454 10.3306 65.0069 10.485 64.4689 10.485C63.9449 10.485 63.488 10.3904 63.097 10.2011V9.088C63.439 9.36692 63.86 9.50634 64.358 9.50634C64.681 9.50634 64.916 9.43666 65.063 9.29717C65.209 9.15774 65.283 8.93858 65.283 8.63974V8.38577C65.068 8.72444 64.725 8.89378 64.256 8.89378C63.845 8.89378 63.49 8.7394 63.192 8.43057C62.899 8.12181 62.752 7.66363 62.752 7.05596C62.752 6.51811 62.894 6.07482 63.177 5.72622C63.466 5.3726 63.843 5.1958 64.307 5.1958C64.748 5.1958 65.072 5.3751 65.283 5.73366V5.23316Z" fill="#0049C7"/>
<path d="M68.2251 8.9611L66.7871 5.23328H67.9531L68.3571 6.41361C68.4601 6.71747 68.5431 6.97889 68.6061 7.19805C68.6751 7.41722 68.7171 7.56161 68.7311 7.63135L68.7531 7.73591C68.8071 7.53673 68.9391 7.09598 69.1501 6.41361L69.5161 5.23328H70.6171L69.2741 8.90885C68.8881 9.96967 68.2991 10.5001 67.5061 10.5001C67.3551 10.5001 67.2181 10.4876 67.0951 10.4628V9.59613C67.1741 9.61605 67.2571 9.62604 67.3441 9.62604C67.7511 9.62604 68.0441 9.40439 68.2251 8.9611Z" fill="#0049C7"/>
</svg>
