<svg width="74" height="18" viewBox="0 0 74 18" fill="none" xmlns="http://www.w3.org/2000/svg">
<g clip-path="url(#clip0_474_141)">
<path d="M19.4434 6.33708H26.9348V7.71196H23.9896V15.4424H22.369V7.71196H19.4365V6.33655H19.4429L19.4434 6.33708ZM26.6151 8.84914H27.9999V10.1218H28.0258C28.0718 9.94184 28.1564 9.76819 28.2806 9.60143C28.5462 9.24287 28.9057 8.9649 29.3192 8.79831C29.5292 8.71478 29.7529 8.67098 29.9789 8.66914C30.148 8.66914 30.2728 8.67602 30.3383 8.68237C30.4033 8.68872 30.4683 8.70143 30.5402 8.70778V10.1086C30.4342 10.09 30.3275 10.075 30.2204 10.0636C30.1141 10.051 30.0072 10.0447 29.9001 10.0445C29.6517 10.0445 29.417 10.0959 29.195 10.1928C28.973 10.2886 28.7833 10.4363 28.6205 10.6232C28.4467 10.8321 28.3137 11.0719 28.2283 11.33C28.1305 11.6127 28.0845 11.9335 28.0845 12.3004V15.4361H26.6087V8.84914H26.6151ZM37.3265 15.443H35.8767V14.5244H35.8503C35.6674 14.858 35.3999 15.1216 35.0405 15.3212C34.6811 15.5203 34.3153 15.623 33.9432 15.623C33.0615 15.623 32.4209 15.4112 32.0297 14.9808C31.6375 14.5498 31.4414 13.9008 31.4414 13.0331V8.84967H32.9177V12.8917C32.9177 13.4704 33.0287 13.8817 33.2576 14.1194C33.4796 14.3571 33.7994 14.4794 34.2043 14.4794C34.5177 14.4794 34.7725 14.4344 34.9813 14.3375C35.1906 14.2417 35.3603 14.1194 35.4845 13.9585C35.615 13.8044 35.7065 13.6117 35.7657 13.3931C35.8238 13.1744 35.8503 12.9373 35.8503 12.68V8.85602H37.3265V15.443ZM39.841 13.329C39.887 13.7525 40.0498 14.049 40.331 14.2221C40.618 14.3894 40.9578 14.4794 41.3564 14.4794C41.4938 14.4794 41.6503 14.4662 41.8268 14.4471C42.0028 14.4281 42.1725 14.3831 42.3231 14.3254C42.4796 14.2671 42.6033 14.1771 42.7079 14.0617C42.8063 13.9458 42.8517 13.7981 42.8454 13.6117C42.8445 13.5252 42.8255 13.4399 42.7895 13.3613C42.7535 13.2826 42.7014 13.2125 42.6366 13.1554C42.5055 13.0336 42.3427 12.9436 42.1397 12.8663C41.9136 12.7879 41.6822 12.7256 41.4473 12.68C41.1862 12.6286 40.9251 12.5709 40.6576 12.5127C40.3882 12.4543 40.1221 12.3813 39.8605 12.294C39.6152 12.2153 39.3838 12.0982 39.175 11.9473C38.9714 11.805 38.8054 11.6153 38.6913 11.3945C38.5676 11.1695 38.5084 10.8932 38.5084 10.5591C38.5084 10.1991 38.5999 9.90372 38.7764 9.65914C38.9545 9.4166 39.1844 9.21693 39.4493 9.07467C39.734 8.92392 40.0401 8.81769 40.3569 8.75967C40.6899 8.70196 41.0102 8.66967 41.3104 8.66967C41.6566 8.66967 41.9896 8.70831 42.3036 8.77925C42.6076 8.8446 42.8973 8.9644 43.1588 9.1329C43.4136 9.29331 43.6224 9.50561 43.7926 9.7629C43.9622 10.0197 44.0669 10.3347 44.1124 10.7005H42.571C42.4992 10.3537 42.3422 10.116 42.0879 10.0001C41.8332 9.87831 41.5393 9.82008 41.2126 9.82008C41.108 9.82008 40.9837 9.82643 40.8405 9.84602C40.7025 9.8644 40.5666 9.89668 40.4351 9.94237C40.3148 9.98672 40.2057 10.0568 40.1153 10.1478C40.0714 10.1952 40.0373 10.2509 40.0149 10.3116C39.9925 10.3723 39.9822 10.4368 39.9847 10.5014C39.9847 10.6814 40.0498 10.8228 40.174 10.9318C40.2982 11.0414 40.4615 11.1309 40.664 11.2082C40.8664 11.2791 41.0953 11.3432 41.3564 11.3945C41.6175 11.4459 41.885 11.5041 42.1598 11.5618C42.4273 11.6195 42.6884 11.6968 42.95 11.78C43.2111 11.8636 43.4395 11.9795 43.6425 12.1273C43.8449 12.2755 44.0082 12.455 44.1319 12.6736C44.2561 12.8917 44.3217 13.1681 44.3217 13.4894C44.3217 13.8812 44.2302 14.2094 44.0468 14.4858C43.8645 14.7558 43.6292 14.9803 43.3417 15.1475C43.0407 15.3212 42.7145 15.447 42.3749 15.5203C42.0295 15.5964 41.6768 15.6351 41.3231 15.6357C40.9269 15.6401 40.5319 15.5926 40.1481 15.4943C39.7886 15.398 39.4752 15.2566 39.2141 15.0708C38.956 14.883 38.7438 14.639 38.5935 14.3571C38.4434 14.0744 38.3647 13.734 38.352 13.3417H39.841V13.329ZM44.7133 8.85019H45.8302V6.8702H47.3065V8.85019H48.6385V9.93549H47.307V13.4577C47.307 13.6112 47.3134 13.7404 47.3266 13.8558C47.3393 13.9654 47.3721 14.0617 47.418 14.1385C47.468 14.2191 47.5439 14.2804 47.6332 14.3121C47.7315 14.3508 47.8552 14.3704 48.0254 14.3704C48.1295 14.3704 48.2342 14.3704 48.3388 14.3635C48.4435 14.3571 48.5476 14.3444 48.6523 14.3185V15.443C48.4889 15.4625 48.3256 15.4753 48.1755 15.4948C48.0172 15.5131 47.858 15.5216 47.6987 15.5203C47.307 15.5203 46.9936 15.4816 46.7579 15.4112C46.5232 15.3403 46.3334 15.2312 46.2029 15.0898C46.0654 14.9485 45.9809 14.7748 45.9285 14.5625C45.8776 14.3238 45.8493 14.0808 45.844 13.8367V9.94767H44.7271V8.84861H44.7139L44.7133 8.85019ZM49.6835 8.85019H51.0816V9.74278H51.108C51.3163 9.35737 51.6038 9.08737 51.9759 8.92061C52.3563 8.75123 52.7685 8.66565 53.1848 8.66967C53.7133 8.66967 54.1705 8.75967 54.5627 8.94602C54.9544 9.12602 55.2811 9.37696 55.5422 9.69778C55.8033 10.0197 55.9931 10.3918 56.1236 10.8164C56.2566 11.2581 56.3227 11.7173 56.3197 12.1786C56.3197 12.6223 56.261 13.0521 56.1432 13.464C56.035 13.8615 55.8557 14.236 55.6141 14.5694C55.3766 14.8905 55.0681 15.1522 54.7129 15.3339C54.3471 15.5266 53.9226 15.623 53.4263 15.623C53.2094 15.6229 52.9929 15.6036 52.7793 15.5653C52.5663 15.5266 52.3584 15.4641 52.1593 15.3789C51.9616 15.2964 51.7767 15.1861 51.6101 15.0512C51.4458 14.9197 51.3026 14.7636 51.1857 14.5885H51.1593V17.8788H49.6835V8.84914V8.85019ZM54.8434 12.1527C54.8434 11.8573 54.8043 11.5682 54.7261 11.2855C54.6537 11.0179 54.5341 10.7655 54.373 10.5401C54.22 10.3258 54.0216 10.1481 53.7921 10.0197C53.5455 9.886 53.269 9.81732 52.9887 9.82008C52.3681 9.82008 51.8977 10.0318 51.5842 10.4564C51.2708 10.8805 51.1138 11.4464 51.1138 12.1527C51.1138 12.4873 51.1535 12.7954 51.238 13.0781C51.3226 13.3608 51.4405 13.6054 51.6101 13.8108C51.774 14.0167 51.9696 14.1771 52.1984 14.2925C52.4268 14.4148 52.6948 14.4725 52.995 14.4725C53.3349 14.4725 53.6155 14.4021 53.8508 14.2671C54.0785 14.1359 54.2747 13.956 54.4253 13.7404C54.5754 13.5217 54.687 13.2777 54.752 13.0013C54.812 12.7226 54.8427 12.4378 54.8434 12.1527ZM57.4493 6.33708H58.9256V7.71249H57.4493V6.33708ZM57.4493 8.84967H58.9256V15.443H57.4493V8.84967ZM60.2449 6.33708H61.7212V15.443H60.2449V6.33708ZM66.2473 15.623C65.7114 15.623 65.2346 15.533 64.817 15.3598C64.4167 15.1954 64.0544 14.9503 63.7525 14.6398C63.459 14.3231 63.2342 13.9489 63.0923 13.5408C62.9369 13.0903 62.8597 12.6165 62.864 12.14C62.864 11.6386 62.9422 11.1764 63.0923 10.7518C63.2343 10.3439 63.4591 9.96992 63.7525 9.65331C64.0395 9.34467 64.3989 9.10696 64.817 8.93331C65.2346 8.75967 65.7114 8.66967 66.2473 8.66967C66.7828 8.66967 67.2596 8.75967 67.6777 8.93331C68.078 9.09775 68.4403 9.34282 68.7422 9.65331C69.0356 9.96981 69.2603 10.3439 69.4018 10.7518C69.552 11.1764 69.6302 11.6386 69.6302 12.14C69.6302 12.6482 69.552 13.1167 69.4018 13.5408C69.2603 13.9489 69.0357 14.3232 68.7422 14.6398C68.4546 14.9485 68.0958 15.1862 67.6777 15.3598C67.2596 15.533 66.7828 15.623 66.2473 15.623ZM66.2473 14.4725C66.574 14.4725 66.861 14.4021 67.1026 14.2671C67.338 14.1359 67.5412 13.9535 67.6972 13.7335C67.8537 13.5154 67.9647 13.2644 68.0434 12.9886C68.1153 12.7117 68.1544 12.4295 68.1544 12.14C68.1544 11.8573 68.1153 11.5809 68.0434 11.2982C67.9761 11.03 67.8586 10.7771 67.6972 10.5528C67.5409 10.3348 67.3377 10.1548 67.1026 10.026C66.861 9.89102 66.574 9.82008 66.2473 9.82008C65.9207 9.82008 65.6331 9.89102 65.3916 10.026C65.158 10.1568 64.9554 10.3365 64.7975 10.5528C64.6383 10.7784 64.521 11.0309 64.4512 11.2982C64.3789 11.573 64.3414 11.8558 64.3397 12.14C64.3397 12.4295 64.3794 12.7117 64.4512 12.9886C64.5231 13.2644 64.6405 13.5154 64.7975 13.7335C64.9539 13.9521 65.15 14.1321 65.3916 14.2671C65.6331 14.4085 65.9207 14.4725 66.2473 14.4725ZM70.0615 8.85019H71.1784V6.8702H72.6547V8.85019H73.9867V9.93549H72.6547V13.4577C72.6547 13.6112 72.661 13.7404 72.6737 13.8558C72.6869 13.9654 72.7197 14.0617 72.7657 14.1385C72.8155 14.2192 72.8914 14.2805 72.9808 14.3121C73.0791 14.3508 73.2028 14.3704 73.373 14.3704C73.4771 14.3704 73.5818 14.3704 73.6864 14.3635C73.7911 14.3571 73.8952 14.3444 73.9999 14.3185V15.443C73.8366 15.4625 73.6732 15.4753 73.5231 15.4948C73.3649 15.5131 73.2056 15.5216 73.0463 15.5203C72.6547 15.5203 72.3407 15.4816 72.1055 15.4112C71.8708 15.3403 71.681 15.2312 71.5505 15.0898C71.4136 14.9485 71.3285 14.7748 71.2762 14.5625C71.2254 14.3238 71.197 14.0808 71.1916 13.8367V9.94767H70.0747V8.84861H70.0615V8.85019Z" fill="#1C1C1C"/>
<path d="M17.7193 6.33653H10.9531L8.86309 0L6.76571 6.33706L0 6.33018L5.4797 10.2499L3.38339 16.5796L8.86309 12.6662L14.3364 16.5796L12.2465 10.2499L17.7193 6.33653Z" fill="#04DA8D"/>
<path d="M12.7166 11.6836L12.2461 10.2505L8.86328 12.6667L12.7166 11.6836Z" fill="#126849"/>
<line x1="22" y1="17.5" x2="89" y2="17.5" stroke="black"/>
</g>
<defs>
<clipPath id="clip0_474_141">
<rect width="74" height="18" fill="white"/>
</clipPath>
</defs>
</svg>
