<svg width="111" height="35" viewBox="0 0 111 35" fill="none" xmlns="http://www.w3.org/2000/svg">
<path d="M17.5254 0C18.4814 0 19.4304 0.0779011 20.3734 0.232912C21.3164 0.388317 22.2404 0.618856 23.1464 0.925317C24.0514 1.23178 24.9254 1.60942 25.7684 2.05903C26.6124 2.50825 27.4134 3.0231 28.1724 3.6036C28.9314 4.1837 29.6384 4.82194 30.2914 5.5179C30.9474 6.21387 31.5394 6.95806 32.0724 7.75129C32.6054 8.5442 33.0694 9.37497 33.4654 10.2446C33.8614 11.1133 34.1844 12.0086 34.4344 12.9303L25.9794 15.2151C25.8554 14.7541 25.6934 14.3065 25.4954 13.8719C25.2974 13.4373 25.0644 13.0221 24.7984 12.6255C24.5324 12.2293 24.2364 11.8571 23.9084 11.5088C23.5814 11.1607 23.2284 10.8417 22.8484 10.5514C22.4694 10.2616 22.0684 10.0041 21.6464 9.77951C21.2254 9.55487 20.7884 9.36587 20.3354 9.21245C19.8824 9.0594 19.4204 8.94396 18.9494 8.86607C18.4774 8.78856 18.0034 8.74981 17.5244 8.74981L17.5254 0Z" fill="#A87AF1"/>
<path d="M34.1855 12.0922C34.4795 13.0004 34.6995 13.9265 34.8425 14.8705C34.9865 15.8144 35.0525 16.7638 35.0405 17.7184C35.0285 18.6734 34.9395 19.6209 34.7715 20.5608C34.6045 21.5007 34.3615 22.4213 34.0445 23.3213C33.7255 24.2221 33.3375 25.0909 32.8765 25.9276C32.4165 26.7644 31.8915 27.5584 31.3005 28.3089C30.7105 29.0595 30.0635 29.7582 29.3585 30.4031C28.6535 31.0481 27.9005 31.6314 27.1005 32.1538L22.3125 24.8263C22.7135 24.5657 23.0895 24.2743 23.4415 23.9512C23.7945 23.629 24.1185 23.2802 24.4135 22.9041C24.7085 22.5292 24.9705 22.1323 25.2015 21.7135C25.4315 21.2951 25.6255 20.8605 25.7855 20.4105C25.9435 19.9601 26.0655 19.4998 26.1495 19.0304C26.2325 18.5603 26.2775 18.087 26.2835 17.6089C26.2895 17.1316 26.2565 16.6567 26.1845 16.1849C26.1125 15.7128 26.0035 15.2497 25.8555 14.7958L34.1855 12.0922Z" fill="#905EDF"/>
<path d="M27.8222 31.6575C27.0492 32.2186 26.2352 32.7141 25.3802 33.1416C24.5262 33.5698 23.6432 33.9254 22.7302 34.2101C21.8172 34.4932 20.8882 34.7008 19.9412 34.8325C18.9942 34.9645 18.0442 35.0183 17.0882 34.9942C16.1322 34.9701 15.1852 34.8693 14.2462 34.6901C13.3072 34.5114 12.3892 34.2575 11.4922 33.9285C10.5952 33.5991 9.73019 33.1997 8.89819 32.7296C8.06619 32.2597 7.27818 31.7251 6.53418 31.1253L12.0302 24.3123C12.4022 24.6117 12.7962 24.8789 13.2122 25.1143C13.6282 25.3491 14.0612 25.5492 14.5092 25.7137C14.9582 25.8782 15.4162 26.0048 15.8862 26.0945C16.3552 26.1843 16.8292 26.2345 17.3072 26.2468C17.7842 26.2586 18.2602 26.2317 18.7332 26.1657C19.2062 26.1001 19.6712 25.9957 20.1282 25.8545C20.5842 25.7126 21.0252 25.5342 21.4532 25.3203C21.8802 25.1059 22.2872 24.8584 22.6742 24.5784L27.8222 31.6575Z" fill="#6F39C5"/>
<path d="M7.22914 31.6577C6.45614 31.0966 5.73414 30.4762 5.06214 29.7968C4.39114 29.1171 3.77912 28.3879 3.22712 27.6084C2.67412 26.8291 2.18913 26.0101 1.77213 25.1513C1.35413 24.2924 1.00912 23.4054 0.736124 22.4904C0.464124 21.5749 0.267135 20.6441 0.147135 19.6966C0.0281347 18.7491 -0.0148724 17.7985 0.0211276 16.8443C0.0571276 15.8901 0.170124 14.9454 0.361124 14.0094C0.552124 13.0738 0.817121 12.16 1.15812 11.2675L9.34214 14.3839C9.17214 14.8299 9.03913 15.2871 8.94413 15.7553C8.84813 16.2227 8.79212 16.6956 8.77412 17.1725C8.75612 17.6498 8.77714 18.1251 8.83714 18.5989C8.89714 19.0722 8.99512 19.538 9.13212 19.9951C9.26812 20.4534 9.44012 20.8967 9.64912 21.3262C9.85812 21.7556 10.1011 22.1649 10.3771 22.5544C10.6531 22.9439 10.9591 23.3089 11.2951 23.649C11.6311 23.9882 11.9921 24.299 12.3791 24.5798L7.22914 31.6577Z" fill="#4E1D9C"/>
<path d="M0.866211 12.092C1.15021 11.2189 1.50121 10.373 1.91821 9.55494C2.33621 8.73676 2.81422 7.95614 3.35522 7.21356C3.89522 6.47093 4.49023 5.77454 5.14023 5.12564C5.79023 4.47633 6.48622 3.88199 7.23022 3.34183C7.97322 2.80245 8.75522 2.32437 9.57422 1.90718C10.3932 1.4904 11.2392 1.14043 12.1132 0.856119C12.9872 0.572591 13.8782 0.359055 14.7862 0.215117C15.6932 0.0719696 16.6072 0 17.5262 0L17.5252 8.74981C17.0652 8.74981 16.6092 8.78576 16.1552 8.85774C15.7012 8.92933 15.2562 9.03649 14.8192 9.17846C14.3822 9.31999 13.9592 9.49518 13.5492 9.70359C13.1402 9.912 12.7492 10.1516 12.3772 10.4213C12.0062 10.691 11.6582 10.9883 11.3322 11.3126C11.0082 11.6372 10.7102 11.9853 10.4402 12.357C10.1702 12.7283 9.9302 13.1186 9.7222 13.5271C9.5132 13.9363 9.33823 14.359 9.19623 14.7956L0.866211 12.092Z" fill="#330778"/>
<path d="M45.1142 28.6364H42.0771V12.7527H48.2122C49.2932 12.7527 53.7361 13.2007 53.7361 17.864C53.7361 20.8575 51.9631 22.2422 50.1491 22.7106V22.7309C51.4741 24.6858 52.7991 26.6611 54.1241 28.6364H50.6992L46.9492 22.9549H45.1142C45.1142 24.8487 45.1142 26.7426 45.1142 28.6364ZM45.1142 20.2669H47.6621C48.8041 20.2669 50.5572 19.8393 50.5572 17.9251C50.5572 16.0313 48.8242 15.5018 47.7032 15.5018H45.1142C45.1142 17.0902 45.1142 18.6786 45.1142 20.2669Z" fill="white"/>
<path d="M60.9242 28.9825C57.5612 28.9825 55.0332 26.6204 55.0332 23.016C55.0332 19.5134 57.3982 16.9476 60.7202 16.9476C63.5532 16.9476 66.2032 18.8211 66.2032 22.9956V23.8713H57.8872C58.1312 25.5207 59.4162 26.4167 60.9042 26.4167C62.0652 26.4167 63.0642 25.7855 63.5742 24.6044L66.2442 25.6836C65.4902 27.5367 63.5742 28.9825 60.9242 28.9825ZM58.0302 21.7331H63.3292C63.1252 20.0633 61.9842 19.3913 60.7002 19.3913C59.2322 19.3913 58.3152 20.3891 58.0302 21.7331Z" fill="white"/>
<path d="M73.5438 28.9825C70.1808 28.9825 67.6328 26.6814 67.6328 22.9753C67.6328 19.2895 70.1398 16.9476 73.4418 16.9476C75.8878 16.9476 77.9668 18.2305 78.7618 20.4909L76.0918 21.5702C75.6428 20.2262 74.5828 19.6764 73.4418 19.6764C71.7298 19.6764 70.5878 21.1018 70.5878 22.9549C70.5878 24.9913 71.9338 26.2538 73.5638 26.2538C74.7868 26.2538 75.8468 25.5614 76.3768 24.2174L79.0468 25.2967C78.2318 27.5978 76.1528 28.9825 73.5438 28.9825Z" fill="white"/>
<path d="M82.2144 15.7258C81.1954 15.7258 80.4404 14.9316 80.4404 13.9338C80.4404 12.936 81.2354 12.1826 82.2144 12.1826C83.2134 12.1826 83.9674 12.9767 83.9674 13.9135C83.9674 14.9316 83.2134 15.7258 82.2144 15.7258ZM83.6414 28.6364H80.7874V17.2735H83.6414V28.6364Z" fill="white"/>
<path d="M89.2944 33.1164H86.4404V17.2734H89.2534V18.9636H89.2944C90.2934 17.5585 91.4954 16.9476 92.9634 16.9476C96.0614 16.9476 97.9164 19.6356 97.9164 22.9142C97.9164 26.7222 95.4504 28.9825 92.7594 28.9825C91.0674 28.9825 89.9264 28.1273 89.2944 27.1294V33.1164ZM92.1074 26.2538C93.7784 26.2538 94.9614 24.8691 94.9614 22.9753C94.9614 21.0407 93.7584 19.6764 92.1074 19.6764C90.4564 19.6764 89.2334 21.0407 89.2334 22.9753C89.2334 24.9098 90.4564 26.2538 92.1074 26.2538Z" fill="white"/>
<path d="M105.193 28.9825C101.83 28.9825 99.3027 26.6204 99.3027 23.016C99.3027 19.5134 101.667 16.9476 104.99 16.9476C107.823 16.9476 110.473 18.8211 110.473 22.9956V23.8713H102.156C102.401 25.5207 103.685 26.4167 105.173 26.4167C106.335 26.4167 107.334 25.7855 107.843 24.6044L110.513 25.6836C109.759 27.5367 107.843 28.9825 105.193 28.9825ZM102.299 21.7331H107.599C107.395 20.0633 106.253 19.3913 104.969 19.3913C103.502 19.3913 102.584 20.3891 102.299 21.7331Z" fill="white"/>
<path d="M45.0638 5.85895H43.1858V7.15883H44.8218V8.07774H43.1858V9.97531H42.0488V4.94006H45.0638V5.85895Z" fill="#6F39C5"/>
<path d="M45.7599 9.97543V6.18778H46.8309V9.97543H45.7599ZM45.8549 5.53783C45.7329 5.41332 45.6719 5.26391 45.6719 5.0896C45.6719 4.91528 45.7329 4.76587 45.8549 4.64136C45.9779 4.51684 46.1239 4.45459 46.2949 4.45459C46.4669 4.45459 46.6129 4.51684 46.7359 4.64136C46.8579 4.76587 46.9189 4.91528 46.9189 5.0896C46.9189 5.26391 46.8579 5.41332 46.7359 5.53783C46.6129 5.66234 46.4669 5.7246 46.2949 5.7246C46.1239 5.7246 45.9779 5.66234 45.8549 5.53783Z" fill="#6F39C5"/>
<path d="M48.822 6.18774V6.83022C48.915 6.62105 49.057 6.45668 49.248 6.33716C49.443 6.21265 49.675 6.15039 49.944 6.15039C50.326 6.15039 50.624 6.26743 50.839 6.50148C51.055 6.73063 51.162 7.06931 51.162 7.5175V9.97539H50.091V7.71922C50.091 7.4951 50.04 7.32576 49.937 7.21121C49.834 7.09171 49.69 7.03195 49.504 7.03195C49.309 7.03195 49.145 7.11162 49.013 7.27097C48.886 7.42535 48.822 7.65947 48.822 7.9732V9.97539H47.751V6.18774H48.822Z" fill="#6F39C5"/>
<path d="M53.6502 10.0351C53.0682 10.0351 52.6182 9.85825 52.3002 9.50469C51.9822 9.1461 51.8232 8.68785 51.8232 8.13008C51.8232 7.54736 51.9902 7.06926 52.3222 6.69571C52.6552 6.31719 53.0972 6.12793 53.6502 6.12793C54.2272 6.12793 54.6752 6.30971 54.9922 6.67331C55.3102 7.03687 55.4692 7.50001 55.4692 8.06281C55.4692 8.6356 55.3082 9.10874 54.9852 9.48222C54.6672 9.8508 54.2222 10.0351 53.6502 10.0351ZM53.6432 6.98704C53.4082 6.98704 53.2323 7.08918 53.1143 7.29332C52.9973 7.49753 52.9382 7.7615 52.9382 8.08521C52.9382 8.409 52.9973 8.67544 53.1143 8.88461C53.2373 9.08882 53.4183 9.19089 53.6573 9.19089C53.8923 9.19089 54.0663 9.0913 54.1783 8.89206C54.2963 8.68785 54.3542 8.42389 54.3542 8.10017C54.3542 7.3581 54.1172 6.98704 53.6432 6.98704Z" fill="#6F39C5"/>
<path d="M56.2051 9.97538V4.6936H57.2761V9.97538H56.2051Z" fill="#6F39C5"/>
<path d="M59.8387 10.0351C59.2567 10.0351 58.8067 9.85825 58.4897 9.50469C58.1717 9.1461 58.0127 8.68785 58.0127 8.13008C58.0127 7.54736 58.1787 7.06926 58.5117 6.69571C58.8437 6.31719 59.2867 6.12793 59.8387 6.12793C60.4167 6.12793 60.8637 6.30971 61.1817 6.67331C61.4997 7.03687 61.6587 7.50001 61.6587 8.06281C61.6587 8.6356 61.4967 9.10874 61.1747 9.48222C60.8567 9.8508 60.4117 10.0351 59.8387 10.0351ZM59.8317 6.98704C59.5967 6.98704 59.4207 7.08918 59.3037 7.29332C59.1857 7.49753 59.1277 7.7615 59.1277 8.08521C59.1277 8.409 59.1857 8.67544 59.3037 8.88461C59.4257 9.08882 59.6067 9.19089 59.8467 9.19089C60.0807 9.19089 60.2547 9.0913 60.3677 8.89206C60.4847 8.68785 60.5437 8.42389 60.5437 8.10017C60.5437 7.3581 60.3057 6.98704 59.8317 6.98704Z" fill="#6F39C5"/>
<path d="M64.0089 8.98177C64.2389 8.98177 64.4179 8.89459 64.5449 8.72029C64.6769 8.54102 64.7429 8.32682 64.7429 8.07781C64.7429 7.40047 64.4999 7.0618 64.0159 7.0618C63.8009 7.0618 63.6329 7.1465 63.5099 7.31583C63.3879 7.48517 63.3269 7.71922 63.3269 8.01806C63.3269 8.33179 63.3859 8.57087 63.5029 8.73524C63.6199 8.89961 63.7889 8.98177 64.0089 8.98177ZM64.7429 6.18774H65.8059V9.60929C65.8059 10.2169 65.6279 10.6727 65.2709 10.9765C64.9139 11.2852 64.4669 11.4396 63.9279 11.4396C63.4049 11.4396 62.9479 11.345 62.5569 11.1557V10.0426C62.8989 10.3215 63.3199 10.4609 63.8179 10.4609C64.1409 10.4609 64.3759 10.3913 64.5229 10.2518C64.6689 10.1123 64.7429 9.89317 64.7429 9.59433V9.34036C64.5279 9.67903 64.1849 9.84837 63.7159 9.84837C63.3049 9.84837 62.9499 9.69399 62.6519 9.38516C62.3589 9.0764 62.2119 8.61822 62.2119 8.01055C62.2119 7.4727 62.3539 7.02941 62.6369 6.68081C62.9259 6.32719 63.3029 6.15039 63.7669 6.15039C64.2069 6.15039 64.5319 6.32969 64.7429 6.68825V6.18774Z" fill="#6F39C5"/>
<path d="M67.6841 9.91557L66.2461 6.18774H67.4121L67.8161 7.36808C67.9191 7.67194 68.0021 7.93336 68.0651 8.15252C68.1341 8.37169 68.1751 8.51608 68.1901 8.58582L68.2121 8.69038C68.2661 8.4912 68.3981 8.05045 68.6091 7.36808L68.9751 6.18774H70.0761L68.7331 9.86332C68.3471 10.9241 67.7581 11.4546 66.9651 11.4546C66.8141 11.4546 66.6771 11.4421 66.5541 11.4172V10.5506C66.6331 10.5705 66.7161 10.5805 66.8031 10.5805C67.2101 10.5805 67.5031 10.3589 67.6841 9.91557Z" fill="#6F39C5"/>
</svg>
