<svg width="249" height="118" viewBox="0 0 249 118" fill="none" xmlns="http://www.w3.org/2000/svg">
<path d="M95.1673 19.5669V26.0014H104.451V28.2824H95.1673V35.7494H92.5215V17.262H105.582V19.5669H95.1673Z" fill="black"/>
<path d="M109.31 17.2635H111.955V35.7511H109.31V17.2635Z" fill="black"/>
<path d="M133.434 17.2635V35.7511H131.268L120.156 21.9695V35.7511H117.511V17.2635H119.676L130.788 31.0451V17.2635H133.434Z" fill="black"/>
<path d="M137.474 26.5073C137.474 21.1051 141.659 17.0475 147.336 17.0475C152.964 17.0475 157.148 21.0571 157.148 26.5073C157.148 31.9335 152.964 35.9671 147.336 35.9671C141.659 35.9432 137.474 31.9094 137.474 26.5073ZM154.502 26.5073C154.502 22.4257 151.425 19.4004 147.336 19.4004C143.175 19.4004 140.119 22.4016 140.119 26.5073C140.119 30.5889 143.198 33.6142 147.336 33.6142C151.425 33.5902 154.502 30.5889 154.502 26.5073Z" fill="black"/>
<path d="M161.19 17.2635H163.836V33.4462H173.866V35.7511H161.19V17.2635Z" fill="black"/>
<path d="M175.046 26.5073C175.046 21.1051 179.231 17.0475 184.908 17.0475C190.536 17.0475 194.72 21.0571 194.72 26.5073C194.72 31.9335 190.536 35.9671 184.908 35.9671C179.231 35.9432 175.046 31.9094 175.046 26.5073ZM192.075 26.5073C192.075 22.4257 188.996 19.4004 184.908 19.4004C180.746 19.4004 177.692 22.4016 177.692 26.5073C177.692 30.5889 180.771 33.6142 184.908 33.6142C189.021 33.5902 192.075 30.5889 192.075 26.5073Z" fill="black"/>
<path d="M211.581 26.3873H214.131V33.5901C212.278 35.1508 209.704 35.9432 207.132 35.9432C201.454 35.9432 197.27 31.9575 197.27 26.4833C197.27 21.0091 201.454 17.0235 207.179 17.0235C210.114 17.0235 212.591 18.0079 214.298 19.8806L212.663 21.5133C211.124 20.0247 209.391 19.3764 207.299 19.3764C203.018 19.3764 199.915 22.3537 199.915 26.4833C199.915 30.5409 203.018 33.5901 207.276 33.5901C208.839 33.5901 210.282 33.2541 211.605 32.4137V26.3873H211.581Z" fill="black"/>
<path d="M226.277 29.3405V35.7271H223.655V29.2924L216.295 17.2635H219.133L225.05 27.0115L230.991 17.2635H233.613L226.277 29.3405Z" fill="black"/>
<path d="M238.951 23.314V19.3044H240.659C241.092 19.3044 241.405 19.3525 241.597 19.4244C241.789 19.4964 241.958 19.6166 242.055 19.8087C242.15 20.0006 242.222 20.1927 242.222 20.4329C242.222 20.745 242.127 20.9851 241.958 21.1771C241.789 21.3692 241.525 21.4892 241.164 21.5372C241.333 21.6333 241.477 21.7534 241.597 21.8734C241.717 21.9934 241.862 22.2096 242.055 22.5217L242.535 23.314H241.573L240.996 22.4496C240.779 22.1375 240.635 21.9454 240.563 21.8495C240.491 21.7774 240.394 21.7054 240.322 21.6813C240.227 21.6574 240.106 21.6333 239.914 21.6333H239.745V23.314H238.951ZM239.769 20.9851H240.371C240.756 20.9851 240.996 20.961 241.092 20.9371C241.189 20.913 241.261 20.841 241.309 20.7689C241.357 20.697 241.381 20.577 241.381 20.4568C241.381 20.3128 241.333 20.2168 241.261 20.1208C241.189 20.0247 241.092 19.9767 240.948 19.9526C240.876 19.9526 240.684 19.9287 240.347 19.9287H239.722V20.9851H239.769Z" fill="black"/>
<path d="M1.33887 79.977C1.33887 58.2002 18.4641 42.2336 41.7468 42.2336C65.0293 42.2336 82.1546 58.2002 82.1546 79.977C82.1546 101.754 65.0293 117.72 41.7468 117.72C18.4641 117.72 1.33887 101.754 1.33887 79.977ZM61.3734 79.977C61.3734 67.4438 52.7627 59.2326 41.7468 59.2326C30.7308 59.2326 22.12 67.4199 22.12 79.977C22.12 92.51 30.7308 100.721 41.7468 100.721C52.7627 100.721 61.3734 92.5341 61.3734 79.977Z" fill="black"/>
<path d="M162.104 43.6982V116.256H145.171L113.086 77.6V116.256H92.9297V43.6982H109.863L141.948 82.354V43.6982H162.104Z" fill="black"/>
<path d="M235.007 100.409V116.28H176.633V43.6982H233.636V59.5686H196.981V71.7897H229.283V87.1319H196.981V100.409H235.007Z" fill="black"/>
<path d="M6.46191 36.3033L38.7642 1.46517C40.4239 -0.311543 43.262 -0.287531 44.8976 1.51319L76.1175 36.0632L6.46191 36.3033Z" fill="#01FF66"/>
<path d="M240.443 26.0031C242.915 26.0031 244.917 24.0037 244.917 21.5372C244.917 19.0709 242.915 17.0715 240.443 17.0715C237.972 17.0715 235.97 19.0709 235.97 21.5372C235.97 24.0037 237.972 26.0031 240.443 26.0031Z" stroke="black" stroke-miterlimit="10"/>
</svg>
