<svg width="159" height="75" viewBox="0 0 159 75" fill="none" xmlns="http://www.w3.org/2000/svg">
<path d="M60.7696 12.4366V16.5263H66.698V17.9761H60.7696V22.7221H59.0801V10.9716H67.4198V12.4366H60.7696Z" fill="white"/>
<path d="M69.7998 10.9726H71.4893V22.7231H69.7998V10.9726Z" fill="white"/>
<path d="M85.2047 10.9726V22.7231H83.822L76.7265 13.9636V22.7231H75.0371V10.9726H76.4198L83.5153 19.732V10.9726H85.2047Z" fill="white"/>
<path d="M87.7842 16.8478C87.7842 13.4143 90.457 10.8352 94.0816 10.8352C97.6753 10.8352 100.347 13.3837 100.347 16.8478C100.347 20.2967 97.6753 22.8604 94.0816 22.8604C90.457 22.8452 87.7842 20.2814 87.7842 16.8478ZM98.658 16.8478C98.658 14.2536 96.6927 12.3307 94.0816 12.3307C91.4246 12.3307 89.4736 14.2383 89.4736 16.8478C89.4736 19.4421 91.4397 21.3649 94.0816 21.3649C96.6927 21.3497 98.658 19.4421 98.658 16.8478Z" fill="white"/>
<path d="M102.929 10.9726H104.618V21.2581H111.023V22.7231H102.929V10.9726Z" fill="white"/>
<path d="M111.776 16.8478C111.776 13.4143 114.448 10.8352 118.074 10.8352C121.668 10.8352 124.34 13.3837 124.34 16.8478C124.34 20.2967 121.668 22.8604 118.074 22.8604C114.448 22.8452 111.776 20.2814 111.776 16.8478ZM122.65 16.8478C122.65 14.2536 120.684 12.3307 118.074 12.3307C115.416 12.3307 113.466 14.2383 113.466 16.8478C113.466 19.4421 115.432 21.3649 118.074 21.3649C120.7 21.3497 122.65 19.4421 122.65 16.8478Z" fill="white"/>
<path d="M135.105 16.7716H136.734V21.3497C135.55 22.3416 133.907 22.8452 132.264 22.8452C128.639 22.8452 125.967 20.312 125.967 16.8326C125.967 13.3532 128.639 10.82 132.294 10.82C134.168 10.82 135.75 11.4457 136.841 12.636L135.796 13.6737C134.814 12.7276 133.707 12.3155 132.371 12.3155C129.637 12.3155 127.656 14.2079 127.656 16.8326C127.656 19.4116 129.637 21.3497 132.356 21.3497C133.355 21.3497 134.276 21.1361 135.121 20.6019V16.7716H135.105Z" fill="white"/>
<path d="M144.491 18.6486V22.7079H142.816V18.6181L138.116 10.9726H139.929L143.707 17.1683L147.5 10.9726H149.175L144.491 18.6486Z" fill="white"/>
<path d="M152.583 14.8182V12.2698H153.673C153.95 12.2698 154.15 12.3003 154.272 12.3461C154.395 12.3918 154.503 12.4682 154.565 12.5903C154.626 12.7123 154.672 12.8344 154.672 12.987C154.672 13.1854 154.611 13.338 154.503 13.46C154.395 13.5821 154.227 13.6584 153.996 13.6889C154.104 13.75 154.196 13.8263 154.272 13.9026C154.349 13.9789 154.442 14.1163 154.565 14.3147L154.872 14.8182H154.257L153.889 14.2688C153.75 14.0705 153.658 13.9484 153.612 13.8874C153.566 13.8416 153.505 13.7958 153.459 13.7805C153.398 13.7653 153.321 13.75 153.198 13.75H153.09V14.8182H152.583ZM153.105 13.338H153.49C153.735 13.338 153.889 13.3227 153.95 13.3075C154.012 13.2922 154.058 13.2464 154.089 13.2006C154.12 13.1549 154.135 13.0786 154.135 13.0022C154.135 12.9107 154.104 12.8497 154.058 12.7886C154.012 12.7276 153.95 12.6971 153.858 12.6818C153.812 12.6818 153.689 12.6665 153.474 12.6665H153.075V13.338H153.105Z" fill="white"/>
<path d="M0.855469 50.8328C0.855469 36.9917 11.7908 26.8434 26.6581 26.8434C41.5253 26.8434 52.4607 36.9917 52.4607 50.8328C52.4607 64.674 41.5253 74.8222 26.6581 74.8222C11.7908 74.8222 0.855469 64.674 0.855469 50.8328ZM39.1908 50.8328C39.1908 42.8669 33.6924 37.6478 26.6581 37.6478C19.6238 37.6478 14.1254 42.8516 14.1254 50.8328C14.1254 58.7987 19.6238 64.0178 26.6581 64.0178C33.6924 64.0178 39.1908 58.814 39.1908 50.8328Z" fill="white"/>
<path d="M103.513 27.7743V73.8913H92.6999L72.2115 49.322V73.8913H59.3408V27.7743H70.1534L90.642 52.3436V27.7743H103.513Z" fill="white"/>
<path d="M150.065 63.8194V73.9066H112.79V27.7743H149.19V37.8614H125.784V45.629H146.41V55.3804H125.784V63.8194H150.065Z" fill="white"/>
<path d="M4.12598 23.0741L24.7527 0.931247C25.8125 -0.198019 27.6248 -0.182757 28.6693 0.961772L48.6048 22.9215L4.12598 23.0741Z" fill="#01FF66"/>
<path d="M153.536 16.5274C155.114 16.5274 156.393 15.2566 156.393 13.6889C156.393 12.1214 155.114 10.8506 153.536 10.8506C151.958 10.8506 150.68 12.1214 150.68 13.6889C150.68 15.2566 151.958 16.5274 153.536 16.5274Z" stroke="white" stroke-miterlimit="10"/>
</svg>
