<svg width="191" height="56" viewBox="0 0 191 56" fill="none" xmlns="http://www.w3.org/2000/svg">
<path d="M47.6668 24.3546H27.134C25.1898 24.3574 23.3259 25.2771 21.9512 26.912C20.5765 28.5469 19.8031 30.7635 19.8008 33.0756H55C54.9977 30.7635 54.2243 28.5469 52.8496 26.912C51.4749 25.2771 49.611 24.3574 47.6668 24.3546Z" fill="#01FF66"/>
<path d="M19.8008 47.0289C19.8031 49.341 20.5765 51.5577 21.9512 53.1926C23.3259 54.8275 25.1898 55.7472 27.134 55.7499H47.6668C49.611 55.7472 51.4749 54.8275 52.8496 53.1926C54.2243 51.5577 54.9977 49.341 55 47.0289V36.5637H19.8008V47.0289ZM30.0672 46.1568C30.0672 46.6743 29.9382 47.1801 29.6965 47.6104C29.4547 48.0406 29.1111 48.376 28.7092 48.574C28.3072 48.772 27.8648 48.8238 27.4381 48.7229C27.0113 48.6219 26.6193 48.3727 26.3117 48.0068C26.004 47.6409 25.7945 47.1748 25.7096 46.6673C25.6247 46.1597 25.6683 45.6337 25.8348 45.1556C26.0013 44.6776 26.2833 44.2689 26.645 43.9815C27.0068 43.694 27.4322 43.5405 27.8673 43.5405C28.4507 43.5405 29.0103 43.8162 29.4229 44.3068C29.8354 44.7975 30.0672 45.4629 30.0672 46.1568Z" fill="#01FF66"/>
<path d="M3.23361 4.42893C4.88958 2.45956 7.10918 1.3784 9.39619 1.375H35.7034C37.9904 1.3784 40.21 2.45956 41.866 4.42893C43.402 6.25562 44.3277 8.70115 44.4586 11.2989H0.641056C0.771935 8.70116 1.69762 6.25562 3.23361 4.42893Z" stroke="black" stroke-width="1.25"/>
<path d="M3.23361 37.2974C1.5749 35.3248 0.627914 32.6305 0.625 29.8021V17.0187H44.4746V29.8018C44.4718 32.6303 43.5248 35.3247 41.866 37.2974C40.2099 39.2669 37.9901 40.3481 35.703 40.3514H9.39664C7.10947 40.3481 4.88969 39.2669 3.23361 37.2974ZM13.2239 30.8535C13.5887 30.2042 13.7791 29.4498 13.7791 28.685C13.7791 27.6618 13.4382 26.6633 12.8068 25.9124C12.1727 25.1583 11.2871 24.7078 10.3353 24.7078C9.6275 24.7078 8.94723 24.9581 8.3805 25.4085C7.81556 25.8574 7.38935 26.4834 7.14094 27.1966C6.89251 27.9099 6.82856 28.6902 6.95433 29.4421C7.08007 30.1939 7.39219 30.8967 7.86383 31.4576C8.33625 32.0194 8.9521 32.4179 9.64154 32.581C10.333 32.7446 11.048 32.659 11.6902 32.3427C12.3299 32.0276 12.8589 31.5032 13.2239 30.8535Z" stroke="black" stroke-width="1.25"/>
<path d="M70.5402 12.207H67.5918V14.2497H70.1601V15.6937H67.5918V18.6756H65.8066V10.7631H70.5402V12.207Z" fill="#01FF66"/>
<path d="M71.6323 18.6756V12.7236H73.3138V18.6756H71.6323ZM71.782 11.7022C71.5901 11.5066 71.4941 11.2718 71.4941 10.9979C71.4941 10.7239 71.5901 10.4891 71.782 10.2935C71.974 10.0978 72.2043 10 72.473 10C72.7418 10 72.9721 10.0978 73.1641 10.2935C73.356 10.4891 73.452 10.7239 73.452 10.9979C73.452 11.2718 73.356 11.5066 73.1641 11.7022C72.9721 11.8979 72.7418 11.9957 72.473 11.9957C72.2043 11.9957 71.974 11.8979 71.782 11.7022Z" fill="#01FF66"/>
<path d="M76.4393 12.7236V13.7332C76.5851 13.4045 76.8078 13.1462 77.1072 12.9584C77.4144 12.7627 77.7791 12.6649 78.2014 12.6649C78.8003 12.6649 79.2686 12.8488 79.6065 13.2166C79.9443 13.5767 80.1132 14.1089 80.1132 14.8132V18.6756H78.4317V15.1302C78.4317 14.778 78.3511 14.5119 78.1899 14.3319C78.0286 14.1441 77.8021 14.0502 77.5103 14.0502C77.2032 14.0502 76.946 14.1754 76.7387 14.4258C76.5391 14.6684 76.4393 15.0363 76.4393 15.5293V18.6756H74.7578V12.7236H76.4393Z" fill="#01FF66"/>
<path d="M84.0191 18.7695C83.1054 18.7695 82.399 18.4916 81.9 17.936C81.4009 17.3725 81.1514 16.6524 81.1514 15.7759C81.1514 14.8602 81.4124 14.1089 81.9345 13.5219C82.4566 12.927 83.1515 12.6296 84.0191 12.6296C84.9251 12.6296 85.6277 12.9153 86.1268 13.4867C86.6258 14.058 86.8754 14.7858 86.8754 15.6702C86.8754 16.5703 86.622 17.3138 86.1152 17.9007C85.6162 18.4799 84.9175 18.7695 84.0191 18.7695ZM84.0076 13.9797C83.6391 13.9797 83.3626 14.1402 83.1784 14.461C82.9941 14.7819 82.902 15.1967 82.902 15.7054C82.902 16.2142 82.9941 16.6329 83.1784 16.9616C83.3703 17.2825 83.6544 17.4429 84.0306 17.4429C84.3992 17.4429 84.6718 17.2864 84.8484 16.9733C85.0326 16.6524 85.1248 16.2376 85.1248 15.7289C85.1248 14.5628 84.7524 13.9797 84.0076 13.9797Z" fill="#01FF66"/>
<path d="M88.0312 18.6755V10.3756H89.7128V18.6755H88.0312Z" fill="#01FF66"/>
<path d="M93.736 18.7695C92.8223 18.7695 92.1159 18.4916 91.6168 17.936C91.1178 17.3725 90.8682 16.6524 90.8682 15.7759C90.8682 14.8602 91.1293 14.1089 91.6514 13.5219C92.1735 12.927 92.8684 12.6296 93.736 12.6296C94.642 12.6296 95.3446 12.9153 95.8436 13.4867C96.3427 14.058 96.5922 14.7858 96.5922 15.6702C96.5922 16.5703 96.3389 17.3138 95.8321 17.9007C95.333 18.4799 94.6343 18.7695 93.736 18.7695ZM93.7245 13.9797C93.3559 13.9797 93.0795 14.1402 92.8952 14.461C92.711 14.7819 92.6188 15.1967 92.6188 15.7054C92.6188 16.2142 92.711 16.6329 92.8952 16.9616C93.0872 17.2825 93.3713 17.4429 93.7475 17.4429C94.1161 17.4429 94.3886 17.2864 94.5652 16.9733C94.7495 16.6524 94.8416 16.2376 94.8416 15.7289C94.8416 14.5628 94.4693 13.9797 93.7245 13.9797Z" fill="#01FF66"/>
<path d="M100.282 17.1142C100.643 17.1142 100.924 16.9772 101.123 16.7033C101.33 16.4216 101.434 16.085 101.434 15.6937C101.434 14.6293 101.054 14.0971 100.294 14.0971C99.9562 14.0971 99.6912 14.2302 99.4992 14.4963C99.3072 14.7624 99.2112 15.1302 99.2112 15.5998C99.2112 16.0928 99.3032 16.4685 99.4882 16.7268C99.6722 16.9851 99.9372 17.1142 100.282 17.1142ZM101.434 12.7236H103.104V18.1003C103.104 19.0551 102.824 19.7713 102.263 20.2487C101.703 20.7339 101 20.9765 100.156 20.9765C99.3342 20.9765 98.6165 20.8278 98.0022 20.5304V18.7812C98.5397 19.2195 99.2002 19.4386 99.9832 19.4386C100.49 19.4386 100.858 19.3291 101.089 19.1099C101.319 18.8908 101.434 18.5464 101.434 18.0768V17.6777C101.096 18.2099 100.559 18.476 99.8222 18.476C99.1772 18.476 98.6203 18.2334 98.152 17.7481C97.6913 17.2629 97.4609 16.5429 97.4609 15.588C97.4609 14.7428 97.6836 14.0462 98.1289 13.4984C98.5819 12.9427 99.1732 12.6649 99.9022 12.6649C100.593 12.6649 101.104 12.9467 101.434 13.5101V12.7236Z" fill="#01FF66"/>
<path d="M106.052 18.5816L103.795 12.7236H105.626L106.259 14.5784C106.421 15.0559 106.551 15.4667 106.651 15.8111C106.758 16.1555 106.824 16.3824 106.847 16.492L106.881 16.6563C106.966 16.3433 107.173 15.6507 107.503 14.5784L108.079 12.7236H109.807L107.699 18.4995C107.092 20.1665 106.167 21 104.923 21C104.685 21 104.47 20.9804 104.278 20.9413V19.5795C104.401 19.6108 104.532 19.6265 104.67 19.6265C105.307 19.6265 105.768 19.2782 106.052 18.5816Z" fill="#01FF66"/>
<path d="M76.4416 25.45C79.5916 25.81 82.0216 27.94 82.0216 31.75C82.0216 35.56 79.4416 37.69 76.4416 38.05C75.4216 38.17 74.6416 38.2 73.4416 38.2H70.4116V46H66.2716V25.3H73.4416C74.6416 25.3 75.4216 25.33 76.4416 25.45ZM75.2116 34.84C76.6516 34.63 77.6716 33.7 77.6716 31.75C77.6716 29.8 76.6516 28.87 75.2116 28.66C74.7616 28.6 74.1316 28.57 73.3816 28.57H70.4116V34.93H73.3816C74.1316 34.93 74.7616 34.9 75.2116 34.84ZM93.453 46L93.153 43.66L92.373 45.37C91.263 46.12 89.913 46.42 88.413 46.42C85.653 46.42 83.283 44.8 83.283 41.77C83.283 38.26 86.283 36.28 92.073 36.28H93.093V35.95C93.093 35.47 93.093 34.99 93.033 34.45C92.913 33.34 92.193 32.53 90.573 32.53C88.923 32.53 88.023 33.49 87.903 35.23L83.883 35.26C84.003 31.66 86.913 29.62 90.723 29.62C95.193 29.62 96.873 31.57 97.113 34.33C97.173 35.08 97.203 35.92 97.203 36.79V41.95C97.203 43.15 97.263 44.23 97.503 46H93.453ZM90.003 43.51C91.683 43.51 93.093 42.34 93.093 40.12V38.83C89.793 38.59 87.573 39.34 87.573 41.44C87.573 42.85 88.533 43.51 90.003 43.51ZM116.149 30.04L109.729 46.6C108.049 50.92 106.309 52.3 103.069 52.3C102.319 52.3 101.809 52.27 101.209 52.18V49.33C101.629 49.39 102.019 49.39 102.439 49.39C103.849 49.39 104.779 48.85 105.439 47.26L105.649 46.75L99.1387 30.04H103.759L107.719 42.85L111.619 30.04H116.149ZM141.692 33.58C141.812 34.39 141.842 35.2 141.842 36.49V46H137.702V37.69C137.702 36.76 137.672 35.89 137.582 35.08C137.372 33.43 136.472 32.53 134.882 32.53C133.022 32.53 131.972 34.12 131.972 37.81V46H127.862V37.69C127.862 36.76 127.832 35.89 127.742 35.08C127.532 33.43 126.602 32.53 125.012 32.53C123.152 32.53 122.132 34.12 122.132 37.81V46H117.992V30.04H122.132V32.47L123.302 30.55C124.202 29.92 125.252 29.62 126.692 29.62C129.302 29.62 130.952 30.91 131.582 32.65L133.142 30.55C134.042 29.92 135.122 29.62 136.562 29.62C139.592 29.62 141.332 31.39 141.692 33.58ZM159.962 37.69C159.962 38.08 159.962 38.56 159.902 39.1H148.562C148.832 42.46 150.332 43.51 152.252 43.51C154.022 43.51 155.312 42.52 155.582 40.81H159.722C158.912 44.53 155.912 46.42 152.162 46.42C147.782 46.42 144.392 43.69 144.392 38.08C144.392 33.19 147.602 29.62 152.492 29.62C157.382 29.62 159.962 33.34 159.962 37.69ZM152.312 32.53C150.392 32.53 149.042 33.76 148.682 36.4H155.702C155.432 33.88 154.292 32.53 152.312 32.53ZM177.696 34.09C177.786 34.9 177.816 35.71 177.816 37V46H173.676V37.57C173.676 36.91 173.676 36.16 173.616 35.35C173.496 33.67 172.566 32.53 170.556 32.53C168.546 32.53 166.956 34.27 166.956 38.71V46H162.816V30.04H166.956V32.62L168.186 30.73C169.326 29.92 170.496 29.62 172.026 29.62C175.416 29.62 177.366 31.3 177.696 34.09ZM186.399 32.89V40.27C186.399 40.81 186.399 41.26 186.429 41.68C186.549 43.24 187.119 43.6 189.429 43.42V46.12C188.499 46.27 187.629 46.33 186.699 46.33C183.609 46.33 182.499 45.31 182.319 43.06C182.259 42.34 182.259 41.65 182.259 40.75V32.89H179.919V30.16H182.259V26.23H186.399V30.16H189.699V32.89H186.399Z" fill="black"/>
</svg>
