<svg width="100" height="100" viewBox="0 0 100 100" fill="none" xmlns="http://www.w3.org/2000/svg">
<path d="M64.0969 40.1563L68.8844 52.8359H59.2687L64.0969 40.1563ZM79.8937 77.1031C79.6215 78.251 79.6127 79.4455 79.868 80.5972C80.1234 81.749 80.6362 82.8279 81.3681 83.7531C82.0999 84.6783 83.0318 85.4258 84.0938 85.9394C85.1558 86.453 86.3203 86.7195 87.5 86.7188C87.9144 86.7187 88.3118 86.8834 88.6049 87.1764C88.8979 87.4694 89.0625 87.8668 89.0625 88.2812C89.0625 88.6957 88.8979 89.0931 88.6049 89.3861C88.3118 89.6791 87.9144 89.8438 87.5 89.8438C78.151 89.8441 69.1128 86.4866 62.0313 80.3828C43.8516 79.4687 29.6875 66.5625 29.6875 50.7812C29.6875 34.4109 45.1078 21.0938 64.0625 21.0938C83.0172 21.0938 98.4375 34.4109 98.4375 50.7812C98.4375 61.9453 91.3531 71.9703 79.8937 77.1062V77.1031ZM74.7766 59.6031L66.0391 36.4547C65.8801 36.0673 65.6087 35.7364 65.2598 35.5049C64.9109 35.2734 64.5005 35.1518 64.0818 35.1558C63.6631 35.1598 63.2552 35.2893 62.9108 35.5276C62.5665 35.7658 62.3014 36.1018 62.15 36.4922L53.35 59.6C53.277 59.7918 53.2424 59.996 53.2483 60.2011C53.2542 60.4062 53.3004 60.6082 53.3843 60.7954C53.4683 60.9826 53.5883 61.1515 53.7375 61.2924C53.8867 61.4333 54.0622 61.5434 54.2539 61.6164C54.4457 61.6895 54.6499 61.724 54.855 61.7181C55.0601 61.7122 55.2621 61.666 55.4493 61.5821C55.6366 61.4981 55.8054 61.3781 55.9463 61.2289C56.0872 61.0797 56.1973 60.9042 56.2703 60.7125L58.0781 55.9641H70.0625L71.8531 60.7078C71.9233 60.9027 72.0316 61.0818 72.1716 61.2345C72.3116 61.3872 72.4806 61.5105 72.6688 61.5973C72.8569 61.6841 73.0604 61.7326 73.2675 61.74C73.4745 61.7474 73.681 61.7135 73.8748 61.6403C74.0687 61.5672 74.2461 61.4562 74.3966 61.3139C74.5472 61.1716 74.6679 61.0007 74.7518 60.8113C74.8358 60.6218 74.8812 60.4176 74.8854 60.2105C74.8896 60.0033 74.8526 59.7958 74.7766 59.6031Z" fill="#01FF66"/>
<path d="M40.625 10.1562C19.0859 10.1562 1.5625 23.4734 1.5625 39.8438C1.5625 53.1 13.0562 64.6875 29.6719 68.3516C29.5892 70.1672 28.8701 71.8958 27.6406 73.2344C26.9092 74.0361 26.0187 74.6766 25.0261 75.1151C24.0334 75.5536 22.9602 75.7805 21.875 75.7812C21.4606 75.7812 21.0632 75.9459 20.7701 76.2389C20.4771 76.5319 20.3125 76.9293 20.3125 77.3438C20.3125 77.7582 20.4771 78.1556 20.7701 78.4486C21.0632 78.7416 21.4606 78.9062 21.875 78.9062C31.4487 78.9124 40.6893 75.3926 47.8328 69.0188C66.3203 66.4063 79.6875 54.1969 79.6875 39.8438C79.6875 23.4734 62.1641 10.1562 40.625 10.1562ZM46.9406 65.9875C46.6238 66.0287 46.3275 66.1668 46.0922 66.3828C41.6624 70.4341 36.2868 73.3089 30.4578 74.7437C32.2097 72.537 33.034 69.7351 32.7563 66.9312C32.7254 66.5959 32.587 66.2796 32.3618 66.0293C32.1365 65.779 31.8365 65.6081 31.5062 65.5422C15.7125 62.4734 4.6875 51.9078 4.6875 39.8438C4.6875 25.1969 20.8094 13.2812 40.625 13.2812C60.4406 13.2812 76.5625 25.1969 76.5625 39.8438C76.5625 52.7344 64.1047 63.7297 46.9406 65.9875ZM52.5 49.8609C55.0285 46.7047 56.2469 42.6972 55.9031 38.6677C55.5592 34.6382 53.6794 30.8951 50.6527 28.213C47.6259 25.5308 43.6839 24.1149 39.6423 24.2582C35.6007 24.4015 31.7689 26.0931 28.9397 28.9829C26.1105 31.8727 24.5006 35.7395 24.443 39.7833C24.3854 43.827 25.8845 47.7381 28.6303 50.7073C31.376 53.6765 35.1581 55.4765 39.194 55.7349C43.2298 55.9932 47.2106 54.6902 50.3125 52.0953L53.4203 55.2016C53.7178 55.4706 54.1074 55.6149 54.5083 55.6046C54.9093 55.5943 55.291 55.4302 55.5743 55.1463C55.8576 54.8623 56.0209 54.4803 56.0303 54.0794C56.0397 53.6784 55.8946 53.2891 55.625 52.9922L52.5 49.8609ZM40.2031 52.6563C37.3384 52.6671 34.5542 51.7087 32.3033 49.9367C30.0523 48.1648 28.4669 45.6835 27.8048 42.8963C27.1427 40.1092 27.4429 37.18 28.6565 34.585C29.8701 31.9901 31.9258 29.8819 34.4894 28.6033C37.0529 27.3247 39.9736 26.9509 42.7766 27.5425C45.5795 28.1342 48.1 29.6566 49.9281 31.8622C51.7562 34.0678 52.7844 36.827 52.8457 39.691C52.907 42.5551 51.9977 45.3557 50.2656 47.6375L46.5359 43.9063C46.2412 43.6216 45.8466 43.4641 45.4369 43.4677C45.0272 43.4713 44.6353 43.6356 44.3456 43.9253C44.0559 44.215 43.8916 44.6069 43.888 45.0166C43.8844 45.4262 44.0419 45.8209 44.3266 46.1156L48.0891 49.8781C45.8542 51.6765 43.0717 52.6568 40.2031 52.6563Z" fill="black"/>
</svg>
