<svg width="178" height="55" viewBox="0 0 178 55" fill="none" xmlns="http://www.w3.org/2000/svg">
<g clip-path="url(#clip0_478_197)">
<path d="M28.3053 0C29.806 0 31.2961 0.122416 32.7769 0.366004C34.2577 0.610213 35.708 0.972488 37.1298 1.45407C38.5509 1.93566 39.923 2.52909 41.2472 3.23562C42.5714 3.94153 43.8291 4.75059 45.0203 5.6628C46.2115 6.57439 47.3213 7.57733 48.3479 8.67099C49.3763 9.76465 50.3072 10.9341 51.1429 12.1806C51.9793 13.4266 52.7082 14.7321 53.3303 16.0986C53.9523 17.4638 54.4593 18.8706 54.8508 20.3191L41.5778 23.9095C41.3833 23.185 41.1285 22.4816 40.8178 21.7987C40.5065 21.1157 40.1417 20.4633 39.7241 19.84C39.3059 19.2174 38.8405 18.6326 38.3266 18.0852C37.8133 17.5383 37.2584 17.0369 36.6625 16.5808C36.0666 16.1253 35.4377 15.7208 34.7759 15.3678C34.1141 15.0148 33.4275 14.7178 32.7172 14.4767C32.0064 14.2362 31.2812 14.0548 30.5411 13.9324C29.8004 13.8106 29.0553 13.7497 28.3047 13.7497L28.3053 0Z" fill="#A87AF1"/>
<path d="M54.4605 19.002C54.9234 20.4293 55.2677 21.8846 55.4933 23.3679C55.7188 24.8512 55.822 26.3432 55.804 27.8432C55.7847 29.3439 55.6443 30.8328 55.3814 32.3098C55.1192 33.7869 54.7383 35.2335 54.2393 36.6478C53.7397 38.0634 53.1295 39.4286 52.4068 40.7434C51.6841 42.0583 50.8595 43.3061 49.9324 44.4855C49.0059 45.6649 47.9892 46.7629 46.8825 47.7764C45.7758 48.7899 44.5945 49.7065 43.3387 50.5274L35.8223 39.0128C36.4505 38.6033 37.0408 38.1454 37.5945 37.6377C38.1482 37.1313 38.6565 36.5832 39.1194 35.9922C39.583 35.4031 39.995 34.7793 40.3566 34.1212C40.7176 33.4638 41.0234 32.7808 41.2732 32.0737C41.5224 31.3659 41.7137 30.6426 41.8449 29.905C41.976 29.1662 42.0462 28.4224 42.0555 27.6711C42.0655 26.9211 42.0133 26.1748 41.9002 25.4334C41.7877 24.6915 41.6156 23.9638 41.3838 23.2505L54.4605 19.002Z" fill="#905EDF"/>
<path d="M44.4708 49.7476C43.2572 50.6293 41.979 51.4079 40.638 52.0797C39.2971 52.7526 37.9101 53.3113 36.4772 53.7587C35.0442 54.2036 33.5852 54.5298 32.0988 54.7368C30.6124 54.9443 29.1198 55.0288 27.6191 54.9909C26.1191 54.953 24.6321 54.7946 23.1581 54.5131C21.6841 54.2322 20.2431 53.8333 18.8344 53.3162C17.4257 52.7986 16.0686 52.171 14.7624 51.4322C13.4562 50.6939 12.219 49.8538 11.0508 48.9112L19.6789 38.2051C20.263 38.6755 20.8813 39.0955 21.5344 39.4653C22.1875 39.8344 22.8667 40.1488 23.5701 40.4073C24.2748 40.6658 24.995 40.8647 25.7319 41.0057C26.4689 41.1468 27.2127 41.2257 27.9628 41.245C28.7128 41.2636 29.4591 41.2213 30.2023 41.1176C30.9448 41.0144 31.675 40.8504 32.3915 40.6285C33.1073 40.4055 33.8008 40.1252 34.4719 39.789C35.1418 39.4522 35.7812 39.0632 36.3883 38.6233L44.4708 49.7476Z" fill="#6F39C5"/>
<path d="M12.1424 49.7478C10.9282 48.8661 9.79417 47.8911 8.73966 46.8235C7.68576 45.7554 6.72508 44.6095 5.85823 43.3847C4.99138 42.16 4.23017 40.873 3.57397 39.5234C2.9184 38.1737 2.37654 36.7799 1.94901 35.342C1.52087 33.9034 1.21266 32.4407 1.02437 30.9518C0.83609 29.4629 0.7696 27.9691 0.826147 26.4696C0.882695 24.9702 1.06041 23.4857 1.35993 22.0148C1.65944 20.5446 2.07578 19.1086 2.61018 17.7061L15.4588 22.6033C15.1916 23.3042 14.9835 24.0226 14.8337 24.7583C14.684 25.4928 14.5951 26.236 14.5671 26.9854C14.5392 27.7354 14.5721 28.4823 14.6666 29.2268C14.7604 29.9706 14.9145 30.7026 15.1289 31.4209C15.3433 32.1411 15.6136 32.8377 15.9417 33.5126C16.2698 34.1874 16.6501 34.8306 17.0838 35.4426C17.5169 36.0547 17.9979 36.6283 18.5248 37.1627C19.0524 37.6958 19.6191 38.1842 20.2262 38.6254L12.1424 49.7478Z" fill="#4E1D9C"/>
<path d="M2.15234 19.0017C2.59789 17.6297 3.14845 16.3005 3.80402 15.0149C4.4596 13.7292 5.21087 12.5025 6.05908 11.3356C6.90728 10.1686 7.84187 9.07428 8.86158 8.05457C9.88192 7.03423 10.9756 6.10027 12.1432 5.25144C13.3102 4.40385 14.5374 3.65258 15.8225 2.997C17.1082 2.34205 18.4367 1.79211 19.8094 1.34533C21.1814 0.899785 22.5802 0.56423 24.0051 0.338041C25.4299 0.113095 26.8641 0 28.3064 0L28.3051 13.7497C27.5837 13.7497 26.8666 13.8062 26.1545 13.9193C25.4424 14.0318 24.7427 14.2002 24.0566 14.4233C23.3706 14.6457 22.7063 14.921 22.0638 15.2485C21.4207 15.576 20.808 15.9525 20.2239 16.3763C19.641 16.8001 19.0941 17.2674 18.5834 17.777C18.0738 18.2871 17.6065 18.834 17.1821 19.4181C16.7583 20.0016 16.3824 20.6149 16.0549 21.2568C15.7274 21.8999 15.4521 22.5642 15.2297 23.2502L2.15234 19.0017Z" fill="#330778"/>
<path d="M72.4792 24.5832V31.7625H75.2376C77.7567 31.7625 79.0162 30.5282 79.0162 28.0595C79.0162 26.9763 78.6887 26.1324 78.0338 25.5278C77.3788 24.898 76.4845 24.5832 75.351 24.5832H72.4792ZM79.7719 45.3277L74.2552 36.4858H72.4792V45.3277H66.6602V19.8599H75.4643C78.3109 19.8599 80.5906 20.6156 82.3036 22.1271C84.0418 23.6385 84.9108 25.6034 84.9108 28.0217C84.9108 31.6492 83.3616 34.1556 80.2631 35.5411L86.7246 45.3277H79.7719Z" fill="black"/>
<path d="M100.753 33.9919V33.5385C100.577 31.2965 99.5945 30.1755 97.8059 30.1755C96.9243 30.1755 96.1433 30.503 95.4632 31.1579C94.783 31.7877 94.3296 32.7324 94.1029 33.9919H100.753ZM104.72 39.622V44.2319C103.411 45.0884 101.408 45.5166 98.7128 45.5166C95.564 45.5166 93.1079 44.6098 91.3445 42.7961C89.6063 40.9571 88.7373 38.6018 88.7373 35.7301C88.7373 32.682 89.5812 30.3015 91.2689 28.5885C92.9819 26.8503 95.0853 25.9812 97.5792 25.9812C100.148 25.9812 102.176 26.737 103.662 28.2484C105.149 29.7347 105.892 31.964 105.892 34.9366C105.892 35.5159 105.791 36.511 105.59 37.9216H94.3296C94.7075 38.9797 95.3624 39.7984 96.2945 40.3777C97.2265 40.9571 98.3475 41.2468 99.6574 41.2468C101.597 41.2468 103.285 40.7052 104.72 39.622Z" fill="black"/>
<path d="M114.477 35.8056C114.578 37.4934 115.082 38.8033 115.988 39.7354C116.895 40.6674 118.092 41.1335 119.578 41.1335C121.165 41.1335 122.689 40.6926 124.15 39.811V44.4209C122.664 45.227 120.875 45.63 118.785 45.63C115.913 45.63 113.545 44.7231 111.681 42.9094C109.817 41.0705 108.885 38.7026 108.885 35.8056C108.935 32.9339 109.867 30.566 111.681 28.7018C113.495 26.8125 115.976 25.8679 119.125 25.8679C121.064 25.8679 122.74 26.2332 124.15 26.9637V31.6869C122.815 30.8557 121.329 30.44 119.691 30.44C118.155 30.44 116.908 30.906 115.951 31.8381C114.993 32.745 114.502 34.0675 114.477 35.8056Z" fill="black"/>
<path d="M127.73 45.3277V26.1702H133.247V45.3277H127.73ZM128.222 22.8828C127.592 22.253 127.277 21.4973 127.277 20.6156C127.277 19.7339 127.592 18.9782 128.222 18.3485C128.851 17.7187 129.607 17.4038 130.489 17.4038C131.37 17.4038 132.126 17.7187 132.756 18.3485C133.386 18.9782 133.701 19.7339 133.701 20.6156C133.701 21.4973 133.386 22.253 132.756 22.8828C132.126 23.5126 131.37 23.8274 130.489 23.8274C129.607 23.8274 128.851 23.5126 128.222 22.8828Z" fill="black"/>
<path d="M147.809 40.9445C149.018 40.9445 150 40.4911 150.756 39.5842C151.512 38.6522 151.89 37.3926 151.89 35.8056C151.89 34.0675 151.499 32.7576 150.718 31.8759C149.963 30.969 148.993 30.5156 147.809 30.5156C146.65 30.5156 145.642 30.9564 144.786 31.8381C143.929 32.7198 143.501 33.9541 143.501 35.5411C143.501 37.1785 143.904 38.4884 144.71 39.4709C145.516 40.4533 146.549 40.9445 147.809 40.9445ZM143.501 26.1702V29.1175C144.836 27.0015 146.763 25.9435 149.282 25.9435C151.751 25.9435 153.729 26.8251 155.215 28.5885C156.726 30.3266 157.482 32.6946 157.482 35.6923C157.482 38.5388 156.751 40.8942 155.29 42.7583C153.854 44.6224 151.852 45.5544 149.282 45.5544C146.688 45.5544 144.761 44.5342 143.501 42.4938V52.3937H137.984V26.1702H143.501Z" fill="black"/>
<path d="M172.155 33.9919V33.5385C171.979 31.2965 170.997 30.1755 169.208 30.1755C168.326 30.1755 167.545 30.503 166.865 31.1579C166.185 31.7877 165.732 32.7324 165.505 33.9919H172.155ZM176.123 39.622V44.2319C174.813 45.0884 172.81 45.5166 170.115 45.5166C166.966 45.5166 164.51 44.6098 162.747 42.7961C161.008 40.9571 160.139 38.6018 160.139 35.7301C160.139 32.682 160.983 30.3015 162.671 28.5885C164.384 26.8503 166.487 25.9812 168.981 25.9812C171.551 25.9812 173.579 26.737 175.065 28.2484C176.551 29.7347 177.294 31.964 177.294 34.9366C177.294 35.5159 177.193 36.511 176.992 37.9216H165.732C166.11 38.9797 166.765 39.7984 167.697 40.3777C168.629 40.9571 169.75 41.2468 171.06 41.2468C172.999 41.2468 174.687 40.7052 176.123 39.622Z" fill="black"/>
<path d="M71.5402 9.20703H68.5918V11.2497H71.1601V12.6937H68.5918V15.6756H66.8066V7.76306H71.5402V9.20703Z" fill="#6F39C5"/>
<path d="M72.6323 15.6756V9.72359H74.3138V15.6756H72.6323ZM72.782 8.70224C72.5901 8.50658 72.4941 8.27179 72.4941 7.99787C72.4941 7.72394 72.5901 7.48915 72.782 7.29349C72.974 7.09783 73.2043 7 73.473 7C73.7418 7 73.9721 7.09783 74.1641 7.29349C74.356 7.48915 74.452 7.72394 74.452 7.99787C74.452 8.27179 74.356 8.50658 74.1641 8.70224C73.9721 8.8979 73.7418 8.99573 73.473 8.99573C73.2043 8.99573 72.974 8.8979 72.782 8.70224Z" fill="#6F39C5"/>
<path d="M77.4393 9.72362V10.7332C77.5851 10.4045 77.8078 10.1462 78.1072 9.95841C78.4144 9.76275 78.7791 9.66492 79.2014 9.66492C79.8003 9.66492 80.2686 9.84884 80.6065 10.2166C80.9443 10.5767 81.1132 11.1089 81.1132 11.8132V15.6756H79.4317V12.1302C79.4317 11.778 79.3511 11.5119 79.1899 11.3319C79.0286 11.1441 78.8021 11.0502 78.5103 11.0502C78.2032 11.0502 77.946 11.1754 77.7387 11.4258C77.5391 11.6684 77.4393 12.0363 77.4393 12.5293V15.6756H75.7578V9.72362H77.4393Z" fill="#6F39C5"/>
<path d="M85.0191 15.7695C84.1054 15.7695 83.399 15.4916 82.9 14.936C82.4009 14.3725 82.1514 13.6524 82.1514 12.7759C82.1514 11.8602 82.4124 11.1089 82.9345 10.5219C83.4566 9.92704 84.1515 9.62964 85.0191 9.62964C85.9251 9.62964 86.6277 9.9153 87.1268 10.4867C87.6258 11.058 87.8754 11.7858 87.8754 12.6702C87.8754 13.5703 87.622 14.3138 87.1152 14.9007C86.6162 15.4799 85.9175 15.7695 85.0191 15.7695ZM85.0076 10.9797C84.6391 10.9797 84.3626 11.1402 84.1784 11.461C83.9941 11.7819 83.902 12.1967 83.902 12.7054C83.902 13.2142 83.9941 13.6329 84.1784 13.9616C84.3703 14.2825 84.6544 14.4429 85.0306 14.4429C85.3992 14.4429 85.6718 14.2864 85.8484 13.9733C86.0326 13.6524 86.1248 13.2376 86.1248 12.7289C86.1248 11.5628 85.7524 10.9797 85.0076 10.9797Z" fill="#6F39C5"/>
<path d="M89.0312 15.6755V7.37561H90.7128V15.6755H89.0312Z" fill="#6F39C5"/>
<path d="M94.736 15.7695C93.8223 15.7695 93.1159 15.4916 92.6168 14.936C92.1178 14.3725 91.8682 13.6524 91.8682 12.7759C91.8682 11.8602 92.1293 11.1089 92.6514 10.5219C93.1735 9.92704 93.8684 9.62964 94.736 9.62964C95.642 9.62964 96.3446 9.9153 96.8436 10.4867C97.3427 11.058 97.5922 11.7858 97.5922 12.6702C97.5922 13.5703 97.3389 14.3138 96.8321 14.9007C96.333 15.4799 95.6343 15.7695 94.736 15.7695ZM94.7245 10.9797C94.3559 10.9797 94.0795 11.1402 93.8952 11.461C93.711 11.7819 93.6188 12.1967 93.6188 12.7054C93.6188 13.2142 93.711 13.6329 93.8952 13.9616C94.0872 14.2825 94.3713 14.4429 94.7475 14.4429C95.1161 14.4429 95.3886 14.2864 95.5652 13.9733C95.7495 13.6524 95.8416 13.2376 95.8416 12.7289C95.8416 11.5628 95.4693 10.9797 94.7245 10.9797Z" fill="#6F39C5"/>
<path d="M101.282 14.1142C101.643 14.1142 101.924 13.9772 102.123 13.7033C102.33 13.4216 102.434 13.085 102.434 12.6937C102.434 11.6293 102.054 11.0971 101.294 11.0971C100.956 11.0971 100.691 11.2302 100.499 11.4963C100.307 11.7624 100.211 12.1302 100.211 12.5998C100.211 13.0928 100.303 13.4685 100.488 13.7268C100.672 13.9851 100.937 14.1142 101.282 14.1142ZM102.434 9.72362H104.104V15.1003C104.104 16.0551 103.824 16.7713 103.263 17.2487C102.703 17.7339 102 17.9765 101.156 17.9765C100.334 17.9765 99.6165 17.8278 99.0022 17.5304V15.7812C99.5397 16.2195 100.2 16.4386 100.983 16.4386C101.49 16.4386 101.858 16.3291 102.089 16.1099C102.319 15.8908 102.434 15.5464 102.434 15.0768V14.6777C102.096 15.2099 101.559 15.476 100.822 15.476C100.177 15.476 99.6203 15.2334 99.152 14.7481C98.6913 14.2629 98.4609 13.5429 98.4609 12.588C98.4609 11.7428 98.6836 11.0462 99.1289 10.4984C99.5819 9.94275 100.173 9.66492 100.902 9.66492C101.593 9.66492 102.104 9.94667 102.434 10.5101V9.72362Z" fill="#6F39C5"/>
<path d="M107.052 15.5816L104.795 9.72363H106.626L107.259 11.5784C107.421 12.0559 107.551 12.4667 107.651 12.8111C107.758 13.1555 107.824 13.3824 107.847 13.492L107.881 13.6563C107.966 13.3433 108.173 12.6507 108.503 11.5784L109.079 9.72363H110.807L108.699 15.4995C108.092 17.1665 107.167 18 105.923 18C105.685 18 105.47 17.9804 105.278 17.9413V16.5795C105.401 16.6108 105.532 16.6265 105.67 16.6265C106.307 16.6265 106.768 16.2782 107.052 15.5816Z" fill="#6F39C5"/>
</g>
<defs>
<clipPath id="clip0_478_197">
<rect width="178" height="55" fill="white"/>
</clipPath>
</defs>
</svg>
