<svg width="178" height="55" viewBox="0 0 178 55" fill="none" xmlns="http://www.w3.org/2000/svg">
<path d="M28.3053 0C29.806 0 31.2961 0.122416 32.7769 0.366004C34.2577 0.610213 35.708 0.972488 37.1298 1.45407C38.5509 1.93566 39.923 2.52909 41.2472 3.23562C42.5714 3.94153 43.8291 4.75059 45.0203 5.6628C46.2115 6.57439 47.3213 7.57733 48.3479 8.67099C49.3763 9.76465 50.3072 10.9341 51.1429 12.1806C51.9793 13.4266 52.7082 14.7321 53.3303 16.0986C53.9523 17.4638 54.4593 18.8706 54.8508 20.3191L41.5778 23.9095C41.3833 23.185 41.1285 22.4816 40.8178 21.7987C40.5065 21.1157 40.1417 20.4633 39.7241 19.84C39.3059 19.2174 38.8405 18.6326 38.3266 18.0852C37.8133 17.5383 37.2584 17.0369 36.6625 16.5808C36.0666 16.1253 35.4377 15.7208 34.7759 15.3678C34.1141 15.0148 33.4275 14.7178 32.7172 14.4767C32.0064 14.2362 31.2812 14.0548 30.5411 13.9324C29.8004 13.8106 29.0553 13.7497 28.3047 13.7497L28.3053 0Z" fill="#00BB81"/>
<path d="M54.4605 19.002C54.9234 20.4293 55.2677 21.8846 55.4933 23.3679C55.7188 24.8512 55.822 26.3432 55.804 27.8432C55.7847 29.3439 55.6443 30.8328 55.3814 32.3098C55.1192 33.7869 54.7383 35.2335 54.2393 36.6478C53.7397 38.0634 53.1295 39.4286 52.4068 40.7434C51.6841 42.0583 50.8595 43.3061 49.9324 44.4855C49.0059 45.6649 47.9892 46.7629 46.8825 47.7764C45.7758 48.7899 44.5945 49.7065 43.3387 50.5274L35.8223 39.0128C36.4505 38.6033 37.0408 38.1454 37.5945 37.6377C38.1482 37.1313 38.6565 36.5832 39.1194 35.9922C39.583 35.4031 39.995 34.7793 40.3566 34.1212C40.7176 33.4638 41.0234 32.7808 41.2732 32.0737C41.5224 31.3659 41.7137 30.6426 41.8449 29.905C41.976 29.1662 42.0462 28.4224 42.0555 27.6711C42.0655 26.9211 42.0133 26.1748 41.9002 25.4334C41.7877 24.6915 41.6156 23.9638 41.3838 23.2505L54.4605 19.002Z" fill="#00D391"/>
<path d="M44.4708 49.7476C43.2572 50.6293 41.979 51.4079 40.638 52.0797C39.2971 52.7526 37.9101 53.3113 36.4772 53.7587C35.0442 54.2036 33.5852 54.5298 32.0988 54.7368C30.6124 54.9443 29.1198 55.0288 27.6191 54.9909C26.1191 54.953 24.6321 54.7946 23.1581 54.5131C21.6841 54.2322 20.2431 53.8333 18.8344 53.3162C17.4257 52.7986 16.0686 52.171 14.7624 51.4322C13.4562 50.6939 12.219 49.8538 11.0508 48.9112L19.6789 38.2051C20.263 38.6755 20.8813 39.0955 21.5344 39.4653C22.1875 39.8344 22.8667 40.1488 23.5701 40.4073C24.2748 40.6658 24.995 40.8647 25.7319 41.0057C26.4689 41.1468 27.2127 41.2257 27.9628 41.245C28.7128 41.2636 29.4591 41.2213 30.2023 41.1176C30.9448 41.0144 31.675 40.8504 32.3915 40.6285C33.1073 40.4055 33.8008 40.1252 34.4719 39.789C35.1418 39.4522 35.7812 39.0632 36.3883 38.6233L44.4708 49.7476Z" fill="#00EAA1"/>
<path d="M12.1424 49.7478C10.9282 48.8661 9.79417 47.8911 8.73966 46.8235C7.68576 45.7554 6.72508 44.6095 5.85823 43.3847C4.99138 42.16 4.23017 40.873 3.57397 39.5234C2.9184 38.1737 2.37654 36.7799 1.94901 35.342C1.52087 33.9034 1.21266 32.4407 1.02437 30.9518C0.83609 29.4629 0.7696 27.9691 0.826147 26.4696C0.882695 24.9702 1.06041 23.4857 1.35993 22.0148C1.65944 20.5446 2.07578 19.1086 2.61018 17.7061L15.4588 22.6033C15.1916 23.3042 14.9835 24.0226 14.8337 24.7583C14.684 25.4928 14.5951 26.236 14.5671 26.9854C14.5392 27.7354 14.5721 28.4823 14.6666 29.2268C14.7604 29.9706 14.9145 30.7026 15.1289 31.4209C15.3433 32.1411 15.6136 32.8377 15.9417 33.5126C16.2698 34.1874 16.6501 34.8306 17.0838 35.4426C17.5169 36.0547 17.9979 36.6283 18.5248 37.1627C19.0524 37.6958 19.6191 38.1842 20.2262 38.6254L12.1424 49.7478Z" fill="#33EEB4"/>
<path d="M2.15234 19.0017C2.59789 17.6297 3.14845 16.3005 3.80402 15.0149C4.4596 13.7292 5.21087 12.5025 6.05908 11.3356C6.90728 10.1686 7.84187 9.07428 8.86158 8.05457C9.88192 7.03423 10.9756 6.10027 12.1432 5.25144C13.3102 4.40385 14.5374 3.65258 15.8225 2.997C17.1082 2.34205 18.4367 1.79211 19.8094 1.34533C21.1814 0.899785 22.5802 0.56423 24.0051 0.338041C25.4299 0.113095 26.8641 0 28.3064 0L28.3051 13.7497C27.5837 13.7497 26.8666 13.8062 26.1545 13.9193C25.4424 14.0318 24.7427 14.2002 24.0566 14.4233C23.3706 14.6457 22.7063 14.921 22.0638 15.2485C21.4207 15.576 20.808 15.9525 20.2239 16.3763C19.641 16.8001 19.0941 17.2674 18.5834 17.777C18.0738 18.2871 17.6065 18.834 17.1821 19.4181C16.7583 20.0016 16.3824 20.6149 16.0549 21.2568C15.7274 21.8999 15.4521 22.5642 15.2297 23.2502L2.15234 19.0017Z" fill="#66F2C7"/>
<path d="M71.5402 9.20703H68.5918V11.2497H71.1601V12.6937H68.5918V15.6756H66.8066V7.76306H71.5402V9.20703Z" fill="#00EAA1"/>
<path d="M72.6323 15.6756V9.72359H74.3138V15.6756H72.6323ZM72.782 8.70224C72.5901 8.50658 72.4941 8.27179 72.4941 7.99787C72.4941 7.72394 72.5901 7.48915 72.782 7.29349C72.974 7.09783 73.2043 7 73.473 7C73.7418 7 73.9721 7.09783 74.1641 7.29349C74.356 7.48915 74.452 7.72394 74.452 7.99787C74.452 8.27179 74.356 8.50658 74.1641 8.70224C73.9721 8.8979 73.7418 8.99573 73.473 8.99573C73.2043 8.99573 72.974 8.8979 72.782 8.70224Z" fill="#00EAA1"/>
<path d="M77.4393 9.72362V10.7332C77.5851 10.4045 77.8078 10.1462 78.1072 9.95841C78.4144 9.76275 78.7791 9.66492 79.2014 9.66492C79.8003 9.66492 80.2686 9.84884 80.6065 10.2166C80.9443 10.5767 81.1132 11.1089 81.1132 11.8132V15.6756H79.4317V12.1302C79.4317 11.778 79.3511 11.5119 79.1899 11.3319C79.0286 11.1441 78.8021 11.0502 78.5103 11.0502C78.2032 11.0502 77.946 11.1754 77.7387 11.4258C77.5391 11.6684 77.4393 12.0363 77.4393 12.5293V15.6756H75.7578V9.72362H77.4393Z" fill="#00EAA1"/>
<path d="M85.0191 15.7695C84.1054 15.7695 83.399 15.4916 82.9 14.936C82.4009 14.3725 82.1514 13.6524 82.1514 12.7759C82.1514 11.8602 82.4124 11.1089 82.9345 10.5219C83.4566 9.92704 84.1515 9.62964 85.0191 9.62964C85.9251 9.62964 86.6277 9.9153 87.1268 10.4867C87.6258 11.058 87.8754 11.7858 87.8754 12.6702C87.8754 13.5703 87.622 14.3138 87.1152 14.9007C86.6162 15.4799 85.9175 15.7695 85.0191 15.7695ZM85.0076 10.9797C84.6391 10.9797 84.3626 11.1402 84.1784 11.461C83.9941 11.7819 83.902 12.1967 83.902 12.7054C83.902 13.2142 83.9941 13.6329 84.1784 13.9616C84.3703 14.2825 84.6544 14.4429 85.0306 14.4429C85.3992 14.4429 85.6718 14.2864 85.8484 13.9733C86.0326 13.6524 86.1248 13.2376 86.1248 12.7289C86.1248 11.5628 85.7524 10.9797 85.0076 10.9797Z" fill="#00EAA1"/>
<path d="M89.0312 15.6755V7.37561H90.7128V15.6755H89.0312Z" fill="#00EAA1"/>
<path d="M94.736 15.7695C93.8223 15.7695 93.1159 15.4916 92.6168 14.936C92.1178 14.3725 91.8682 13.6524 91.8682 12.7759C91.8682 11.8602 92.1293 11.1089 92.6514 10.5219C93.1735 9.92704 93.8684 9.62964 94.736 9.62964C95.642 9.62964 96.3446 9.9153 96.8436 10.4867C97.3427 11.058 97.5922 11.7858 97.5922 12.6702C97.5922 13.5703 97.3389 14.3138 96.8321 14.9007C96.333 15.4799 95.6343 15.7695 94.736 15.7695ZM94.7245 10.9797C94.3559 10.9797 94.0795 11.1402 93.8952 11.461C93.711 11.7819 93.6188 12.1967 93.6188 12.7054C93.6188 13.2142 93.711 13.6329 93.8952 13.9616C94.0872 14.2825 94.3713 14.4429 94.7475 14.4429C95.1161 14.4429 95.3886 14.2864 95.5652 13.9733C95.7495 13.6524 95.8416 13.2376 95.8416 12.7289C95.8416 11.5628 95.4693 10.9797 94.7245 10.9797Z" fill="#00EAA1"/>
<path d="M101.282 14.1142C101.643 14.1142 101.924 13.9772 102.123 13.7033C102.33 13.4216 102.434 13.085 102.434 12.6937C102.434 11.6293 102.054 11.0971 101.294 11.0971C100.956 11.0971 100.691 11.2302 100.499 11.4963C100.307 11.7624 100.211 12.1302 100.211 12.5998C100.211 13.0928 100.303 13.4685 100.488 13.7268C100.672 13.9851 100.937 14.1142 101.282 14.1142ZM102.434 9.72362H104.104V15.1003C104.104 16.0551 103.824 16.7713 103.263 17.2487C102.703 17.7339 102 17.9765 101.156 17.9765C100.334 17.9765 99.6165 17.8278 99.0022 17.5304V15.7812C99.5397 16.2195 100.2 16.4386 100.983 16.4386C101.49 16.4386 101.858 16.3291 102.089 16.1099C102.319 15.8908 102.434 15.5464 102.434 15.0768V14.6777C102.096 15.2099 101.559 15.476 100.822 15.476C100.177 15.476 99.6203 15.2334 99.152 14.7481C98.6913 14.2629 98.4609 13.5429 98.4609 12.588C98.4609 11.7428 98.6836 11.0462 99.1289 10.4984C99.5819 9.94275 100.173 9.66492 100.902 9.66492C101.593 9.66492 102.104 9.94667 102.434 10.5101V9.72362Z" fill="#00EAA1"/>
<path d="M107.052 15.5816L104.795 9.72363H106.626L107.259 11.5784C107.421 12.0559 107.551 12.4667 107.651 12.8111C107.758 13.1555 107.824 13.3824 107.847 13.492L107.881 13.6563C107.966 13.3433 108.173 12.6507 108.503 11.5784L109.079 9.72363H110.807L108.699 15.4995C108.092 17.1665 107.167 18 105.923 18C105.685 18 105.47 17.9804 105.278 17.9413V16.5795C105.401 16.6108 105.532 16.6265 105.67 16.6265C106.307 16.6265 106.768 16.2782 107.052 15.5816Z" fill="#00EAA1"/>
<path d="M75.7805 45.4903C74.0726 45.4903 72.5653 45.1871 71.257 44.582C69.9487 43.9764 68.9175 43.1084 68.1638 41.9769C67.4098 40.8459 67.0215 39.4692 67 37.8466H71.4902C71.5341 38.9668 71.928 39.9095 72.6707 40.6748C73.4133 41.4402 74.4388 41.823 75.7471 41.823C76.878 41.823 77.7762 41.5433 78.4411 40.983C79.1064 40.4232 79.4389 39.6751 79.4389 38.7382C79.4389 37.7557 79.1446 36.9899 78.5575 36.4414C77.9698 35.8933 77.1881 35.4475 76.2127 35.1044C75.2368 34.7618 74.1946 34.3966 73.0862 34.0074C71.2899 33.3678 69.9205 32.5455 68.9781 31.5394C68.0356 30.5342 67.5648 29.1977 67.5648 27.529C67.5424 26.1125 67.8691 24.8959 68.5459 23.879C69.2222 22.8624 70.1476 22.074 71.3233 21.5137C72.4985 20.9539 73.8512 20.6742 75.3813 20.6742C76.9329 20.6742 78.3023 20.9602 79.4894 21.5309C80.6752 22.1026 81.6067 22.9018 82.283 23.9301C82.9594 24.9584 83.319 26.1813 83.3638 27.5978H78.8074C78.785 26.7529 78.4687 26.0043 77.8596 25.353C77.2491 24.7017 76.4011 24.3763 75.315 24.3763C74.3839 24.3537 73.6022 24.5877 72.9702 25.0788C72.3382 25.5703 72.022 26.2844 72.022 27.2208C72.022 28.021 72.2658 28.6551 72.7541 29.1231C73.2416 29.5919 73.907 29.9861 74.7498 30.3057C75.5921 30.6261 76.557 30.9687 77.6435 31.3339C78.7964 31.7453 79.8495 32.2251 80.8034 32.7736C81.7564 33.3221 82.5215 34.0476 83.0986 34.9505C83.6752 35.8534 83.9633 37.013 83.9633 38.4296C83.9633 39.6859 83.6524 40.8518 83.0323 41.9253C82.4113 43.0002 81.4907 43.8619 80.2716 44.5137C79.0511 45.1649 77.5544 45.4903 75.7805 45.4903Z" fill="#0A0D39"/>
<path d="M94.6058 45.4903C92.9426 45.4903 91.4674 45.1246 90.182 44.3932C88.8956 43.6623 87.8868 42.634 87.1551 41.3089C86.4235 39.9837 86.0576 38.4526 86.0576 36.716C86.0576 34.9568 86.4177 33.3913 87.1384 32.0204C87.8587 30.6491 88.8565 29.5815 90.1319 28.8157C91.4068 28.0504 92.9093 27.6675 94.6388 27.6675C96.2571 27.6675 97.6871 28.0332 98.9295 28.7641C100.171 29.4955 101.142 30.4952 101.84 31.7634C102.538 33.0315 102.888 34.4427 102.888 35.9964C102.888 36.248 102.882 36.5105 102.871 36.7848C102.86 37.0591 102.843 37.3451 102.822 37.642H90.2816C90.3699 38.9676 90.8192 40.0077 91.6286 40.7612C92.438 41.5152 93.4191 41.8927 94.5724 41.8927C95.4372 41.8927 96.1636 41.6926 96.7508 41.2926C97.3384 40.8929 97.7762 40.3729 98.0644 39.733H102.389C102.078 40.8074 101.562 41.7845 100.842 42.6639C100.121 43.5442 99.2343 44.2353 98.1812 44.7376C97.128 45.2382 95.9365 45.4903 94.6058 45.4903ZM94.6392 31.2316C93.5966 31.2316 92.6769 31.5348 91.8785 32.1399C91.0805 32.7455 90.5702 33.6651 90.3488 34.8989H98.5646C98.4983 33.7796 98.0986 32.8885 97.3669 32.2255C96.6344 31.5633 95.7253 31.2316 94.6392 31.2316Z" fill="#0A0D39"/>
<path d="M105.482 45.079V20.4004H109.739V45.079H105.482Z" fill="#0A0D39"/>
<path d="M121.115 45.4903C119.451 45.4903 117.976 45.1246 116.691 44.3932C115.404 43.6623 114.396 42.634 113.664 41.3089C112.932 39.9837 112.566 38.4526 112.566 36.716C112.566 34.9568 112.926 33.3913 113.647 32.0204C114.368 30.6491 115.365 29.5815 116.64 28.8157C117.916 28.0504 119.418 27.6675 121.147 27.6675C122.766 27.6675 124.196 28.0332 125.438 28.7641C126.68 29.4955 127.65 30.4952 128.349 31.7634C129.048 33.0315 129.397 34.4427 129.397 35.9964C129.397 36.248 129.391 36.5105 129.38 36.7848C129.369 37.0591 129.352 37.3451 129.33 37.642H116.791C116.88 38.9676 117.328 40.0077 118.137 40.7612C118.947 41.5152 119.928 41.8927 121.081 41.8927C121.946 41.8927 122.672 41.6926 123.26 41.2926C123.847 40.8929 124.285 40.3729 124.574 39.733H128.897C128.587 40.8074 128.071 41.7845 127.351 42.6639C126.629 43.5442 125.743 44.2353 124.69 44.7376C123.636 45.2382 122.445 45.4903 121.115 45.4903ZM121.148 31.2316C120.105 31.2316 119.185 31.5348 118.387 32.1399C117.589 32.7455 117.079 33.6651 116.858 34.8989H125.073C125.007 33.7796 124.607 32.8885 123.875 32.2255C123.144 31.5633 122.234 31.2316 121.148 31.2316Z" fill="#0A0D39"/>
<path d="M140.071 45.4905C138.386 45.4905 136.9 45.1139 135.615 44.3599C134.328 43.605 133.315 42.5545 132.571 41.2058C131.829 39.858 131.457 38.3156 131.457 36.5786C131.457 34.8425 131.829 33.2996 132.571 31.9514C133.314 30.6031 134.328 29.5518 135.615 28.7978C136.9 28.0438 138.386 27.6667 140.071 27.6667C142.178 27.6667 143.952 28.2325 145.393 29.3635C146.834 30.4945 147.755 32.0541 148.154 34.0419H143.664C143.441 33.2195 143.004 32.5741 142.35 32.1053C141.696 31.6373 140.925 31.4028 140.038 31.4028C138.863 31.4028 137.865 31.86 137.045 32.7737C136.224 33.6879 135.814 34.9561 135.814 36.5786C135.814 38.2016 136.224 39.4693 137.045 40.383C137.865 41.2973 138.863 41.7544 140.038 41.7544C140.925 41.7544 141.695 41.5258 142.35 41.0682C143.004 40.6116 143.441 39.9603 143.664 39.1144H148.154C147.755 41.0339 146.834 42.5763 145.393 43.7417C143.952 44.908 142.178 45.4905 140.071 45.4905Z" fill="#0A0D39"/>
<path d="M158.067 45.079C156.338 45.079 154.951 44.6454 153.909 43.7769C152.867 42.9084 152.346 41.366 152.346 39.1492V31.7458H149.519V28.0781H152.346L152.845 23.5192H156.604V28.0781H161.06V31.7458H156.604V39.184C156.604 40.0068 156.775 40.5717 157.119 40.8808C157.463 41.189 158.056 41.3429 158.899 41.3429H160.961V45.079H158.067Z" fill="#0A0D39"/>
</svg>
