<svg width="234" height="55" viewBox="0 0 234 55" fill="none" xmlns="http://www.w3.org/2000/svg">
<path d="M54.08 25.6252C53.5116 25.3687 52.8856 25.3013 52.2816 25.4316C51.6777 25.5618 51.1233 25.8838 50.6889 26.3565L46.6662 30.7137L39.5324 22.9866C38.9489 22.3549 38.1578 22 37.3328 22C36.5078 22 35.7166 22.3549 35.1332 22.9866L27.9994 30.7137L23.9767 26.3565C23.5416 25.8853 22.9873 25.5645 22.3839 25.4345C21.7805 25.3046 21.1551 25.3713 20.5867 25.6263C20.0183 25.8813 19.5324 26.3131 19.1905 26.8671C18.8487 27.4212 18.6661 28.0726 18.666 28.7389V46.5754C18.6685 48.8089 19.4887 50.9502 20.9468 52.5295C22.4049 54.1089 24.3818 54.9973 26.4438 55H48.2217C50.2838 54.9973 52.2607 54.1089 53.7188 52.5295C55.1769 50.9502 55.9971 48.8089 55.9996 46.5754V28.7389C55.9997 28.0725 55.8174 27.421 55.4758 26.8667C55.1341 26.3125 54.6484 25.8805 54.08 25.6252Z" fill="#01FF66"/>
<path d="M43.9964 5.39679L43.9975 5.39728C44.5848 5.67862 45.1015 6.16226 45.4711 6.80174C45.8409 7.44161 46.0421 8.20168 46.0419 8.98511V8.98525V32.7666C46.039 35.6059 45.0607 38.3129 43.3434 40.297C41.6285 42.2783 39.3244 43.3717 36.9438 43.375H9.72314C7.34253 43.3717 5.03844 42.2783 3.32357 40.297C1.60633 38.313 0.628022 35.6061 0.625 32.7669V8.98536C0.625 8.98532 0.625 8.98529 0.625 8.98525C0.625165 8.20191 0.826672 7.44207 1.19666 6.80247C1.56645 6.16324 2.08325 5.6799 2.67058 5.39884C3.25603 5.11869 3.89357 5.04749 4.50743 5.18852C5.12269 5.32987 5.70204 5.682 6.16586 6.21772L11.1942 12.0272L11.6667 12.5732L12.1393 12.0272L21.0565 1.72461C21.0565 1.72459 21.0566 1.72457 21.0566 1.72454C21.6779 1.00691 22.4995 0.625 23.3335 0.625C24.1674 0.625 24.989 1.00691 25.6104 1.72454C25.6104 1.72457 25.6104 1.72459 25.6104 1.72461L34.5276 12.0272L35.0002 12.5732L35.4728 12.0272L40.5011 6.21765L40.5021 6.21656C40.965 5.67921 41.5443 5.32604 42.1596 5.18451C42.7736 5.0433 43.4113 5.11517 43.9964 5.39679Z" stroke="black" stroke-width="1.25"/>
<path d="M43.9964 5.39679L43.9975 5.39728C44.5848 5.67862 45.1015 6.16226 45.4711 6.80174C45.8409 7.44161 46.0421 8.20168 46.0419 8.98511V8.98525V32.7666C46.039 35.6059 45.0607 38.3129 43.3434 40.297C41.6285 42.2783 39.3244 43.3717 36.9438 43.375H9.72314C7.34253 43.3717 5.03844 42.2783 3.32357 40.297C1.60633 38.313 0.628022 35.6061 0.625 32.7669V8.98536C0.625 8.98532 0.625 8.98529 0.625 8.98525C0.625165 8.20191 0.826672 7.44207 1.19666 6.80247C1.56645 6.16324 2.08325 5.6799 2.67058 5.39884C3.25603 5.11869 3.89357 5.04749 4.50743 5.18852C5.12269 5.32987 5.70204 5.682 6.16586 6.21772L11.1942 12.0272L11.6667 12.5732L12.1393 12.0272L21.0565 1.72461C21.0565 1.72459 21.0566 1.72457 21.0566 1.72454C21.6779 1.00691 22.4995 0.625 23.3335 0.625C24.1674 0.625 24.989 1.00691 25.6104 1.72454C25.6104 1.72457 25.6104 1.72459 25.6104 1.72461L34.5276 12.0272L35.0002 12.5732L35.4728 12.0272L40.5011 6.21765L40.5021 6.21656C40.965 5.67921 41.5443 5.32604 42.1596 5.18451C42.7736 5.0433 43.4113 5.11517 43.9964 5.39679Z" stroke="black" stroke-opacity="0.2" stroke-width="1.25"/>
<path d="M71.5402 11.2072H68.5918V13.2498H71.1601V14.6938H68.5918V17.6757H66.8066V9.76318H71.5402V11.2072Z" fill="#01FF66"/>
<path d="M72.6323 17.6756V11.7236H74.3138V17.6756H72.6323ZM72.782 10.7022C72.5901 10.5066 72.4941 10.2718 72.4941 9.99787C72.4941 9.72394 72.5901 9.48915 72.782 9.29349C72.974 9.09783 73.2043 9 73.473 9C73.7418 9 73.9721 9.09783 74.1641 9.29349C74.356 9.48915 74.452 9.72394 74.452 9.99787C74.452 10.2718 74.356 10.5066 74.1641 10.7022C73.9721 10.8979 73.7418 10.9957 73.473 10.9957C73.2043 10.9957 72.974 10.8979 72.782 10.7022Z" fill="#01FF66"/>
<path d="M77.4393 11.7237V12.7333C77.5851 12.4046 77.8078 12.1463 78.1072 11.9585C78.4144 11.7629 78.7791 11.665 79.2014 11.665C79.8003 11.665 80.2686 11.849 80.6065 12.2167C80.9443 12.5768 81.1132 13.109 81.1132 13.8133V17.6757H79.4317V14.1303C79.4317 13.7781 79.3511 13.512 79.1899 13.332C79.0286 13.1442 78.8021 13.0503 78.5103 13.0503C78.2032 13.0503 77.946 13.1755 77.7387 13.4259C77.5391 13.6685 77.4393 14.0364 77.4393 14.5294V17.6757H75.7578V11.7237H77.4393Z" fill="#01FF66"/>
<path d="M85.0191 17.7695C84.1054 17.7695 83.399 17.4916 82.9 16.936C82.4009 16.3725 82.1514 15.6524 82.1514 14.7759C82.1514 13.8602 82.4124 13.1089 82.9345 12.5219C83.4566 11.927 84.1515 11.6296 85.0191 11.6296C85.9251 11.6296 86.6277 11.9153 87.1268 12.4867C87.6258 13.058 87.8754 13.7858 87.8754 14.6702C87.8754 15.5703 87.622 16.3138 87.1152 16.9007C86.6162 17.4799 85.9175 17.7695 85.0191 17.7695ZM85.0076 12.9797C84.6391 12.9797 84.3626 13.1402 84.1784 13.461C83.9941 13.7819 83.902 14.1967 83.902 14.7054C83.902 15.2142 83.9941 15.6329 84.1784 15.9616C84.3703 16.2825 84.6544 16.4429 85.0306 16.4429C85.3992 16.4429 85.6718 16.2864 85.8484 15.9733C86.0326 15.6524 86.1248 15.2376 86.1248 14.7289C86.1248 13.5628 85.7524 12.9797 85.0076 12.9797Z" fill="#01FF66"/>
<path d="M89.0312 17.6754V9.37549H90.7128V17.6754H89.0312Z" fill="#01FF66"/>
<path d="M94.736 17.7695C93.8223 17.7695 93.1159 17.4916 92.6168 16.936C92.1178 16.3725 91.8682 15.6524 91.8682 14.7759C91.8682 13.8602 92.1293 13.1089 92.6514 12.5219C93.1735 11.927 93.8684 11.6296 94.736 11.6296C95.642 11.6296 96.3446 11.9153 96.8436 12.4867C97.3427 13.058 97.5922 13.7858 97.5922 14.6702C97.5922 15.5703 97.3389 16.3138 96.8321 16.9007C96.333 17.4799 95.6343 17.7695 94.736 17.7695ZM94.7245 12.9797C94.3559 12.9797 94.0795 13.1402 93.8952 13.461C93.711 13.7819 93.6188 14.1967 93.6188 14.7054C93.6188 15.2142 93.711 15.6329 93.8952 15.9616C94.0872 16.2825 94.3713 16.4429 94.7475 16.4429C95.1161 16.4429 95.3886 16.2864 95.5652 15.9733C95.7495 15.6524 95.8416 15.2376 95.8416 14.7289C95.8416 13.5628 95.4693 12.9797 94.7245 12.9797Z" fill="#01FF66"/>
<path d="M101.282 16.1143C101.643 16.1143 101.924 15.9773 102.123 15.7034C102.33 15.4217 102.434 15.0851 102.434 14.6938C102.434 13.6294 102.054 13.0972 101.294 13.0972C100.956 13.0972 100.691 13.2303 100.499 13.4964C100.307 13.7625 100.211 14.1303 100.211 14.5999C100.211 15.0929 100.303 15.4686 100.488 15.7269C100.672 15.9852 100.937 16.1143 101.282 16.1143ZM102.434 11.7237H104.104V17.1004C104.104 18.0552 103.824 18.7714 103.263 19.2488C102.703 19.734 102 19.9766 101.156 19.9766C100.334 19.9766 99.6165 19.8279 99.0022 19.5305V17.7813C99.5397 18.2196 100.2 18.4387 100.983 18.4387C101.49 18.4387 101.858 18.3292 102.089 18.11C102.319 17.8909 102.434 17.5465 102.434 17.0769V16.6778C102.096 17.21 101.559 17.4761 100.822 17.4761C100.177 17.4761 99.6203 17.2335 99.152 16.7482C98.6913 16.263 98.4609 15.543 98.4609 14.5881C98.4609 13.7429 98.6836 13.0463 99.1289 12.4985C99.5819 11.9429 100.173 11.665 100.902 11.665C101.593 11.665 102.104 11.9468 102.434 12.5102V11.7237Z" fill="#01FF66"/>
<path d="M107.052 17.5816L104.795 11.7236H106.626L107.259 13.5784C107.421 14.0559 107.551 14.4667 107.651 14.8111C107.758 15.1555 107.824 15.3824 107.847 15.492L107.881 15.6563C107.966 15.3433 108.173 14.6507 108.503 13.5784L109.079 11.7236H110.807L108.699 17.4995C108.092 19.1665 107.167 20 105.923 20C105.685 20 105.47 19.9804 105.278 19.9413V18.5795C105.401 18.6108 105.532 18.6265 105.67 18.6265C106.307 18.6265 106.768 18.2782 107.052 17.5816Z" fill="#01FF66"/>
<path d="M72.9333 26.288C77.5533 26.288 79.6533 28.92 80.0733 32.364H76.1253C75.9013 30.404 74.8093 29.172 72.7933 29.172C71.2533 29.172 70.0773 29.9 70.0773 31.468C70.0773 33.092 71.1133 33.904 74.1933 34.632C78.4493 35.612 80.3533 37.572 80.3533 40.68C80.3533 44.32 77.0213 46.392 73.2133 46.392C68.5933 46.392 65.5693 44.348 65.2053 40.288H69.1533C69.5733 42.416 71.1973 43.508 73.1573 43.508C74.9213 43.508 76.3213 42.556 76.3213 41.072C76.3213 39.448 75.3133 38.496 72.4573 37.824C68.5093 36.872 66.0173 35.5 66.0173 31.944C66.0173 28.388 69.2373 26.288 72.9333 26.288ZM96.5765 31.104V46H92.7125V43.48L91.5645 45.384C90.4725 46.112 89.4085 46.392 87.9805 46.392C84.9005 46.392 83.0525 44.656 82.7165 42.612C82.6045 41.856 82.5765 41.1 82.5765 39.896V31.104H86.4405V39.084C86.4405 39.56 86.4685 40.372 86.5525 41.128C86.7485 42.668 87.6445 43.648 89.4365 43.648C91.3685 43.648 92.7125 42.052 92.7125 38.692V31.104H96.5765ZM108.985 30.712C113.157 30.712 115.621 33.876 115.621 38.272C115.621 43.648 112.317 46.392 108.481 46.392C107.249 46.392 105.737 46.084 104.981 45.552L104.001 44.012V46H100.137V25.42H104.001V33.372L105.121 31.748C105.961 31.076 107.473 30.712 108.985 30.712ZM107.725 43.676C109.965 43.676 111.617 41.968 111.617 38.524C111.617 35.472 110.161 33.428 107.865 33.428C105.737 33.428 104.001 34.744 104.001 38.384V39.084C104.001 42.472 105.933 43.676 107.725 43.676ZM123.449 30.712C127.005 30.712 129.021 32.7 129.357 35.416H125.493C125.241 34.044 124.485 33.26 123.197 33.26C122.049 33.26 121.433 33.932 121.433 34.856C121.433 35.976 122.357 36.564 124.821 37.18C127.873 37.964 129.665 39.196 129.665 41.94C129.665 44.936 126.949 46.392 123.533 46.392C119.921 46.392 117.373 44.824 116.953 41.464H120.817C121.125 43.088 122.245 43.844 123.589 43.844C124.821 43.844 125.773 43.312 125.773 42.22C125.773 41.072 124.793 40.428 122.217 39.784C119.445 39.084 117.541 37.88 117.541 35.304C117.541 32.448 119.893 30.712 123.449 30.712ZM138.487 30.712C142.519 30.712 145.011 33.176 145.291 36.48H141.483C141.119 34.324 139.999 33.428 138.403 33.428C136.443 33.428 135.043 35.024 135.043 38.412C135.043 42.108 136.443 43.676 138.375 43.676C139.887 43.676 141.007 42.724 141.399 40.848H145.263C144.619 44.516 141.875 46.392 138.151 46.392C134.091 46.392 131.039 43.816 131.039 38.664C131.039 33.568 134.399 30.712 138.487 30.712ZM155.331 30.74C155.779 30.74 156.087 30.768 156.423 30.852V33.96C153.203 33.736 151.607 35.164 151.607 39.168V46H147.743V31.104H151.607V33.82L152.783 31.748C153.511 31.076 154.491 30.74 155.331 30.74ZM160.311 25.56C161.571 25.56 162.439 26.4 162.439 27.604C162.439 28.836 161.571 29.648 160.311 29.648C159.051 29.648 158.183 28.836 158.183 27.604C158.183 26.4 159.051 25.56 160.311 25.56ZM162.243 46H158.379V31.104H162.243V46ZM174.665 30.712C178.837 30.712 181.301 33.876 181.301 38.272C181.301 43.648 177.997 46.392 174.161 46.392C172.929 46.392 171.417 46.084 170.661 45.552L169.681 44.012V51.488H165.817V31.104H169.681V33.372L170.801 31.748C171.641 31.076 173.153 30.712 174.665 30.712ZM173.405 43.676C175.645 43.676 177.297 41.968 177.297 38.524C177.297 35.472 175.841 33.428 173.545 33.428C171.417 33.428 169.681 34.744 169.681 38.384V39.084C169.681 42.472 171.613 43.676 173.405 43.676ZM188.429 33.764V40.652C188.429 41.156 188.429 41.576 188.457 41.968C188.569 43.424 189.101 43.76 191.257 43.592V46.112C190.389 46.252 189.577 46.308 188.709 46.308C185.825 46.308 184.789 45.356 184.621 43.256C184.565 42.584 184.565 41.94 184.565 41.1V33.764H182.381V31.216H184.565V27.548H188.429V31.216H191.509V33.764H188.429ZM195.858 25.56C197.118 25.56 197.986 26.4 197.986 27.604C197.986 28.836 197.118 29.648 195.858 29.648C194.598 29.648 193.73 28.836 193.73 27.604C193.73 26.4 194.598 25.56 195.858 25.56ZM197.79 46H193.926V31.104H197.79V46ZM208.084 30.712C213.04 30.712 215.812 34.016 215.812 38.552C215.812 43.06 213.04 46.392 208.084 46.392C203.128 46.392 200.356 43.06 200.356 38.552C200.356 34.016 203.128 30.712 208.084 30.712ZM208.084 43.676C210.408 43.676 211.808 41.744 211.808 38.552C211.808 35.332 210.408 33.428 208.084 33.428C205.76 33.428 204.36 35.332 204.36 38.552C204.36 41.744 205.76 43.676 208.084 43.676ZM232.232 34.884C232.316 35.64 232.344 36.396 232.344 37.6V46H228.48V38.132C228.48 37.516 228.48 36.816 228.424 36.06C228.312 34.492 227.444 33.428 225.568 33.428C223.692 33.428 222.208 35.052 222.208 39.196V46H218.344V31.104H222.208V33.512L223.356 31.748C224.42 30.992 225.512 30.712 226.94 30.712C230.104 30.712 231.924 32.28 232.232 34.884Z" fill="black"/>
</svg>
