<svg width="178" height="55" viewBox="0 0 178 55" fill="none" xmlns="http://www.w3.org/2000/svg">
<path d="M28.3053 0C29.806 0 31.2961 0.122416 32.7769 0.366004C34.2577 0.610213 35.708 0.972488 37.1298 1.45407C38.5509 1.93566 39.923 2.52909 41.2472 3.23562C42.5714 3.94153 43.8291 4.75059 45.0203 5.6628C46.2115 6.57439 47.3213 7.57733 48.3479 8.67099C49.3763 9.76465 50.3072 10.9341 51.1429 12.1806C51.9793 13.4266 52.7082 14.7321 53.3303 16.0986C53.9523 17.4638 54.4593 18.8706 54.8508 20.3191L41.5778 23.9095C41.3833 23.185 41.1285 22.4816 40.8178 21.7987C40.5065 21.1157 40.1417 20.4633 39.7241 19.84C39.3059 19.2174 38.8405 18.6326 38.3266 18.0852C37.8133 17.5383 37.2584 17.0369 36.6625 16.5808C36.0666 16.1253 35.4377 15.7208 34.7759 15.3678C34.1141 15.0148 33.4275 14.7178 32.7172 14.4767C32.0064 14.2362 31.2812 14.0548 30.5411 13.9324C29.8004 13.8106 29.0553 13.7497 28.3047 13.7497L28.3053 0Z" fill="#0078FF"/>
<path d="M54.4605 19.002C54.9234 20.4293 55.2677 21.8846 55.4933 23.3679C55.7188 24.8512 55.822 26.3432 55.804 27.8432C55.7847 29.3439 55.6443 30.8328 55.3814 32.3098C55.1192 33.7869 54.7383 35.2335 54.2393 36.6478C53.7397 38.0634 53.1295 39.4286 52.4068 40.7434C51.6841 42.0583 50.8595 43.3061 49.9324 44.4855C49.0059 45.6649 47.9892 46.7629 46.8825 47.7764C45.7758 48.7899 44.5945 49.7065 43.3387 50.5274L35.8223 39.0128C36.4505 38.6033 37.0408 38.1454 37.5945 37.6377C38.1482 37.1313 38.6565 36.5832 39.1194 35.9922C39.583 35.4031 39.995 34.7793 40.3566 34.1212C40.7176 33.4638 41.0234 32.7808 41.2732 32.0737C41.5224 31.3659 41.7137 30.6426 41.8449 29.905C41.976 29.1662 42.0462 28.4224 42.0555 27.6711C42.0655 26.9211 42.0133 26.1748 41.9002 25.4334C41.7877 24.6915 41.6156 23.9638 41.3838 23.2505L54.4605 19.002Z" fill="#3393FF"/>
<path d="M44.4708 49.7476C43.2572 50.6293 41.979 51.4079 40.638 52.0797C39.2971 52.7526 37.9101 53.3113 36.4772 53.7587C35.0442 54.2036 33.5852 54.5298 32.0988 54.7368C30.6124 54.9443 29.1198 55.0288 27.6191 54.9909C26.1191 54.953 24.6321 54.7946 23.1581 54.5131C21.6841 54.2322 20.2431 53.8333 18.8344 53.3162C17.4257 52.7986 16.0686 52.171 14.7624 51.4322C13.4562 50.6939 12.219 49.8538 11.0508 48.9112L19.6789 38.2051C20.263 38.6755 20.8813 39.0955 21.5344 39.4653C22.1875 39.8344 22.8667 40.1488 23.5701 40.4073C24.2748 40.6658 24.995 40.8647 25.7319 41.0057C26.4689 41.1468 27.2127 41.2257 27.9628 41.245C28.7128 41.2636 29.4591 41.2213 30.2023 41.1176C30.9448 41.0144 31.675 40.8504 32.3915 40.6285C33.1073 40.4055 33.8008 40.1252 34.4719 39.789C35.1418 39.4522 35.7812 39.0632 36.3883 38.6233L44.4708 49.7476Z" fill="#59A7FF"/>
<path d="M12.1424 49.7478C10.9282 48.8661 9.79417 47.8911 8.73966 46.8235C7.68576 45.7554 6.72508 44.6095 5.85823 43.3847C4.99138 42.16 4.23017 40.873 3.57397 39.5234C2.9184 38.1737 2.37654 36.7799 1.94901 35.342C1.52087 33.9034 1.21266 32.4407 1.02437 30.9518C0.83609 29.4629 0.7696 27.9691 0.826147 26.4696C0.882695 24.9702 1.06041 23.4857 1.35993 22.0148C1.65944 20.5446 2.07578 19.1086 2.61018 17.7061L15.4588 22.6033C15.1916 23.3042 14.9835 24.0226 14.8337 24.7583C14.684 25.4928 14.5951 26.236 14.5671 26.9854C14.5392 27.7354 14.5721 28.4823 14.6666 29.2268C14.7604 29.9706 14.9145 30.7026 15.1289 31.4209C15.3433 32.1411 15.6136 32.8377 15.9417 33.5126C16.2698 34.1874 16.6501 34.8306 17.0838 35.4426C17.5169 36.0547 17.9979 36.6283 18.5248 37.1627C19.0524 37.6958 19.6191 38.1842 20.2262 38.6254L12.1424 49.7478Z" fill="#7FBBFF"/>
<path d="M2.15234 19.0017C2.59789 17.6297 3.14845 16.3005 3.80402 15.0149C4.4596 13.7292 5.21087 12.5025 6.05908 11.3356C6.90728 10.1686 7.84187 9.07428 8.86158 8.05457C9.88192 7.03423 10.9756 6.10027 12.1432 5.25144C13.3102 4.40385 14.5374 3.65258 15.8225 2.997C17.1082 2.34205 18.4367 1.79211 19.8094 1.34533C21.1814 0.899785 22.5802 0.56423 24.0051 0.338041C25.4299 0.113095 26.8641 0 28.3064 0L28.3051 13.7497C27.5837 13.7497 26.8666 13.8062 26.1545 13.9193C25.4424 14.0318 24.7427 14.2002 24.0566 14.4233C23.3706 14.6457 22.7063 14.921 22.0638 15.2485C21.4207 15.576 20.808 15.9525 20.2239 16.3763C19.641 16.8001 19.0941 17.2674 18.5834 17.777C18.0738 18.2871 17.6065 18.834 17.1821 19.4181C16.7583 20.0016 16.3824 20.6149 16.0549 21.2568C15.7274 21.8999 15.4521 22.5642 15.2297 23.2502L2.15234 19.0017Z" fill="#A6D0FF"/>
<path d="M71.5402 9.20703H68.5918V11.2497H71.1601V12.6937H68.5918V15.6756H66.8066V7.76306H71.5402V9.20703Z" fill="#59A7FF"/>
<path d="M72.6323 15.6756V9.72359H74.3138V15.6756H72.6323ZM72.782 8.70224C72.5901 8.50658 72.4941 8.27179 72.4941 7.99787C72.4941 7.72394 72.5901 7.48915 72.782 7.29349C72.974 7.09783 73.2043 7 73.473 7C73.7418 7 73.9721 7.09783 74.1641 7.29349C74.356 7.48915 74.452 7.72394 74.452 7.99787C74.452 8.27179 74.356 8.50658 74.1641 8.70224C73.9721 8.8979 73.7418 8.99573 73.473 8.99573C73.2043 8.99573 72.974 8.8979 72.782 8.70224Z" fill="#59A7FF"/>
<path d="M77.4393 9.72362V10.7332C77.5851 10.4045 77.8078 10.1462 78.1072 9.95841C78.4144 9.76275 78.7791 9.66492 79.2014 9.66492C79.8003 9.66492 80.2686 9.84884 80.6065 10.2166C80.9443 10.5767 81.1132 11.1089 81.1132 11.8132V15.6756H79.4317V12.1302C79.4317 11.778 79.3511 11.5119 79.1899 11.3319C79.0286 11.1441 78.8021 11.0502 78.5103 11.0502C78.2032 11.0502 77.946 11.1754 77.7387 11.4258C77.5391 11.6684 77.4393 12.0363 77.4393 12.5293V15.6756H75.7578V9.72362H77.4393Z" fill="#59A7FF"/>
<path d="M85.0191 15.7695C84.1054 15.7695 83.399 15.4916 82.9 14.936C82.4009 14.3725 82.1514 13.6524 82.1514 12.7759C82.1514 11.8602 82.4124 11.1089 82.9345 10.5219C83.4566 9.92704 84.1515 9.62964 85.0191 9.62964C85.9251 9.62964 86.6277 9.9153 87.1268 10.4867C87.6258 11.058 87.8754 11.7858 87.8754 12.6702C87.8754 13.5703 87.622 14.3138 87.1152 14.9007C86.6162 15.4799 85.9175 15.7695 85.0191 15.7695ZM85.0076 10.9797C84.6391 10.9797 84.3626 11.1402 84.1784 11.461C83.9941 11.7819 83.902 12.1967 83.902 12.7054C83.902 13.2142 83.9941 13.6329 84.1784 13.9616C84.3703 14.2825 84.6544 14.4429 85.0306 14.4429C85.3992 14.4429 85.6718 14.2864 85.8484 13.9733C86.0326 13.6524 86.1248 13.2376 86.1248 12.7289C86.1248 11.5628 85.7524 10.9797 85.0076 10.9797Z" fill="#59A7FF"/>
<path d="M89.0312 15.6755V7.37561H90.7128V15.6755H89.0312Z" fill="#59A7FF"/>
<path d="M94.736 15.7695C93.8223 15.7695 93.1159 15.4916 92.6168 14.936C92.1178 14.3725 91.8682 13.6524 91.8682 12.7759C91.8682 11.8602 92.1293 11.1089 92.6514 10.5219C93.1735 9.92704 93.8684 9.62964 94.736 9.62964C95.642 9.62964 96.3446 9.9153 96.8436 10.4867C97.3427 11.058 97.5922 11.7858 97.5922 12.6702C97.5922 13.5703 97.3389 14.3138 96.8321 14.9007C96.333 15.4799 95.6343 15.7695 94.736 15.7695ZM94.7245 10.9797C94.3559 10.9797 94.0795 11.1402 93.8952 11.461C93.711 11.7819 93.6188 12.1967 93.6188 12.7054C93.6188 13.2142 93.711 13.6329 93.8952 13.9616C94.0872 14.2825 94.3713 14.4429 94.7475 14.4429C95.1161 14.4429 95.3886 14.2864 95.5652 13.9733C95.7495 13.6524 95.8416 13.2376 95.8416 12.7289C95.8416 11.5628 95.4693 10.9797 94.7245 10.9797Z" fill="#59A7FF"/>
<path d="M101.282 14.1142C101.643 14.1142 101.924 13.9772 102.123 13.7033C102.33 13.4216 102.434 13.085 102.434 12.6937C102.434 11.6293 102.054 11.0971 101.294 11.0971C100.956 11.0971 100.691 11.2302 100.499 11.4963C100.307 11.7624 100.211 12.1302 100.211 12.5998C100.211 13.0928 100.303 13.4685 100.488 13.7268C100.672 13.9851 100.937 14.1142 101.282 14.1142ZM102.434 9.72362H104.104V15.1003C104.104 16.0551 103.824 16.7713 103.263 17.2487C102.703 17.7339 102 17.9765 101.156 17.9765C100.334 17.9765 99.6165 17.8278 99.0022 17.5304V15.7812C99.5397 16.2195 100.2 16.4386 100.983 16.4386C101.49 16.4386 101.858 16.3291 102.089 16.1099C102.319 15.8908 102.434 15.5464 102.434 15.0768V14.6777C102.096 15.2099 101.559 15.476 100.822 15.476C100.177 15.476 99.6203 15.2334 99.152 14.7481C98.6913 14.2629 98.4609 13.5429 98.4609 12.588C98.4609 11.7428 98.6836 11.0462 99.1289 10.4984C99.5819 9.94275 100.173 9.66492 100.902 9.66492C101.593 9.66492 102.104 9.94667 102.434 10.5101V9.72362Z" fill="#59A7FF"/>
<path d="M107.052 15.5816L104.795 9.72363H106.626L107.259 11.5784C107.421 12.0559 107.551 12.4667 107.651 12.8111C107.758 13.1555 107.824 13.3824 107.847 13.492L107.881 13.6563C107.966 13.3433 108.173 12.6507 108.503 11.5784L109.079 9.72363H110.807L108.699 15.4995C108.092 17.1665 107.167 18 105.923 18C105.685 18 105.47 17.9804 105.278 17.9413V16.5795C105.401 16.6108 105.532 16.6265 105.67 16.6265C106.307 16.6265 106.768 16.2782 107.052 15.5816Z" fill="#59A7FF"/>
<path d="M78.2307 41.8953V45.0297C77.8846 45.2728 77.5044 45.4614 77.089 45.5926C76.6726 45.7258 76.2825 45.8213 75.9171 45.8813C75.4904 45.9624 75.0646 46.004 74.6388 46.004C73.9486 46.004 73.3451 45.9322 72.8277 45.7902C72.3104 45.6486 71.8638 45.4614 71.4885 45.2262C71.1122 44.9926 70.8038 44.7237 70.5602 44.4207C70.3166 44.1153 70.1136 43.8019 69.9512 43.4781C69.5864 42.7458 69.3933 41.9047 69.3735 40.9511V30.9695H67V28.353C67.2837 28.3119 67.5778 28.246 67.8827 28.1549C68.1867 28.0633 68.5016 27.9168 68.8254 27.7133C69.3735 27.3687 69.8092 26.9528 70.1349 26.4652C70.4587 25.979 70.7078 25.5072 70.8795 25.0507C71.0523 24.5947 71.1632 24.1892 71.2147 23.8338C71.2647 23.4788 71.2905 23.251 71.2905 23.149H73.7857C73.806 23.9407 73.8169 24.7363 73.8169 25.5379C73.8169 26.3399 73.8268 27.136 73.8476 27.9272H78.0465V30.97H73.8778C73.9392 36.5091 73.9694 39.7659 73.9694 40.7382C73.9694 40.861 73.9902 41.0432 74.0303 41.2858C74.0709 41.5284 74.1932 41.7512 74.3962 41.9562C74.619 42.1978 74.9131 42.3408 75.2789 42.3814C75.6438 42.422 76.0137 42.422 76.3894 42.3814C76.7647 42.3408 77.1202 42.2651 77.4554 42.1532C77.7886 42.0428 78.047 41.9562 78.2307 41.8953Z" fill="black"/>
<path d="M86.0809 20.2572H80.877V24.2744H86.0809V20.2572Z" fill="#0078FF"/>
<path d="M85.6862 27.8351H81.2734V45.7604H85.6862V27.8351Z" fill="black"/>
<path d="M98.012 42.5944C99.2904 42.5944 100.326 42.1939 101.117 41.3923C101.908 40.5918 102.434 39.5823 102.698 38.3648L106.289 38.7599C106.107 39.7947 105.797 40.7541 105.361 41.6354C104.924 42.5187 104.345 43.2796 103.626 43.9183C102.906 44.557 102.053 45.0595 101.07 45.4249C100.086 45.7892 98.9557 45.9719 97.6769 45.9719C96.3579 45.9719 95.1554 45.7378 94.0681 45.2729C92.9829 44.806 92.0442 44.1569 91.258 43.3232C90.4723 42.4914 89.8584 41.5141 89.4192 40.3858C88.9781 39.26 88.7607 38.0381 88.7607 36.7191C88.7607 35.4408 88.9781 34.2338 89.4192 33.0975C89.8584 31.9618 90.4762 30.9775 91.2719 30.1458C92.068 29.3145 93.0121 28.6551 94.0973 28.1679C95.1851 27.6812 96.3768 27.4376 97.6764 27.4376C98.873 27.4376 99.9637 27.6302 100.946 28.0154C101.93 28.4016 102.792 28.9338 103.534 29.6136C104.276 30.2933 104.885 31.0944 105.36 32.0172C105.837 32.9406 106.155 33.9397 106.32 35.0145L102.76 35.3497C102.558 33.9902 102.049 32.895 101.239 32.0623C100.427 31.231 99.3508 30.8147 98.0111 30.8147C97.1783 30.8147 96.4599 30.9617 95.8525 31.2563C95.244 31.5499 94.7286 31.9613 94.3157 32.4886C93.8998 33.0163 93.5899 33.6352 93.3874 34.3447C93.1849 35.0561 93.0834 35.8364 93.0834 36.6884C93.0834 37.5207 93.1958 38.2965 93.4191 39.0164C93.6414 39.7377 93.9661 40.36 94.3929 40.8878C94.8182 41.4151 95.3356 41.8315 95.9455 42.1359C96.5515 42.4429 97.2402 42.5944 98.012 42.5944Z" fill="black"/>
<path d="M115.936 38.1217L113.563 40.5863V45.7605H109.09V21.5663H113.563V35.7477L120.835 27.6832H125.949L118.645 35.6873L126.434 45.7605H121.323L115.936 38.1217Z" fill="black"/>
<path d="M144.269 36.7522C144.269 36.9146 144.269 37.0666 144.269 37.2082C144.269 37.3498 144.259 37.4924 144.238 37.634H130.968C131.13 39.095 131.628 40.2619 132.46 41.1338C133.293 42.0066 134.438 42.4428 135.899 42.4428C137.056 42.4428 137.978 42.1849 138.669 41.668C139.36 41.1511 139.905 40.4035 140.311 39.4307L143.81 39.9164C143.567 40.8293 143.202 41.6566 142.715 42.3968C142.229 43.1379 141.63 43.7771 140.919 44.3138C140.208 44.8524 139.387 45.2683 138.454 45.5619C137.521 45.8555 136.496 46.004 135.38 46.004C134.162 46.004 133.017 45.7951 131.942 45.3797C130.866 44.9633 129.933 44.3588 129.142 43.5692C128.35 42.777 127.723 41.8091 127.254 40.6625C126.789 39.5168 126.556 38.2123 126.556 36.7522C126.556 35.3724 126.783 34.1099 127.24 32.9628C127.697 31.8171 128.33 30.8378 129.142 30.0264C129.953 29.2149 130.904 28.5862 131.988 28.1391C133.072 27.693 134.246 27.4702 135.503 27.4702C136.963 27.4702 138.242 27.7128 139.338 28.2C140.435 28.6867 141.347 29.3461 142.076 30.1779C142.808 31.0106 143.355 31.9884 143.719 33.1153C144.087 34.2411 144.269 35.4536 144.269 36.7522ZM140.284 34.8951C140.06 33.6782 139.563 32.6687 138.791 31.8676C138.021 31.0661 136.986 30.6651 135.687 30.6651C134.348 30.6651 133.298 31.0666 132.538 31.8676C131.777 32.6692 131.285 33.6782 131.062 34.8951H140.284Z" fill="black"/>
<path d="M158.968 31.0001C158.847 30.9798 158.604 30.9595 158.237 30.9392C157.872 30.9189 157.446 30.9446 156.96 31.0154C156.472 31.0862 155.944 31.2333 155.377 31.4561C154.809 31.6799 154.261 32.0145 153.734 32.4611C153.249 32.8869 152.878 33.3231 152.623 33.7696C152.368 34.2162 152.181 34.591 152.06 34.8955V45.7603H147.556V27.683H151.908V31.3041C152.009 31.0199 152.221 30.5991 152.546 30.0411C152.87 29.4836 153.369 28.9603 154.037 28.4736C154.565 28.0885 155.098 27.8241 155.636 27.6825C156.173 27.5404 156.671 27.4646 157.127 27.4542C157.584 27.4443 157.974 27.4696 158.299 27.53C158.623 27.5909 158.847 27.632 158.969 27.6518L158.968 31.0001Z" fill="black"/>
</svg>
