<svg width="38" height="27" viewBox="0 0 38 27" fill="none" xmlns="http://www.w3.org/2000/svg">
<g clip-path="url(#clip0_431_147)">
<path d="M36.9203 4.14792C36.4865 2.51512 35.2087 1.2292 33.587 0.792465C30.6461 1.19209e-07 18.8542 0 18.8542 0C18.8542 0 7.06222 1.19209e-07 4.12141 0.792465C2.49965 1.2292 1.22184 2.51512 0.788046 4.14792C0 7.10788 0 13.2834 0 13.2834C0 13.2834 0 19.4588 0.788046 22.4188C1.22184 24.0516 2.49965 25.3375 4.12141 25.7743C7.06222 26.5667 18.8542 26.5667 18.8542 26.5667C18.8542 26.5667 30.6461 26.5667 33.587 25.7743C35.2087 25.3375 36.4865 24.0516 36.9203 22.4188C37.7084 19.4588 37.7084 13.2834 37.7084 13.2834C37.7084 13.2834 37.7084 7.10788 36.9203 4.14792ZM14.9979 18.8903V7.67645L24.8529 13.2834L14.9979 18.8903Z" fill="white"/>
</g>
<defs>
<clipPath id="clip0_431_147">
<rect width="38" height="27" fill="white"/>
</clipPath>
</defs>
</svg>
