<?xml version="1.0" encoding="utf-8"?>
<!-- Generator: Adobe Illustrator 25.0.1, SVG Export Plug-In . SVG Version: 6.00 Build 0)  -->
<svg version="1.1" id="Layer_1" xmlns="http://www.w3.org/2000/svg" xmlns:xlink="http://www.w3.org/1999/xlink" x="0px" y="0px"
	 viewBox="0 0 1500 1500" style="enable-background:new 0 0 1500 1500;" xml:space="preserve">
<style type="text/css">
	.st0{fill:#606161;}
	.st1{opacity:0.28;fill:#4EB448;}
	.st2{opacity:0.76;fill:#FFFFFF;}
	.st3{opacity:0.28;}
	.st4{fill:#4EB448;}
	.st5{opacity:0.86;fill:#4D4D4E;}
	.st6{font-family:'MyriadPro-Regular';}
	.st7{font-size:132.1983px;}
	.st8{font-family:'Arial-BoldMT';}
	.st9{font-size:73.0241px;}
	.st10{opacity:0.86;}
	.st11{fill:#4D4D4E;}
	.st12{font-size:86.4772px;}
	.st13{opacity:0.71;}
	.st14{font-size:103.1731px;}
	.st15{fill:#F9DCA0;}
	.st16{fill:#263238;}
	.st17{fill:#EBCB9B;}
	.st18{opacity:0.4;fill:none;stroke:#245F2F;stroke-width:9;stroke-miterlimit:10;}
	.st19{fill:#245F2F;}
	.st20{fill:#5274B8;}
	.st21{fill:#F5877E;}
	.st22{opacity:0.4;fill:#4EB448;}
	.st23{opacity:0.2;}
	.st24{opacity:0.3;}
	.st25{opacity:0.4;fill:#FFFFFF;}
	.st26{opacity:0.4;fill:#245F2F;}
	.st27{fill:#FFFFFF;}
</style>
<rect x="255" y="232" class="st0" width="457" height="98"/>
<path class="st1" d="M-3.98,728.31C3.34,339.91,472-37.6,830.99,37.36c229.74,47.97,316.53,271.79,348.6,488.46
	c17.58,118.74-8.35,371.57-131.51,442.54c-39.09,22.53-73.06,29.22-73.06,29.22c-77.08,12.3-115.34-35.83-173.26-31.31
	c-60.83,4.75-76.73,18.43-110.63,68.89c-131.82,196.17-33.4,377.83-175.35,440.45c-96.01,42.36-277.96-171.25-300.59-198.31
	C152.43,1202.26-8.16,949.58-3.98,728.31z"/>
<path class="st1" d="M1397.56,946.14c-194.84,364.53-777.35,517.21-1046.74,289.41c-172.4-145.78-137.64-395.61-59.76-614.76
	c42.68-120.1,187.53-348.14,326.9-361.54c44.24-4.25,76.42,4.25,76.42,4.25c71.63,22.03,80.85,84.32,132.38,105.34
	c54.12,22.08,74.3,16.07,127.69-16.89c207.54-128.14,211.91-343.13,363.23-340.41c102.35,1.84,153.62,283.57,159.75,319.07
	C1494.46,429.08,1508.56,738.47,1397.56,946.14z"/>
<rect x="253" y="330" class="st2" width="906" height="118"/>
<g class="st3">
	<rect x="272.57" y="496.78" class="st4" width="157.58" height="95.67"/>
	<rect x="514.56" y="496.78" class="st4" width="157.58" height="95.67"/>
	<rect x="756.56" y="496.78" class="st4" width="157.58" height="95.67"/>
	<rect x="998.55" y="496.78" class="st4" width="157.58" height="95.67"/>
	<rect x="272.57" y="674.06" class="st4" width="157.58" height="95.67"/>
	<rect x="514.56" y="674.06" class="st4" width="157.58" height="95.67"/>
	<rect x="756.56" y="674.06" class="st4" width="157.58" height="95.67"/>
	<rect x="998.55" y="674.06" class="st4" width="157.58" height="95.67"/>
	<rect x="272.57" y="851.33" class="st4" width="157.58" height="95.67"/>
	<rect x="514.56" y="851.33" class="st4" width="157.58" height="95.67"/>
	<rect x="756.56" y="851.33" class="st4" width="157.58" height="95.67"/>
	<rect x="998.55" y="851.33" class="st4" width="157.58" height="95.67"/>
</g>
<text transform="matrix(1 0 0 1 1036.1494 936.9165)" class="st5 st6 st7">=</text>
<text transform="matrix(1 0 0 1 1066.1465 564.7759)" class="st5 st8 st9">/</text>
<g class="st10">
	<text transform="matrix(1 0 0 1 327.6387 749.3066)" class="st11 st6 st12">1</text>
</g>
<g class="st10">
	<text transform="matrix(1 0 0 1 802.6387 573.3066)" class="st11 st6 st12">%</text>
</g>
<g class="st10">
	<text transform="matrix(1 0 0 1 327.6387 573.3066)" class="st11 st6 st12">X</text>
</g>
<g class="st10">
	<text transform="matrix(1 0 0 1 327.6387 930.3066)" class="st11 st6 st12">5</text>
</g>
<g class="st10">
	<text transform="matrix(1 0 0 1 571.6387 930.3066)" class="st11 st6 st12">6</text>
</g>
<g class="st10">
	<text transform="matrix(1 0 0 1 572.6387 749.3066)" class="st11 st6 st12">2</text>
</g>
<g class="st10">
	<text transform="matrix(1 0 0 1 1051.6387 744.3066)" class="st11 st6 st12">+</text>
</g>
<g class="st10">
	<text transform="matrix(1 0 0 1 813.6387 750.3066)" class="st11 st6 st12">3</text>
</g>
<g class="st13">
	<text transform="matrix(1 0 0 1 808.6387 423.3066)" class="st11 st6 st14">16.08%</text>
</g>
<g class="st10">
	<text transform="matrix(1 0 0 1 589.6387 548.3066)" class="st11 st6 st12">.</text>
</g>
<g class="st10">
	<text transform="matrix(1 0 0 1 811.6387 927.3066)" class="st11 st6 st12">4</text>
</g>
<path class="st15" d="M207.09,610.36c-6.76,12.54-13.73,26.09-20.08,39.33c-6.49,13.3-12.48,26.77-17.75,40.28
	c-1.37,3.37-2.51,6.76-3.78,10.14c-0.68,1.59-1.09,3.36-1.29,5.48c-0.36,4.23,0.72,9.79,2.88,15.59
	c4.42,11.58,12.7,24.16,21.26,35.12l-12.81,15.19c-3.87-2.45-7.01-4.79-10.32-7.43c-3.25-2.6-6.45-5.32-9.45-8.3
	c-6.06-5.91-11.7-12.54-16.5-20.39c-4.74-7.85-8.78-17.13-9.85-28.28c-0.55-5.54-0.12-11.49,1.36-17.27
	c1.08-3.92,2.06-7.91,3.25-11.77c4.65-15.53,10.29-30.51,16.68-45.06c3.23-7.26,6.53-14.47,10.18-21.52
	c3.67-7.12,7.17-13.95,11.51-21.17L207.09,610.36z"/>
<path class="st15" d="M183.1,751.92l18.92,4.95l-13.97,27.2c0,0-13.99-5.31-17.48-17.64L183.1,751.92z"/>
<polygon class="st15" points="227.94,765.47 211.11,786.79 188.04,784.06 202.02,756.87 "/>
<path class="st16" d="M295.81,466.88c0.43,2.09,1.88,3.56,3.25,3.28c1.37-0.28,2.13-2.2,1.71-4.29c-0.43-2.09-1.88-3.56-3.25-3.28
	C296.14,462.86,295.38,464.78,295.81,466.88z"/>
<path class="st17" d="M297.49,470.48c0,0,7.21,11.1,13.63,15.86c-3,4.21-9.61,3.91-9.61,3.91L297.49,470.48z"/>
<path class="st16" d="M300.33,484.7c-6.12,0-12.21-6.7-14.08-15.89c-0.98-4.82-0.67-9.6,0.87-13.48c1.57-3.94,4.22-6.48,7.48-7.14
	c3.26-0.66,6.69,0.64,9.67,3.65c2.93,2.96,5.08,7.25,6.06,12.07c0.98,4.82,0.67,9.6-0.87,13.48c-1.57,3.94-4.22,6.48-7.48,7.14
	C301.43,484.65,300.88,484.7,300.33,484.7z M296.26,448.98c-0.5,0-1,0.05-1.48,0.15c-2.93,0.6-5.34,2.93-6.79,6.56
	c-1.47,3.71-1.76,8.3-0.82,12.94c1.93,9.51,8.46,16.26,14.62,14.99c2.93-0.6,5.34-2.93,6.79-6.56c1.47-3.71,1.76-8.3,0.82-12.94
	c-0.94-4.64-3.01-8.76-5.81-11.6C301.3,450.2,298.74,448.98,296.26,448.98z"/>
<path class="st15" d="M494.07,683.7l24.12-5.11l3.12,32.74c0,0-20.83,3.98-30.82-12.5L494.07,683.7z"/>
<polygon class="st15" points="541,685.93 539.46,709.8 521.32,711.33 518.2,678.59 "/>
<path class="st16" d="M285.79,456.82c-0.3,0-0.61-0.11-0.85-0.33c-0.51-0.47-0.54-1.26-0.07-1.77c4.71-5.09,10.42-4.19,10.66-4.15
	c0.68,0.12,1.14,0.76,1.03,1.45c-0.12,0.68-0.77,1.14-1.44,1.03l0,0c-0.19-0.03-4.65-0.69-8.41,3.38
	C286.46,456.68,286.13,456.82,285.79,456.82z"/>
<path class="st18" d="M1150.28,1104H270.72c-10.61,0-19.22-8.6-19.22-19.22V246.72c0-10.61,8.6-19.22,19.22-19.22h879.56
	c10.61,0,19.22,8.6,19.22,19.22v838.06C1169.5,1095.4,1160.9,1104,1150.28,1104z"/>
<path class="st15" d="M237.72,504.94c3.8,19.36,6.09,46.18-7.46,59.1c0,0,5.29,19.64,41.26,19.64c39.55,0,19.03-17.23,19.03-17.23
	c-16.44-5.1-16.3-23.83-12.54-38.87L237.72,504.94z"/>
<path class="st16" d="M278.34,559.33c8.88-6.37,22.04-13.9,24.77-6.06c1.65,4.73,2.32,27.69-6.82,25.98
	C282.79,576.72,278.34,559.33,278.34,559.33z"/>
<path class="st19" d="M222.86,576.99c-3.52-4.99-3.38-20.75,0.38-23.53c6.07-4.49,32.04-5.52,67.03,2.52
	c-3.77,15.27,4.3,23.27,4.3,23.27L222.86,576.99z"/>
<path class="st20" d="M105.28,1470.13c2.65,0.57,5.31,0.73,6.59-0.36c0.54-0.46,1.08-1.33,0.61-2.91c-0.25-0.83-0.79-1.45-1.61-1.84
	c-3.57-1.71-11.78,1.64-12.13,1.78c-0.23,0.09-0.38,0.31-0.39,0.56c-0.01,0.25,0.13,0.48,0.35,0.58
	C99.95,1468.55,102.61,1469.56,105.28,1470.13z M109.58,1465.91c0.27,0.06,0.52,0.14,0.74,0.24c0.5,0.24,0.81,0.59,0.95,1.07
	c0.34,1.13-0.08,1.48-0.22,1.6c-1.42,1.21-6.71,0.09-10.43-1.4C103.14,1466.53,107.23,1465.4,109.58,1465.91z"/>
<path class="st20" d="M98.83,1467.99c0.1,0.02,0.21,0.02,0.31-0.01c2.99-0.87,9.39-5.42,9.47-8.42c0.01-0.54-0.18-1.53-1.6-2.03
	c-0.93-0.32-1.86-0.25-2.78,0.22c-3.54,1.81-5.77,9.13-5.86,9.45c-0.07,0.22-0.01,0.46,0.16,0.62
	C98.61,1467.91,98.71,1467.97,98.83,1467.99z M106.32,1458.64c0.09,0.02,0.18,0.05,0.28,0.08c0.77,0.27,0.76,0.65,0.76,0.81
	c-0.04,1.77-4.27,5.34-7.37,6.79c0.77-2.12,2.54-6.29,4.81-7.44C105.31,1458.61,105.82,1458.53,106.32,1458.64z"/>
<path class="st20" d="M300.65,1474.57c3.4,0,6.68-0.47,7.78-1.99c0.39-0.53,0.69-1.44-0.05-2.74c-0.41-0.73-1.08-1.22-1.99-1.47
	c-4.4-1.2-13.65,4.07-14.04,4.3c-0.22,0.13-0.35,0.39-0.31,0.64s0.24,0.46,0.5,0.51C294.22,1474.17,297.48,1474.57,300.65,1474.57z
	 M304.84,1469.44c0.44,0,0.85,0.05,1.21,0.14c0.58,0.16,0.98,0.44,1.23,0.88c0.44,0.78,0.28,1.16,0.12,1.39
	c-1.23,1.71-7.92,1.75-12.84,1.05C297.02,1471.64,301.75,1469.44,304.84,1469.44z"/>
<path class="st20" d="M292.65,1473.84c0.09,0,0.17-0.02,0.26-0.06c3.19-1.43,9.52-7.16,9.04-10.15c-0.11-0.7-0.61-1.58-2.33-1.75
	c-1.29-0.13-2.45,0.23-3.48,1.07c-3.37,2.76-4.08,9.89-4.11,10.19c-0.02,0.22,0.08,0.44,0.26,0.57
	C292.4,1473.8,292.52,1473.84,292.65,1473.84z M299.11,1463.12c0.12,0,0.25,0.01,0.38,0.02c1.13,0.11,1.2,0.56,1.22,0.7
	c0.29,1.8-4.01,6.29-7.27,8.25c0.34-2.08,1.28-6.35,3.49-8.16C297.6,1463.38,298.31,1463.12,299.11,1463.12z"/>
<polygon class="st21" points="263.55,1473.22 290.02,1473.22 292.65,1411.94 266.19,1411.94 "/>
<polygon class="st21" points="69.33,1460.97 95.2,1466.57 121.16,1409.49 95.3,1403.89 "/>
<path class="st16" d="M97.68,1463.97l-29.06-6.29c-1.06-0.23-2.13,0.31-2.58,1.29l-10.09,21.88c-1.05,2.27,0.34,4.93,2.79,5.42
	c10.18,2.02,15.24,2.49,28.02,5.26c7.86,1.7,25.61,6.03,36.46,8.38c10.62,2.3,14.6-8.08,10.36-10.01
	c-18.98-8.67-26.92-16.31-32.05-23.43C100.61,1465.18,99.23,1464.3,97.68,1463.97z"/>
<path class="st16" d="M289.84,1470.15h-28.9c-1.08,0-2.02,0.75-2.25,1.81l-5.23,23.52c-0.54,2.44,1.31,4.75,3.81,4.71
	c10.42-0.18,25.49-0.79,38.59-0.79c15.32,0,28.55,0.84,46.52,0.84c10.86,0,13.88-10.98,9.33-11.98c-20.7-4.53-37.6-5.01-55.49-16.04
	C294.27,1471.01,292.13,1470.15,289.84,1470.15z"/>
<g>
	<path class="st4" d="M182.88,570.02c-24.8,5.69-45.25,69-45.25,69l49.8,37.96c0,0,18.28-17.23,26.42-48.91
		C222.38,594.9,208.24,564.21,182.88,570.02z"/>
	<path class="st22" d="M182.88,570.02c-24.8,5.69-45.25,69-45.25,69l49.8,37.96c0,0,18.28-17.23,26.42-48.91
		C222.38,594.9,208.24,564.21,182.88,570.02z"/>
</g>
<path class="st15" d="M331.6,600.23l41.79,38.45c6.95,6.41,13.93,12.74,20.92,18.98c6.93,6.24,14.01,12.5,20.72,17.93l-5.82-3.12
	c3.24,1.18,6.63,2.35,10.19,3.3c3.57,0.92,7.28,1.74,11.06,2.5c7.6,1.37,15.54,2.38,23.63,3.03c8.1,0.69,16.35,1.12,24.69,1.36
	c8.28,0.3,16.93,0.41,25.07,0.47l3.95,19.47c-8.86,3.3-17.4,5.68-26.34,7.68c-8.89,1.92-17.93,3.3-27.14,4.15
	c-9.21,0.76-18.6,1.02-28.19,0.38c-9.6-0.57-19.42-2.11-29.44-5.05l-2.85-0.84l-2.97-2.29c-8.26-6.36-15.59-12.58-22.98-18.9
	c-7.32-6.35-14.53-12.73-21.68-19.14c-14.2-12.96-28.31-25.82-42.14-39.18L331.6,600.23z"/>
<path class="st23" d="M204.14,616.59c-13.47,13.33-17.87,37.61-18.91,58.71l2.2,1.69c0,0,18.3-17.25,26.44-48.92
	c0.5-1.98,0.94-3.96,1.3-5.91L204.14,616.59z"/>
<g>
	<path class="st4" d="M339.61,596.56c5.41,28.59,8.79,87.29-6.91,203.55H191.16c-0.98-21.73,12.68-127.71-8.28-230.08
		c0,0,24.26-4.87,47.38-5.98c18.09-0.87,44.27-1.45,60.17,0c6.64,0.61,13.15,1.56,18.95,2.59
		C324.69,569.34,336.72,581.29,339.61,596.56z"/>
	<path class="st22" d="M339.61,596.56c5.41,28.59,8.79,87.29-6.91,203.55H191.16c-0.98-21.73,12.68-127.71-8.28-230.08
		c0,0,24.26-4.87,47.38-5.98c18.09-0.87,44.27-1.45,60.17,0c6.64,0.61,13.15,1.56,18.95,2.59
		C324.69,569.34,336.72,581.29,339.61,596.56z"/>
</g>
<path class="st23" d="M317.95,638.81l25.57-6.12c0.79,15.49,0.86,34.69-0.29,58.43C331.46,677.71,316.44,656.82,317.95,638.81z"/>
<g>
	<polygon class="st23" points="292.65,1411.95 291.29,1443.54 264.82,1443.54 266.17,1411.95 	"/>
	<polygon class="st23" points="95.29,1403.9 121.16,1409.5 107.76,1438.92 81.89,1433.32 	"/>
</g>
<path class="st15" d="M225.14,476.62c6.8,25.37,9.49,40.56,25.14,51.11c23.55,15.87,52.86-2.34,53.78-29.23
	c0.83-24.2-10.43-61.62-37.65-66.73C239.59,426.73,218.34,451.25,225.14,476.62z"/>
<path class="st16" d="M282.69,478.55c11.87-1.67,8.48-15.42,4.02-22.13c0,0,26.52-31.79-4.02-44.65
	c-30.54-12.85-23.01,7.21-23.01,7.21s-23.82-17.87-44.51-3.45c-20.7,14.42-2.83,20.69-2.83,20.69s-37.69,11.08-22.61,30.15
	c15.08,19.07,30.58,17.12,30.58,17.12s-31.18,12.3-7.35,26.09c23.83,13.79,32.56,14.43,32.56,14.43l0,0
	c13.06,1.62,25.4-6.41,29.19-19.01L282.69,478.55z"/>
<path class="st17" d="M272.47,478.64c0.41,6.87,3.6,13.33,7.43,17.55c5.77,6.36,11.79,2.4,12.81-5.34
	c0.92-6.97-0.97-18.67-8.03-22.18C277.74,465.22,272,470.79,272.47,478.64z"/>
<path class="st16" d="M282.49,800.11c0,0-30.03,202.23-46.52,277.99c-18.05,82.96-114.86,357.46-114.86,357.46l-47.37-10.26
	c0,0,67.69-223.69,82.85-339.68c11.64-89.09,34.57-285.51,34.57-285.51H282.49z"/>
<path class="st4" d="M132.45,1419.74c0.2,0.04-8.83,17.13-8.83,17.13l-53.3-11.54l4.49-16.02L132.45,1419.74z"/>
<path class="st24" d="M263.51,872.16c-34.72,6.81-31.05,136.3-26.87,202.9c10.01-47.08,24.67-137.67,34.69-201.97
	C269.02,871.95,266.43,871.59,263.51,872.16z"/>
<path class="st16" d="M332.7,800.11c0,0,3.64,197.85,0.77,278.55c-2.99,83.94-32.31,358.77-32.31,358.77h-44.83
	c0,0-1.65-269.93-3.64-352.36c-2.17-89.87-13.02-284.95-13.02-284.95H332.7z"/>
<path class="st4" d="M309.78,1419.57c0.21,0-2.53,18.61-2.53,18.61h-54.53l-1.47-16.61L309.78,1419.57z"/>
<g>
	<path class="st4" d="M284.14,605.24c-12.69,34.2,61.86,74.47,61.86,74.47l32.27-41.49c0,0-21.53-42.85-47.95-62.17
		C297.68,552.19,293.8,579.21,284.14,605.24z"/>
	<path class="st22" d="M284.14,605.24c-12.69,34.2,61.86,74.47,61.86,74.47l32.27-41.49c0,0-21.53-42.85-47.95-62.17
		C297.68,552.19,293.8,579.21,284.14,605.24z"/>
</g>
<ellipse class="st16" cx="498.31" cy="687.08" rx="9.25" ry="6.95"/>
<path class="st16" d="M494.71,709.19c-0.54,0-1.07-0.23-1.44-0.67c-0.67-0.79-0.57-1.97,0.22-2.64c0.24-0.21,5.05-4.61,2.98-14.81
	c-0.21-1.02,0.45-2.01,1.47-2.22c1.03-0.19,2.01,0.45,2.22,1.47c2.54,12.55-3.96,18.19-4.24,18.43
	C495.57,709.04,495.14,709.19,494.71,709.19z"/>
<path class="st25" d="M505.83,686.58c0,2.84-3.37,5.15-7.52,5.15c-4.15,0-7.52-2.31-7.52-5.15s3.37-5.15,7.52-5.15
	C502.46,681.43,505.83,683.74,505.83,686.58z"/>
<path class="st26" d="M295.82,564.34c-17.33,12.37-47.31,60.2-52.84,88.44c-0.16,0.84-1.26,1.04-1.72,0.31
	c-25.06-39.96-27.95-80.88-28.26-87.54c-0.02-0.53-0.47-0.91-0.99-0.86c-2.56,0.21-9.55,0.83-12.59,1.55
	c-0.43,0.1-0.71,0.52-0.69,0.96c2.25,53.36,29.11,94.17,39.57,106.71c0.15,0.18,0.21,0.38,0.2,0.61
	c-2.32,42.34,0.75,117.98,1.13,126.99c0.02,0.5,0.43,0.88,0.93,0.88h11.23c0.54,0,0.96-0.43,0.93-0.96
	c-0.5-8.68-4.03-74.4,0.05-128.3c0-0.04,0.01-0.07,0.01-0.1c6.34-40.11,44.38-94.31,57.73-105.06c0.61-0.49,0.37-1.44-0.39-1.61
	c-5.65-1.24-12.14-2.01-13.68-2.19C296.22,564.15,296.02,564.21,295.82,564.34z"/>
<g>
	<rect x="290" y="239" class="st27" width="11" height="86"/>
	<rect x="317" y="239" class="st27" width="11" height="86"/>
</g>
<g>
	<rect x="377.75" y="239" class="st27" width="11" height="86"/>
	<rect x="404.75" y="239" class="st27" width="11" height="86"/>
</g>
<g>
	<rect x="465.5" y="239" class="st27" width="11" height="86"/>
	<rect x="492.5" y="239" class="st27" width="11" height="86"/>
</g>
<g>
	<rect x="553.25" y="239" class="st27" width="11" height="86"/>
	<rect x="580.25" y="239" class="st27" width="11" height="86"/>
</g>
<g>
	<rect x="641" y="239" class="st27" width="11" height="86"/>
	<rect x="668" y="239" class="st27" width="11" height="86"/>
</g>
</svg>
