<?xml version="1.0" standalone="no"?>
<!DOCTYPE svg PUBLIC "-//W3C//DTD SVG 20010904//EN"
 "http://www.w3.org/TR/2001/REC-SVG-20010904/DTD/svg10.dtd">
<svg version="1.0" xmlns="http://www.w3.org/2000/svg"
 width="700.000000pt" height="700.000000pt" viewBox="0 0 700.000000 700.000000"
 preserveAspectRatio="xMidYMid meet">
<metadata>
Created by potrace 1.14, written by Peter Selinger 2001-2017
</metadata>
<g transform="translate(0.000000,700.000000) scale(0.100000,-0.100000)"
fill="#000000" stroke="none">
<path d="M3437 6884 c-1 -1 -56 -5 -122 -8 -66 -4 -133 -8 -150 -10 -61 -7
-170 -20 -175 -21 -3 -1 -27 -5 -55 -9 -72 -12 -258 -53 -318 -71 -29 -8 -53
-15 -54 -15 -2 -1 -8 -2 -15 -5 -7 -2 -35 -10 -63 -18 -130 -38 -405 -150
-520 -213 -257 -139 -342 -193 -522 -330 -195 -150 -419 -367 -570 -553 -181
-224 -377 -552 -483 -806 -23 -55 -48 -113 -55 -130 -22 -49 -94 -276 -110
-345 -2 -8 -9 -37 -15 -65 -6 -27 -13 -59 -16 -70 -17 -86 -24 -125 -29 -155
-3 -19 -7 -46 -10 -60 -8 -45 -23 -174 -31 -270 -7 -91 -7 -344 1 -442 12
-157 32 -335 40 -348 1 -3 6 -27 9 -54 11 -76 80 -337 126 -475 161 -480 442
-934 795 -1286 329 -329 650 -549 1074 -735 188 -82 542 -189 716 -216 17 -3
53 -9 80 -14 141 -25 365 -43 535 -43 100 0 304 10 352 18 13 2 61 8 108 15
365 50 730 164 1065 332 332 167 593 355 855 618 232 231 374 413 536 685 51
85 174 325 174 339 0 3 13 33 29 68 80 176 189 552 217 753 3 17 9 59 14 95
21 144 31 278 32 435 1 107 -9 324 -17 364 -2 11 -7 51 -10 88 -4 37 -9 77
-12 88 -2 11 -8 45 -13 75 -22 142 -79 365 -131 510 -179 502 -440 920 -799
1280 -74 74 -151 149 -170 165 -135 115 -256 206 -370 279 -41 26 -87 57 -102
67 -15 11 -38 24 -50 29 -13 6 -39 20 -58 31 -55 33 -216 113 -315 157 -199
87 -419 156 -641 201 -153 31 -180 35 -274 46 -30 4 -66 9 -80 11 -41 6 -397
23 -403 18z m313 -1714 c391 -66 704 -228 967 -501 90 -92 106 -113 182 -224
69 -101 144 -241 180 -336 17 -44 51 -160 81 -279 24 -95 34 -411 18 -542 -31
-237 -127 -504 -255 -702 -206 -321 -540 -583 -883 -694 -70 -23 -213 -58
-270 -66 -19 -2 -57 -8 -83 -12 -110 -15 -284 -11 -452 11 -120 16 -310 74
-444 137 -85 39 -254 138 -271 159 -3 3 -27 23 -55 43 -27 21 -84 70 -125 110
-131 126 -162 164 -300 376 -24 37 -95 186 -124 262 -108 278 -132 597 -72
933 19 103 90 310 145 417 193 381 519 673 917 823 76 28 194 62 249 71 22 3
43 8 46 10 3 1 34 6 70 10 35 3 66 8 69 11 8 8 345 -6 410 -17z"/>
</g>
</svg>
